<svg xmlns="http://www.w3.org/2000/svg" viewBox="0 0 100 100"><defs><radialGradient id="ca" cx="50%" cy="40%"><stop offset="0%" stop-color="#43a047"/><stop offset="100%" stop-color="#1b5e20"/></radialGradient></defs><circle cx="50" cy="50" r="48" fill="url(#ca)" stroke="#fff" stroke-width="3"/><path d="M50 32 Q40 25 30 28 Q40 30 42 38 M50 32 Q60 25 70 28 Q60 30 58 38 M50 32 Q35 28 28 18 Q40 30 45 40 M50 32 Q65 28 72 18 Q60 30 55 40 M50 30 L50 50 Q47 70 35 80 L65 80 Q53 70 50 50" fill="#FFD700"/><text x="50" y="92" font-family="Arial,sans-serif" font-size="16" font-weight="900" text-anchor="middle" fill="#fff">CAF</text></svg>