<svg xmlns="http://www.w3.org/2000/svg" fill="none" viewBox="0 0 152 26">
  <path fill="#fff" d="M71 25.23h8.51l.42-2.05H80a4.98 4.98 0 0 0 2.64 2.11c1.2.5 2.74.7 4.64.7 2.5 0 4.78-.53 6.86-1.66a12.08 12.08 0 0 0 4.78-4.62 13.01 13.01 0 0 0 1.73-6.61c0-2.4-.81-4.28-2.43-5.65-1.62-1.38-3.83-2.09-6.65-2.09-3.58 0-6.33.92-8.2 2.72h-.06L84.99 0h-8.8L71 25.23ZM87.42 11.3a4.7 4.7 0 0 1 3.03.84c.7.56 1.05 1.38 1.05 2.44.02 1.43-.5 2.8-1.47 3.85-.98 1.1-2.43 1.63-4.36 1.63-1.4 0-2.47-.25-3.1-.78-.63-.5-.95-1.24-.95-2.23a8.2 8.2 0 0 1 .35-2.15c.22-.75.6-1.44 1.12-2.02a4.84 4.84 0 0 1 1.87-1.2 7.4 7.4 0 0 1 2.46-.38Zm23.68 6.32h19.34c.26-1.22.4-2.46.42-3.7 0-2.94-1.02-5.13-3.06-6.62-2.04-1.44-5.13-2.19-9.35-2.19-3.52 0-6.54.64-9.04 1.84a12.06 12.06 0 0 0-5.45 4.8 12.43 12.43 0 0 0-1.68 6.22 6.65 6.65 0 0 0 3.16 5.97c1.06.7 2.4 1.2 3.94 1.55 1.55.35 3.38.5 5.52.5 3.8 0 6.96-.53 9.5-1.66a11.46 11.46 0 0 0 5.59-4.91h-9.37c-.52.56-1.17 1-1.9 1.27-.73.28-1.75.42-3.02.42a6.04 6.04 0 0 1-3.41-.81 2.55 2.55 0 0 1-1.23-2.26l.04-.42Zm11.4-4.45H112a4.68 4.68 0 0 1 2.18-2.58 7.87 7.87 0 0 1 3.73-.81c1.49 0 2.6.28 3.41.8a2.5 2.5 0 0 1 1.2 2.16l-.04.43Zm25.78 12.05 1.05-5.16c-.7.07-1.65.07-2.81.07-.7 0-1.2-.07-1.48-.25-.28-.14-.42-.42-.42-.84.03-.37.09-.74.17-1.1l1.34-6.54h4.75L152 5.9h-4.75L148.5 0h-8.8l-1.23 5.9h-4.08l-1.12 5.5h4.08l-1.66 8c-.2.83-.3 1.68-.31 2.54 0 .98.2 1.73.7 2.25a3.6 3.6 0 0 0 1.82 1.13c.78.21 2.08.32 3.9.32 1.38 0 2.6-.04 3.7-.11a25.5 25.5 0 0 0 2.79-.3Z"/>
  <path fill="#FF345C" d="M36 25h21.59a16.8 16.8 0 0 0 4.35-.5 9.75 9.75 0 0 0 3.64-1.75c1.09-.87 1.94-2 2.49-3.28.6-1.34.91-2.6.91-3.78a5.08 5.08 0 0 0-.87-2.91 4.07 4.07 0 0 0-2.32-1.61v-.07a5.92 5.92 0 0 0 3.05-2.53A7.37 7.37 0 0 0 70 4.47c0-1.5-.56-2.62-1.61-3.35C67.29.38 65.79 0 63.86 0H41.2L36 25ZM49.6 6.1h7.5c.54-.02 1.07.06 1.58.24a.88.88 0 0 1 .52.83c0 .7-.2 1.26-.63 1.61-.42.36-1.12.53-2.14.53h-7.5l.67-3.22Zm-1.86 8.88h8.1c.87 0 1.5.14 1.93.35a1.13 1.13 0 0 1 .63 1.09 2.32 2.32 0 0 1-.74 1.79c-.49.49-1.19.7-2.17.7h-8.55l.8-3.93ZM36 8.26c0 1.4-.15 2.78-.43 4.14-.3 1.42-.72 2.81-1.28 4.16-2.36 5.64-7.1 8.45-14.2 8.44H0l2.65-12.5.57-2.82h10.13L11.4 18.7h5.94c2.65 0 4.62-.77 5.9-2.38a9.08 9.08 0 0 0 1.98-5.77c0-2.8-1.76-4.24-5.23-4.24H.35L1.67.01h23.49c1.6-.03 3.2.14 4.76.48 1.36.35 2.47.84 3.36 1.47C35.07 3.3 36 5.4 36 8.26Z"/>
</svg>
