<svg width="300" height="66" viewBox="0 0 300 66" fill="none" xmlns="http://www.w3.org/2000/svg">
<path d="M173.815 22.4501C173.775 26.5591 170.483 29.8688 166.439 29.8688C166.4 29.8688 166.359 29.8679 166.321 29.8679C166.286 29.8676 166.248 29.8683 166.213 29.8683C162.167 29.8683 158.874 26.5603 158.828 22.4501C158.867 18.3365 162.164 15.0218 166.213 15.0218C166.249 15.0218 166.287 15.0225 166.321 15.0225C166.355 15.0225 166.393 15.0218 166.428 15.0218C170.478 15.0218 173.775 18.3365 173.815 22.4506L173.815 22.4501Z" fill="#1B9DD9"/>
<path d="M173.815 42.5708C173.775 46.6853 170.478 50 166.428 50C166.393 50 166.355 49.9991 166.321 49.9991C166.287 49.9991 166.249 50 166.213 50C162.164 50 158.867 46.6853 158.827 42.5712C158.867 38.457 162.164 35.1423 166.213 35.1423C166.249 35.1423 166.287 35.1432 166.321 35.1432C166.355 35.1432 166.393 35.1423 166.428 35.1423C170.478 35.1423 173.775 38.457 173.815 42.5712L173.815 42.5708Z" fill="#E6352B"/>
<path d="M199.122 16.1098H184.959V48.987H194.123V39.5905H198.651C206.873 39.5905 212.857 35.5015 212.857 27.7577C212.857 20.3839 207.483 16.1098 199.122 16.1098ZM198.458 32.4234H194.177V23.7228H198.458C201.767 23.7228 203.747 25.2235 203.747 28.073C203.747 30.9224 201.713 32.456 198.501 32.456L198.458 32.4234ZM70.6672 40.7866H52.9065V35.5663H68.7614V28.3776H52.9065V23.3859H70.4102V15.6314H43.8499V48.5085L70.6672 48.5082V40.7866ZM19.0988 30.1286H17.6644L12.6969 15.7728H0V48.6171H9.35672V30.9987H10.3631L16.0261 47.16H20.6832L26.3462 30.9987H27.3525V48.5957L36.7093 48.5954V15.7728H24.0663L19.0988 30.1286ZM225.843 16.0881L211.776 49.0196H221.411L223.777 43.1793H236.516L238.925 49.0196H248.742L234.675 16.1098L225.843 16.0881ZM226.453 36.1102L229.74 27.9316H230.618L233.83 36.1102H226.453ZM95.9109 35.9906H99.5184L103.158 36.0777C102.841 36.8242 102.394 37.511 101.842 38.1004C100.96 39.069 99.8995 39.8605 98.7265 40.4287L98.7262 40.4278C97.4115 41.0386 95.9784 41.3565 94.5318 41.3565C94.4395 41.3565 94.3434 41.3551 94.2523 41.3527C94.1373 41.3565 94.018 41.3597 93.9023 41.3597C89.1379 41.3597 85.2738 37.4341 85.2738 32.5941C85.2738 32.4793 85.2758 32.3631 85.2802 32.2496C85.2802 27.1271 88.9631 23.1359 93.7271 23.1359C93.7513 23.1354 93.7801 23.1354 93.8043 23.1354C96.7273 23.1354 99.5479 24.2412 101.713 26.2348L107.066 19.7965C103.527 16.7051 99.004 15 94.3341 15C94.1123 15 93.8833 15.005 93.6639 15.0119C83.4186 15.0119 75.8714 22.527 75.8714 32.1087C75.8714 42.158 83.5578 49.2053 93.8566 49.2053C93.9104 49.2053 93.9687 49.2053 94.0237 49.2053C99.1805 49.2053 104.185 47.4115 108.2 44.1264V29.3356L95.9109 29.3344V35.9906ZM126.389 15.6531L112.322 48.5517H121.957L124.323 42.7223L137.062 42.7227L139.471 48.5522L149.256 48.5517L135.189 15.6746L126.389 15.6531ZM127 35.6642L130.211 27.6051L131.196 27.6056L134.408 35.6647L127 35.6642ZM290.793 16.0881V48.9652H300V16.0881H290.793ZM282.743 27.3989C282.752 27.2229 282.757 27.0428 282.757 26.8653C282.757 24.1502 281.7 21.5406 279.82 19.6124C277.604 17.4371 274.114 16.0884 269.114 16.0884L253.485 16.0881V48.9652H262.649V39.0031H266.663L273.311 48.9652H283.888L275.945 37.5242C280.022 36.051 282.747 32.1262 282.747 27.7293C282.747 27.6278 282.744 27.521 282.742 27.4205L282.743 27.3989ZM268.633 31.8686H262.595V23.9727H268.59C271.652 23.9727 273.547 25.2886 273.547 27.8772C273.547 30.466 271.748 31.8904 268.633 31.8904V31.8686Z" fill="white"/>
</svg>
