<?xml version="1.0" encoding="UTF-8" standalone="no"?>
<!-- Created with Inkscape (http://www.inkscape.org/) -->

<svg
   version="1.1"
   id="svg1"
   width="248.56786"
   height="302.36227"
   viewBox="0 0 248.56786 302.36227"
   sodipodi:docname="arka_gdynia_mzks_kolor.pdf"
   xmlns:inkscape="http://www.inkscape.org/namespaces/inkscape"
   xmlns:sodipodi="http://sodipodi.sourceforge.net/DTD/sodipodi-0.dtd"
   xmlns="http://www.w3.org/2000/svg"
   xmlns:svg="http://www.w3.org/2000/svg">
  <defs
     id="defs1" />
  <sodipodi:namedview
     id="namedview1"
     pagecolor="#ffffff"
     bordercolor="#000000"
     borderopacity="0.25"
     inkscape:showpageshadow="2"
     inkscape:pageopacity="0.0"
     inkscape:pagecheckerboard="0"
     inkscape:deskcolor="#d1d1d1" />
  <g
     id="layer-Pr7"
     inkscape:groupmode="layer"
     inkscape:label="Layer 1"
     transform="translate(-64.692665,-37.794941)">
    <path
       id="path1"
       d="m 218.2584,84.0574 -1.1554,-3.5461 -1.3153,-3.4685 -1.4718,-3.3854 -1.6211,-3.2981 -1.7714,-3.2108 -1.9119,-3.1147 -2.0498,-3.0138 -2.1815,-2.9095 -2.3108,-2.8017 -2.4358,-2.6913 -2.5552,-2.5721 -2.6696,-2.4525 -2.7842,-2.3287 -2.8897,-2.1977 -2.9945,-2.0648 -3.0926,-1.9278 -3.1901,-1.7841 -3.2774,-1.6362 -3.3645,-1.4842 -3.446,-1.3275 -3.5235,-1.1645 -3.5923,-0.9994 -3.6613,-0.8283 -3.7202,-0.6506 -3.7743,-0.4702 -3.8236,-0.2855 -3.8679,-0.0967 -3.8662,0.0967 -3.8236,0.2855 -3.7744,0.4702 -3.7219,0.6506 -3.6592,0.8288 -3.5938,0.9989 -3.5212,1.1645 -3.4486,1.3275 -3.3633,1.4851 -3.2766,1.6353 -3.1884,1.7841 -3.0946,1.9278 -2.9939,2.0642 -2.8899,2.1969 -2.784,2.3281 -2.6713,2.4553 -2.5549,2.5725 -2.4347,2.6898 -2.3113,2.802 -2.183,2.9098 -2.0477,3.0143 -1.9129,3.1131 -1.7696,3.2091 -1.6243,3.3003 -1.4695,3.3872 -1.3158,3.4687 -1.1551,3.5444 -0.9899,3.6156 -0.2602,1.1739 H 51.5194 v 66.5796 h 8.8858 l -11.8857,99.6919 h 184.9722 l -10.3623,-99.6919 h 11.816 V 88.8469 H 219.507 l -0.2599,-1.173 z"
       style="fill:#ffffff;fill-opacity:1;fill-rule:evenodd;stroke:none"
       transform="matrix(1.3333333,0,0,-1.3333333,0,377.9528)" />
    <path
       id="path2"
       d="M 224.4348,247.0351 214.092,147.236 h 12.7094 V 97.0381 h -14.0629 l -0.0893,-0.7424 -0.5749,-3.3488 -0.7339,-3.2933 -0.8818,-3.2352 -1.0338,-3.17 -1.1773,-3.1033 -1.3167,-3.0294 -1.4505,-2.9526 -1.5854,-2.8735 -1.7121,-2.7893 -1.8351,-2.6997 -1.9557,-2.6067 -2.0712,-2.5098 -2.1819,-2.4126 -2.2906,-2.3048 -2.3936,-2.1977 -2.4934,-2.0855 -2.588,-1.9698 -2.6816,-1.8501 -2.7703,-1.7252 -2.8542,-1.5965 -2.9344,-1.4649 -3.0104,-1.3283 -3.0838,-1.1875 -3.1499,-1.0417 -3.2142,-0.8929 -3.2731,-0.7404 -3.3279,-0.5828 -3.3792,-0.4207 -3.422,-0.2562 -3.4656,-0.0865 -3.4634,0.0865 -3.424,0.2562 -3.3774,0.4207 -3.329,0.5828 -3.2738,0.7404 -3.2128,0.8929 -3.1507,1.0417 -3.0827,1.1875 -3.0106,1.3283 -2.9333,1.4649 -2.8545,1.5965 -2.7697,1.7252 -2.6822,1.8501 -2.5889,1.9698 -2.4947,2.0855 -2.393,2.1977 -2.2899,2.3062 -2.1818,2.4112 -2.071,2.5098 -1.9553,2.6067 -1.8352,2.6997 -1.7118,2.7893 -1.5849,2.8724 -1.4541,2.9537 -1.315,3.0302 -1.1781,3.1025 -1.0318,3.1697 -0.8853,3.2355 -0.7316,3.2933 -0.5746,3.3483 -0.089,0.7429 H 59.6622 v 50.1979 h 9.9193 l -11.8761,99.7991 z"
       style="fill:#244ba6;fill-opacity:1;fill-rule:evenodd;stroke:none"
       transform="matrix(1.3333333,0,0,-1.3333333,0,377.9528)" />
    <path
       id="path3"
       d="m 66.0368,140.8252 h 10.726 l -11.8755,99.7985 h 152.4759 l -10.3431,-99.7985 h 13.4082 V 103.449 h -13.4847 c -1.609,-33.5974 -29.3482,-60.4962 -63.1369,-60.4962 -33.7881,0 -61.5286,26.8988 -63.1372,60.4962 H 66.0368 Z"
       style="fill:#fff200;fill-opacity:1;fill-rule:evenodd;stroke:none"
       transform="matrix(1.3333333,0,0,-1.3333333,0,377.9528)" />
    <path
       id="path4"
       d="m 179.2335,89.6854 -16.543,7.1237 c 0.6886,1.5551 1.1943,3.21 1.4936,4.9314 h 18.0944 c -0.3515,-4.2528 -1.4049,-8.3106 -3.045,-12.0551 z m -12.418,-15.4772 -10.5922,14.3524 c 1.7473,1.3495 3.278,2.9676 4.5348,4.7917 l 14.6362,-10.4477 c -2.3743,-3.3403 -5.2779,-6.2796 -8.5788,-8.6964 z m -18.1434,-7.0282 -0.8272,8.5617 -0.8453,8.7486 c 1.7215,0.2985 3.3735,0.8076 4.9261,1.5007 l 5.2843,-11.7136 1.98,-4.3881 c -3.2972,-1.389 -6.8295,-2.3184 -10.5179,-2.7093 z m -18.8456,2.8769 3.5816,7.9418 3.2916,7.2949 c 1.6007,-0.5459 3.2864,-0.9008 5.0303,-1.0425 l -0.8583,-7.4183 -1.1016,-9.5366 c -3.484,0.4623 -6.8218,1.4051 -9.9436,2.7607 z m -15.9684,13.0725 c 2.3332,-3.331 5.184,-6.2708 8.4328,-8.6973 l 3.5115,4.7568 6.1971,8.3965 c -1.9851,1.2941 -3.7403,2.9155 -5.1922,4.7869 z m -6.7283,18.6111 h 15.5378 c 0.347,-2.0029 0.9734,-3.9118 1.8411,-5.6817 l -14.4074,-6.2054 c -1.5982,3.6978 -2.6251,7.6975 -2.9715,11.8871"
       style="fill:#244ba6;fill-opacity:1;fill-rule:evenodd;stroke:none"
       transform="matrix(1.3333333,0,0,-1.3333333,0,377.9528)" />
    <path
       id="path5"
       d="M 71.0164,135.8152 H 82.51 L 71.0164,235.9996 212.0919,236.1217 201.657,135.8152 h 13.4087 V 108.4578 H 71.0164 Z M 200.687,101.7405 c -0.5656,-6.7753 -2.3174,-13.2193 -5.0443,-19.1222 l -16.4092,7.0671 c 1.6401,3.7445 2.6935,7.8023 3.045,12.0551 z M 189.75,72.6585 c -3.5254,-4.7838 -7.7771,-8.996 -12.5869,-12.4702 l -10.3476,14.0199 c 3.3009,2.4168 6.2045,5.3561 8.5788,8.6964 z M 166.3364,54.0496 c -5.0051,-2.1495 -10.377,-3.596 -15.9896,-4.2114 L 148.6721,67.18 c 3.6884,0.3909 7.2207,1.3203 10.5179,2.7093 z m -28.5806,-4.1797 c -5.337,0.6129 -10.4544,1.9735 -15.2416,3.9799 l 7.3123,16.2071 c 3.1218,-1.3556 6.4596,-2.2984 9.9436,-2.7607 z m -26.1691,10.0565 c -4.8733,3.4634 -9.1837,7.6765 -12.7619,12.4724 l 15.0333,10.7306 c 2.3332,-3.331 5.184,-6.2708 8.4328,-8.6973 z M 92.8332,82.4173 c -2.7805,5.9582 -4.5663,12.4713 -5.1392,19.3232 h 19.4358 c 0.3464,-4.1896 1.3733,-8.1893 2.9715,-11.8871 z"
       style="fill:#ffffff;fill-opacity:1;fill-rule:evenodd;stroke:none"
       transform="matrix(1.3333333,0,0,-1.3333333,0,377.9528)" />
    <path
       id="path6"
       d="M 85.9578,217.5052 H 196.6757 L 188.6312,136.586 H 96.3014 Z"
       style="fill:#fff200;fill-opacity:1;fill-rule:evenodd;stroke:none"
       transform="matrix(1.3333333,0,0,-1.3333333,0,377.9528)" />
    <path
       id="path7"
       d="m 94.2613,211.5488 h 95.4258 c -1.4148,-16.877 -2.8298,-33.7559 -4.2451,-50.6336 -0.5352,-9.2622 -5.9681,-10.9599 -14.7507,-7.4835 2.4165,-5.8124 7.0622,-6.1228 12.7213,-3.9339 0.0431,-6.713 -8.8877,-7.3341 -13.5295,-2.7045 -5.1457,-5.1872 -13.6785,-2.8202 -14.993,3.7698 7.0773,-4.0408 10.2742,-1.5755 12.9158,1.8187 -8.6782,-2.81 -11.4043,1.1449 -13.2797,6.0678 7.6325,-5.1823 11.643,-1.5162 15.1375,3.4126 3.6083,-6.6265 6.0838,-5.2616 7.6099,-4.2176 8.6293,5.9045 3.5385,21.8182 -11.4542,36.0836 -2.2734,-8.39 -16.5864,-17.7809 -6.8176,-25.1714 2.0225,-9.0144 -10.3876,-2.8964 -11.378,5.694 l -2.9866,18.8237 -0.1394,-0.005 c 1.6202,1.1605 2.6796,3.0623 2.6796,5.2067 0,3.5172 -2.852,6.3887 -6.3511,6.3887 -3.4991,0 -6.3524,-2.8715 -6.3524,-6.3887 0,-2.4489 1.3793,-4.5817 3.3993,-5.654 l -1.8479,-16.5186 c -1.4539,-13.8666 -13.7336,-14.622 -12.3143,-7.6006 9.7957,8.4195 -4.3809,16.9495 -6.7368,25.3678 -18.0193,-19.5426 -18.809,-33.605 -10.6021,-37.6214 1.1179,-0.5473 3.2074,-0.7954 7.6337,4.7109 3.8775,-6.4043 9.1525,-6.6523 15.3878,-2.6886 -1.663,-6.7627 -6.3164,-9.1914 -15.3416,-5.2875 2.4108,-3.5637 4.9351,-9.0593 14.9746,-2.645 -0.1086,-4.1817 -6.5691,-11.5495 -14.9366,-4.1151 -3.9751,-4.691 -13.0669,-4.4345 -13.743,2.181 8.4892,-2.0075 11.1266,1.6506 11.2204,3.6434 -4.4473,-2.3763 -9.9601,-1.6767 -12.4554,4.6528 l -4.8507,54.847 z m 53.4113,-60.9668 c -3.7154,0.2764 -7.4296,-0.1955 -11.1459,-1.178 2.1626,-1.8683 7.1913,-3.4274 9.9771,-1.7297 1.2989,0.8127 2.0523,2.0968 1.1688,2.9077 z m -12.5575,6.9971 c 3.7168,0.2752 7.4304,-0.1973 11.1469,-1.1795 -2.1636,-1.868 -7.1909,-3.4274 -9.9773,-1.7289 -1.2997,0.8124 -2.052,2.0957 -1.1696,2.9084 z m 3.4308,-14.0706 c 1.654,0.828 -1.0551,3.124 -8.1295,6.8853 1.0947,0.6134 1.0465,1.5409 -0.1463,2.7817 1.1577,-0.0386 2.3136,-0.08 3.4699,-0.1194 -2.658,5.182 -2.393,8.2653 4.3047,6.7383 0.8541,0.7937 0.7957,1.7725 0.608,2.7765 -1.8312,-0.0482 -3.6612,-0.095 -5.4913,-0.1415 0.0525,0.4791 0.1069,0.9584 0.1602,1.4381 4.7497,-0.5035 6.1679,3.9713 5.3062,11.8545 1.7475,4.7942 7.516,1.9301 5.6075,-7.9249 1.5553,-5.2934 6.0712,-2.4103 5.6012,-4.7951 -1.7934,-0.0972 -3.5852,-0.1933 -5.3762,-0.2899 0.005,-1.2926 0.0105,-2.5844 0.0176,-3.8747 2.42,-0.9131 3.5915,-0.3572 3.5167,1.6668 1.1177,-1.3675 2.8054,-1.2952 4.756,-0.5675 -1.5146,-2.6065 -3.2383,-4.5848 -5.1665,-5.9344 0.4689,-0.8781 2.0809,-1.1795 4.2132,-1.2192 0.0768,-8.4894 -8.0292,-5.3452 -7.2502,-8.7253 l -3.0399,-3.615 c -0.9881,1.0216 -1.976,2.0438 -2.9613,3.0657 z m 2.4689,58.4203 c 1.6872,0 3.0629,-1.3836 3.0629,-3.0804 0,-1.6962 -1.3757,-3.081 -3.0629,-3.081 -1.6863,0 -3.0634,1.3848 -3.0634,3.081 0,1.6968 1.3771,3.0804 3.0634,3.0804 z m 0.1055,-30.5161 h 0.3835 c 0.6015,0 1.0936,-0.4946 1.0936,-1.0998 v -4.1672 c 0,-0.6052 -0.4921,-1.0996 -1.0936,-1.0996 h -0.3835 c -0.6024,0 -1.0942,0.4944 -1.0942,1.0996 v 4.1672 c 0,0.6052 0.4918,1.0998 1.0942,1.0998"
       style="fill:#244ba6;fill-opacity:1;fill-rule:evenodd;stroke:none"
       transform="matrix(1.3333333,0,0,-1.3333333,0,377.9528)" />
    <path
       id="path8"
       d="m 207.4895,127.2212 c 2.1263,0 3.8611,-1.745 3.8611,-3.8838 0,-2.1387 -1.7348,-3.8829 -3.8611,-3.8829 -2.1271,0 -3.8607,1.7442 -3.8607,3.8829 0,2.1388 1.7336,3.8838 3.8607,3.8838 z M 103.8912,114.2603 H 94.629 l -1.2745,-3.5637 h -8.3069 l 9.887,21.585 h 8.8653 l 9.8935,-21.585 h -8.5096 z m -1.7025,4.6678 -2.9098,7.7599 -2.8913,-7.7599 z m 14.2118,-8.2315 v 21.585 h 13.5521 c 2.511,0 4.4343,-0.1775 5.7575,-0.5341 1.3306,-0.3515 2.4015,-1.0051 3.2159,-1.9644 0.8149,-0.9553 1.2203,-2.1197 1.2203,-3.4934 0,-1.2002 -0.3132,-2.2309 -0.9326,-3.0994 -0.6239,-0.8694 -1.4817,-1.5741 -2.5656,-2.1163 -0.6991,-0.3413 -1.6484,-0.6271 -2.8551,-0.8493 0.9686,-0.2662 1.673,-0.5321 2.1189,-0.7985 0.2957,-0.1758 0.7294,-0.5536 1.2991,-1.1311 0.5701,-0.583 0.9493,-1.025 1.1396,-1.3419 l 3.933,-6.2566 h -9.1893 l -4.3424,6.5993 c -0.5522,0.8484 -1.042,1.4069 -1.4769,1.6634 -0.5819,0.3302 -1.2501,0.4966 -1.9913,0.4966 h -0.7169 v -8.7593 z m 8.1663,12.8401 h 3.4311 c 0.3673,0 1.0845,0.0947 2.1489,0.2911 0.54,0.0904 0.9811,0.3172 1.3241,0.6789 0.3367,0.3609 0.5082,0.7787 0.5082,1.2509 0,0.6988 -0.269,1.2314 -0.8087,1.603 -0.5383,0.377 -1.5494,0.5627 -3.0317,0.5627 h -3.5719 z m 20.3511,8.7449 h 8.1292 v -8.1579 l 8.5271,8.1579 h 10.8066 l -9.5865,-8.1414 10.0156,-13.4436 h -10.0156 l -5.5452,8.8795 -4.202,-3.6082 v -5.2713 h -8.1292 z m 46.7722,-18.0213 h -9.2614 l -1.2758,-3.5637 h -8.3067 l 9.887,21.585 h 8.8656 l 9.8929,-21.585 h -8.5085 z m -1.7036,4.6678 -2.9084,7.7599 -2.8927,-7.7599 z M 80.329,126.3949 c 2.126,0 3.8603,-1.7445 3.8603,-3.8838 0,-2.139 -1.7343,-3.8832 -3.8603,-3.8832 -2.1271,0 -3.861,1.7442 -3.861,3.8832 0,2.1393 1.7339,3.8838 3.861,3.8838"
       style="fill:#244ba6;fill-opacity:1;fill-rule:evenodd;stroke:none"
       transform="matrix(1.3333333,0,0,-1.3333333,0,377.9528)" />
    <path
       id="path9"
       d="m 200.9151,215.1658 -0.0878,-2.2678 c -0.3685,-0.0104 -0.6551,-0.0836 -0.8618,-0.2128 -0.3336,-0.2106 -0.5207,-0.5446 -0.566,-0.9984 -0.0346,-0.3376 0.0175,-0.6049 0.157,-0.8045 0.1395,-0.199 0.3121,-0.3089 0.5196,-0.3299 0.1976,-0.0199 0.3835,0.0473 0.5579,0.2061 0.1731,0.1595 0.3597,0.5473 0.5632,1.1687 0.3376,1.0151 0.7186,1.724 1.1486,2.1265 0.4294,0.4071 0.9425,0.5806 1.5381,0.5191 0.3917,-0.04 0.7514,-0.1919 1.0749,-0.4561 0.3257,-0.2639 0.5643,-0.6347 0.7183,-1.1126 0.1522,-0.4791 0.1879,-1.1166 0.1085,-1.9146 -0.0995,-0.9796 -0.3563,-1.7084 -0.7699,-2.1858 -0.4132,-0.4773 -1.0204,-0.7225 -1.8192,-0.7406 l 0.0955,2.2456 c 0.3487,0.0241 0.6109,0.1233 0.7855,0.2979 0.1732,0.1732 0.2789,0.428 0.3124,0.7614 0.0275,0.2772 -0.009,0.4892 -0.1126,0.64 -0.0995,0.1506 -0.2355,0.2345 -0.4019,0.2529 -0.1211,0.011 -0.2345,-0.034 -0.3436,-0.1386 -0.1122,-0.1012 -0.2324,-0.3566 -0.3597,-0.7671 -0.3266,-1.0117 -0.6267,-1.7291 -0.8986,-2.1543 -0.2724,-0.4249 -0.5856,-0.7223 -0.9439,-0.8918 -0.3544,-0.1695 -0.7407,-0.2341 -1.1588,-0.1916 -0.4882,0.0496 -0.9244,0.233 -1.3088,0.5462 -0.3863,0.3141 -0.6593,0.7251 -0.8226,1.2368 -0.163,0.5085 -0.2078,1.1352 -0.1338,1.8771 0.131,1.3028 0.4711,2.1793 1.0216,2.6288 0.5488,0.4527 1.2115,0.6724 1.9879,0.6594 z m 4.2764,-8.6531 -0.3966,-3.9359 c -0.0861,-0.8577 -0.3529,-1.4788 -0.8025,-1.8626 -0.4473,-0.3855 -1.0465,-0.5409 -1.7937,-0.4643 -0.7705,0.0779 -1.3473,0.3707 -1.734,0.8807 -0.3852,0.5097 -0.5298,1.243 -0.434,2.1968 l 0.1316,1.2952 -2.8293,0.2883 0.2404,2.3788 z m -3.4875,-2.0477 -0.0581,-0.58 c -0.0459,-0.4561 0,-0.7835 0.1395,-0.9859 0.1386,-0.1993 0.3316,-0.3135 0.576,-0.3384 0.2398,-0.0233 0.4524,0.0357 0.6335,0.1802 0.1817,0.1398 0.2971,0.4337 0.3402,0.8774 l 0.068,0.674 z m -1.0763,-5.0046 c 1.2444,-0.1273 2.1767,-0.5763 2.7995,-1.3422 0.6225,-0.7682 0.8708,-1.7748 0.7447,-3.0178 -0.129,-1.2761 -0.5678,-2.2237 -1.3193,-2.8457 -0.7483,-0.6188 -1.7376,-0.8674 -2.9633,-0.7429 -0.8912,0.0907 -1.607,0.3166 -2.1441,0.6777 -0.5406,0.3598 -0.9397,0.8394 -1.2011,1.4415 -0.2591,0.6029 -0.345,1.3274 -0.2593,2.1792 0.087,0.8623 0.2956,1.5645 0.627,2.1042 0.3319,0.5366 0.8101,0.9513 1.4386,1.2444 0.6284,0.2908 1.3864,0.3923 2.2773,0.3016 z m -0.2489,-2.3692 c -0.7693,0.0782 -1.3362,-0.007 -1.7027,-0.2605 -0.364,-0.2534 -0.5718,-0.6284 -0.6217,-1.1217 -0.0513,-0.5088 0.074,-0.9204 0.3742,-1.2327 0.301,-0.3113 0.8779,-0.5123 1.7288,-0.5993 0.7183,-0.0731 1.2566,0.0184 1.6186,0.277 0.3589,0.2565 0.5633,0.6346 0.6129,1.1341 0.049,0.4759 -0.0794,0.8759 -0.3869,1.1996 -0.307,0.3234 -0.8485,0.5244 -1.6232,0.6035 z m -4.4889,-6.4902 7.6192,-0.7787 -0.3988,-3.9444 c -0.074,-0.7327 -0.1916,-1.2866 -0.3569,-1.6591 -0.1633,-0.3739 -0.4249,-0.663 -0.788,-0.8651 -0.3603,-0.2033 -0.7838,-0.2787 -1.2688,-0.2285 -0.4232,0.0417 -0.7787,0.1698 -1.0678,0.3813 -0.2877,0.2134 -0.5105,0.4886 -0.6701,0.8243 -0.1001,0.2157 -0.1744,0.502 -0.216,0.8623 -0.1222,-0.273 -0.237,-0.468 -0.3436,-0.5899 -0.0714,-0.0777 -0.2174,-0.1928 -0.4379,-0.3359 -0.2228,-0.1463 -0.3904,-0.2401 -0.5069,-0.2843 l -2.3249,-0.9202 0.2698,2.6765 2.4571,1.0276 c 0.3172,0.1292 0.5286,0.252 0.631,0.3696 0.1335,0.1579 0.2126,0.3464 0.2347,0.5618 l 0.0207,0.2089 -3.0921,0.3158 z m 4.2925,-2.842 -0.0998,-0.9987 c -0.0116,-0.106 10e-4,-0.3186 0.0388,-0.6358 0.0148,-0.161 0.0828,-0.2968 0.2013,-0.4099 0.1174,-0.1114 0.2597,-0.1763 0.4263,-0.1936 0.2461,-0.0252 0.4428,0.0346 0.5888,0.1775 0.1491,0.1437 0.2452,0.4311 0.288,0.8626 l 0.1054,1.0406 z m 2.5543,-5.5973 -0.7265,-7.1983 -1.8825,0.1919 0.244,2.4157 -5.737,0.5862 0.2398,2.3661 5.7362,-0.5848 0.2438,2.4134 z m -4.5814,-7.2164 c 1.2439,-0.1267 2.1762,-0.5755 2.7981,-1.3425 0.6231,-0.7677 0.8714,-1.7731 0.7455,-3.0161 -0.1281,-1.2753 -0.5675,-2.2249 -1.3172,-2.8448 -0.7504,-0.6203 -1.7394,-0.8683 -2.9665,-0.7436 -0.8895,0.0916 -1.6047,0.3167 -2.1444,0.6764 -0.5386,0.3603 -0.9383,0.8404 -1.1982,1.4425 -0.2602,0.6027 -0.3458,1.3278 -0.2608,2.1782 0.0873,0.8634 0.2962,1.5644 0.6265,2.1058 0.3316,0.5361 0.8118,0.9513 1.44,1.2436 0.6264,0.2911 1.3861,0.3923 2.277,0.3005 z m -0.2497,-2.367 c -0.7702,0.0783 -1.3351,-0.009 -1.7019,-0.2608 -0.3646,-0.2534 -0.5729,-0.629 -0.6219,-1.123 -0.0513,-0.508 0.0731,-0.9202 0.3739,-1.2311 0.301,-0.313 0.8787,-0.5134 1.7294,-0.5996 0.7183,-0.0745 1.2563,0.0185 1.618,0.2756 0.3591,0.2571 0.5638,0.6344 0.614,1.1338 0.0482,0.4765 -0.0794,0.8771 -0.3872,1.2005 -0.3073,0.3234 -0.8485,0.5247 -1.6243,0.6046 z m 3.2326,-6.2645 -0.2279,-2.2482 -4.3364,-0.3762 4.1349,-1.6148 -0.2251,-2.2423 -4.3755,-0.752 4.1737,-1.2444 -0.2256,-2.2379 -7.4478,2.4647 0.2336,2.3216 4.932,0.8532 -4.661,1.8286 0.233,2.3213 z m -1.0819,-10.7204 -0.2645,-2.6297 -2.7284,-1.2852 2.416,-1.8085 -0.2642,-2.6141 -4.1258,3.4316 -3.1932,0.3254 0.2398,2.3723 3.1918,-0.3254 z M 85.627,230.2603 h 6.6974 v -1.5384 l -4.2936,-4.5094 h 4.4506 v -1.654 h -7.2657 v 1.5976 l 4.2454,4.4592 H 85.627 Z m 7.1305,0 h 2.2468 l 0.8098,-4.3016 1.1801,4.3016 h 2.2411 l 1.1846,-4.3016 0.8107,4.3016 h 2.236 l -1.6864,-7.7018 h -2.3201 l -1.3425,4.8484 -1.3374,-4.8484 h -2.3205 z m 11.5796,0 h 2.3717 v -7.7018 h -2.3717 z m 8.7814,-6.4302 h -2.6949 l -0.371,-1.2716 h -2.4183 l 2.8775,7.7018 h 2.5809 l 2.8789,-7.7018 h -2.4766 z m -0.4958,1.666 -0.8472,2.7686 -0.8397,-2.7686 z m 1.389,-2.8018 h 0.883 c -0.0697,-0.3047 -0.1052,-0.5553 -0.1052,-0.7563 0,-0.2656 0.0658,-0.466 0.1942,-0.6049 0.129,-0.1361 0.3087,-0.2047 0.5386,-0.2047 0.1627,0 0.3852,0.0474 0.669,0.1367 v -0.8147 c -0.4343,-0.1602 -0.8017,-0.2415 -1.1078,-0.2415 -0.419,0 -0.7435,0.1131 -0.9751,0.3379 -0.2316,0.2233 -0.3478,0.5204 -0.3478,0.8929 0,0.3115 0.0842,0.7291 0.2511,1.2546 z m 2.5234,7.566 h 6.6963 v -1.5384 l -4.2925,-4.5094 h 4.4495 v -1.654 h -7.2649 v 1.5976 l 4.2449,4.4592 h -3.8333 z m 7.9282,0 h 2.3661 v -2.9101 l 2.4829,2.9101 h 3.1442 l -2.7896,-2.9053 2.9151,-4.7965 h -2.9151 l -1.6143,3.1686 -1.2232,-1.2867 v -1.8819 h -2.3661 z m 8.2381,-3.8557 c 0,1.2574 0.3489,2.2365 1.0446,2.9352 0.6976,0.7019 1.6673,1.0514 2.9094,1.0514 1.2745,0 2.2584,-0.3441 2.9472,-1.0324 0.6883,-0.6882 1.0341,-1.6514 1.0341,-2.891 0,-0.9006 -0.1505,-1.6387 -0.453,-2.215 -0.2999,-0.5749 -0.7361,-1.0242 -1.3039,-1.3451 -0.5701,-0.3203 -1.2779,-0.4801 -2.1297,-0.4801 -0.8629,0 -1.5772,0.1374 -2.1441,0.4147 -0.5664,0.2775 -1.0236,0.7149 -1.3774,1.3138 -0.3506,0.599 -0.5272,1.349 -0.5272,2.2485 z m 2.368,-0.0105 c 0,-0.7776 0.1418,-1.3368 0.4298,-1.6767 0.2866,-0.3388 0.6797,-0.51 1.1727,-0.51 0.5088,0 0.9017,0.1673 1.1806,0.4984 0.2772,0.3345 0.4187,0.9311 0.4187,1.7923 0,0.7268 -0.146,1.2555 -0.4377,1.5897 -0.2897,0.3348 -0.6837,0.5011 -1.182,0.5011 -0.4768,0 -0.8612,-0.1678 -1.1492,-0.5088 -0.2889,-0.3387 -0.4329,-0.9017 -0.4329,-1.686 z m 5.8689,3.8662 h 2.247 l 0.8096,-4.3016 1.1792,4.3016 h 2.2419 l 1.1855,-4.3016 0.8096,4.3016 h 2.2354 l -1.6867,-7.7018 h -2.319 l -1.3428,4.8484 -1.3371,-4.8484 h -2.3198 z m 10.7138,0 h 2.6286 l 1.5457,-2.6 1.546,2.6 h 2.6116 l -2.9778,-4.4754 v -3.2264 h -2.3706 v 3.2264 z m 12.6723,0 h 2.3658 v -2.9101 l 2.4815,2.9101 h 3.1453 l -2.7899,-2.9053 2.9149,-4.7965 h -2.9149 l -1.6137,3.1686 -1.2232,-1.2867 v -1.8819 h -2.3658 z m 8.9002,0 h 2.3678 v -5.8034 h 3.6924 v -1.8984 h -6.0602 z m 11.8418,0 h 2.3624 v -4.5925 c 0,-0.4555 -0.0709,-0.8835 -0.2124,-1.2892 -0.14,-0.4039 -0.3611,-0.7585 -0.6618,-1.0618 -0.3022,-0.303 -0.6172,-0.5154 -0.9494,-0.6384 -0.4603,-0.1701 -1.0108,-0.2562 -1.656,-0.2562 -0.3733,0 -0.7795,0.0252 -1.2197,0.0788 -0.44,0.0527 -0.8076,0.1562 -1.1038,0.3121 -0.2954,0.1556 -0.567,0.379 -0.8136,0.665 -0.2449,0.2868 -0.4127,0.5833 -0.5043,0.8869 -0.1457,0.4904 -0.2185,0.9241 -0.2185,1.3028 v 4.5925 h 2.3618 v -4.7024 c 0,-0.4207 0.1154,-0.7492 0.3467,-0.9854 0.2319,-0.2358 0.5522,-0.3529 0.9638,-0.3529 0.4067,0 0.7276,0.1151 0.9587,0.3493 0.231,0.2318 0.3461,0.5621 0.3461,0.989 z m 3.9339,0 h 4.4305 c 0.7387,0 1.3054,-0.1837 1.6986,-0.5525 0.3965,-0.368 0.5944,-0.8224 0.5944,-1.3638 0,-0.4558 -0.1409,-0.8472 -0.4221,-1.1738 -0.1899,-0.2168 -0.4657,-0.3881 -0.826,-0.5148 0.5488,-0.1318 0.9538,-0.3622 1.2141,-0.684 0.2585,-0.3248 0.3883,-0.7327 0.3883,-1.2214 0,-0.4003 -0.0921,-0.7589 -0.2758,-1.0772 -0.1857,-0.3192 -0.4374,-0.5714 -0.7574,-0.7571 -0.1987,-0.1148 -0.4981,-0.1984 -0.8989,-0.2514 -0.5343,-0.0709 -0.8852,-0.1058 -1.0618,-0.1058 h -4.0839 z m 2.3876,-3.0215 h 1.0287 c 0.3694,0 0.6259,0.0641 0.7707,0.1913 0.1466,0.1296 0.2166,0.3138 0.2166,0.5539 0,0.2254 -0.07,0.4 -0.2166,0.5253 -0.1448,0.1284 -0.3974,0.1905 -0.7545,0.1905 h -1.0449 z m 0,-3.0263 h 1.207 c 0.4079,0 0.6951,0.0723 0.8603,0.2175 0.169,0.1457 0.2517,0.3415 0.2517,0.587 0,0.2279 -0.0808,0.4102 -0.2469,0.5494 -0.1666,0.1374 -0.4549,0.2077 -0.8716,0.2077 h -1.2005 z m -108.8665,-68.0969 -0.3379,3.1118 4.5002,1.7107 -4.7599,0.6883 -0.337,3.1019 7.6116,0.8354 0.21,-1.9315 -5.8039,-0.6375 5.968,-0.8629 0.1897,-1.7475 -5.643,-2.1328 5.8045,0.6395 0.2107,-1.9389 z m 2.7436,10.2413 c -1.2424,-0.1358 -2.2473,0.106 -3.0141,0.7265 -0.7701,0.6202 -1.2203,1.5519 -1.3549,2.7935 -0.1384,1.2759 0.0955,2.2955 0.701,3.0597 0.6049,0.7628 1.5205,1.2138 2.7448,1.3479 0.8886,0.0981 1.6358,0.0264 2.2376,-0.2123 0.6015,-0.239 1.0931,-0.6248 1.4715,-1.1594 0.3793,-0.5343 0.6137,-1.2245 0.7055,-2.0755 0.0947,-0.8637 0.0358,-1.5928 -0.1757,-2.1892 -0.2143,-0.5958 -0.5967,-1.1015 -1.15,-1.5191 -0.5536,-0.4156 -1.2759,-0.6738 -2.1657,-0.7721 z m -0.246,2.3689 c 0.769,0.0844 1.3045,0.2877 1.6106,0.6125 0.3039,0.3229 0.43,0.7336 0.3764,1.2271 -0.0558,0.508 -0.2624,0.8842 -0.6213,1.1265 -0.3603,0.2413 -0.9655,0.3167 -1.8159,0.2243 -0.718,-0.0797 -1.2248,-0.2829 -1.5253,-0.6089 -0.2979,-0.3271 -0.4201,-0.7404 -0.3648,-1.2388 0.051,-0.4748 0.2593,-0.841 0.627,-1.0933 0.3668,-0.2517 0.94,-0.335 1.7133,-0.2494 z m 3.0444,7.289 -7.6125,-0.8371 -0.4277,3.9433 c -0.0802,0.731 -0.0771,1.2971 0.0051,1.6965 0.0819,0.4003 0.2786,0.7373 0.5921,1.0123 0.3096,0.2738 0.7098,0.4368 1.1929,0.4898 0.4232,0.0473 0.7962,-0.005 1.1233,-0.1511 0.326,-0.1468 0.601,-0.3699 0.8266,-0.665 0.1429,-0.1902 0.2741,-0.4555 0.3898,-0.7982 0.0635,0.2925 0.1358,0.5074 0.2151,0.6482 0.0528,0.093 0.1721,0.2336 0.358,0.423 0.1883,0.1873 0.3314,0.3152 0.4374,0.3824 l 2.0826,1.3872 0.29,-2.6742 -2.1906,-1.5199 c -0.2815,-0.1928 -0.4629,-0.3577 -0.5389,-0.4935 -0.0995,-0.182 -0.136,-0.383 -0.1133,-0.599 l 0.0229,-0.2083 3.0895,0.3393 z m -4.786,1.8779 -0.1089,0.9981 c -0.0119,0.1072 -0.0677,0.3124 -0.1715,0.6154 -0.0487,0.1531 -0.1414,0.2724 -0.2803,0.3586 -0.1384,0.083 -0.2909,0.1168 -0.4573,0.0992 -0.246,-0.0272 -0.4254,-0.1264 -0.5405,-0.2974 -0.1146,-0.1712 -0.1486,-0.4725 -0.1015,-0.9048 l 0.1128,-1.0392 z m 1.4113,5.7206 -0.3835,2.2363 c 0.358,0.0873 0.6242,0.218 0.7985,0.3895 0.2823,0.2763 0.3963,0.6423 0.3473,1.0953 -0.0372,0.3373 -0.1421,0.5876 -0.3204,0.7537 -0.178,0.1655 -0.3693,0.2358 -0.5765,0.214 -0.197,-0.0221 -0.3657,-0.127 -0.5026,-0.32 -0.1361,-0.1914 -0.2401,-0.6098 -0.3098,-1.2589 -0.1191,-1.0641 -0.3461,-1.8374 -0.6826,-2.3216 -0.3351,-0.4887 -0.7997,-0.7647 -1.3961,-0.8294 -0.3917,-0.0436 -0.7741,0.0298 -1.1466,0.22 -0.3727,0.1885 -0.6812,0.5026 -0.9323,0.9374 -0.2478,0.4371 -0.4164,1.0534 -0.5034,1.8496 -0.1055,0.9791 -0.0057,1.7462 0.2996,2.2983 0.3053,0.5542 0.8492,0.9222 1.6262,1.107 l 0.3725,-2.2156 c -0.3351,-0.0969 -0.5718,-0.2494 -0.707,-0.4566 -0.1338,-0.2064 -0.1834,-0.4771 -0.1471,-0.8099 0.0292,-0.2761 0.1083,-0.4771 0.2415,-0.6029 0.1296,-0.1265 0.2801,-0.1806 0.4456,-0.1622 0.1208,0.0133 0.2237,0.0822 0.3082,0.2058 0.0881,0.1245 0.1522,0.3983 0.193,0.8277 0.1091,1.0579 0.2554,1.8224 0.4328,2.2941 0.1775,0.4725 0.4227,0.8297 0.7373,1.0704 0.3136,0.2398 0.6775,0.3838 1.0934,0.4303 0.4881,0.0533 0.9538,-0.0346 1.394,-0.2605 0.4422,-0.2245 0.7963,-0.5706 1.0619,-1.0369 0.2653,-0.4621 0.438,-1.0647 0.5185,-1.8068 0.1414,-1.3014 -0.0094,-2.2318 -0.4544,-2.7868 -0.4434,-0.5573 -1.0457,-0.9105 -1.808,-1.0613 z m -5.9777,7.5864 -0.2579,2.3666 2.8771,0.3158 -3.1459,2.1651 -0.3424,3.1445 3.1754,-2.4744 4.4235,3.4365 0.3163,-2.9152 -2.9554,-1.9567 1.4043,-1.0832 1.8601,0.2036 0.2574,-2.365 z m -0.9762,8.9949 -0.2591,2.3703 7.6136,0.8368 0.2562,-2.3712 z"
       style="fill:#244ba6;fill-opacity:1;fill-rule:nonzero;stroke:none"
       transform="matrix(1.3333333,0,0,-1.3333333,0,377.9528)" />
    <path
       id="path10"
       d="m 184.2239,98.2565 14.0811,-1.4417 -0.919,-3.6326 -2.4848,0.4484 -0.3229,-1.2739 2.3873,-0.8345 -0.9286,-3.6745 -13.1114,5.2755 z m 8.2488,-4.1108 c -1.5817,0.2109 -3.5257,0.5184 -5.8289,0.9147 2.5036,-1.0236 4.3433,-1.7325 5.5225,-2.1288 z M 174.1232,78.3017 184.21,68.538 181.6829,65.8984 171.597,75.6615 Z m -15.1931,-11.0767 3.3843,-13.6624 -3.0943,-0.775 -3.3784,5.7487 1.5398,-6.2099 -2.9537,-0.7407 -3.3854,13.6613 2.9526,0.7407 3.5073,-5.656 -1.5262,6.1532 z m -20.6306,-2.0933 -4.672,-8.1091 -1.1866,-4.9558 -3.2794,0.7954 1.1874,4.9549 -0.3963,9.3362 3.2539,-0.7883 c -0.1315,-2.7896 -0.2747,-4.6556 -0.4359,-5.5919 0.5487,1.4108 1.3056,3.1275 2.2748,5.1466 z m -24.6268,14.1406 1.8845,-1.9797 c 1.218,-1.2753 1.9819,-2.1929 2.2926,-2.755 0.3116,-0.5641 0.449,-1.0891 0.4059,-1.5798 -0.0419,-0.4929 -0.2012,-0.9258 -0.4697,-1.2999 -0.2712,-0.3725 -0.8844,-1.0211 -1.843,-1.9455 l -3.5391,-3.4123 c -0.9079,-0.8745 -1.5537,-1.4153 -1.9446,-1.6234 -0.3863,-0.2081 -0.7679,-0.2908 -1.144,-0.2444 -0.3782,0.0482 -0.7481,0.1973 -1.1177,0.442 -0.3674,0.2497 -0.8513,0.6879 -1.4531,1.3192 l -3.1779,3.3364 z m 0.7928,-4.3101 -6.6486,-6.4094 c 0.3611,-0.3796 0.6616,-0.5434 0.8957,-0.4856 0.2379,0.0601 0.692,0.4161 1.3655,1.0644 l 3.9265,3.7865 c 0.4575,0.4411 0.7348,0.7376 0.8399,0.8907 0.0981,0.1539 0.131,0.3112 0.0899,0.4748 -0.0397,0.1624 -0.1956,0.3915 -0.4689,0.6786 z m -12.3009,15.0151 -0.9896,3.5212 1.2237,0.3481 c 0.7694,0.2197 1.243,0.3909 1.4205,0.5131 0.1735,0.1227 0.2251,0.3075 0.1548,0.559 -0.0616,0.2199 -0.1846,0.3424 -0.3745,0.3747 -0.1865,0.0303 -0.6273,-0.0521 -1.3153,-0.2474 L 95.8207,93.2054 C 95.2169,93.0339 94.83,92.88 94.6587,92.7482 c -0.1678,-0.1349 -0.2211,-0.3161 -0.1544,-0.5508 0.0722,-0.2568 0.2287,-0.3991 0.4714,-0.4331 0.2437,-0.0289 0.678,0.0448 1.305,0.2239 l 1.5948,0.4538 -0.1984,0.7107 2.0474,0.5834 1.16,-4.1244 -7.2292,-2.0583 -0.6242,2.2161 0.8731,0.6018 c -0.4842,0.1197 -0.8793,0.3354 -1.1923,0.6407 -0.3098,0.307 -0.5374,0.7078 -0.6763,1.2044 -0.167,0.5913 -0.1786,1.1872 -0.0383,1.7819 0.1409,0.5992 0.3821,1.0896 0.731,1.4788 0.3439,0.3895 0.7407,0.6806 1.1841,0.8813 0.4445,0.1979 1.1307,0.4294 2.0571,0.6933 l 4.0028,1.1396 c 1.2852,0.3659 2.2371,0.5624 2.8604,0.589 0.6248,0.0261 1.2697,-0.2205 1.9406,-0.7461 0.6704,-0.5221 1.1554,-1.3065 1.4522,-2.3578 0.2891,-1.031 0.3198,-1.9471 0.0885,-2.7476 -0.2288,-0.8003 -0.6069,-1.3893 -1.1285,-1.7595 -0.5207,-0.3705 -1.3323,-0.7135 -2.4372,-1.0273 z"
       style="fill:#244ba6;fill-opacity:1;fill-rule:nonzero;stroke:none"
       transform="matrix(1.3333333,0,0,-1.3333333,0,377.9528)" />
  </g>
</svg>
