<svg xmlns="http://www.w3.org/2000/svg" xmlns:svg="http://www.w3.org/2000/svg" width="300" height="300" viewBox="0 0 750 750">
<style type="text/css" id="style182">
	.st0{fill:#9C182F;}
	.st1{fill:#FFFFFF;}
	.st2{fill:#BD9D39;}
</style>
<circle class="st0" cx="375" cy="375" r="375" id="circle184" style="stroke-width:0.999999"/><path id="path909" d="m 374.99999,144.45734 c -127.24163,0 -230.53951,103.03413 -230.53951,230.54476 0,127.24162 103.29788,230.53952 230.53951,230.53952 127.24162,0 230.53951,-103.2979 230.53951,-230.53952 0,-127.24162 -103.29789,-230.54476 -230.53951,-230.54476 z m 0,15.87264 c 118.36431,0 214.67212,96.30782 214.67212,214.67212 0,118.36432 -96.30781,214.66687 -214.67212,214.66687 -118.3643,0 -214.67212,-96.30255 -214.67212,-214.66687 0,-118.3643 96.30782,-214.67212 214.67212,-214.67212 z" style="fill:#ffffff;stroke-width:0.999999"/><g id="g966" transform="matrix(2.6901005,0,0,2.6901005,-6.9942778,-6.4562507)" style="stroke-width:0.371733"><path d="m 194.4,124.7 v 6 5.9 c -2.7,-1.7 -5.4,-3.3 -8.3,-4.8 v 15.3 c 2.9,1.6 5.6,3.4 8.3,5.3 2.9,2.1 5.7,4.3 8.3,6.7 v -16.6 -12.4 c -2.7,-1.8 -5.4,-3.7 -8.3,-5.4 z" id="path913" style="fill:#ffffff;stroke-width:0.371733"/><path d="m 81.4,130.2 v 12.4 16.6 c 2.6,-2.4 5.4,-4.6 8.3,-6.7 2.7,-1.9 5.4,-3.7 8.3,-5.3 V 132 c -2.8,1.5 -5.6,3 -8.3,4.8 v -5.9 -6 c -2.9,1.5 -5.7,3.4 -8.3,5.3 z" id="path911" style="fill:#ffffff;stroke-width:0.371733"/><path d="m 208.4,174.3 c -1.1,2.3 -2.3,4.4 -3.7,6.6 -16.4,-15.3 -38.5,-24.6 -62.7,-24.6 -24.2,0 -46.2,9.3 -62.7,24.6 -1.3,-2.1 -2.6,-4.3 -3.7,-6.6 7.5,-9.6 17,-17.6 28,-23.2 v -43.7 0 V 92 H 119 v 15.3 h 15.3 V 92 h 15.3 v 15.3 h 15.3 V 92 h 15.3 v 15.3 0 43.7 c 11.2,5.7 20.7,13.6 28.2,23.3 z" id="path186" style="fill:#ffffff;stroke-width:0.371733"/></g><g id="g997" style="fill:#ffffff;stroke-width:0.371733" transform="matrix(2.6901005,0,0,2.6901005,-6.9942778,-6.4562507)"><path d="m 205,223.8 c 1.7,-0.7 3.1,-0.3 4,1 l 3.3,4.5 c 1.7,2.3 1.5,4.3 -0.7,5.9 l -1.9,1.4 c -2.2,1.6 -4.1,1.2 -5.8,-1.1 l -1,-1.3 2.7,-2 0.8,1.1 c 0.6,0.8 1.2,0.9 2,0.4 l 0.6,-0.5 c 0.8,-0.6 0.9,-1.3 0.4,-2.1 l -3.1,-4.2 c -0.7,-0.9 -1.5,-1 -2.6,-0.2 l -0.7,0.5 -1.7,-2.3 0.4,-0.3 c 1.1,-0.8 1.3,-1.6 0.6,-2.5 l -2.8,-3.9 c -0.6,-0.8 -1.3,-0.9 -2.1,-0.3 l -0.4,0.3 c -0.7,0.5 -0.8,1.2 -0.2,2 l 1.5,2.1 -2.7,2 -1.7,-2.3 c -1.7,-2.3 -1.5,-4.3 0.7,-5.9 l 1.6,-1.2 c 2.2,-1.6 4.1,-1.2 5.9,1.1 l 3,4.1 c 0.9,1.3 0.9,2.5 -0.1,3.7 z" id="path483" style="fill:#ffffff;stroke-width:0.371733"/><path d="m 197.7,240.7 1.4,2.7 -8.1,4.2 -3.6,-7 c -0.2,-0.4 -0.3,-0.7 -0.4,-1 -0.1,-0.3 -0.1,-0.6 0,-0.9 0,-0.3 0.2,-0.8 0.4,-1.4 l 1.6,-4.5 c 0.1,-0.3 0.2,-0.6 0.2,-0.9 0,-0.2 0.1,-0.4 0.1,-0.6 0,-0.1 0,-0.3 -0.1,-0.4 -0.1,-0.1 -0.1,-0.3 -0.2,-0.5 l -2.1,-4.2 c -0.5,-0.9 -1.1,-1.1 -2,-0.7 l -0.2,0.1 c -0.9,0.4 -1.1,1.1 -0.6,2 l 1.2,2.3 -3,1.6 -1.3,-2.5 c -1.3,-2.6 -0.8,-4.5 1.6,-5.7 l 1.6,-0.8 c 2.4,-1.2 4.3,-0.6 5.6,2 l 2.8,5.4 c 0.2,0.4 0.3,0.8 0.4,1.2 0,0.4 -0.1,0.9 -0.3,1.6 l -1.7,4.9 c -0.2,0.6 -0.3,1 -0.3,1.2 0,0.2 0.1,0.3 0.1,0.5 0.1,0.2 0.2,0.4 0.3,0.6 l 1.7,3.3 z" id="path481" style="fill:#ffffff;stroke-width:0.371733"/><path id="path477" d="m 172.98242,227.72266 c -0.53906,-0.0156 -1.1332,0.0773 -1.7832,0.27734 l -2.29883,0.69922 c -2.5,0.8 -3.4,2.60039 -2.5,5.40039 L 171.5,250 c 0.9,2.8 2.59922,3.70039 5.19922,2.90039 L 179,252.19922 c 2.5,-0.8 3.4,-2.59844 2.5,-5.39844 l -5.09961,-15.90039 c -0.675,-2.1 -1.80078,-3.13086 -3.41797,-3.17773 z m -1.00586,3.32226 c 0.60469,-0.0141 0.99766,0.37969 1.22266,1.05469 l 5,15.5 c 0.3,0.9 0.10117,1.50078 -0.79883,1.80078 l -0.80078,0.29883 c -1,0.4 -1.60039,0.002 -1.90039,-0.89844 l -5,-15.5 c -0.3,-0.9 -0.0992,-1.50078 0.80078,-1.80078 l 0.80078,-0.30078 c 0.25,-0.1 0.47422,-0.14961 0.67578,-0.1543 z" style="fill:#ffffff;stroke-width:0.371733"/><path d="m 163.7,253.2 0.5,3 -9,1.4 -1.2,-7.7 c -0.1,-0.4 -0.1,-0.8 -0.1,-1.1 0,-0.3 0.1,-0.6 0.2,-0.8 0.1,-0.3 0.4,-0.7 0.8,-1.2 l 2.9,-3.8 c 0.2,-0.3 0.4,-0.5 0.5,-0.8 0.1,-0.2 0.2,-0.4 0.2,-0.5 0,-0.1 0.1,-0.3 0,-0.4 0,-0.1 0,-0.3 -0.1,-0.6 l -0.7,-4.7 c -0.1,-1 -0.7,-1.4 -1.7,-1.3 h -0.2 c -1,0.1 -1.4,0.7 -1.2,1.7 l 0.4,2.6 -3.4,0.5 -0.4,-2.8 c -0.4,-2.9 0.7,-4.5 3.4,-4.9 l 1.8,-0.3 c 2.7,-0.4 4.2,0.8 4.7,3.7 l 0.9,6 c 0.1,0.5 0.1,0.9 0,1.3 -0.1,0.4 -0.3,0.9 -0.8,1.4 L 158,248 c -0.4,0.5 -0.6,0.9 -0.7,1 0,0.2 -0.1,0.3 0,0.5 0,0.2 0,0.4 0.1,0.7 l 0.6,3.6 z" id="path475" style="fill:#ffffff;stroke-width:0.371733"/><path d="m 139.3,242.4 c 0.6,0 1.1,0.2 1.6,0.5 0.5,0.3 0.9,0.7 1.2,1.3 0.3,0.6 0.4,1.1 0.4,1.7 0,0.9 -0.4,1.7 -1.1,2.4 -0.7,0.6 -1.5,1 -2.4,0.9 -0.9,0 -1.7,-0.4 -2.4,-1.1 -0.6,-0.7 -1,-1.5 -0.9,-2.4 0,-0.6 0.2,-1.1 0.5,-1.7 0.3,-0.5 0.8,-0.9 1.3,-1.2 0.6,-0.2 1.2,-0.4 1.8,-0.4 z" id="path473" style="fill:#ffffff;stroke-width:0.371733"/><path d="m 121.7,243.1 c 1.6,0.9 2.3,2.1 1.9,3.7 l -1.2,5.4 c -0.6,2.8 -2.3,3.9 -4.9,3.3 l -2.2,-0.5 c -2.6,-0.6 -3.7,-2.3 -3,-5.1 l 0.4,-1.6 3.3,0.7 -0.3,1.3 c -0.2,1 0.1,1.5 1,1.7 l 0.8,0.2 c 1,0.2 1.6,-0.1 1.8,-1.1 l 1.2,-5.1 c 0.2,-1.1 -0.3,-1.8 -1.6,-2.1 l -0.9,-0.2 0.6,-2.8 0.5,0.1 c 1.3,0.3 2.1,-0.1 2.3,-1.2 l 1.1,-4.7 c 0.2,-1 -0.2,-1.6 -1.2,-1.8 l -0.4,-0.1 c -0.9,-0.2 -1.4,0.2 -1.6,1.2 l -0.6,2.5 -3.3,-0.7 0.6,-2.8 c 0.6,-2.8 2.3,-4 4.9,-3.4 l 1.9,0.4 c 2.6,0.6 3.7,2.3 3,5.1 l -1.1,4.9 c -0.6,1.9 -1.5,2.7 -3,2.7 z" id="path471" style="fill:#ffffff;stroke-width:0.371733"/><path d="m 97.2,249.3 12.1,-19.2 -5.9,-2.3 1.1,-2.9 8.3,3.2 0.2,2.1 -12.7,20.4 z" id="path469" style="fill:#ffffff;stroke-width:0.371733"/><path id="path465" d="m 94.060547,219.54102 c -1.409374,-0.0706 -2.628907,0.77109 -3.660156,2.55859 l -3.5,6.20117 c -1.499999,2.7 -1.10117,4.7 1.298828,6 l 0.701172,0.39844 2.5,-0.19922 -3.09961,5.40039 c -0.499999,0.8 -1.100391,0.99961 -1.90039,0.59961 L 86,240.30078 c -0.899999,-0.5 -1.00039,-1.30039 -0.400391,-2.40039 L 86.099609,237 83,235.19922 l -0.699219,1.20117 c -1.499998,2.7 -1.101169,4.7 1.298828,6 l 1.800782,1 c 2.399997,1.4 4.298829,0.69961 5.798828,-1.90039 l 8.101562,-14.30078 C 100.80078,224.59922 100.4,222.60078 98,221.30078 l -1.900391,-1.10156 c -0.718749,-0.40625 -1.398438,-0.6261 -2.039062,-0.6582 z m 0.412109,3.6914 c 0.28125,-0.009 0.590235,0.0801 0.927735,0.26758 l 0.298828,0.19922 c 0.999999,0.5 1.201171,1.20156 0.701172,2.10156 l -4.201172,7.29883 -1.798828,-0.90039 c -0.899999,-0.5 -1.00039,-1.29844 -0.400391,-2.39844 l 3.300781,-5.70117 c 0.3125,-0.5625 0.703126,-0.85156 1.171875,-0.86719 z" style="fill:#ffffff;stroke-width:0.371733"/><path d="m 80.9,216.6 0.8,-2.3 c 0.9,0.3 1.8,0.4 2.6,0.3 0.8,-0.1 1.6,-0.3 2.3,-0.6 l 0.3,0.2 1,2.3 -14.8,19.2 -2.7,-2 12.6,-16.3 z" id="path463" style="fill:#ffffff;stroke-width:0.371733"/></g><g id="g986" style="fill:#ffffff;stroke-width:0.371733" transform="matrix(2.6901005,0,0,2.6901005,-6.9942778,-6.4562507)"><path id="path459" d="m 230.64648,67.986328 c -0.8914,0.02187 -1.83945,0.425392 -2.8457,1.212891 L 211,82.099609 l 2.09961,2.701172 7.40039,-5.701172 2.40039,3.09961 -7.40039,5.701172 2.09961,2.699218 16.80078,-12.90039 c 2.3,-1.799998 2.7,-3.69844 1,-5.898438 l -1.59961,-2 c -0.95625,-1.237499 -2.0082,-1.842578 -3.1543,-1.814453 z m -0.18945,3.734375 c 0.45313,-0.04687 0.86719,0.179688 1.24219,0.679688 l 0.60156,0.699218 c 0.6,0.8 0.49922,1.49961 -0.30078,2.09961 l -6.69922,5.201172 -2.40039,-3.09961 6.69922,-5.201172 c 0.3,-0.224999 0.58555,-0.350781 0.85742,-0.378906 z" style="fill:#ffffff;stroke-width:0.371733"/><path d="m 207.8,78.7 -5.9,-5.6 17.5,-18.6 2.5,2.3 -15.4,16.3 3.4,3.2 z" id="path457" style="fill:#ffffff;stroke-width:0.371733"/><path d="m 198.1,69.9 -6.6,-4.7 14.7,-20.9 2.8,2 -13,18.4 3.8,2.7 z" id="path455" style="fill:#ffffff;stroke-width:0.371733"/><path d="m 179.2,58.6 11.4,-22.8 7.6,3.8 -1.4,2.8 -4.5,-2.3 -3.5,6.9 4,2 -1.4,2.8 -4,-2 -3.8,7.6 4.5,2.3 -1.4,2.8 z" id="path453" style="fill:#ffffff;stroke-width:0.371733"/><path id="path449" d="M 170.90039,28.800781 163.5,53.199219 l 6.40039,1.90039 c 2.6,0.8 4.3,0.10117 5,-2.298828 l 4.90039,-16.201172 c 0.9,-3.099997 -0.10117,-5.19961 -3.20117,-6.099609 z m 2.5,3.798828 2.29883,0.701172 c 0.9,0.3 1.30039,0.99922 0.90039,2.199219 l -4.79883,15.699219 c -0.2,0.699999 -0.70156,1.001171 -1.60156,0.701172 l -2.5,-0.701172 z" style="fill:#ffffff;stroke-width:0.371733"/><path id="path445" d="m 153.36914,25.757812 c -2.25837,10e-7 -3.59727,1.313284 -3.86914,3.941407 l -2.40039,21 3.40039,0.40039 1.09961,-9.298828 3.90039,0.398438 -1.09961,9.300781 3.40039,0.400391 2.39844,-21 c 0.3,-2.899997 -0.89961,-4.500782 -3.59961,-4.800782 l -2.5,-0.298828 c -0.25313,-0.02812 -0.49685,-0.04297 -0.73047,-0.04297 z m 0.87891,3.228516 c 0.10976,-0.0033 0.22656,0.0012 0.35156,0.01367 l 0.90039,0.09961 c 1,0.2 1.40078,0.701173 1.30078,1.701172 l -1,8.398438 -3.90039,-0.5 1,-8.398438 c 0.175,-0.874999 0.5793,-1.291211 1.34766,-1.314452 z" style="fill:#ffffff;stroke-width:0.371733"/><path d="m 138.1,28.4 1.1,22.4 -3.4,0.2 -1.1,-22.4 -3.3,0.2 -0.2,-3.1 9.9,-0.5 0.2,3.1 z" id="path443" style="fill:#ffffff;stroke-width:0.371733"/><path d="m 121.2,30.2 4.4,22 -3.3,0.7 -4.4,-22 -3.2,0.6 -0.6,-3 9.8,-2 0.6,3 z" id="path441" style="fill:#ffffff;stroke-width:0.371733"/><path d="M 111,56.2 102.8,32 106,30.9 114.2,55.1 Z" id="path439" style="fill:#ffffff;stroke-width:0.371733"/><path d="m 103,52.8 0.7,1.5 c 1.3,2.6 0.7,4.5 -1.7,5.7 l -2,1 c -2.4,1.2 -4.3,0.6 -5.6,-2 L 86.8,44 c -1.3,-2.6 -0.7,-4.5 1.7,-5.7 l 2,-1 c 2.4,-1.2 4.3,-0.6 5.6,2 l 1.3,2.6 -3,1.5 -1.2,-2.4 c -0.5,-0.9 -1.1,-1.1 -2,-0.6 l -0.6,0.3 c -0.8,0.4 -1,1.1 -0.5,1.9 l 7.4,14.6 c 0.4,0.9 1.1,1.1 1.9,0.7 l 0.8,-0.4 c 0.8,-0.4 1,-1.1 0.5,-1.9 l -0.6,-1.2 z" id="path437" style="fill:#ffffff;stroke-width:0.371733"/><path d="m 69.4,59.6 -1.5,-1.7 c -0.7,-0.8 -1.4,-0.8 -2.1,-0.1 l -0.4,0.4 c -0.7,0.7 -0.7,1.4 0,2.1 l 2.9,3.1 c 0.3,0.3 0.6,0.5 0.9,0.5 0.3,0 0.6,-0.1 1.1,-0.2 l 3.6,-0.9 c 0.8,-0.2 1.4,-0.3 1.8,-0.3 0.4,0 0.7,0 1.1,0.1 0.3,0.1 0.8,0.5 1.4,1.2 l 3.7,4 c 1.9,2.1 1.9,4.1 -0.1,6 l -1.5,1.4 c -2,1.8 -4.1,1.6 -6.2,-0.7 l -0.9,-0.9 2.5,-2.3 0.9,1 c 0.7,0.7 1.4,0.8 2.1,0.1 L 79.1,72 c 0.7,-0.6 0.7,-1.3 0,-2 L 76,66.8 c -0.3,-0.3 -0.6,-0.5 -0.9,-0.5 -0.3,0 -0.6,0.1 -1.1,0.2 l -3.6,0.8 c -0.8,0.2 -1.4,0.3 -1.8,0.3 -0.4,0 -0.8,-0.1 -1.2,-0.3 -0.4,-0.2 -0.8,-0.6 -1.2,-1.1 l -3.5,-3.9 c -2,-2.2 -1.9,-4.1 0.1,-6 l 1.6,-1.4 c 2,-1.8 4,-1.7 6,0.5 l 1.7,1.8 z" id="path435" style="fill:#ffffff;stroke-width:0.371733"/><path id="path431" d="m 53.511719,67.986328 c -1.136205,-0.02813 -2.155079,0.576954 -3.111328,1.814453 l -1.59961,2 c -1.599998,2.199998 -1.299997,4.09844 1,5.898438 l 16.798828,12.90039 2.09961,-2.699218 -7.398438,-5.701172 2.398438,-3.09961 7.40039,5.701172 2.09961,-2.701172 -16.798828,-12.90039 C 55.350392,68.41172 54.395434,68.008203 53.511719,67.986328 Z m -0.103516,3.628906 C 53.719922,71.609766 54.050391,71.7375 54.400391,72 l 6.798828,5.199219 -2.398438,3.101562 -6.701172,-5.201172 C 51.29961,74.49961 51.200782,73.799999 51.800781,73 l 0.5,-0.699219 c 0.3375,-0.449999 0.706641,-0.678515 1.107422,-0.685547 z" style="fill:#ffffff;stroke-width:0.371733"/></g><path id="path188" style="fill:#bd9d39;fill-opacity:1;stroke-width:0.999999" d="m 374.99999,29.996712 c -190.26506,0 -345.005386,154.952288 -345.005386,345.141998 0,190.18972 154.740326,344.86878 345.005386,344.86878 190.26505,0 345.00539,-154.95226 345.00539,-345.14199 0,-190.18972 -154.74034,-344.868788 -345.00539,-344.868788 z m 0,15.867391 c 181.65447,0 329.13275,147.961637 329.13275,329.274607 0,181.31301 -147.7474,328.99614 -329.13275,328.99614 -181.38538,0 -329.132741,-147.95636 -329.132741,-329.26935 0,-181.31299 147.747361,-329.001394 329.132741,-329.001397 z"/>
</svg>