<svg xmlns:inkscape="http://www.inkscape.org/namespaces/inkscape" xmlns:sodipodi="http://sodipodi.sourceforge.net/DTD/sodipodi-0.dtd" xmlns="http://www.w3.org/2000/svg" xmlns:svg="http://www.w3.org/2000/svg" width="314.89440336959353" height="317.5667745438758" viewBox="0 0 187.11861 188.70771" version="1.1" id="svg1" inkscape:version="1.3.2 (091e20e, 2023-11-25, custom)" xml:space="preserve" sodipodi:docname="Avellino.svg"><sodipodi:namedview id="namedview1" pagecolor="#ffffff" bordercolor="#111111" borderopacity="1" inkscape:showpageshadow="0" inkscape:pageopacity="0" inkscape:pagecheckerboard="1" inkscape:deskcolor="#d1d1d1" inkscape:document-units="px" inkscape:zoom="0.51717103" inkscape:cx="148.88692" inkscape:cy="445.69395" inkscape:window-width="1920" inkscape:window-height="1017" inkscape:window-x="-8" inkscape:window-y="-8" inkscape:window-maximized="1" inkscape:current-layer="layer1"/><defs id="defs1"/><g inkscape:label="Layer 1" inkscape:groupmode="layer" id="layer1"><g id="g4" transform="matrix(0.33285936,0,0,0.33285936,-5.5123173,-45.761571)"><path id="path6" style="fill:#ac7428;fill-rule:evenodd" d="M 297.6379,137.4802 A 281.0775,283.4646 0 0 1 578.7155,420.9448 281.0775,283.4646 0 1 1 297.6379,137.4802 Z"/><path id="path8" style="fill:#ffffff;fill-rule:evenodd" d="M 297.6379,150.0453 A 268.5124,270.8995 0 0 1 566.1504,420.9447 268.5124,270.8995 0 1 1 297.6379,150.0453 Z"/><path id="path10" style="fill:#008633;fill-rule:evenodd" d="M 32.5145,415.0842 302.5686,155.2587 561.2628,426.8033 293.83,684.9828 Z"/><path id="path12" style="fill:#ffffff;fill-rule:evenodd" d="M 302.369,662.1149 546.6181,426.6363 302.369,176.7262 v 107.41 c -3.5811,-16.4273 -6.5749,-32.4193 -10.696,-50.1034 -0.3945,-1.6929 -2.2394,-1.9381 -3.3909,-0.3083 -6.9591,9.848 -12.5938,18.9711 -16.7311,28.5141 -4.4042,10.159 -7.5795,21.3096 -10.2419,33.7552 -2.1006,4.4095 -4.4433,8.8877 -6.9167,13.1104 -5.5761,9.5165 -13.1534,16.8799 -23.4155,35.6178 -12.514,22.8492 -21.8861,53.682 -29.3168,77.3515 -10.7275,14.6794 -21.4553,29.3596 -32.182,44.0387 -2.2715,3.1075 -4.1861,8.2452 -1.7882,11.435 2.6072,3.468 7.0999,-1.3883 12.5299,2.5047 7.0901,5.083 1.172,17.0838 8.2874,21.2372 6.289,3.671 8.6604,-6.6645 13.4187,-3.5916 5.432,3.5076 8.3435,15.9037 9.0516,23.4908 0.2482,2.6596 1.5475,3.339 3.5436,2.7414 1.7323,-0.5185 4.0566,-2.0947 5.8716,-2.6169 2.5934,-0.7458 2.8277,1.5109 3.3029,3.3901 1.4377,5.6802 2.5454,13.1972 6.2739,16.8816 1.9023,1.88 5.0431,3.2295 7.9163,2.1665 3.6941,-1.3665 6.0485,-5.9343 10.36,-3.6165 4.5866,2.4661 4.815,15.9738 4.7069,21.548 -0.0854,4.4034 5.0986,6.946 9.5975,5.2556 3.2826,-1.2334 5.1126,-4.684 9.1647,-4.4623 2.255,0.1234 5.4893,1.1495 7.2319,4.4424 1.2264,2.3179 1.55,6.3164 2.4706,9.2323 1.4282,4.5229 2.9156,8.1249 5.6317,10.2042 3.3992,2.6041 4.6529,0.0994 6.6717,-2.762 2.8702,-4.0686 5.6965,-8.1386 7.2001,-9.8536 z m -46.0396,-293.3701 7.7024,19.1866 c 0.072,0.1792 5.1341,0.8413 7.1065,-0.4725 l 10.161,-6.7678 c 1.4053,-0.936 0.399,-2.8093 -0.9254,-2.3879 l -10.4039,3.3124 c -1.5312,0.4873 -3.0117,0.2474 -3.9007,-1.0929 l -8.4298,-12.7036 c -0.6517,-0.9823 -1.9697,-0.717 -1.3101,0.9257 z m -26.5235,39.1179 c 4.9311,5.9977 5.7107,9.0418 10.8023,13.0439 2.0127,0.3454 3.7497,-0.1468 4.9392,-0.5244 2.2718,-0.7209 3.717,-1.61 6.3431,-2.7143 1.2365,-0.5196 3.4973,-0.3091 4.5034,-0.8879 0.8061,-0.4635 1.4584,-1.0432 2.0551,-1.6343 1.6114,-1.5958 0.4222,-4.0572 -1.0421,-3.8399 l -13.9961,2.0796 -9.5227,-12.2395 c -0.7525,-0.9678 -3.5548,-1.4734 -4.7903,-0.2353 -1.4749,1.4779 -1.2996,4.51 0.7081,6.9521 z m 5.6699,33.6202 c 4.9305,5.9975 7.2894,10.8764 11.8405,13.603 1.9864,1.19 5.7085,-0.5772 8.4401,-1.2157 2.451,-0.573 5.2419,-1.3688 8.3524,-2.1827 1.2962,-0.339 2.6052,-0.0162 3.6249,-0.5685 1.4445,-0.7821 2.0185,-1.1239 2.5343,-2.0336 1.1183,-1.9714 0.3186,-3.9298 -1.9205,-3.4406 -0.8201,0.179 -1.6371,0.6143 -2.4555,0.8013 -1.0519,0.2407 -2.1045,0.2421 -3.1569,0.4831 l -11.269,2.5792 c -0.1563,-0.4085 -0.1988,-0.8815 -0.4688,-1.225 l -10.6407,-13.5172 c -1.343,-1.7063 -4.1945,-2.0316 -5.4292,-0.7944 -1.474,1.4771 -1.4589,5.0696 0.5484,7.5111 z m -37.5861,4.7022 14.5596,11.9996 c 5.5465,-2.3466 10.1562,-5.1034 16.1595,-7.0398 2.639,-0.8513 3.8835,0.7637 3.6333,2.2849 -0.1477,0.8969 -1.3863,1.7251 -2.2776,2.4393 -0.8916,0.7146 -1.4369,1.3168 -2.1179,1.7625 -2.1897,1.4338 -4.5405,2.6261 -6.4596,3.409 -3.4805,1.4202 -6.5819,1.5617 -11.6576,1.464 l -14.7196,-11.0397 c -1.7496,-1.3126 -1.9244,-4.5351 -0.6841,-5.797 0.7441,-0.7569 2.2034,-0.6042 3.564,0.5172 z m 21.5994,24.4793 10.7197,12.3196 c 5.5465,-2.3466 11.5166,-4.5642 13.7596,-6.3998 1.2749,-1.0435 2.7632,0.7651 2.1933,2.7649 -0.8469,2.9723 -5.4052,4.264 -7.3352,5.0509 -3.4797,1.419 -7.0619,3.6416 -10.8576,3.5439 -4.7466,-3.9999 -8.0531,-7.9998 -12.3197,-11.5197 -1.4492,-1.1956 -1.9018,-4.0032 -0.8726,-5.6222 0.9667,-1.5209 3.0614,-2.035 4.7125,-0.1376 z m 28.9592,14.0796 14.3996,8.6397 c 3.2532,-1.2799 6.6667,-1.4399 10.0797,-3.0399 1.2358,-0.5794 4.1314,0.1519 4.5463,1.6865 0.3641,1.347 -0.0651,3.1667 -1.6664,4.5533 -3.0321,2.6256 -11.7168,4.2668 -14.1036,3.1407 -5.5521,-2.6202 -10.8666,-6.8842 -14.2156,-10.5005 -1.9233,-2.0768 -1.7831,-6.1253 0.96,-4.4798 z m -8.1601,30.8794 c 2.25,1.1465 3.7838,2.4987 5.3519,3.368 2.9947,1.6602 4.8264,2.4602 8.8891,4.7121 1.4623,0.8106 2.7562,0.1411 3.5984,-0.3199 l 10.9601,-6.0006 c 1.245,1.6899 1.1655,3.6154 -0.7469,5.7057 -1.9217,2.1009 -5.4357,4.4263 -7.5123,5.7347 -2.9944,1.8867 -5.9642,2.0816 -9.0047,0.9784 -4.4436,-1.6125 -8.7682,-5.7274 -11.2952,-9.1396 -0.9194,-1.2414 -1.3598,-3.6525 -0.2404,-5.0388 z m 39.9179,36.6386 c -3.8117,-2.587 -6.3339,-4.5882 -8.5585,-7.9997 -0.2745,-0.4208 -1.156,-2.0038 -0.8092,-2.5697 0.3468,-0.5663 1.9236,-0.117 2.4092,0.01 2.3954,0.6255 4.6694,1.803 7.4047,2.7487 2.2662,0.7835 4.9504,1.409 7.3807,1.4299 5.3634,0.0464 13.2171,-2.7685 17.6936,-6.4185 -0.16,3.1466 0.16,6.7731 0,9.9197 -6.8532,3.0408 -17.1209,4.1602 -25.5205,2.8799 z M 246.0483,372.9072 c 1.6533,-3.4669 -0.1066,-5.6532 -3.5199,-5.5999 -1.6532,0.16 -3.3065,0.96 -4.9598,0.48 -1.4933,2.2933 0.2714,4.555 2.3999,5.1199 2.0244,0.5372 3.8932,0.2666 6.0798,0 z m 38.0008,-76.895 c 0.507,-9.5916 -0.0408,-18.8524 -1.8295,-28.2759 -0.7062,-3.721 -8.2932,-1.4327 -8.7341,6.3708 -0.0872,1.5443 1.035,1.947 1.9939,1.7758 1.2331,-0.2203 2.3896,-0.9197 3.041,0.382 2.2927,4.5829 1.2928,12.9158 1.6723,18.7421 0.1092,1.6773 0.8561,3.1577 1.8069,3.6433 1.2847,0.6565 1.9886,-1.4858 2.0495,-2.6381 z"/><path id="path14" style="fill:#ffffff;fill-rule:evenodd" d="m 42.3633,415.9426 248.3151,257.4586 4.7329,-4.7616 L 51.2107,416.5602 301.1245,175.6725 296.5413,170.979 Z"/><path id="path16" style="fill:#008633;fill-rule:evenodd" d="m 393.6588,365.8339 c 37.2443,36.5113 59.4094,46.156 78.7083,59.2298 7.4795,5.0671 11.4652,12.76 -11.4611,29.1404 -3.5107,2.5083 -7.6694,5.6811 -12.3414,7.5455 5.7417,5.9907 0.6417,12.3255 -5.4172,13.0892 -13.4561,1.6965 -31.8872,3.4704 -49.3149,3.0538 -15.7943,-0.3777 -31.1321,-1.8283 -44.2079,-3.3914 -7.1172,-0.8508 -11.2262,3.2429 -11.5443,8.4571 -0.4649,7.6214 6.4493,15.397 4.6405,33.6354 -1.2088,12.1906 -5.4826,18.7661 -7.0655,27.94 -2.2793,13.2103 4.5974,17.91 3.1988,29.2976 -1.1837,9.6357 -13.0524,18.1523 -22.1001,26.9792 l -16.0093,-15.9518 2.6423,-296.8798 c 14.3739,-9.1114 24.0731,-23.7748 28.6928,-41.097 2.121,-7.9526 9.1672,-7.7122 10.9006,3.8474 3.4069,22.7177 3.2145,36.2503 1.7139,62.0338 24.6921,10.7069 39.441,26.7508 48.9645,53.0708 z m -43.6746,-2.4081 c 6.8606,1.9367 11.8961,5.3796 11.2441,7.6882 -0.6514,2.3092 -6.7433,2.6107 -13.6041,0.6746 -6.8608,-1.9367 -11.896,-5.3795 -11.2443,-7.6884 0.6514,-2.3087 6.7432,-2.6105 13.6043,-0.6744 z m 95.3757,97.2125 c -9.6924,-10.3606 -22.0497,-12.2099 -35.0733,-11.7651 -6.4375,-2.8118 -11.9472,-7.237 -18.8686,-8.4354 -3.1404,-0.5437 -7.9079,0.454 -8.6573,3.5517 -0.9818,4.0563 1.9942,5.4714 5.1056,6.4375 7.3651,2.2869 15.3908,1.4799 23.0862,1.9979 9.7581,7.6588 21.6896,12.3942 34.4074,8.2134 z"/><g id="g18"><path id="path20" style="fill:#000200;fill-rule:evenodd" d="m 119.6294,233.5634 42.6438,44.2434 7.1989,-6.9386 -42.6437,-44.2434 z"/><path id="path22" style="fill:#000200;fill-rule:evenodd" d="m 142.5974,214.8976 8.6499,-5.7334 49.5647,31.7865 -7.7989,7.5169 z"/><path id="path24" style="fill:#000200;fill-rule:evenodd" d="m 101.1745,254.2379 6.0154,-6.6658 37.1664,46.7281 -7.1989,6.9386 z"/><path id="path26" style="fill:#000200;fill-rule:evenodd" d="m 83.4515,278.5529 13.6758,-18.9675 4.5328,9.2773 -9.4847,12.5778 12.3508,21.0471 10.8613,-12.1831 5.7971,7.7578 -12.2517,11.7684 3.4945,5.8645 12.3789,-11.91 4.3985,5.5989 -18.8972,18.2139 z"/><path id="path28" style="fill:#000200;fill-rule:evenodd" d="m 162.1684,267.4927 5.204,5.3992 18.2973,-17.6357 -5.204,-5.3992 z"/><path id="path30" style="fill:#000200;fill-rule:evenodd" d="m 135.0331,293.3576 18.0908,-17.1474 5.0175,4.8033 -18.2972,17.6358 z"/><path id="path32" style="fill:#000200;fill-rule:evenodd" d="m 65.4603,311.233 24.9926,34.7848 5.7742,-5.5654 -14.9703,-59.0548 -5.5528,9.547 6.476,28.3303 -13.0443,-15.6347 z"/><path id="path34" style="fill:#000200;fill-rule:evenodd" d="m 207.4272,233.7067 -52.0724,-28.2122 6.5502,-3.7096 19.5674,1.3914 -11.812,-6.552 6.9225,-3.9238 54.6076,18.536 -5.3991,5.204 -27.247,-0.3543 17.5065,9.3086 z"/><path id="path36" style="fill:#000200;fill-rule:evenodd" d="m 241.1053,200.8123 -41.5805,-9.9728 c -3.2491,-0.7794 -5.8462,-5.8796 2.3102,-9.4594 24.6129,-10.8015 53.5757,-16.902 73.9106,-17.7167 0.8379,-0.0335 2.1065,1.2774 0.5376,2.8089 z m -2.3137,-10.3547 11.7759,-11.4949 c -8.7163,0.3309 -19.317,3.3518 -27.5596,8.6262 z"/><path id="path38" style="fill:#000200;fill-rule:evenodd" d="m 42.677,392.5003 12.5366,-12.8066 1.2993,-14.5604 c 0.1406,-1.5735 0.3887,-2.6837 0.9297,-3.902 2.3457,-5.2819 7.5062,-8.4553 11.055,-6.9261 l 1.5557,11.5193 8.6987,-8.3842 -13.3279,-40.2417 -2.8007,0.0958 C 51.3626,343.3877 45.0235,369.1651 42.677,392.5003 Z m 21.5734,-47.5542 c -0.5802,-3.1533 -0.9053,-6.8418 -1.2639,-11.3666 -3.4229,3.5399 -6.4705,11.0585 -5.8411,17.2021 z"/></g><path id="path40" style="fill:#000200;fill-rule:evenodd" d="m 376.0492,219.7452 6.6534,6.9404 13.367,-5.9444 14.7746,13.2095 40.2195,-19.9229 c -6.8888,-5.243 -14.2704,-10.3877 -22.9042,-15.6681 z m 29.3688,-2.1051 7.2761,6.4763 18.9442,-9.1929 -7.5078,-5.8274 z"/><path id="path42" style="fill:#000200;fill-rule:evenodd" d="m 484.8447,333.2347 -15.8239,-16.5066 5.1863,-6.1298 10.8286,10.9847 4.3032,-6.2211 -7.7457,-7.2465 c -3.389,-3.1711 -6.4911,-7.6334 -2.3251,-13.0341 l 22.926,-29.7215 12.5162,17.9399 -24.0823,45.1575 c -0.7927,1.4857 -3.7485,6.8999 -5.7833,4.7775 z m 8.1615,-25.1184 -7.8093,-7.0326 15.7194,-21.6884 5.5236,6.8753 z"/><path id="path44" style="fill:#000200;fill-rule:evenodd" d="m 408.3186,253.4068 7.6192,7.9481 9.4587,-7.0778 7.6614,7.9858 -9.1586,7.2135 6.7103,6.9197 46.4037,-40.1569 c -4.723,-4.5432 -10.6649,-9.7873 -17.5372,-15.9023 z m 24.6952,-4.572 6.8264,7.1207 21.0292,-16.9567 -5.5557,-5.3499 z"/><path id="path46" style="fill:#000200;fill-rule:evenodd" d="m 446.8731,293.6247 18.5391,19.339 5.4897,-6.7313 -5.2565,-5.4703 33.4691,-39.2828 -10.7411,-12.7616 -7.1221,6.7896 5.6547,5.9322 -28.3247,32.8079 -6.4486,-6.4767 z"/><path id="path48" style="fill:#000200;fill-rule:evenodd" d="m 490.6092,339.0251 18.5392,19.3391 5.3783,-6.6247 -6.5364,-6.8055 16.2429,-44.3341 -5.8768,-10.8057 -5.6565,9.6549 2.3436,2.7009 -14.0106,36.3806 -5.3774,-5.582 z"/><path id="path50" style="fill:#000200;fill-rule:evenodd" d="m 530.9124,314.6945 -4.5096,12.2231 c 5.3729,9.2341 9.4102,21.3832 8.9583,30.0584 l -10.9955,-11.0243 c -1.2558,-1.2597 -4.7311,-4.6384 -5.3323,-0.4397 l -2.941,20.5412 31.9987,33.3792 4.1674,-6.3436 -27.7322,-28.9288 0.4147,-1.8596 c 0.4768,-2.1374 2.4758,-3.366 4.982,-0.7517 l 14.8261,15.4657 c 1.6163,1.6861 5.4753,2.1225 4.9332,-1.3129 -2.0361,-12.9118 -9.9713,-44.0334 -18.7698,-61.007 z"/><path id="path52" style="fill:#000200;fill-rule:evenodd" d="m 412.554,189.4477 -12.2215,5.7376 -17.9427,-7.2364 c -5.6552,-2.2807 -9.4654,2.5025 -5.4683,5.9789 l 3.8537,3.3517 c 2.0387,1.7733 0.3126,2.8512 -0.9407,3.2505 l -17.0113,5.4184 -37.5451,-39.165 11.3275,0.4572 24.6252,26.3559 c 2.4034,2.5724 6.349,0.0633 4.0846,-2.4211 l -16.5143,-18.1176 c -2.2356,-2.4528 1.8281,-4.8516 5.6721,-4.2415 17.4795,2.7735 43.0832,12.9548 58.0808,20.6314 z"/><path id="path54" style="fill:#000200;fill-rule:evenodd" d="m 372.1441,207.3886 a 2.6828,2.6828 0 0 1 -0.0801,3.7932 2.6828,2.6828 0 1 1 0.0801,-3.7932 z"/><path id="path56" style="fill:#000200;fill-rule:evenodd" d="m 405.9591,242.6626 a 2.6828,2.6828 0 0 1 -0.0801,3.7932 2.6828,2.6828 0 1 1 0.0801,-3.7932 z"/><path id="path58" style="fill:#000200;fill-rule:evenodd" d="m 438.808,276.9288 a 2.6828,2.6828 0 0 1 -0.0801,3.7932 2.6828,2.6828 0 1 1 0.0801,-3.7932 z"/><g id="g60"><path id="path62" style="fill:#000200;fill-rule:evenodd" d="m 498.2157,500.8282 20.7745,51.1228 -3.3691,6.2688 -26.7983,-14.8115 17.8738,27.7507 -5.7975,8.1925 -34.3528,-47.1953 10.6268,-10.2962 23.1035,14.0992 -9.1455,-28.2668 z"/><path id="path64" style="fill:#000200;fill-rule:evenodd" d="m 496.7827,584.6275 -36.8609,-47.1259 -8.0808,7.8294 37.9541,46.9252 z"/><path id="path66" style="fill:#000200;fill-rule:evenodd" d="m 522.5531,547.2112 -18.415,-48.6874 c -0.8507,-2.2484 0.9852,-4.3884 2.7118,-6.0613 l 46.3815,-44.9387 c -1.9272,19.4966 -6.0921,39.6371 -14.1724,62.2338 l -7.6808,-10.5855 6.2019,-13.0911 c 1.0161,-2.1446 1.6116,-5.9047 0.977,-8.1066 -0.7191,-2.4956 -2.8592,-3.2066 -4.8627,-1.2199 l -18.8252,18.6688 12.7616,40.859 z"/><path id="path68" style="fill:#000200;fill-rule:evenodd" d="m 484.89,599.1547 -41.1435,-45.1225 -31.5345,29.6951 49.2277,37.0752 z m -11.5478,-0.4004 -30.1069,-33.067 -18.0365,17.0462 35.7524,27.5972 z"/><path id="path70" style="fill:#000200;fill-rule:evenodd" d="m 404.7954,590.9132 52.1196,33.4148 -6.0642,4.3733 -40.3031,-1.7268 23.8749,13.5663 -10.7793,6.1518 -51.517,-23.2682 5.4379,-6.1271 50.8995,0.2591 -30.6387,-20.1042 z"/><path id="path72" style="fill:#000200;fill-rule:evenodd" d="m 416.4894,651.0486 -52.7622,-20.3448 -47.0456,45.5822 9.9045,0.9195 36.2285,-37.033 5.7326,2.8156 -8.6411,8.8016 6.9467,1.8537 7.2194,-8.497 17.1146,6.8105 c -15.5316,8.2796 -30.5043,12.503 -44.4776,14.1214 l -0.802,9.3614 c 22.9298,-4.2248 46.9463,-12.2568 70.5822,-24.3911 z"/></g><g id="g74"><path id="path76" style="fill:#000200;fill-rule:evenodd" d="m 183.7444,653.3516 13.7177,-5.3215 c 8.6937,4.6926 20.4589,9.2928 31.1029,10.4582 l -10.8116,-11.4147 c -0.843,-0.8896 -0.2816,-3.057 0.8251,-3.5829 l 15.2773,-7.2566 33.8383,35.0315 -9.4673,-0.927 -20.1984,-20.9106 -5.5165,3.8285 18.4247,22.624 C 230.3491,672.0471 207.4689,664.87 183.7444,653.3516 Z"/><path id="path78" style="fill:#000200;fill-rule:evenodd" d="m 174.1271,648.4979 52.6461,-18.7087 -6.425,-6.6515 -12.2917,4.8012 -11.0069,-12.7261 -42.1154,21.1801 z m 3.5046,-7.2426 21.9566,-8.9939 -6.7462,-6.9842 -23.1761,10.1719 z"/><path id="path80" style="fill:#000200;fill-rule:evenodd" d="m 150.1923,633.2587 53.8867,-27.4075 -22.5946,-23.3913 -50.2068,35.2105 z m -3.7582,-15.8707 34.0969,-23.9352 9.5304,9.8665 -37.3938,19.1909 z"/><path id="path82" style="fill:#000200;fill-rule:evenodd" d="m 174.7306,575.9117 -48.0802,38.2994 -18.4372,-17.978 34.3474,-32.1061 6.5496,-0.5406 -0.0758,-14.4988 7.71,7.9818 0.0909,13.6271 3.2088,3.5437 7.4049,-5.8669 z m -46.7639,25.2418 23.5676,-20.1935 -7.0712,-7.0987 -23.0285,20.5298 z"/><path id="path84" style="fill:#000200;fill-rule:evenodd" d="m 105.2186,592.9111 8.3296,-8.903 -5.8594,-7.8408 30.3122,-38.2803 -7.1746,-7.4275 -30.3929,36.6438 -9.2016,-9.9698 -7.3242,7.5034 z"/><path id="path86" style="fill:#000200;fill-rule:evenodd" d="m 95.4295,553.9361 27.0482,-32.3416 -6.8533,-7.095 -25.9661,32.7964 z"/><path id="path88" style="fill:#000200;fill-rule:evenodd" d="m 79.5777,556.6046 22.0263,-57.0635 -7.3925,-7.4313 -30.6953,35.2215 2.41,5.6009 19.3324,-14.8166 -12.1488,28.0216 z"/><path id="path90" style="fill:#000200;fill-rule:evenodd" d="m 61.1175,521.0765 c 5.3428,-16.8757 10.1427,-33.8698 15.5474,-48.0194 l -9.2318,-8.2262 -2.7701,8.8903 -10.1603,-4.9722 0.4054,-17.1066 -12.5288,-12.9705 c 1.4164,25.8804 6.2485,51.5714 18.7382,82.4046 z m 0.8169,-40.8623 -6.8142,-3.0612 c 0.431,5.6325 0.8768,10.7351 4.7106,17.5223 0.0549,-5.2676 0.9703,-9.8662 2.1036,-14.4611 z"/></g></g></g></svg>