<svg xmlns:inkscape="http://www.inkscape.org/namespaces/inkscape" xmlns:sodipodi="http://sodipodi.sourceforge.net/DTD/sodipodi-0.dtd" xmlns="http://www.w3.org/2000/svg" xmlns:svg="http://www.w3.org/2000/svg" version="1.1" width="244.87696223081767" height="408.36834583786356" id="svg31" viewBox="0 0 339.51379 566.9292" sodipodi:docname="ssc-bari-seeklogo.com.svg" inkscape:label="logo" inkscape:version="1.2 (dc2aeda, 2022-05-15)">
  <defs id="defs35"/>
  <sodipodi:namedview id="namedview33" pagecolor="#ffffff" bordercolor="#666666" borderopacity="1.0" inkscape:pageshadow="2" inkscape:pageopacity="0.0" inkscape:pagecheckerboard="0" inkscape:showpageshadow="2" inkscape:deskcolor="#d1d1d1" showgrid="false" inkscape:zoom="1.1774112" inkscape:cx="179.20672" inkscape:cy="283.67319" inkscape:window-width="1440" inkscape:window-height="900" inkscape:window-x="0" inkscape:window-y="0" inkscape:window-maximized="0" inkscape:current-layer="svg31"/>
  <g id="g228">
    <path d="M 169.7569,0 A 169.7569,283.4646 0 0 1 339.5138,283.4645 169.7569,283.4646 0 1 1 169.7569,0 Z" style="fill:#111111;fill-rule:evenodd" id="path2"/>
    <path d="M 169.7569,8.4353 A 161.3215,275.0292 0 0 1 331.0784,283.4646 161.3215,275.0292 0 1 1 169.7569,8.4353 Z" style="fill:#ffffff;fill-rule:evenodd" id="path4"/>
    <path d="m 169.7146,20.6666 c 80.6716,0 151.6313,117.0723 151.6313,262.7979 0,145.7251 -70.7488,262.6926 -151.6313,262.6926 l -0.0215,-4e-4 V 214.5946 c 5.9944,0.248 11.9816,0.8068 17.9721,0.3692 13.1136,-0.958 26.8539,-4.4924 38.4439,-10.7955 9.0418,-4.9172 17.7756,-12.2047 23.8853,-20.5202 3.853,-5.2449 7.115,-11.036 9.0203,-17.2828 2.9654,-9.7223 2.643,-19.9679 0.2065,-29.7636 -2.9874,-12.0103 -8.8137,-21.6612 -16.5154,-31.0695 -3.6729,-4.4872 -8.4665,-8.4566 -12.4699,-11.6541 2.9859,9.513 3.9184,13.1769 4.8861,19.9117 0.7729,5.3779 0.7278,9.9777 0.1616,14.9168 -0.5513,4.8081 -2.0608,9.0237 -4.452,13.2317 -4.8278,8.4956 -10.843,13.2974 -19.8039,17.0339 -2.938,1.225 -6.2554,2.0841 -9.3887,2.62 -2.9068,0.497 -6.2202,0.8123 -9.1587,0.4612 -0.3574,-0.0426 -1.0046,-0.1445 -1.6664,-0.3092 8.1108,-6.344 14.9734,-15.2116 13.9818,-25.9966 -0.3241,-3.5252 -1.4793,-6.8409 -3.2276,-9.8654 -1.5875,-2.7461 -5.3298,-6.4551 -6.6559,-7.5947 -1.0506,4.3364 -2.4481,7.6662 -4.9382,11.3044 -5.0718,7.4085 -12.2203,12.8004 -20.2809,16.5642 V 20.667 Z" style="fill:#ce282a;fill-rule:evenodd" id="path6"/>
  </g>
  <g id="g223">
    <path d="m 148.8751,221.0586 c -11.4609,43.1952 -14.5714,86.2935 -14.6838,130.5332 -0.1286,50.5566 5.5692,101.9673 15.6598,153.8954 C 131.0865,480.275 100.6979,439.7635 75.9723,398.8504 57.5474,368.3628 42.8387,337.6482 43.5036,312.8755 44.0665,291.9108 57.734,272.282 76.8356,257.2293 97.8158,240.696 125.2905,228.1681 148.8751,221.0586 Z m -26.2965,16.452 c 7.7402,0 14.0174,6.2772 14.0174,14.0175 0,7.7402 -6.2772,14.0174 -14.0174,14.0174 -7.0796,0 -12.9339,-5.2514 -13.8821,-12.0703 1.7668,2.9831 5.0172,4.9842 8.7346,4.9842 5.6019,0 10.145,-4.5431 10.145,-10.145 0,-5.3339 -4.1186,-9.7076 -9.3485,-10.114 1.3699,-0.447 2.832,-0.6898 4.351,-0.6898 z" style="fill:#111111;fill-rule:evenodd" id="path8"/>
    <path d="M 100.378,233.5772 C 78.2386,247.3458 60.6086,260.9929 49.4735,276.8917 38.6811,292.3011 32.9944,306.4786 37.9536,328.1973 24.7793,312.4747 19.2655,291.0377 22.8077,277.6485 c 1.5268,-5.7706 3.5618,-10.7795 7.855,-15.6347 4.0327,-4.561 10.7918,-10.0142 19.532,-12.3953 3.2841,-0.8948 6.6268,-1.2064 12.4369,-0.1558 L 42.2362,235.5604 c 9.7951,-1.5188 16.9266,-3.065 23.7657,-4.3037 4.6791,-0.8473 9.2239,-1.7761 14.3899,-1.5658 6.6613,0.271 13.3242,1.6137 19.9862,3.8863 z" style="fill:#ce282a;fill-rule:evenodd" id="path10"/>
    <path d="m 106.5259,227.3362 c 10.7711,-5.3002 21.3541,-9.5514 31.7705,-12.5333 7.3617,-2.1071 15.3974,-4.0671 23.0906,-4.4475 9.1764,-0.4536 17.6345,1.011 25.971,0.4019 13.9889,-1.0219 26.8914,-4.9403 36.7361,-10.2942 9.375,-5.0984 17.3544,-12.3072 22.5012,-19.3123 3.5075,-4.7742 6.6028,-10.1722 8.3852,-16.016 2.5671,-8.4161 2.5732,-17.7633 0.1476,-27.515 -2.5025,-10.0617 -7.1367,-19.7613 -16.9911,-31.3369 1.0395,6.6197 1.7158,12.144 1.6833,16.8878 -0.0622,9.0572 -2.1529,15.2747 -5.3219,20.8515 -5.2817,9.2945 -11.9866,14.7311 -21.8475,18.8429 -9.2635,3.8625 -27.0614,6.1873 -28.1534,-1.7717 16.7942,-11.103 19.7879,-24.1128 12.3055,-34.8484 -8.1342,16.51 -25.4732,26.9251 -47.717,30.3003 4.1903,-11.4273 2.4737,-22.2433 -4.8467,-32.2462 -5.15,16.8848 -14.8863,27.8442 -25.7725,38.1389 -3.7236,3.5212 -7.5775,6.7036 -11.2741,9.564 -4.1894,3.2421 -8.1789,6.1334 -11.5496,9.7346 -9.0244,9.6418 -12.7496,21.1263 -11.0529,29.2139 1.5083,7.1882 5.9408,16.7868 21.9357,16.3857 z" style="fill:#ce282a;fill-rule:evenodd" id="path12"/>
  </g>
  <g id="g218">
    <path d="m 190.9921,300.0734 h 8.9626 c 3.3665,0 6.9448,1.6283 6.9448,5.281 v 7.0861 c 0,1.6957 -0.8009,3.2834 -2.7413,4.2151 2.8216,0.8811 3.3739,2.9142 3.3739,4.8377 v 7.0397 c 0,4.2506 -3.3623,6.1245 -6.9448,6.1245 h -9.5952 z m 5.8904,14.5215 h 2.049 c 0.7505,0 2.0776,-0.5315 2.0776,-2.2434 v -5.1194 c 0,-0.9507 -0.259,-2.194 -2.1995,-2.194 h -1.9271 z m 2.4804,4.7537 h -2.4804 v 10.5551 h 2.0983 c 1.9066,0 2.6609,-1.0712 2.6609,-2.2994 v -5.607 c 0,-1.6869 -0.9192,-2.6487 -2.2788,-2.6487 z" style="fill:#ffffff;fill-rule:evenodd" id="path15"/>
    <path d="m 257.5259,300.0734 h 8.3299 c 5.073,0 7.8937,2.479 7.8937,6.1245 v 8.0351 c 0,3.3164 -1.0457,5.394 -3.4601,6.1209 2.5555,3.0707 3.5656,6.9425 3.5656,10.5859 v 3.7177 h -5.8904 V 329.66 c 0,-2.7852 -1.6489,-6.2165 -3.1867,-8.4048 l -1.3616,-0.009 -0.01,13.4107 -5.8809,2e-4 z m 5.8904,16.314 h 2.6816 c 0.7505,0 2.0776,-0.5314 2.0776,-2.2434 v -6.8065 c 0,-0.9506 -0.2649,-2.194 -2.1995,-2.194 h -2.5597 z" style="fill:#ffffff;fill-rule:evenodd" id="path17"/>
    <path d="m 229.3792,300.0734 h 6.2004 c 3.8767,11.6906 6.3392,24.3155 6.9655,34.5841 h -6.1013 c -0.2281,-2.8461 -0.4858,-5.557 -0.7735,-8.1338 h -6.58 c -0.2956,2.5768 -0.558,5.2877 -0.7861,8.1338 h -5.8904 c 0.6263,-10.2686 3.0888,-22.8935 6.9654,-34.5841 z m 5.5832,21.5747 c -0.7259,-5.3212 -1.4983,-9.8826 -2.5393,-13.9042 -1.0546,4.0216 -1.8572,8.583 -2.6065,13.9042 z" style="fill:#ffffff;fill-rule:evenodd" id="path19"/>
    <path d="m 288.5162,265.2572 c 4.1897,0 5.6235,2.561 5.6235,4.5332 v 3.9218 h -4.4935 v -2.642 c 0,-1.4981 -0.5277,-2.112 -1.4648,-2.112 -0.9372,0 -1.5323,0.4937 -1.5323,1.9127 v 14.7189 c 0,1.4188 0.5951,1.9127 1.5323,1.9127 0.9371,0 1.4648,-0.6139 1.4648,-2.112 v -3.4855 h 4.4935 v 4.7653 c 0,1.9705 -1.4338,4.5332 -5.6235,4.5332 -4.0945,0 -6.3385,-1.8556 -6.3385,-4.65 v -16.6463 c 0,-2.7944 2.244,-4.65 6.3385,-4.65 z" style="fill:#ffffff;fill-rule:evenodd" id="path21"/>
    <path d="m 243.0709,265.2572 c 4.1896,0 5.8343,2.5629 5.8343,4.5332 v 3.7109 h -4.2827 v -2.4311 c 0,-1.4981 -0.9494,-2.112 -1.8865,-2.112 -0.9372,0 -1.7432,0.4948 -1.7432,1.9127 v 0.891 c 0,1.008 0.5858,1.6335 1.271,2.3727 1.4829,1.6004 3.7582,3.0997 5.162,4.771 0.9211,1.0966 1.5846,2.2486 1.5846,3.6812 v 4.0127 c 0,2.794 -2.5603,4.6499 -6.6549,4.6499 -4.1896,0 -5.9397,-2.5618 -5.9397,-4.5331 v -4.5545 h 4.3881 v 3.2746 c 0,1.4954 0.9494,2.112 1.8865,2.112 0.9372,0 2.0595,-0.4941 2.0595,-1.9127 v -0.891 -1.0753 c 0,-2.9135 -4.8982,-5.3539 -6.7213,-7.6249 -0.8878,-1.1063 -1.4017,-2.4972 -1.4017,-3.9171 v -2.2202 c 0,-2.7944 2.3494,-4.65 6.444,-4.65 z" style="fill:#ffffff;fill-rule:evenodd" id="path23"/>
    <path d="m 197.0983,265.2572 c 4.1896,0 5.8343,2.5629 5.8343,4.5332 v 3.7109 h -4.2827 v -2.4311 c 0,-1.4981 -0.9494,-2.112 -1.8865,-2.112 -0.9372,0 -1.7432,0.4948 -1.7432,1.9127 v 0.891 c 0,1.008 0.5858,1.6335 1.271,2.3727 1.4829,1.6004 3.7582,3.0997 5.162,4.771 0.9212,1.0966 1.5846,2.2486 1.5846,3.6812 v 4.0127 c 0,2.794 -2.5603,4.6499 -6.6549,4.6499 -4.1896,0 -5.9397,-2.5618 -5.9397,-4.5331 v -4.5545 h 4.3881 v 3.2746 c 0,1.4954 0.9494,2.112 1.8865,2.112 0.9372,0 2.0595,-0.4941 2.0595,-1.9127 v -0.891 -1.0753 c 0,-2.9135 -4.8982,-5.3539 -6.7213,-7.6249 -0.8878,-1.1063 -1.4017,-2.4972 -1.4017,-3.9171 v -2.2202 c 0,-2.7944 2.3494,-4.65 6.444,-4.65 z" style="fill:#ffffff;fill-rule:evenodd" id="path25"/>
    <path d="m 288.4203,300.0734 h 5.8904 v 34.5841 h -5.8904 z" style="fill:#ffffff;fill-rule:evenodd" id="path27"/>
  </g>
</svg>