<svg xmlns="http://www.w3.org/2000/svg" width="274.39773622801414" height="364.4344934278313" viewBox="0 0 76 101" fill="none">
<path fill-rule="evenodd" clip-rule="evenodd" d="M38.099 100C38.7727 100 39.4384 99.813 40.0158 99.4337C40.088 99.3879 40.1743 99.3237 40.2795 99.2448L40.3467 99.1951L40.4189 99.1576C43.1834 97.6915 50.7691 93.1216 58.0798 83.6834C66.2767 73.1165 73.9968 56.3946 74 31.6778V31.6301V31.5664C74.002 26.7897 73.7142 18.0857 73.1012 12.7383C72.8958 10.9465 71.389 9.6109 69.6085 9.6109C69.5983 9.6109 69.5361 9.6135 69.4537 9.61732L69.3973 9.62053L69.3396 9.6242H69.3093C69.0786 9.632 68.4332 9.64974 67.4913 9.64974H67.3942H67.308C64.4758 9.64791 59.1948 9.45 53.9266 8.36445C51.2388 7.81846 48.5695 7.03847 46.247 5.99681C43.9161 4.95315 41.9651 3.65272 40.6035 2.15285C39.9207 1.40391 38.9756 1.00184 38.0057 1H37.9987C37.0321 1 36.08 1.40651 35.4042 2.14459C34.0401 3.65272 32.0877 4.95575 29.7627 5.99161C26.2736 7.56397 22.0019 8.51846 18.0989 9.03248C14.2074 9.54987 10.6836 9.64974 8.58183 9.64974H8.49361C7.87945 9.64974 7.39006 9.64011 7.06797 9.632C6.89565 9.62879 6.77072 9.6242 6.71435 9.6242H6.64578L6.59642 9.62053H6.59261L6.56092 9.61854L6.39347 9.6109C4.61604 9.6109 3.10736 10.9465 2.90335 12.7383C2.28903 18.0857 1.99878 26.7897 2 31.5664V31.674C2.00564 56.392 9.72271 73.1152 17.9266 83.6834C25.2297 93.1178 32.82 97.6871 35.5868 99.1576L35.6572 99.1951L35.7244 99.2466C35.8231 99.3179 35.9126 99.3853 35.983 99.4331C36.5534 99.8021 37.2064 99.9924 37.8701 100L37.9879 99.9994H38.0406L38.0779 100H38.099Z" fill="#1D3448"/>
<path fill-rule="evenodd" clip-rule="evenodd" d="M74.0908 12.6708L72.5763 12.8456L74.0908 12.6708C73.822 10.339 71.862 8.59872 69.5446 8.59872C69.4756 8.59872 69.3933 8.60514 69.3042 8.60957C69.3212 8.60957 69.2972 8.60957 69.2124 8.61216C68.991 8.6198 68.3584 8.63751 67.4316 8.63751H67.3853H67.3341C64.5821 8.64133 59.3102 8.44891 54.1042 7.37444C51.4856 6.8427 48.8829 6.0796 46.6629 5.08285C44.4392 4.08839 42.6045 2.85143 41.3841 1.50008C40.4997 0.527313 39.2628 0 38.0031 0H37.9963C36.7354 0 35.4997 0.527313 34.6159 1.49489C33.395 2.85143 31.5628 4.08839 29.3371 5.07903C26.0069 6.58293 21.8199 7.52638 17.9943 8.02835C14.1763 8.53978 10.6993 8.63751 8.63748 8.63751H8.62806H8.57544H8.54761C7.94469 8.63751 7.46706 8.62805 7.14758 8.6198C6.97742 8.61659 6.85395 8.61216 6.77305 8.61216L6.67816 8.60957L6.45357 8.59872C4.13812 8.59872 2.17362 10.339 1.91056 12.6708C1.28665 18.0922 1.00001 26.7827 1.00001 31.5954V31.6684C0.993166 56.5939 8.79244 73.5629 17.1188 84.292C24.5271 93.8624 32.2322 98.5145 35.0892 100.034C35.1904 100.109 35.2961 100.187 35.4056 100.259C36.1621 100.753 37.0302 100.997 37.8994 101L37.9855 100.997L38.0962 101C38.9711 101 39.8391 100.753 40.597 100.259C40.7053 100.187 40.8096 100.109 40.9115 100.034C43.7654 98.5177 51.4673 93.8669 58.8787 84.292C67.2064 73.5629 75.0064 56.5939 75 31.6684V31.5954C75 26.7827 74.7128 18.0922 74.0908 12.6708ZM57.6762 83.3531C50.3145 92.8661 42.664 97.3879 40.0681 98.7463C39.9708 98.8271 39.8689 98.9039 39.762 98.9725C39.2596 99.3011 38.6815 99.4662 38.0962 99.4662H38.0001C37.3851 99.4865 36.7644 99.3208 36.2362 98.9725C36.1312 98.9039 36.0286 98.8271 35.9307 98.7463C33.3362 97.3841 25.6849 92.8629 18.3246 83.3531C10.1862 72.8557 2.5109 56.2387 2.52671 31.5954C2.52671 26.8442 2.81016 18.2122 3.42434 12.8456C3.60909 11.2393 4.99529 10.057 6.60472 10.1364C6.60472 10.1364 6.63452 10.1364 6.71861 10.1416C6.80331 10.1416 6.93317 10.1491 7.10576 10.1547C7.44988 10.1655 7.9605 10.1726 8.60966 10.1726C10.7151 10.1726 14.2674 10.0684 18.1937 9.54615C22.1211 9.0309 26.4193 8.07218 29.9615 6.48367C32.3233 5.42401 34.3281 4.0948 35.7465 2.53241C36.338 1.88125 37.1586 1.53047 38.0001 1.53368C38.8414 1.53047 39.6614 1.88125 40.2561 2.53241C41.6737 4.0948 43.6761 5.42401 46.0422 6.48367C48.4002 7.54028 51.0984 8.32445 53.7992 8.87773C59.2007 9.98702 64.584 10.1726 67.3905 10.1726C68.3622 10.1726 69.0258 10.1491 69.2808 10.1416C69.3649 10.1364 69.3933 10.1364 69.3933 10.1364C71.0021 10.057 72.3921 11.2393 72.5737 12.8456C73.188 18.2122 73.4741 26.8442 73.4741 31.5954C73.4867 56.2387 65.8113 72.8557 57.6762 83.3531Z" fill="#736C44"/>
<path fill-rule="evenodd" clip-rule="evenodd" d="M71.1432 14.0275C70.9665 12.4636 69.6345 11.3076 68.0933 11.3863C68.0933 11.3863 68.0686 11.3901 67.9847 11.3901C67.7424 11.3991 67.1045 11.4199 66.1726 11.4199C63.4835 11.4244 58.3217 11.2413 53.1448 10.1589C50.5567 9.61942 47.9704 8.85464 45.7093 7.82425C43.4415 6.79525 41.5198 5.49878 40.1601 3.97417C39.5941 3.33887 38.8061 3 37.9998 3C37.194 3 36.4053 3.33887 35.8399 3.97417C34.4804 5.49878 32.5565 6.79525 30.2908 7.82425C26.8976 9.37781 22.7762 10.3071 19.0164 10.8121C15.2498 11.3218 11.8439 11.4199 9.82738 11.4199C9.2053 11.4199 8.71623 11.4127 8.38699 11.4024C8.22032 11.3991 8.09491 11.3934 8.01605 11.3901L7.90686 11.3863C6.36547 11.3076 5.03548 12.4636 4.85865 14.0275C4.28708 19.0948 4.01774 27.4953 4 32H72C71.9824 27.4953 71.7129 19.0948 71.1432 14.0275Z" fill="#1D3448"/>
<path fill-rule="evenodd" clip-rule="evenodd" d="M71.1315 17.5156C71.2844 16.2139 68.0976 15.8737 66.8821 15.7236C62.2389 15.163 57.1464 14.9928 53 14.6828L53.1619 14.2298C54.6002 14.0112 56.4722 13.6515 57.3912 11.9333C57.1127 10.9177 55.4906 10.7955 54.4511 10.6354L54.5593 10.3216C55.5119 9.97378 58.2272 9.45964 58.393 8.15862C58.4991 7.34706 57.1068 6.81974 56.0014 6.30621L56.109 6C61.5779 6.60364 67.5025 6.88532 73.5483 8.76226C74.1706 8.95247 75.05 9.08347 75.5641 9.56928C76.3497 10.3015 75.8899 12.3208 75.6018 13.2181C74.3972 16.8655 71.6276 18.6169 69.3999 20C69.5903 19.063 70.9928 18.6729 71.1315 17.5156Z" fill="#AC372C"/>
<path fill-rule="evenodd" clip-rule="evenodd" d="M53.2624 14.561C54.5324 14.6539 55.8775 14.7338 57.2985 14.8181C60.4656 15.0058 63.7407 15.2 66.8718 15.5761L67.006 15.5923C68.411 15.7626 71.3348 16.1169 71.1763 17.4589V17.4591C71.0979 18.1106 70.6298 18.5346 70.2167 18.9087C69.9558 19.1448 69.706 19.371 69.5634 19.6351C71.6019 18.3717 74.2456 16.6219 75.3881 13.182C75.7864 11.9488 76.0235 10.2959 75.3796 9.69907C75.0021 9.34446 74.3988 9.18773 73.8664 9.04949C73.7118 9.00937 73.5631 8.97075 73.4267 8.92929C68.5753 7.43164 63.8489 6.97203 59.278 6.52779C58.2381 6.42654 57.2544 6.33095 56.2656 6.22313L56.2197 6.35287C56.3087 6.39358 56.3994 6.43444 56.4906 6.4756C57.5598 6.95742 58.6653 7.4555 58.5612 8.2463C58.4189 9.35653 56.5851 9.89517 55.3717 10.2517C55.1256 10.3239 54.9101 10.3873 54.743 10.4454L54.6944 10.5852C54.7575 10.5943 54.8222 10.6035 54.8883 10.6128C55.9058 10.7568 57.2994 10.954 57.5662 11.9221C57.5733 11.9479 57.5702 11.9755 57.5574 11.999C56.6664 13.6558 54.9284 14.0651 53.3537 14.3069L53.2624 14.561ZM69.3516 20C69.3297 20 69.3081 19.9937 69.2893 19.9815C69.2526 19.9573 69.2345 19.9144 69.2431 19.8722C69.3373 19.4119 69.7075 19.0766 70.0654 18.7523C70.4694 18.3865 70.8873 18.008 70.9565 17.4346C71.0902 16.3031 68.209 15.9538 66.9784 15.8047L66.8442 15.7884C63.7202 15.4132 60.4487 15.2192 57.2849 15.0316C55.8096 14.9442 54.4159 14.8616 53.1023 14.7639C53.0679 14.7614 53.0368 14.7437 53.0181 14.7159C52.9993 14.688 52.9949 14.6534 53.0061 14.6221L53.1666 14.1761C53.1798 14.1387 53.2136 14.1115 53.254 14.1054C54.7801 13.8747 56.4781 13.4974 57.3407 11.9379C57.083 11.1398 55.8502 10.9653 54.8563 10.8247C54.7431 10.8087 54.634 10.7932 54.5306 10.7774C54.4984 10.7725 54.4701 10.7541 54.4532 10.7271C54.4362 10.7001 54.4325 10.6675 54.4429 10.6377L54.55 10.3287C54.5605 10.298 54.5848 10.2738 54.616 10.2625C54.7957 10.1971 55.0329 10.1275 55.3074 10.0468C56.4661 9.70638 58.217 9.19205 58.3417 8.21961C58.4253 7.58359 57.3478 7.09804 56.3972 6.66961C56.2748 6.61443 56.1534 6.55985 56.0355 6.50527C55.9847 6.48186 55.9602 6.42549 55.9784 6.37404L56.0849 6.07251C56.1017 6.02479 56.152 5.99467 56.2019 6.00079C57.2193 6.11248 58.2301 6.21075 59.3002 6.31469C63.8823 6.76013 68.6205 7.22077 73.4934 8.72514C73.6266 8.7657 73.7724 8.80343 73.9238 8.8428C74.4822 8.98775 75.115 9.15223 75.5333 9.54503C76.4572 10.4013 75.75 12.7788 75.599 13.2466C74.3805 16.9158 71.5082 18.6887 69.4111 19.9833C69.3931 19.9945 69.3723 20 69.3516 20Z" fill="#746D44"/>
<path fill-rule="evenodd" clip-rule="evenodd" d="M4.85634 17.5037C4.70529 16.1983 7.893 15.8674 9.11109 15.7221C13.7584 15.1696 18.8515 15.0136 23 14.713L22.8387 14.2552C21.4029 14.0347 19.5318 13.6692 18.6157 11.942C18.8949 10.9295 20.5191 10.8076 21.5591 10.6523L21.4547 10.336C20.4998 9.98235 17.7811 9.46323 17.6231 8.16042C17.52 7.34516 18.9123 6.82027 20.021 6.31011L19.9146 6C14.438 6.59107 8.51373 6.85564 2.45847 8.72751C1.83386 8.91815 0.954002 9.04323 0.439639 9.53017C-0.34818 10.2601 0.106696 12.2886 0.392921 13.1828C1.58765 16.8443 4.35226 18.6075 6.58163 20C6.39118 19.0572 4.98778 18.67 4.85634 17.5037Z" fill="#25562F"/>
<path fill-rule="evenodd" clip-rule="evenodd" d="M19.7575 6.22341C18.7677 6.32893 17.783 6.4222 16.7425 6.52069C12.1692 6.95384 7.44017 7.40178 2.58197 8.89521C2.44164 8.93781 2.28913 8.97697 2.13061 9.01762C1.60123 9.15363 1.00122 9.30773 0.626501 9.66031C-0.0680348 10.3002 0.288794 12.1536 0.608922 13.148C1.7434 16.6055 4.38369 18.3638 6.4198 19.6337C6.27763 19.3688 6.02874 19.1422 5.76906 18.9058C5.35564 18.53 4.88747 18.1041 4.81284 17.4463C4.65648 16.0978 7.58821 15.7539 8.99717 15.5886L9.12269 15.574C12.256 15.2034 15.5308 15.0174 18.698 14.8373C20.1204 14.7565 21.4666 14.6802 22.738 14.5899L22.6464 14.3318C21.0743 14.088 19.3393 13.6755 18.4494 12.0073C18.4368 11.9836 18.4337 11.9561 18.4408 11.9302C18.7099 10.9609 20.1118 10.7674 21.1354 10.6261C21.1974 10.6176 21.258 10.6092 21.3172 10.6009L21.2701 10.4592C21.1005 10.3993 20.8815 10.3342 20.6314 10.26C19.4203 9.9002 17.5904 9.35675 17.455 8.24714C17.354 7.45155 18.465 6.95488 19.5395 6.47436C19.6283 6.43475 19.7164 6.39514 19.8032 6.35599L19.7575 6.22341ZM6.63137 20C6.61071 20 6.58989 19.9943 6.57185 19.983C4.47683 18.682 1.6077 16.9001 0.397662 13.2124C0.246696 12.7437 -0.458326 10.3638 0.473222 9.50562C0.888494 9.11462 1.51826 8.9529 2.07402 8.81031C2.22915 8.77041 2.37842 8.73215 2.5155 8.69059C7.3953 7.19059 12.1362 6.7413 16.721 6.30711C17.7919 6.20563 18.8035 6.10982 19.8218 6.00056C19.8738 5.99548 19.9227 6.02522 19.9392 6.07335L20.0442 6.37855C20.0621 6.43012 20.0373 6.48632 19.9865 6.50963C19.8709 6.56239 19.7521 6.61575 19.6322 6.66911C18.6766 7.09642 17.5934 7.58068 17.6747 8.22143C17.7933 9.19249 19.5403 9.71143 20.6962 10.0549C20.9751 10.1377 21.216 10.2093 21.3984 10.2765C21.4299 10.2879 21.4543 10.3129 21.4644 10.344L21.5679 10.6554C21.5778 10.6855 21.5736 10.7181 21.5566 10.7448C21.5395 10.7716 21.5113 10.7897 21.4792 10.7944C21.3799 10.8091 21.2751 10.8236 21.1667 10.8385C20.2194 10.9693 18.9276 11.1475 18.6666 11.9466C19.5279 13.5172 21.2231 13.8973 22.7466 14.1298C22.7872 14.136 22.8208 14.1635 22.8342 14.201L22.9938 14.6518C23.0052 14.6833 23.0006 14.718 22.9816 14.7458C22.9628 14.7736 22.9315 14.7912 22.8975 14.7936C21.5824 14.8885 20.1876 14.9676 18.711 15.0516C15.5473 15.2314 12.2757 15.4172 9.14953 15.7868L9.024 15.8017C7.89631 15.9339 4.90074 16.2852 5.03304 17.4225V17.4228C5.09858 18.0018 5.51632 18.3819 5.92049 18.7494C6.27732 19.0739 6.64617 19.4096 6.74008 19.8719C6.74857 19.9141 6.73037 19.9573 6.69367 19.9813C6.67501 19.9937 6.65327 20 6.63137 20Z" fill="#746D44"/>
<path fill-rule="evenodd" clip-rule="evenodd" d="M10 24.3816L9.89898 24.4652L9.76499 24.365C9.56508 23.5799 9.08439 22.4697 8.23394 22.4697C7.49886 22.4697 7.36563 23.3537 7.36563 25.3258C7.36563 28.1243 7.73386 28.5344 8.47978 28.5344C9.3989 28.5344 9.7479 26.8177 9.7479 26.7334L9.88387 26.6587L10 26.743C10 28.1243 9.63391 29 8.16664 29C6.217 29 6 26.8738 6 25.3146C6 24.1685 6.08378 22 8.16664 22C8.43385 22 8.71402 22.0865 8.96627 22.1965C9.06714 22.2429 9.16603 22.2526 9.25195 22.2526C9.33023 22.2526 9.44834 22.2159 9.56508 22.1418C9.66611 22.0754 9.79948 22 9.88387 22C9.98276 22 10 22.0671 10 22.1606V24.3816Z" fill="#FFFFFE"/>
<path fill-rule="evenodd" clip-rule="evenodd" d="M15 25.3154C15 27.0785 14.806 29 12.9938 29C11.1938 29 11 27.0785 11 25.3154C11 23.9721 11.1938 22 12.9938 22C14.806 22 15 23.9721 15 25.3154ZM12.2294 25.3257C12.2294 27.7509 12.5584 28.5346 12.9938 28.5346C13.4433 28.5346 13.7742 27.7509 13.7742 25.3257C13.7742 23.2548 13.4433 22.4697 12.9938 22.4697C12.5584 22.4697 12.2294 23.2548 12.2294 25.3257Z" fill="#FFFFFE"/>
<path fill-rule="evenodd" clip-rule="evenodd" d="M19.7253 24.4182L19.6177 24.4652L19.5144 24.4008C19.2354 23.6442 18.4025 22.4696 17.5998 22.4696C17.1637 22.4696 17.1299 22.6654 17.1299 22.9075C17.1299 23.3633 17.3551 23.8226 18.6457 25.2863C19.8629 26.6697 20 26.9755 20 27.7141C20 28.7033 19.0438 29 18.4025 29C17.9283 29 17.6335 28.9004 17.4261 28.8244C17.2331 28.758 17.1299 28.7309 17.076 28.7309C17.0065 28.7309 16.8688 28.7975 16.5202 28.9364L16.3128 29L16.2253 28.9537V26.6019L16.3128 26.5369L16.4169 26.6019C16.7296 27.3489 17.2669 28.5346 18.2971 28.5346C18.6257 28.5346 18.8013 28.3388 18.8013 28.0496C18.8013 27.4229 18.277 26.743 17.287 25.6203C16.3465 24.5587 16 23.8497 16 23.1689C16 22.2823 16.7117 22 17.5998 22C17.9283 22 18.3128 22.1037 18.5761 22.2157L18.8365 22.2718C18.9025 22.2718 19.0782 22.2061 19.2354 22.1231C19.3925 22.047 19.4964 22 19.6019 22L19.7253 22.1037V24.4182Z" fill="#FFFFFE"/>
<path fill-rule="evenodd" clip-rule="evenodd" d="M22.2525 25.2026H22.657L22.8561 25.1354L23.4992 24.4839L23.6085 24.4278L23.6794 24.4839V26.4629L23.6085 26.5099L23.4787 26.442L22.8561 25.7642L22.657 25.6978H22.2525V28.5338H23.2962C23.533 28.5338 23.7171 28.4805 23.7904 28.3678L24.7796 26.5749L24.9071 26.5188L25 26.5749V28.9163L24.855 29H20.1132L20 28.9461L20.1297 28.8603L20.6769 28.5905C20.8067 28.5233 20.8422 28.4411 20.8422 28.3284V22.6752C20.8422 22.5616 20.8067 22.48 20.6769 22.4117L20.1297 22.1418L20 22.0575L20.1132 22H24.855L25 22.0865V24.4099L24.9071 24.4653L24.7608 24.4009L23.7716 22.6454C23.7005 22.5251 23.533 22.469 23.2962 22.469H22.2525V25.2026Z" fill="#FFFFFE"/>
<path fill-rule="evenodd" clip-rule="evenodd" d="M25.7382 22.675C25.7382 22.5616 25.6867 22.4862 25.5765 22.4123L25.1281 22.1417L25 22.047L25.1095 22H27.2748C27.4014 22 27.4573 22.067 27.4924 22.1604L29.1573 26.1737H29.1922V22.675C29.1922 22.5616 29.1573 22.4862 29.0313 22.4233L28.5225 22.1417L28.3981 22.047L28.5054 22H30.8905L31 22.047L30.8719 22.1417L30.419 22.4123C30.3118 22.4862 30.2595 22.5616 30.2595 22.675V28.9004C30.2595 28.9633 30.2037 29 30.0778 29H29.3203C29.1573 29 29.0082 28.9081 28.9569 28.7675L26.8406 23.6835H26.8078V28.3291C26.8078 28.4411 26.8614 28.5178 26.9874 28.5802L27.4752 28.8609L27.6018 28.9544L27.4924 29H25.1095L25 28.9544L25.1281 28.8609L25.5765 28.5913C25.6867 28.5178 25.7382 28.4411 25.7382 28.3291V22.675Z" fill="#FFFFFE"/>
<path fill-rule="evenodd" clip-rule="evenodd" d="M31.0895 22.0575L31.2121 22H34.8477L34.9378 22.0575L34.9087 22.1495L32.252 28.5344H33.4319C33.5801 28.5344 33.7323 28.5178 33.7753 28.4218L34.758 26.6392L34.9087 26.5196L35 26.6392V28.9267L34.862 29H31.0604L31 28.9633L31.0137 28.854L33.687 22.4482H32.6009C32.4485 22.4482 32.3572 22.5051 32.3124 22.5721L31.3763 24.3352C31.316 24.4278 31.273 24.475 31.2121 24.475L31.0895 24.365V22.0575Z" fill="#FFFFFE"/>
<path fill-rule="evenodd" clip-rule="evenodd" d="M38.9628 27.4431L38.8268 27.3567H37.7048L37.6089 27.4231L37.3834 28.4515L37.4605 28.6182L37.7937 28.8333L37.9447 28.9461L37.8395 29H36.0909L36 28.9461L36.1059 28.854L36.5332 28.5905C36.6234 28.5338 36.6391 28.4412 36.6541 28.3582L38.0374 22.0865L38.1571 22H38.7209L38.8568 22.1039L40.3009 28.3679C40.316 28.4619 40.361 28.5629 40.4695 28.6182L40.9093 28.8603L41 28.9461L40.8955 29H38.7053L38.5994 28.9461L38.7053 28.8603L39.1175 28.6099L39.192 28.4218L38.9628 27.4431ZM38.7522 26.8642L38.8155 26.7999L38.2811 24.5114H38.2492L37.7493 26.8075L37.7937 26.8642H38.7522Z" fill="#FFFFFE"/>
<path fill-rule="evenodd" clip-rule="evenodd" d="M47 24.3816L46.9011 24.4652L46.765 24.365C46.5652 23.5799 46.0844 22.4697 45.2339 22.4697C44.4996 22.4697 44.3676 23.3537 44.3676 25.3258C44.3676 28.1243 44.7339 28.5344 45.4853 28.5344C46.3991 28.5344 46.7479 26.8177 46.7479 26.7334L46.8819 26.6587L47 26.743C47 28.1243 46.6339 29 45.1666 29C43.2178 29 43 26.8738 43 25.3146C43 24.1685 43.0838 22 45.1666 22C45.4338 22 45.7162 22.0865 45.9663 22.1965C46.0652 22.2429 46.1668 22.2526 46.2519 22.2526C46.3324 22.2526 46.4505 22.2159 46.5652 22.1418C46.6661 22.0754 46.8015 22 46.8819 22C46.9829 22 47 22.0671 47 22.1606V24.3816Z" fill="#FFFFFE"/>
<path fill-rule="evenodd" clip-rule="evenodd" d="M50.9626 27.4431L50.8266 27.3567H49.7014L49.6107 27.4231L49.3833 28.4515L49.4577 28.6182L49.7955 28.8333L49.9446 28.9461L49.8386 29H48.0902L48 28.9461L48.1058 28.854L48.5325 28.5905C48.6227 28.5338 48.6383 28.4412 48.652 28.3582L50.0372 22.0865L50.1569 22H50.7189L50.8567 22.1039L52.3001 28.3679C52.3158 28.4619 52.3597 28.5629 52.4674 28.6182L52.9091 28.8603L53 28.9461L52.8953 29H50.707L50.5992 28.9461L50.707 28.8603L51.1154 28.6099L51.1906 28.4218L50.9626 27.4431ZM50.752 26.8642L50.8097 26.7999L50.2791 24.5114H50.2491L49.7492 26.8075L49.7955 26.8642H50.752Z" fill="#FFFFFE"/>
<path fill-rule="evenodd" clip-rule="evenodd" d="M53.7011 22.675C53.7011 22.5616 53.6709 22.4799 53.5627 22.4123L53.107 22.1417L53 22.0573L53.0907 22H55.4891L55.579 22.0573L55.4746 22.1417L55.017 22.4123C54.9088 22.4799 54.8768 22.5616 54.8768 22.675V28.5346H55.4891C55.6721 28.5346 55.8263 28.5075 55.8874 28.3955L56.8327 26.5859L56.9245 26.5196L57 26.5859V28.8714C57 28.9544 56.9534 29 56.8327 29H53.0907L53 28.9461L53.107 28.8609L53.5627 28.5913C53.6709 28.5241 53.7011 28.4411 53.7011 28.3291V22.675Z" fill="#FFFFFE"/>
<path fill-rule="evenodd" clip-rule="evenodd" d="M62 24.3816L61.8997 24.4652L61.765 24.365C61.5685 23.5799 61.0821 22.4697 60.2323 22.4697C59.5006 22.4697 59.3672 23.3537 59.3672 25.3258C59.3672 28.1243 59.73 28.5344 60.4817 28.5344C61.399 28.5344 61.7486 26.8177 61.7486 26.7334L61.8839 26.6587L62 26.743C62 28.1243 61.6317 29 60.165 29C58.2172 29 58 26.8738 58 25.3146C58 24.1685 58.0812 22 60.165 22C60.4342 22 60.716 22.0865 60.9661 22.1965C61.0697 22.2429 61.1667 22.2526 61.2505 22.2526C61.3323 22.2526 61.449 22.2159 61.5685 22.1418C61.6688 22.0754 61.7981 22 61.8839 22C61.9835 22 62 22.0671 62 22.1606V24.3816Z" fill="#FFFFFE"/>
<path fill-rule="evenodd" clip-rule="evenodd" d="M62.8148 22.675C62.8148 22.5616 62.7803 22.4799 62.6559 22.4123L62.1215 22.1417L62 22.0573L62.1054 22H64.8923L65 22.0573L64.874 22.1417L64.3454 22.4123C64.2174 22.4799 64.183 22.5616 64.183 22.675V28.3291C64.183 28.4411 64.2174 28.5241 64.3454 28.5913L64.874 28.8609L65 28.9461L64.8923 29H62.1054L62 28.9461L62.1215 28.8609L62.6559 28.5913C62.7803 28.5241 62.8148 28.4411 62.8148 28.3291V22.675Z" fill="#FFFFFE"/>
<path fill-rule="evenodd" clip-rule="evenodd" d="M70 25.3154C70 27.0785 69.8031 29 67.9904 29C66.1951 29 66 27.0785 66 25.3154C66 23.9721 66.1951 22 67.9904 22C69.8031 22 70 23.9721 70 25.3154ZM67.227 25.3257C67.227 27.7509 67.5578 28.5346 67.9904 28.5346C68.4404 28.5346 68.7712 27.7509 68.7712 25.3257C68.7712 23.2548 68.4404 22.4697 67.9904 22.4697C67.5578 22.4697 67.227 23.2548 67.227 25.3257Z" fill="#FFFFFE"/>
<path fill-rule="evenodd" clip-rule="evenodd" d="M28 33V92.2993C28.7593 92.9856 29.4932 93.6157 30.1903 94.1833C31.6388 95.3612 32.9324 96.2901 34 97V33H28Z" fill="#BB3337"/>
<path fill-rule="evenodd" clip-rule="evenodd" d="M22 33V85.7485C22.5762 86.439 23.1476 87.0996 23.7161 87.7239C25.1967 89.3583 26.6411 90.776 28 92V33H22Z" fill="#1D3448"/>
<path fill-rule="evenodd" clip-rule="evenodd" d="M16 33V77.4836C16.4104 78.1734 16.8263 78.8437 17.2422 79.4876C18.806 81.923 20.4115 84.0834 22 86V33H16Z" fill="#BB3337"/>
<path fill-rule="evenodd" clip-rule="evenodd" d="M35 33V96.2277C36.2275 97.0305 37.1523 97.551 37.6671 97.819C37.766 97.8689 37.8528 97.9154 37.9216 97.9515L38.0217 98L38.1225 97.9515C38.5297 97.7452 39.5528 97.2028 41 96.2568V33H35Z" fill="#1D3448"/>
<path fill-rule="evenodd" clip-rule="evenodd" d="M3 33C3.34597 45.8299 5.68675 56.3789 9 65V33H3Z" fill="#BB3337"/>
<path fill-rule="evenodd" clip-rule="evenodd" d="M10 33V64.4671C10.2528 65.14 10.5061 65.8041 10.7694 66.4555C12.3526 70.3929 14.1319 73.8998 16 77V33H10Z" fill="#1D3448"/>
<path fill-rule="evenodd" clip-rule="evenodd" d="M66 33V65C69.3105 56.3989 71.6498 45.8433 72 33H66Z" fill="#BB3337"/>
<path fill-rule="evenodd" clip-rule="evenodd" d="M60 33V77C61.6086 74.3433 63.152 71.3853 64.5616 68.112C65.0624 66.9554 65.5414 65.7642 66 64.5269V33H60Z" fill="#1D3448"/>
<path fill-rule="evenodd" clip-rule="evenodd" d="M47 33V92C48.1532 90.966 49.3697 89.7884 50.6122 88.4598C51.3985 87.625 52.1979 86.7256 53 85.7663V33H47Z" fill="#1D3448"/>
<path fill-rule="evenodd" clip-rule="evenodd" d="M41 33V97C41.898 96.4046 42.9609 95.6515 44.1392 94.7256C45.0324 94.0269 45.9926 93.2203 47 92.3097V33H41Z" fill="#BB3337"/>
<path fill-rule="evenodd" clip-rule="evenodd" d="M54 33V86C55.3634 84.3627 56.7372 82.5462 58.088 80.5352C58.7338 79.5717 59.3717 78.5624 60 77.5091V33H54Z" fill="#BB3337"/>
<path fill-rule="evenodd" clip-rule="evenodd" d="M58.1869 58.0513C58.1869 58.0513 53.239 57.9107 48.1503 54.6647C48.1503 54.6647 43.3413 49.7192 39.9476 49.436C39.9476 49.436 42.21 38.1394 37.5438 38C37.5438 38 37.1212 39.8327 35.8482 41.1058C35.8482 41.1058 33.8695 44.0709 33.8695 46.4734C33.8695 46.4734 30.6142 41.2472 31.0392 38.1394C31.0392 38.1394 29.7677 38 28.777 42.0958C28.777 42.0958 27.3637 48.59 27.3637 50.5671C27.3637 50.5671 26.516 54.8017 23.4046 57.9107C23.4046 57.9107 17.0428 66.5202 18.3139 68.076C18.3139 68.076 15.9121 69.9087 24.3958 73.0151C24.3958 73.0151 22.2738 80.4985 28.07 77.9568C28.07 77.9568 26.233 82.0524 30.474 83.467C30.474 83.467 34.0091 84.5925 35.14 83.043C35.14 83.043 42.3528 88.5487 43.6257 86.5714C43.6257 86.5714 47.1571 82.7578 41.0785 76.8281C41.0785 76.8281 38.8161 73.7223 43.0577 74.0063C43.0577 74.0063 50.551 73.5817 52.5314 74.851C52.5314 74.851 59.0914 72.7432 55.9788 69.4905C55.9788 69.4905 55.5389 69.3314 54.834 69.0849C54.6325 68.3936 54.2194 66.967 54.2289 67.1434C54.2398 67.3146 53.7229 68.1493 53.4393 68.598C53.287 68.5433 53.1262 68.4905 52.9649 68.4363L52.0407 66.976L51.2267 67.8563C51.0181 67.7876 50.8059 67.7189 50.5899 67.649L50.0926 66.6145L49.3505 67.2573C49.2543 67.2345 49.1632 67.2014 49.0682 67.174C48.9701 66.9251 48.6418 66.0842 48.6563 66.172C48.6684 66.265 48.4257 66.7442 48.3167 66.9543L48.1541 66.9066L47.6027 66.1898L47.2457 66.659C47.14 66.6316 47.0385 66.6075 46.9411 66.5801L46.6543 66.1045L46.3336 66.4407C45.8294 66.3299 45.4175 66.2663 45.1371 66.2663C45.1371 66.2663 44.3485 65.2662 46.5936 65.3514L46.8493 65.7837L47.3044 65.4094L47.5365 65.433C47.5365 65.433 47.6194 65.4425 47.762 65.4552L47.9738 65.9466L48.6022 65.5265C48.7559 65.5412 48.9274 65.5494 49.1085 65.5627C49.1593 65.8284 49.218 66.172 49.1823 66.2401C49.1446 66.3063 49.501 65.9079 49.772 65.5985C50.0141 65.6042 50.2666 65.6131 50.5305 65.6175L51.1131 66.4687L51.8182 65.6284C52.1349 65.622 52.4588 65.6086 52.782 65.5985L53.32 66.5202L54.3438 65.4763C54.6593 65.438 54.9742 65.4006 55.2833 65.3514C55.5089 65.9021 55.8041 66.6743 55.7646 66.8391C55.7263 67.0212 56.33 65.7837 56.6825 65.0612C58.4846 64.5826 59.9431 63.7403 60.307 62.2857C60.307 62.2857 62.8523 57.6255 58.1869 58.0513Z" fill="#121011"/>
<path fill-rule="evenodd" clip-rule="evenodd" d="M44.9278 57.1963L45.1552 57.1415C44.976 57.1686 44.9027 57.1844 44.8815 57.1919L44.9278 57.1963ZM58.8251 60.2498C58.2967 59.4932 56.5501 59.9078 55.7757 59.8353C53.2477 59.611 50.1321 58.7102 48.0164 57.466C46.1202 56.349 44.7326 54.1246 42.7901 52.9855C42.3368 52.7178 40.6057 51.8706 40.1041 51.8983C39.1527 51.9448 39.0023 53.206 38.1092 53.5368C36.979 51.936 38.0944 48.7364 38.3331 46.9769C38.5156 45.6224 38.9119 43.0389 37.8028 42C35.9836 42.6672 33.5963 50.3328 36.351 49.7852C36.3619 50.6483 35.7077 51.2216 35.5131 52.011L35.4668 52.2202C34.0407 49.7085 31.806 46.6348 30.8186 47.2591L30.4082 44.6421C29.6345 45.9701 28.7785 50.911 28.6964 52.5206C28.668 53.1041 29.4399 53.3811 29.4232 53.7196C29.4098 53.969 29.1991 54.3092 29.1581 54.5241C29.1798 54.4099 29.6377 55.3611 29.6524 55.4935C28.3844 55.5181 27.6497 56.3559 27.1489 57.3512C26.4104 58.8071 25.1749 58.8733 25.6206 60.2359C26.038 61.516 23.5652 62.9474 23.1568 64.2691C22.8839 65.1416 22.1422 66.4745 21.0404 66.7556C20.6229 68.7231 23.6217 67.8946 21.8854 69.4531C21.1129 70.1474 24.642 70.153 24.039 71.0055C22.2315 73.5852 26.4906 72.4638 26.874 73.0578C27.2753 73.6727 26.0097 76.01 26.1363 77.004C28.0157 77.0928 30.4403 76.4857 30.1032 79.122C29.9285 80.4846 29.1227 81.3459 30.7954 82.2738C32.434 83.1798 33.4145 81.5411 35.2556 81.4876C37.5582 81.4189 38.3949 83.8878 40.3258 84C41.4294 82.4956 40.1992 81.4504 39.5359 80.1017C38.8867 78.763 39.019 76.914 38.086 75.7806C37.4015 76.1757 37.1498 77.45 36.0466 77.166C34.5557 76.7823 35.8251 75.4141 36.2636 74.6524C37.5403 72.4405 37.485 71.1648 40.3366 70.4749C40.3181 71.9384 40.528 72.5577 41.9182 72.2798C42.3471 72.1911 42.683 71.7809 43.1928 71.7115C44.3262 71.5706 45.5107 72.2679 46.632 72.4078C48.9378 72.7102 52.1394 73.6715 54.4478 73.6627C55.4905 72.5748 54.9108 71.7809 53.9431 71.2026V69.8388C53.9431 69.8388 53.4885 70.3182 53.037 70.7503C52.6325 70.5853 52.2274 70.446 51.8755 70.327C51.7875 69.7864 51.7284 69.2466 51.7284 69.2466C51.7284 69.2466 51.2507 69.6082 50.7923 69.9389C50.4281 69.7864 50.0717 69.6132 49.7155 69.4292C49.6634 69.0506 49.6313 68.7199 49.6313 68.7199L49.2891 69.2075C49.0463 69.0815 48.8043 68.953 48.5589 68.8302L48.4922 68.6002L48.372 68.7375C48.1069 68.6046 47.8391 68.4812 47.5695 68.3702L47.4738 68.0136L47.3171 68.2733C47.0442 68.1674 46.7681 68.0823 46.4862 68.0136L46.395 67.7774L46.2133 67.9557C45.9782 67.9091 45.7356 67.8776 45.4857 67.8676C43.1909 67.7774 43.7758 67.0233 44.8899 65.0862C45.6322 63.7985 45.5018 64.5847 45.9031 64.7579C46.5343 65.0258 46.5876 64.8902 46.9157 64.7631L47.1796 65.3451C47.1796 65.3451 47.5528 64.959 47.8468 64.6124C48.0228 64.6074 48.2064 64.601 48.3952 64.591C48.4774 64.8474 48.5589 65.1063 48.5589 65.1063L49.0591 64.5847C49.228 64.5885 49.3964 64.591 49.5671 64.601L49.7572 65.3451L50.4795 64.6742C50.667 64.6911 50.8513 64.7069 51.035 64.7246L51.4356 65.9902L52.6325 64.9022L52.8284 64.9267C52.9086 64.9419 53.0545 64.9451 53.2477 64.9419L53.5933 65.6979L54.5705 64.8525C54.8253 64.8229 55.0913 64.7894 55.3603 64.7422L55.9883 65.5189L56.5251 64.4657C57.8402 64.0606 58.768 63.3373 57.7463 62.107C58.4077 61.8172 59.4062 61.0914 58.8251 60.2498ZM30.089 58.8468C30.4692 58.0311 31.8773 58.3825 31.7971 56.9254C31.1268 56.8152 30.911 56.33 31.1235 55.6957C31.4458 55.5779 33.4627 55.7139 34.9923 55.6428C34.5665 56.475 34.0188 57.4325 33.5571 58.2502C31.512 58.9791 29.7712 59.5398 30.089 58.8468ZM37.3855 64.4807C36.8859 64.8902 35.7589 64.6433 35.4719 64.9873C34.9037 65.6651 35.9574 66.7008 35.9182 67.3812C35.8733 68.2216 35.0533 69.8115 34.8054 70.6287C34.5126 71.5925 34.677 71.9409 33.525 72.5659C32.4765 73.1366 31.5191 73.187 30.5295 73.9725C30.5456 71.8439 32.384 69.5785 32.6601 67.4152C32.7532 66.6908 35.0443 63.823 36.9013 61.2244C37.4529 61.6188 38.0346 61.9023 38.6427 61.8134C38.7603 62.3263 37.7317 64.2023 37.3855 64.4807ZM41.8077 65.073C41.4757 65.6854 41.3685 66.8186 41.0796 67.521C40.4934 68.9278 38.5156 70.5562 38.7917 67.8007L38.6498 67.6609C39.7813 65.4314 40.6403 63.4495 43.3301 63.3827C43.2017 64.0851 42.2187 64.312 41.8077 65.073ZM45.1133 58.3271C44.899 58.6032 44.6639 58.8204 44.4211 58.9885C43.7738 58.2641 42.3599 57.403 41.567 58.014C41.6184 58.9843 42.9038 59.2998 43.9183 59.2709C42.7433 59.7653 41.3723 59.3042 40.2205 58.4261C40.634 57.883 40.379 57.2071 40.313 57.5031L38.4938 57.4465C39.3164 57.045 40.5267 56.7137 41.6966 56.6565C40.826 56.412 40.2295 56.0926 40.3847 55.7342C42.0999 55.5074 44.4018 56.5184 45.1552 57.1415L45.1897 57.2102C45.1056 57.2071 45.019 57.2013 44.9278 57.1963L44.8815 57.1919C44.6407 57.173 44.3795 57.1447 44.1111 57.1176C44.5765 57.3847 44.9368 57.7708 45.1133 58.3271Z" fill="#736C44"/>
<path fill-rule="evenodd" clip-rule="evenodd" d="M59.9586 12.8004C58.7518 10.9087 56.406 9.80672 53.4445 9.30843C50.2284 8.77252 46.6114 8.99804 43.1131 9.50361C41.3975 9.75741 39.6888 9.98957 37.9985 10.0008C36.3112 9.98957 34.6017 9.75741 32.8886 9.50361C29.3884 8.99804 25.7696 8.77252 22.5555 9.30843C19.5939 9.80672 17.2494 10.9087 16.0414 12.8004C15.9625 12.9325 16.0135 13.0832 16.054 13.1766C16.2043 13.5013 16.3361 13.623 16.4992 13.8346C16.662 14.0247 16.8478 14.2326 17.0516 14.4548C17.4424 14.8761 17.8877 15.3417 18.242 15.7105C18.5823 16.0551 18.8734 16.3582 18.8854 16.3707C18.9927 16.4904 19.2732 16.7705 19.6324 17.1439C19.9778 17.497 20.3637 17.9006 20.6194 18.1802C20.7179 18.2925 20.8037 18.3853 20.8404 18.434C20.8947 18.5543 21.0158 18.6851 21.1858 18.8035C21.4907 19.0001 21.8526 19.0592 22.0016 18.935H22.0066C23.1465 17.9927 24.8823 17.472 26.9674 17.2432C29.2028 17.0058 31.6769 17.1393 34.1034 17.4142C35.0369 17.5193 35.9676 17.616 36.9078 17.6607C37.1302 17.6753 37.3511 17.6844 37.5683 17.6884H37.5911C37.7282 17.6936 37.8632 17.6936 37.9985 17.6936C38.1367 17.6936 38.27 17.6936 38.4069 17.6884H38.4297C38.6488 17.6844 38.8678 17.6753 39.089 17.6607C40.0323 17.616 40.9617 17.5193 41.8964 17.4142C44.3211 17.1393 46.797 17.0058 49.0324 17.2432C51.1157 17.472 52.8553 17.9927 53.9932 18.935H53.9982C54.1472 19.0592 54.5072 19.0001 54.8141 18.8035C54.984 18.6851 55.1046 18.5543 55.1556 18.434C55.198 18.3853 55.2801 18.2925 55.3818 18.1802C55.6319 17.9006 56.0221 17.497 56.3636 17.1439C56.7268 16.7705 57.0059 16.4904 57.1144 16.3707C57.1284 16.3582 57.4175 16.0551 57.7542 15.7105C58.1122 15.3417 58.5562 14.8761 58.949 14.4548C59.1484 14.2326 59.338 14.0247 59.4976 13.8346C59.6637 13.623 59.7969 13.5013 59.9472 13.1766C59.9832 13.0832 60.0395 12.9325 59.9586 12.8004Z" fill="#736C44"/>
<path fill-rule="evenodd" clip-rule="evenodd" d="M42.7722 10.5989C41.1134 10.8381 39.4097 10.9836 37.6978 10.9961C35.8428 11.0202 34.0205 10.7667 32.2304 10.5065C25.495 9.53789 18.6747 9.65824 16.0031 13.579C15.8999 13.7314 18.3792 16.3472 18.5664 16.569C18.7337 16.7629 20.704 18.8463 20.6271 18.9114C23.2345 16.6025 28.443 16.5747 33.5135 17.1757C34.2629 17.2637 35.005 17.3418 35.7525 17.4019C37.7086 17.5971 39.5687 17.49 41.489 17.2637C46.5571 16.6614 51.7617 16.69 54.373 19C54.2999 18.9351 56.267 16.8504 56.4336 16.657C56.622 16.4394 59.1007 13.8194 58.9968 13.6712C56.3222 9.74612 49.5074 9.62592 42.7722 10.5989Z" fill="#1D3448"/>
<path fill-rule="evenodd" clip-rule="evenodd" d="M53.5676 18.9066L53.5407 18.8889L53.5247 18.877C52.4299 18.032 50.7192 17.5355 48.6394 17.3292C47.8265 17.2447 46.9778 17.2108 46.1119 17.2108C44.5966 17.2108 43.0225 17.3199 41.4643 17.4859C40.5217 17.5869 39.5752 17.6809 38.6153 17.7261C38.3942 17.7398 38.1724 17.7443 37.9532 17.7499L37.9168 17.7505H37.4982H37.077L37.0509 17.7499C36.8309 17.7443 36.6087 17.7398 36.3836 17.7261C35.4231 17.6809 34.4741 17.5869 33.5294 17.4859C31.9732 17.3154 30.3991 17.2108 28.8877 17.2108C28.0198 17.2108 27.1711 17.2447 26.3569 17.3292C24.2716 17.5355 22.5518 18.0346 21.4602 18.8865L21.425 18.9109L21.4141 18.9153C21.3112 18.9824 21.1943 19 21.0825 19C20.8467 19 20.5929 18.9197 20.3545 18.7749C20.1685 18.6584 20.0209 18.5229 19.9379 18.3573C19.8969 18.3154 19.8241 18.2326 19.7372 18.1443C19.4834 17.8822 19.0929 17.4978 18.7453 17.1638C18.3797 16.8045 18.1011 16.5425 17.9911 16.4284C17.9733 16.4102 17.6805 16.1299 17.3379 15.7977C16.9775 15.4428 16.525 15.0028 16.1276 14.5934C15.9236 14.3821 15.7301 14.1828 15.5576 13.9878C15.4067 13.8047 15.2418 13.6536 15.0699 13.3064C15.0411 13.2443 15.0009 13.1414 15.0009 13.0067C14.9952 12.9208 15.0163 12.8242 15.0788 12.7308C16.3602 10.8457 18.8021 9.78115 21.8315 9.30348C23.1588 9.09222 24.5482 9.00437 25.9696 9.00437C28.0728 9.00437 30.2381 9.20071 32.3567 9.48656C34.0905 9.72856 35.8123 9.94916 37.4982 9.96106C39.1873 9.94916 40.9084 9.72856 42.6403 9.48656C44.7602 9.19499 46.9261 9.00437 49.0262 9C50.4474 9.00437 51.8407 9.09222 53.17 9.30348C56.1954 9.78115 58.6381 10.8457 59.9189 12.7308L59.724 12.8587L59.924 12.7353C59.9796 12.8242 60 12.9208 60 13.0067C60 13.1414 59.9547 13.2443 59.924 13.3195C59.759 13.6536 59.5922 13.8047 59.4344 13.9959C59.2696 14.1828 59.0759 14.3847 58.87 14.5934C58.4725 15.0028 58.024 15.4428 57.659 15.7977C57.3209 16.1249 57.0167 16.4209 57.0167 16.4209C56.8965 16.5425 56.6173 16.8045 56.2524 17.1638C55.904 17.4978 55.5141 17.8822 55.2599 18.1443C55.1754 18.2326 55.1001 18.3154 55.0617 18.3573C54.9766 18.5229 54.829 18.6584 54.6411 18.7749C54.4054 18.9197 54.1516 19 53.917 19C53.7912 19 53.6608 18.978 53.5676 18.9066ZM21.1656 18.5261L21.1994 18.5003C22.4118 17.5781 24.1948 17.0848 26.3071 16.8692C27.143 16.7839 28.0071 16.7444 28.8877 16.7444C30.424 16.7444 32.0116 16.8604 33.5812 17.0297C34.5239 17.1255 35.4627 17.2195 36.4085 17.2659C36.6285 17.2778 36.8483 17.2816 37.0669 17.286H37.0829L37.0968 17.2903H37.0988H37.4982H37.8958L37.9117 17.286H37.9309C38.1514 17.2816 38.3712 17.2778 38.5904 17.2659C39.5369 17.2195 40.4738 17.1255 41.4159 17.0297C42.9815 16.8604 44.5717 16.7444 46.1119 16.7444C46.9906 16.7444 47.8534 16.7839 48.6906 16.8692C50.8009 17.0848 52.5808 17.5781 53.8123 18.5128L53.8353 18.5311L53.8551 18.5354L53.917 18.5398C54.0289 18.5418 54.2232 18.4878 54.3926 18.3825C54.5364 18.2972 54.6272 18.1893 54.6458 18.1373L54.6591 18.1098L54.6802 18.0873C54.7313 18.0219 54.8169 17.938 54.9218 17.8295C55.18 17.5575 55.5691 17.1739 55.9206 16.8341C56.29 16.4804 56.5719 16.209 56.6742 16.1031C56.6966 16.0823 56.9872 15.7977 57.3299 15.4692C57.6903 15.1175 58.135 14.6775 58.5313 14.275C58.7352 14.0642 58.925 13.8688 59.0759 13.695C59.2548 13.48 59.3608 13.3909 59.4925 13.1382L59.5284 13.0067L59.5206 12.9835C58.3607 11.2651 56.0574 10.2239 53.094 9.75734C51.7966 9.55618 50.4264 9.46712 49.0262 9.46712C46.956 9.46712 44.8093 9.65457 42.7048 9.94479C40.9729 10.185 39.2296 10.4093 37.4982 10.4225C35.7695 10.4093 34.0266 10.185 32.2928 9.94479C30.1864 9.65457 28.0427 9.46712 25.9696 9.46712C24.5681 9.46712 23.2011 9.55105 21.9055 9.75734C18.9364 10.2239 16.635 11.2651 15.4745 12.9835L15.4692 13.0067L15.4955 13.1164C15.6393 13.3961 15.741 13.48 15.9161 13.6912C16.0759 13.8688 16.2657 14.0687 16.4682 14.275C16.8587 14.6775 17.3092 15.1175 17.6697 15.4692C18.0103 15.7977 18.3069 16.0861 18.3261 16.1061C18.4238 16.209 18.7114 16.4804 19.0769 16.8341C19.4266 17.1739 19.817 17.5575 20.0797 17.8295C20.1806 17.938 20.2644 18.0219 20.3175 18.0873L20.3373 18.1066L20.3495 18.1373C20.3705 18.1893 20.4631 18.2972 20.6051 18.3825C20.7719 18.4878 20.9687 18.5418 21.0825 18.5398L21.1656 18.5261Z" fill="#736C44"/>
<path fill-rule="evenodd" clip-rule="evenodd" d="M31.3373 12.6487L31.2942 12.5839L31.0269 12.4502L31 12.4134L31.0592 12.3702C31.2973 12.2991 31.531 12.1452 31.6232 12.0402L31.6756 12.0007L31.7485 12L31.7771 12.0278C31.775 12.1553 31.7533 12.354 31.7532 12.6128L31.7318 15.6151C31.7277 15.6783 31.7403 15.7263 31.7801 15.7644L31.9592 15.9151L32 15.9633L31.9634 15.9987L31.0696 16L31.0351 15.9665L31.0785 15.9193L31.2562 15.7658C31.2996 15.7273 31.3123 15.6798 31.313 15.6132L31.3373 12.6487Z" fill="#FFFFFE"/>
<path fill-rule="evenodd" clip-rule="evenodd" d="M35.9993 13.9489C35.9953 15.2334 35.8952 16.0003 35.5063 16C35.112 16.0029 35.0608 15.3501 35.0616 14.9985L35.0958 14.942L35.1342 14.9998C35.2026 15.3226 35.2673 15.733 35.4919 15.7311C35.6794 15.7335 35.7009 15.1352 35.7023 14.4337L35.6939 14.4319C35.6443 14.524 35.5606 14.6101 35.4703 14.6116C35.1731 14.6096 34.9969 14.0912 35 13.3248C35.0038 12.6857 35.1392 12.002 35.5078 12C35.8636 11.9989 36.0118 12.5235 35.9993 13.9489ZM35.2971 13.293C35.2933 13.9651 35.3318 14.3433 35.4934 14.3437C35.6627 14.3414 35.7044 13.9736 35.708 13.4547C35.7113 12.6391 35.6595 12.2668 35.5052 12.2693C35.3597 12.2679 35.2991 12.6421 35.2971 13.293Z" fill="#FFFFFE"/>
<path fill-rule="evenodd" clip-rule="evenodd" d="M39.3369 12.6473L39.2968 12.5811L39.0295 12.4499L39 12.4111L39.0591 12.3686C39.2998 12.3027 39.5298 12.1461 39.6234 12.0408L39.6772 12.0002L39.7483 12L39.7758 12.027C39.7751 12.1554 39.7575 12.3531 39.7538 12.6099L39.7302 15.617C39.7278 15.6801 39.7405 15.7293 39.78 15.7675L39.9603 15.9181L40 15.9699L39.9636 15.9993L39.0718 16L39.0373 15.9691L39.0808 15.9214L39.2583 15.7675C39.3001 15.7303 39.3147 15.6801 39.315 15.6159L39.3369 12.6473Z" fill="#FFFFFE"/>
<path fill-rule="evenodd" clip-rule="evenodd" d="M43.1156 14.822L42.0398 14.8244L42 14.7815L42.0528 14.6371L43.288 12.0645L43.3771 12.0024L43.5669 12L43.6274 12.0488L43.6043 14.5533L43.6999 14.5297L43.9316 14.3352L43.9811 14.3037L43.9998 14.3375L44 14.7828L43.9635 14.8197L43.5992 14.8167L43.5942 15.6115C43.5931 15.6793 43.6092 15.7273 43.6573 15.7647L43.8619 15.9188L43.9119 15.9773L43.8654 15.9935L42.8233 16L42.7818 15.9665L42.8322 15.9208L43.0425 15.7631C43.0937 15.7278 43.1028 15.6798 43.1047 15.6162L43.1156 14.822ZM43.1333 13.0735L43.116 13.0714L42.4763 14.4242L42.4489 14.5145L42.5033 14.5556L43.1158 14.555L43.1333 13.0735Z" fill="#FFFFFE"/>
</svg>