<?xml version="1.0" encoding="UTF-8" standalone="no"?>
<svg
   xmlns:dc="http://purl.org/dc/elements/1.1/"
   xmlns:cc="http://creativecommons.org/ns#"
   xmlns:rdf="http://www.w3.org/1999/02/22-rdf-syntax-ns#"
   xmlns:svg="http://www.w3.org/2000/svg"
   xmlns="http://www.w3.org/2000/svg"
   xmlns:sodipodi="http://sodipodi.sourceforge.net/DTD/sodipodi-0.dtd"
   xmlns:inkscape="http://www.inkscape.org/namespaces/inkscape"
   width="142.72166mm"
   height="185.20833mm"
   viewBox="0 0 142.72167 185.20833"
   version="1.1"
   id="svg8"
   inkscape:version="1.0 (4035a4f, 2020-05-01)"
   sodipodi:docname="Logo FC Martigues - 2020.svg">
  <defs
     id="defs2">
    <rect
       x="-152.26698"
       y="54.156696"
       width="99.156998"
       height="28.063299"
       id="rect1051" />
  </defs>
  <sodipodi:namedview
     id="base"
     pagecolor="#ffffff"
     bordercolor="#666666"
     borderopacity="1.0"
     inkscape:pageopacity="0.0"
     inkscape:pageshadow="2"
     inkscape:zoom="0.7"
     inkscape:cx="238.54679"
     inkscape:cy="188.75082"
     inkscape:document-units="mm"
     inkscape:current-layer="layer1"
     inkscape:document-rotation="0"
     showgrid="false"
     inkscape:window-width="1434"
     inkscape:window-height="780"
     inkscape:window-x="0"
     inkscape:window-y="23"
     inkscape:window-maximized="0" />
  <metadata
     id="metadata5">
    <rdf:RDF>
      <cc:Work
         rdf:about="">
        <dc:format>image/svg+xml</dc:format>
        <dc:type
           rdf:resource="http://purl.org/dc/dcmitype/StillImage" />
        <dc:title></dc:title>
      </cc:Work>
    </rdf:RDF>
  </metadata>
  <g
     inkscape:label="Calque 1"
     inkscape:groupmode="layer"
     id="layer1"
     transform="translate(161.96942,-38.493256)">
    <g
       transform="matrix(1.4584859,0,0,1.4584859,74.260698,-17.648616)"
       id="g1465">
      <path
         id="path1445"
         d="m -113.04217,38.493379 c -15.45916,-0.02408 -36.01889,3.507319 -48.74535,10.455174 l -0.1819,0.09922 v 51.842317 5.3e-4 c 0,19.49698 6.30061,33.30073 13.52786,42.98962 6.45787,8.65745 15.84538,16.0422 35.30431,21.57233 l 0.0956,0.0274 0.0956,-0.0274 c 19.458918,-5.53013 28.846954,-12.91488 35.304821,-21.57233 7.227253,-9.68889 13.527858,-23.49264 13.527858,-42.98962 v -5.3e-4 -51.842317 l -0.181901,-0.09922 C -77.02173,42.000698 -97.581977,38.469296 -113.04113,38.493379 Z"
         style="color:#000000;font-style:normal;font-variant:normal;font-weight:normal;font-stretch:normal;font-size:medium;line-height:normal;font-family:sans-serif;font-variant-ligatures:normal;font-variant-position:normal;font-variant-caps:normal;font-variant-numeric:normal;font-variant-alternates:normal;font-variant-east-asian:normal;font-feature-settings:normal;font-variation-settings:normal;text-indent:0;text-align:start;text-decoration:none;text-decoration-line:none;text-decoration-style:solid;text-decoration-color:#000000;letter-spacing:normal;word-spacing:normal;text-transform:none;writing-mode:lr-tb;direction:ltr;text-orientation:mixed;dominant-baseline:auto;baseline-shift:baseline;text-anchor:start;white-space:normal;shape-padding:0;shape-margin:0;inline-size:0;clip-rule:nonzero;display:inline;overflow:visible;visibility:visible;isolation:auto;mix-blend-mode:normal;color-interpolation:sRGB;color-interpolation-filters:linearRGB;solid-color:#000000;solid-opacity:1;vector-effect:none;fill:#fffd54;fill-opacity:1;fill-rule:nonzero;stroke:none;stroke-width:0.7;stroke-linecap:butt;stroke-linejoin:miter;stroke-miterlimit:4;stroke-dasharray:none;stroke-dashoffset:0;stroke-opacity:1;color-rendering:auto;image-rendering:auto;shape-rendering:auto;text-rendering:auto;enable-background:accumulate;stop-color:#000000"
         sodipodi:nodetypes="scccsscccsscccss" />
      <path
         id="path1449"
         d="m -113.04217,39.193077 h 5.3e-4 5.3e-4 c 15.279481,-0.02395 35.675403,3.491714 48.228064,10.276377 v 51.420116 c -0.02148,19.35988 -6.246074,32.99575 -13.389364,42.57208 -6.366883,8.53548 -15.550173,15.78995 -34.83922,21.2881 -19.28904,-5.49815 -28.47181,-12.75262 -34.8387,-21.2881 -7.14322,-9.57624 -13.36775,-23.21196 -13.38936,-42.57156 V 49.469454 c 12.55266,-6.784665 32.94806,-10.300335 48.22755,-10.276377 z"
         style="color:#000000;font-style:normal;font-variant:normal;font-weight:normal;font-stretch:normal;font-size:medium;line-height:normal;font-family:sans-serif;font-variant-ligatures:normal;font-variant-position:normal;font-variant-caps:normal;font-variant-numeric:normal;font-variant-alternates:normal;font-variant-east-asian:normal;font-feature-settings:normal;font-variation-settings:normal;text-indent:0;text-align:start;text-decoration:none;text-decoration-line:none;text-decoration-style:solid;text-decoration-color:#000000;letter-spacing:normal;word-spacing:normal;text-transform:none;writing-mode:lr-tb;direction:ltr;text-orientation:mixed;dominant-baseline:auto;baseline-shift:baseline;text-anchor:start;white-space:normal;shape-padding:0;shape-margin:0;inline-size:0;clip-rule:nonzero;display:inline;overflow:visible;visibility:visible;isolation:auto;mix-blend-mode:normal;color-interpolation:sRGB;color-interpolation-filters:linearRGB;solid-color:#000000;solid-opacity:1;vector-effect:none;fill:#595a57;fill-opacity:1;fill-rule:nonzero;stroke:none;stroke-width:0.7;stroke-linecap:butt;stroke-linejoin:miter;stroke-miterlimit:4;stroke-dasharray:none;stroke-dashoffset:0;stroke-opacity:1;color-rendering:auto;image-rendering:auto;shape-rendering:auto;text-rendering:auto;enable-background:accumulate;stop-color:#000000"
         sodipodi:nodetypes="ccsccscscccc" />
      <path
         style="color:#000000;font-style:normal;font-variant:normal;font-weight:normal;font-stretch:normal;font-size:medium;line-height:normal;font-family:sans-serif;font-variant-ligatures:normal;font-variant-position:normal;font-variant-caps:normal;font-variant-numeric:normal;font-variant-alternates:normal;font-variant-east-asian:normal;font-feature-settings:normal;font-variation-settings:normal;text-indent:0;text-align:start;text-decoration:none;text-decoration-line:none;text-decoration-style:solid;text-decoration-color:#000000;letter-spacing:normal;word-spacing:normal;text-transform:none;writing-mode:lr-tb;direction:ltr;text-orientation:mixed;dominant-baseline:auto;baseline-shift:baseline;text-anchor:start;white-space:normal;shape-padding:0;shape-margin:0;inline-size:0;clip-rule:nonzero;display:inline;overflow:visible;visibility:visible;opacity:1;isolation:auto;mix-blend-mode:normal;color-interpolation:sRGB;color-interpolation-filters:linearRGB;solid-color:#000000;solid-opacity:1;vector-effect:none;fill:#fffd54;fill-opacity:1;fill-rule:nonzero;stroke:none;stroke-width:2.64567;stroke-linecap:butt;stroke-linejoin:miter;stroke-miterlimit:4;stroke-dasharray:none;stroke-dashoffset:0;stroke-opacity:1;color-rendering:auto;image-rendering:auto;shape-rendering:auto;text-rendering:auto;enable-background:accumulate;stop-color:#000000;stop-opacity:1"
         d="m 389.67773,178.125 c -58.42799,-0.091 -129.30427,13.27412 -177.37109,39.51562 l -0.6875,0.375 v 187.93946 0.002 c 0.0819,73.6977 22.52729,123.84766 49.82227,160.43945 24.41237,32.72736 58.87215,58.66855 127.85547,79.56836 l 0.38281,0.11719 0.38281,-0.11719 c 68.98331,-20.89981 103.44504,-46.84097 127.85742,-79.56836 27.295,-36.59181 49.73853,-86.74177 49.82031,-160.43945 v -0.002 -187.93946 l -0.6875,-0.375 C 518.98591,191.39912 448.10962,178.03399 389.68164,178.125 Z"
         id="path1433"
         transform="matrix(0.26458333,0,0,0.26458333,-216.1444,-7.048027)" />
      <path
         style="color:#000000;font-style:normal;font-variant:normal;font-weight:normal;font-stretch:normal;font-size:medium;line-height:normal;font-family:sans-serif;font-variant-ligatures:normal;font-variant-position:normal;font-variant-caps:normal;font-variant-numeric:normal;font-variant-alternates:normal;font-variant-east-asian:normal;font-feature-settings:normal;font-variation-settings:normal;text-indent:0;text-align:start;text-decoration:none;text-decoration-line:none;text-decoration-style:solid;text-decoration-color:#000000;letter-spacing:normal;word-spacing:normal;text-transform:none;writing-mode:lr-tb;direction:ltr;text-orientation:mixed;dominant-baseline:auto;baseline-shift:baseline;text-anchor:start;white-space:normal;shape-padding:0;shape-margin:0;inline-size:0;clip-rule:nonzero;display:inline;overflow:visible;visibility:visible;opacity:1;isolation:auto;mix-blend-mode:normal;color-interpolation:sRGB;color-interpolation-filters:linearRGB;solid-color:#000000;solid-opacity:1;vector-effect:none;fill:#000000;fill-opacity:1;fill-rule:nonzero;stroke:none;stroke-width:2.64567;stroke-linecap:butt;stroke-linejoin:miter;stroke-miterlimit:4;stroke-dasharray:none;stroke-dashoffset:0;stroke-opacity:1;color-rendering:auto;image-rendering:auto;shape-rendering:auto;text-rendering:auto;enable-background:accumulate;stop-color:#000000;stop-opacity:1"
         d="m 389.67773,180.76953 h 0.002 0.002 c 57.75499,-0.0905 127.98336,13.19197 175.41406,38.85742 v 186.32617 c -0.0812,73.16289 -22.27801,122.63971 -49.29687,158.86133 -24.05374,32.24658 -57.75543,57.71969 -126.11914,78.49219 C 321.316,622.53414 287.61626,597.06105 263.5625,564.81445 236.54388,528.59314 214.34541,479.11684 214.26367,405.95508 V 219.62695 c 47.4307,-25.66545 117.65906,-38.94796 175.41406,-38.85742 z"
         id="path1437"
         transform="matrix(0.26458333,0,0,0.26458333,-216.1444,-7.048027)" />
      <path
         id="path1017"
         style="fill:#fffd54;fill-opacity:1;stroke:none;stroke-width:0.1;stroke-linecap:butt;stroke-linejoin:miter;stroke-miterlimit:4;stroke-dasharray:none;stroke-opacity:1"
         d="m -113.04165,44.534869 c -14.73705,-0.02416 -30.42333,2.156571 -43.05784,9.05423 v 46.771821 c 0.0216,19.42843 4.98422,31.86087 12.30313,39.75623 7.29726,7.87202 16.2904,17.06805 30.75471,19.7776 14.46431,-2.70955 23.457963,-11.90558 30.755227,-19.7776 7.31891,-7.89536 12.281567,-20.3278 12.303125,-39.75623 V 53.589099 c -12.634508,-6.897659 -28.321307,-9.078378 -43.058352,-9.05423 z" />
      <g
         id="g1408">
        <path
           id="path1398"
           transform="matrix(0.26458333,0,0,0.26458333,-216.1444,-7.048027)"
           d="m 534.66992,220.51758 v 289.96094 c 11.10806,-26.86341 17.70177,-61.0594 17.75,-104.52344 V 229.17969 c -5.75681,-3.14287 -11.68436,-6.02082 -17.75,-8.66211 z"
           style="fill:#ff0000;fill-rule:evenodd;stroke-width:0.999999" />
        <path
           id="rect1025"
           transform="matrix(0.26458333,0,0,0.26458333,-216.1444,-7.048027)"
           d="m 416.18359,195.57227 v 428.04296 c 25.21999,-9.3708 45.40899,-24.10122 62.62891,-39.92187 V 203.21094 c -20.52707,-4.22562 -41.66044,-6.61107 -62.62891,-7.63867 z"
           style="fill:#ff0000;fill-rule:evenodd;stroke-width:0.999999" />
        <path
           id="path1402"
           transform="matrix(0.26458333,0,0,0.26458333,-216.1444,-7.048027)"
           d="m 244.68945,220.51758 c -6.06564,2.64129 -11.99318,5.51924 -17.75,8.66211 v 176.77539 c 0.0482,43.46404 6.64195,77.66003 17.75,104.52344 z"
           style="fill:#ff0000;fill-rule:evenodd;stroke-width:0.999999" />
        <path
           id="rect1365"
           transform="matrix(0.26458333,0,0,0.26458333,-216.1444,-7.048027)"
           d="m 363.17578,195.57227 c -20.96846,1.0276 -42.10183,3.41305 -62.6289,7.63867 v 380.48242 c 17.21992,15.82065 37.40892,30.55107 62.6289,39.92187 z"
           style="fill:#ff0000;fill-rule:evenodd;stroke-width:0.999999" />
      </g>
      <path
         style="color:#000000;font-style:normal;font-variant:normal;font-weight:normal;font-stretch:normal;font-size:medium;line-height:normal;font-family:sans-serif;font-variant-ligatures:normal;font-variant-position:normal;font-variant-caps:normal;font-variant-numeric:normal;font-variant-alternates:normal;font-variant-east-asian:normal;font-feature-settings:normal;font-variation-settings:normal;text-indent:0;text-align:start;text-decoration:none;text-decoration-line:none;text-decoration-style:solid;text-decoration-color:#000000;letter-spacing:normal;word-spacing:normal;text-transform:none;writing-mode:lr-tb;direction:ltr;text-orientation:mixed;dominant-baseline:auto;baseline-shift:baseline;text-anchor:start;white-space:normal;shape-padding:0;shape-margin:0;inline-size:0;clip-rule:nonzero;display:inline;overflow:visible;visibility:visible;opacity:1;isolation:auto;mix-blend-mode:normal;color-interpolation:sRGB;color-interpolation-filters:linearRGB;solid-color:#000000;solid-opacity:1;vector-effect:none;fill:#595a57;fill-opacity:1;fill-rule:nonzero;stroke:none;stroke-width:0.7;stroke-linecap:butt;stroke-linejoin:miter;stroke-miterlimit:4;stroke-dasharray:none;stroke-dashoffset:0;stroke-opacity:1;color-rendering:auto;image-rendering:auto;shape-rendering:auto;text-rendering:auto;enable-background:accumulate;stop-color:#000000;stop-opacity:1"
         d="m -113.04297,44.185547 c -14.77142,-0.02402 -30.51094,2.15483 -43.22461,9.095703 l -0.18164,0.09961 v 46.98047 c 0.0217,19.48786 5.00667,32.02229 12.39649,39.99414 7.30233,7.8775 16.36789,17.15171 30.94726,19.88281 l 0.0644,0.0117 0.0645,-0.0117 c 14.579368,-2.7311 23.644916,-12.00531 30.947263,-19.88281 7.389818,-7.97185 12.374861,-20.50628 12.396485,-39.99414 V 53.380859 l -0.183594,-0.09961 c -12.713667,-6.940875 -28.453189,-9.119715 -43.224614,-9.095703 z m 0,0.699219 h 0.002 c 14.634097,-0.02398 30.182057,2.152193 42.707036,8.93164 v 46.544924 c -0.02149,19.36899 -4.960982,31.69871 -12.208985,39.51758 -7.280761,7.85421 -16.18823,16.95237 -30.498051,19.65625 -14.30982,-2.70387 -23.21728,-11.80203 -30.49804,-19.65625 -7.248,-7.81887 -12.18941,-20.14859 -12.21094,-39.51758 V 53.818359 c 12.52536,-6.780392 28.07207,-8.957586 42.70703,-8.933593 z"
         id="path1429" />
    </g>
    <g
       transform="matrix(1.4584859,0,0,1.4584859,74.260698,-17.648616)"
       id="g1323">
      <g
         id="g1196"
         style="fill:#000000"
         transform="translate(-0.37147502)">
        <path
           d="m -137.43425,65.78921 q -0.0212,-0.148166 -0.0635,-0.201082 -0.0423,-0.05292 -0.127,-0.05292 h -3.49249 v 0.941914 h 2.34949 q 0.0847,0 0.127,-0.04233 0.0423,-0.05292 0.0635,-0.201083 h 0.127 v 1.777994 h -0.127 q -0.0212,-0.179916 -0.0635,-0.232832 -0.0423,-0.05292 -0.127,-0.05292 h -2.34949 v 1.767411 q 0,0.07408 0.0423,0.127 0.0529,0.04233 0.254,0.0635 v 0.126999 h -2.22249 v -0.126999 q 0.20108,-0.02117 0.24342,-0.0635 0.0529,-0.05292 0.0529,-0.127 v -4.931817 q 0,-0.07408 -0.0529,-0.116417 -0.0423,-0.05292 -0.24342,-0.07408 v -0.126999 h 5.41865 q 0.0847,0 0.127,-0.05292 0.0423,-0.0635 0.0635,-0.243416 h 0.127 v 1.841494 z"
           style="font-style:normal;font-variant:normal;font-weight:bold;font-stretch:normal;font-size:10.5833px;line-height:1.25;font-family:Copperplate;-inkscape-font-specification:'Copperplate Bold';letter-spacing:0.529167px;white-space:pre;fill:#000000;fill-opacity:1;stroke:none"
           id="path1141" />
        <path
           d="m -132.4816,64.180549 q 0.67733,0 1.27,0.190499 0.60325,0.179916 1.04775,0.539749 0.45508,0.359832 0.71966,0.888997 0.26458,0.529165 0.26458,1.227663 0,0.698497 -0.26458,1.227662 -0.26458,0.529165 -0.71966,0.888997 -0.4445,0.359833 -1.04775,0.529165 -0.59267,0.169333 -1.27,0.169333 -0.67733,0 -1.28058,-0.169333 -0.59266,-0.169332 -1.04774,-0.529165 -0.4445,-0.359832 -0.70908,-0.888997 -0.26459,-0.529165 -0.26459,-1.227662 0,-0.698498 0.26459,-1.227663 0.26458,-0.529165 0.70908,-0.888997 0.45508,-0.359833 1.04774,-0.539749 0.60325,-0.190499 1.28058,-0.190499 z m 0,1.291162 q -0.34925,0 -0.66674,0.105833 -0.30692,0.105833 -0.55034,0.306916 -0.23283,0.1905 -0.38099,0.486832 -0.13759,0.285749 -0.13759,0.656165 0,0.370415 0.13759,0.666747 0.14816,0.28575 0.38099,0.486832 0.24342,0.1905 0.55034,0.296333 0.31749,0.105833 0.66674,0.105833 0.34925,0 0.65617,-0.105833 0.3175,-0.105833 0.55033,-0.296333 0.24342,-0.201082 0.381,-0.486832 0.14816,-0.296332 0.14816,-0.666747 0,-0.370416 -0.14816,-0.656165 -0.13758,-0.296332 -0.381,-0.486832 -0.23283,-0.201083 -0.55033,-0.306916 -0.30692,-0.105833 -0.65617,-0.105833 z"
           style="font-style:normal;font-variant:normal;font-weight:bold;font-stretch:normal;font-size:10.5833px;line-height:1.25;font-family:Copperplate;-inkscape-font-specification:'Copperplate Bold';letter-spacing:0.529167px;white-space:pre;fill:#000000;fill-opacity:1;stroke:none"
           id="path1143" />
        <path
           d="m -124.30434,64.180549 q 0.67733,0 1.26999,0.190499 0.60325,0.179916 1.04775,0.539749 0.45508,0.359832 0.71966,0.888997 0.26459,0.529165 0.26459,1.227663 0,0.698497 -0.26459,1.227662 -0.26458,0.529165 -0.71966,0.888997 -0.4445,0.359833 -1.04775,0.529165 -0.59266,0.169333 -1.26999,0.169333 -0.67733,0 -1.28058,-0.169333 -0.59267,-0.169332 -1.04775,-0.529165 -0.4445,-0.359832 -0.70908,-0.888997 -0.26458,-0.529165 -0.26458,-1.227662 0,-0.698498 0.26458,-1.227663 0.26458,-0.529165 0.70908,-0.888997 0.45508,-0.359833 1.04775,-0.539749 0.60325,-0.190499 1.28058,-0.190499 z m 0,1.291162 q -0.34925,0 -0.66675,0.105833 -0.30692,0.105833 -0.55033,0.306916 -0.23283,0.1905 -0.381,0.486832 -0.13758,0.285749 -0.13758,0.656165 0,0.370415 0.13758,0.666747 0.14817,0.28575 0.381,0.486832 0.24341,0.1905 0.55033,0.296333 0.3175,0.105833 0.66675,0.105833 0.34925,0 0.65616,-0.105833 0.3175,-0.105833 0.55033,-0.296333 0.24342,-0.201082 0.381,-0.486832 0.14817,-0.296332 0.14817,-0.666747 0,-0.370416 -0.14817,-0.656165 -0.13758,-0.296332 -0.381,-0.486832 -0.23283,-0.201083 -0.55033,-0.306916 -0.30691,-0.105833 -0.65616,-0.105833 z"
           style="font-style:normal;font-variant:normal;font-weight:bold;font-stretch:normal;font-size:10.5833px;line-height:1.25;font-family:Copperplate;-inkscape-font-specification:'Copperplate Bold';letter-spacing:0.529167px;white-space:pre;fill:#000000;fill-opacity:1;stroke:none"
           id="path1145" />
        <path
           d="m -117.80983,69.683865 q 0.20108,-0.02117 0.24341,-0.0635 0.0529,-0.05292 0.0529,-0.127 v -3.958154 h -1.82033 q -0.0847,0 -0.127,0.0635 -0.0423,0.05292 -0.0635,0.232833 h -0.127 v -1.883828 h 0.127 q 0.0212,0.179916 0.0635,0.243416 0.0423,0.05292 0.127,0.05292 h 5.22815 q 0.0847,0 0.127,-0.05292 0.0423,-0.0635 0.0635,-0.243416 h 0.127 v 1.883828 h -0.127 q -0.0212,-0.179916 -0.0635,-0.232833 -0.0423,-0.0635 -0.127,-0.0635 h -1.82032 v 3.958154 q 0,0.07408 0.0423,0.127 0.0529,0.04233 0.254,0.0635 v 0.126999 h -2.18016 z"
           style="font-style:normal;font-variant:normal;font-weight:bold;font-stretch:normal;font-size:10.5833px;line-height:1.25;font-family:Copperplate;-inkscape-font-specification:'Copperplate Bold';letter-spacing:0.529167px;white-space:pre;fill:#000000;fill-opacity:1;stroke:none"
           id="path1147" />
        <path
           d="m -108.45072,68.689035 q 0.5715,0 0.80433,-0.137583 0.23283,-0.148167 0.23283,-0.497415 0,-0.349249 -0.23283,-0.486832 -0.23283,-0.148166 -0.80433,-0.148166 h -1.79916 v 1.269996 z m -0.35983,-2.349493 q 0.33866,0 0.56091,-0.01058 0.22225,-0.02117 0.34925,-0.07408 0.127,-0.05292 0.17992,-0.148167 0.0529,-0.09525 0.0529,-0.253999 0,-0.158749 -0.0529,-0.253999 -0.0529,-0.09525 -0.17992,-0.148166 -0.127,-0.05292 -0.34925,-0.0635 -0.22225,-0.02117 -0.56091,-0.02117 h -1.43933 v 0.973664 z m -3.02683,-1.777994 q 0,-0.07408 -0.0529,-0.116417 -0.0423,-0.05292 -0.24342,-0.07408 v -0.126999 h 4.03224 q 0.43391,0 0.79375,0.08467 0.35983,0.08467 0.62441,0.264583 0.26458,0.169332 0.41275,0.455082 0.14816,0.275165 0.14816,0.666747 0,0.476249 -0.28574,0.772581 -0.28575,0.285749 -0.73025,0.380999 v 0.02117 q 0.53975,0.148166 0.87841,0.455082 0.34925,0.306915 0.34925,0.89958 0,0.317499 -0.127,0.603248 -0.11642,0.285749 -0.381,0.497415 -0.254,0.211666 -0.66675,0.338666 -0.40216,0.126999 -0.96308,0.126999 h -4.08515 v -0.126999 q 0.20108,-0.02117 0.24342,-0.0635 0.0529,-0.05292 0.0529,-0.127 z"
           style="font-style:normal;font-variant:normal;font-weight:bold;font-stretch:normal;font-size:10.5833px;line-height:1.25;font-family:Copperplate;-inkscape-font-specification:'Copperplate Bold';letter-spacing:0.529167px;white-space:pre;fill:#000000;fill-opacity:1;stroke:none"
           id="path1149" />
        <path
           d="m -102.65471,69.578032 q 0,0.05292 0.0318,0.08467 0.0423,0.02117 0.15875,0.02117 v 0.126999 h -1.87324 v -0.126999 q 0.11641,-0.02117 0.16933,-0.0635 0.0529,-0.05292 0.10583,-0.179916 0.0212,-0.05292 0.10584,-0.285749 0.0847,-0.232833 0.22225,-0.582082 0.13758,-0.359832 0.30691,-0.793747 0.16933,-0.433915 0.33867,-0.878414 0.16933,-0.455082 0.32808,-0.878414 0.16933,-0.433915 0.29633,-0.772581 0.127,-0.338665 0.20108,-0.550331 0.0847,-0.211666 0.0847,-0.22225 0,-0.05292 -0.0741,-0.07408 -0.0635,-0.02117 -0.13759,-0.03175 v -0.126999 h 2.762251 v 0.126999 q -0.0847,0.01058 -0.13759,0.03175 -0.0529,0.02117 -0.0529,0.105833 0,0.02117 0.0953,0.275166 0.10583,0.253999 0.26458,0.666748 0.15875,0.402165 0.35983,0.920747 0.21167,0.507998 0.43392,1.047747 0.22225,0.529165 0.42333,1.037163 0.21166,0.507998 0.381,0.910164 0.0847,0.190499 0.13758,0.253999 0.0635,0.0635 0.15875,0.0635 v 0.126999 h -2.08491 v -0.126999 q 0.20108,-0.01058 0.20108,-0.127 0,-0.01058 -0.0529,-0.137583 -0.0529,-0.137583 -0.11642,-0.296332 -0.0635,-0.169333 -0.127,-0.317499 -0.0529,-0.148166 -0.0635,-0.201083 h -2.508241 q -0.10584,0.285749 -0.16934,0.465665 -0.0635,0.179916 -0.10583,0.285749 -0.0318,0.105833 -0.0529,0.15875 -0.0106,0.04233 -0.0106,0.0635 z m 2.57174,-1.820328 -1.02658,-2.518825 -0.94191,2.518825 z"
           style="font-style:normal;font-variant:normal;font-weight:bold;font-stretch:normal;font-size:10.5833px;line-height:1.25;font-family:Copperplate;-inkscape-font-specification:'Copperplate Bold';letter-spacing:0.529167px;white-space:pre;fill:#000000;fill-opacity:1;stroke:none"
           id="path1151" />
        <path
           d="m -90.212384,68.519702 q 0.08467,0 0.127,-0.05292 0.04233,-0.0635 0.0635,-0.243416 h 0.126999 v 1.830911 h -0.126999 q -0.02117,-0.169333 -0.0635,-0.211666 -0.04233,-0.03175 -0.127,-0.03175 h -5.524485 v -0.126999 q 0.20109,-0.02117 0.24342,-0.0635 0.0529,-0.05292 0.0529,-0.127 v -4.931817 q 0,-0.07408 -0.0529,-0.116417 -0.0423,-0.05292 -0.24342,-0.07408 v -0.126999 h 2.18016 v 0.126999 q -0.20108,0.02117 -0.254,0.07408 -0.0423,0.04233 -0.0423,0.116417 v 3.958154 z"
           style="font-style:normal;font-variant:normal;font-weight:bold;font-stretch:normal;font-size:10.5833px;line-height:1.25;font-family:Copperplate;-inkscape-font-specification:'Copperplate Bold';letter-spacing:0.529167px;white-space:pre;fill:#000000;fill-opacity:1;stroke:none"
           id="path1153" />
        <path
           d="m -82.613903,68.519702 q 0.08467,0 0.126999,-0.05292 0.04233,-0.0635 0.0635,-0.243416 h 0.127 v 1.830911 h -0.127 q -0.02117,-0.169333 -0.0635,-0.211666 -0.04233,-0.03175 -0.126999,-0.03175 h -5.524483 v -0.126999 q 0.201083,-0.02117 0.243416,-0.0635 0.05292,-0.05292 0.05292,-0.127 v -4.931817 q 0,-0.07408 -0.05292,-0.116417 -0.04233,-0.05292 -0.243416,-0.07408 v -0.126999 h 2.18016 v 0.126999 q -0.201083,0.02117 -0.253999,0.07408 -0.04233,0.04233 -0.04233,0.116417 v 3.958154 z"
           style="font-style:normal;font-variant:normal;font-weight:bold;font-stretch:normal;font-size:10.5833px;line-height:1.25;font-family:Copperplate;-inkscape-font-specification:'Copperplate Bold';letter-spacing:0.529167px;white-space:pre;fill:#000000;fill-opacity:1;stroke:none"
           id="path1155" />
      </g>
      <g
         id="g1202"
         style="fill:#000000"
         transform="translate(0.18008948)">
        <path
           d="m -123.38658,76.80646 q 0.0106,-0.03175 0.0106,-0.0635 0.0106,-0.04233 0.0106,-0.09525 0,-0.08467 -0.14817,-0.169333 -0.13758,-0.08467 -0.381,-0.148166 -0.23283,-0.07408 -0.53975,-0.116416 -0.30691,-0.05292 -0.64558,-0.05292 -0.3175,0 -0.66675,0.07408 -0.34925,0.07408 -0.64558,0.243415 -0.28575,0.169333 -0.47625,0.455082 -0.17991,0.275166 -0.17991,0.677332 0,0.402165 0.17991,0.687914 0.1905,0.275166 0.47625,0.444499 0.29633,0.169332 0.64558,0.243415 0.34925,0.07408 0.66675,0.07408 0.13758,0 0.43392,-0.04233 0.29633,-0.05292 0.59266,-0.137583 0.29633,-0.08467 0.51858,-0.190499 0.23284,-0.105833 0.23284,-0.222249 0,-0.05292 -0.0212,-0.08467 -0.0212,-0.03175 -0.0423,-0.07408 l 0.11641,-0.07408 1.09008,1.661578 -0.127,0.07408 q -0.0212,-0.05292 -0.0635,-0.0635 -0.0318,-0.02117 -0.0847,-0.02117 -0.0741,0 -0.29634,0.09525 -0.22225,0.08467 -0.58208,0.190499 -0.34925,0.09525 -0.82549,0.179916 -0.47625,0.07408 -1.06892,0.07408 -0.635,0 -1.25941,-0.158749 -0.62442,-0.169333 -1.12183,-0.518582 -0.49742,-0.359832 -0.80433,-0.888997 -0.30692,-0.539748 -0.30692,-1.248829 0,-0.709082 0.30692,-1.238247 0.30691,-0.539748 0.80433,-0.888997 0.49741,-0.359832 1.12183,-0.539748 0.62441,-0.179916 1.25941,-0.179916 0.635,0 1.09008,0.07408 0.46567,0.0635 0.78317,0.148166 0.30691,0.08467 0.47624,0.148166 0.16934,0.05292 0.254,0.05292 0.0952,0 0.15875,-0.08467 l 0.11642,0.03175 -0.9525,1.746245 z"
           style="font-style:normal;font-variant:normal;font-weight:bold;font-stretch:normal;font-size:10.5833px;line-height:1.25;font-family:Copperplate;-inkscape-font-specification:'Copperplate Bold';letter-spacing:0.529167px;white-space:pre;fill:#000000;fill-opacity:1;stroke:none"
           id="path1132" />
        <path
           d="m -114.75424,79.103036 q 0.0847,0 0.127,-0.05292 0.0423,-0.0635 0.0635,-0.243416 h 0.127 v 1.830911 h -0.127 q -0.0212,-0.169333 -0.0635,-0.211666 -0.0423,-0.03175 -0.127,-0.03175 h -5.52449 v -0.126999 q 0.20109,-0.02117 0.24342,-0.0635 0.0529,-0.05292 0.0529,-0.127 v -4.931817 q 0,-0.07408 -0.0529,-0.116417 -0.0423,-0.05292 -0.24342,-0.07408 v -0.126999 h 2.18016 v 0.126999 q -0.20108,0.02117 -0.254,0.07408 -0.0423,0.04233 -0.0423,0.116417 v 3.958154 z"
           style="font-style:normal;font-variant:normal;font-weight:bold;font-stretch:normal;font-size:10.5833px;line-height:1.25;font-family:Copperplate;-inkscape-font-specification:'Copperplate Bold';letter-spacing:0.529167px;white-space:pre;fill:#000000;fill-opacity:1;stroke:none"
           id="path1134" />
        <path
           d="m -108.08709,75.144882 q 0,-0.07408 -0.0529,-0.116417 -0.0423,-0.05292 -0.24342,-0.07408 v -0.126999 h 2.18016 v 0.126999 q -0.20108,0.02117 -0.254,0.07408 -0.0423,0.04233 -0.0423,0.116417 v 2.836324 q 0,0.698498 -0.23283,1.174746 -0.22225,0.476249 -0.62442,0.761998 -0.39158,0.285749 -0.93133,0.402165 -0.52916,0.105833 -1.13241,0.105833 -0.60325,0 -1.143,-0.105833 -0.52916,-0.116416 -0.93133,-0.402165 -0.39158,-0.285749 -0.62441,-0.761998 -0.22225,-0.476248 -0.22225,-1.174746 v -2.836324 q 0,-0.07408 -0.0529,-0.116417 -0.0423,-0.05292 -0.24341,-0.07408 v -0.126999 h 2.18016 v 0.126999 q -0.20109,0.02117 -0.254,0.07408 -0.0423,0.04233 -0.0423,0.116417 v 2.836324 q 0,0.613831 0.34925,0.878414 0.34925,0.264582 0.98425,0.264582 0.635,0 0.98425,-0.264582 0.34925,-0.264583 0.34925,-0.878414 z"
           style="font-style:normal;font-variant:normal;font-weight:bold;font-stretch:normal;font-size:10.5833px;line-height:1.25;font-family:Copperplate;-inkscape-font-specification:'Copperplate Bold';letter-spacing:0.529167px;white-space:pre;fill:#000000;fill-opacity:1;stroke:none"
           id="path1136" />
        <path
           d="m -100.28356,79.272369 q 0.571497,0 0.804327,-0.137583 0.23283,-0.148167 0.23283,-0.497415 0,-0.349249 -0.23283,-0.486832 -0.23283,-0.148166 -0.804327,-0.148166 h -1.79916 v 1.269996 z m -0.35983,-2.349493 q 0.33866,0 0.56091,-0.01058 0.222247,-0.02117 0.349247,-0.07408 0.127,-0.05292 0.17991,-0.148167 0.0529,-0.09525 0.0529,-0.253999 0,-0.158749 -0.0529,-0.253999 -0.0529,-0.09525 -0.17991,-0.148166 -0.127,-0.05292 -0.349247,-0.0635 -0.22225,-0.02117 -0.56091,-0.02117 h -1.43933 v 0.973664 z m -3.02683,-1.777994 q 0,-0.07408 -0.0529,-0.116417 -0.0423,-0.05292 -0.24341,-0.07408 v -0.126999 h 4.032237 q 0.43391,0 0.79374,0.08467 0.35984,0.08467 0.62442,0.264583 0.26458,0.169332 0.41275,0.455082 0.14816,0.275165 0.14816,0.666747 0,0.476249 -0.28575,0.772581 -0.28574,0.285749 -0.73024,0.380999 v 0.02117 q 0.53974,0.148166 0.87841,0.455082 0.34925,0.306915 0.34925,0.89958 0,0.317499 -0.127,0.603248 -0.11642,0.285749 -0.381,0.497415 -0.254,0.211666 -0.66675,0.338666 -0.40216,0.126999 -0.96308,0.126999 h -4.085147 v -0.126999 q 0.20108,-0.02117 0.24341,-0.0635 0.0529,-0.05292 0.0529,-0.127 z"
           style="font-style:normal;font-variant:normal;font-weight:bold;font-stretch:normal;font-size:10.5833px;line-height:1.25;font-family:Copperplate;-inkscape-font-specification:'Copperplate Bold';letter-spacing:0.529167px;white-space:pre;fill:#000000;fill-opacity:1;stroke:none"
           id="path1138" />
      </g>
      <g
         id="g1213"
         style="fill:#000000"
         transform="translate(-1.9486125)">
        <path
           d="m -139.84367,92.438034 q 0.20109,-0.02117 0.24342,-0.0635 0.0529,-0.05292 0.0529,-0.127 V 88.35288 l -0.0212,-0.02117 -1.88383,4.106321 -1.86266,-4.148654 h -0.0212 v 3.958154 q 0,0.07408 0.0423,0.127 0.0529,0.04233 0.254,0.0635 v 0.126999 h -1.86266 v -0.126999 q 0.20108,-0.02117 0.24341,-0.0635 0.0529,-0.05292 0.0529,-0.127 v -4.931817 q 0,-0.07408 -0.0529,-0.116417 -0.0423,-0.05292 -0.24341,-0.07408 v -0.126999 h 2.76224 v 0.126999 q -0.254,0.01058 -0.254,0.1905 0,0.01058 0.0635,0.169333 0.0635,0.158749 0.15875,0.391582 0.10583,0.232832 0.22225,0.507998 0.127,0.264582 0.23283,0.518582 0.11642,0.243416 0.20108,0.433915 0.0847,0.190499 0.11642,0.253999 0.17991,-0.402165 0.37041,-0.783164 0.1905,-0.380999 0.33867,-0.698498 0.15875,-0.317499 0.254,-0.529165 0.0953,-0.211666 0.0953,-0.264582 0,-0.179916 -0.254,-0.1905 v -0.126999 h 2.86807 v 0.126999 q -0.20108,0.02117 -0.254,0.07408 -0.0423,0.04233 -0.0423,0.116417 v 4.931817 q 0,0.07408 0.0423,0.127 0.0529,0.04233 0.254,0.0635 v 0.126999 h -2.11666 z"
           style="font-style:normal;font-variant:normal;font-weight:bold;font-stretch:normal;font-size:10.5833px;line-height:1.25;font-family:Copperplate;-inkscape-font-specification:'Copperplate Bold';letter-spacing:0.529167px;white-space:pre;fill:#000000;fill-opacity:1;stroke:none"
           id="path1113" />
        <path
           d="m -134.24526,92.332201 q 0,0.05292 0.0318,0.08467 0.0423,0.02117 0.15874,0.02117 v 0.126999 h -1.87324 v -0.126999 q 0.11642,-0.02117 0.16933,-0.0635 0.0529,-0.05292 0.10584,-0.179916 0.0212,-0.05292 0.10583,-0.285749 0.0847,-0.232833 0.22225,-0.582082 0.13758,-0.359832 0.30691,-0.793747 0.16934,-0.433915 0.33867,-0.878414 0.16933,-0.455082 0.32808,-0.878414 0.16934,-0.433915 0.29633,-0.772581 0.127,-0.338665 0.20109,-0.550331 0.0847,-0.211666 0.0847,-0.22225 0,-0.05292 -0.0741,-0.07408 -0.0635,-0.02117 -0.13758,-0.03175 v -0.126999 h 2.76224 v 0.126999 q -0.0847,0.01058 -0.13758,0.03175 -0.0529,0.02117 -0.0529,0.105833 0,0.02117 0.0953,0.275166 0.10583,0.253999 0.26458,0.666748 0.15875,0.402165 0.35983,0.920747 0.21167,0.507998 0.43392,1.047747 0.22225,0.529165 0.42333,1.037163 0.21167,0.507998 0.381,0.910164 0.0847,0.190499 0.13758,0.253999 0.0635,0.0635 0.15875,0.0635 v 0.126999 h -2.08491 v -0.126999 q 0.20109,-0.01058 0.20109,-0.127 0,-0.01058 -0.0529,-0.137583 -0.0529,-0.137583 -0.11642,-0.296332 -0.0635,-0.169333 -0.127,-0.317499 -0.0529,-0.148166 -0.0635,-0.201083 h -2.50824 q -0.10583,0.285749 -0.16933,0.465665 -0.0635,0.179916 -0.10583,0.285749 -0.0317,0.105833 -0.0529,0.15875 -0.0106,0.04233 -0.0106,0.0635 z m 2.57174,-1.820328 -1.02658,-2.518825 -0.94192,2.518825 z"
           style="font-style:normal;font-variant:normal;font-weight:bold;font-stretch:normal;font-size:10.5833px;line-height:1.25;font-family:Copperplate;-inkscape-font-specification:'Copperplate Bold';letter-spacing:0.529167px;white-space:pre;fill:#000000;fill-opacity:1;stroke:none"
           id="path1115" />
        <path
           d="m -123.6656,89.34771 q 0.46566,0 0.635,-0.169333 0.17991,-0.179916 0.17991,-0.412748 0,-0.232833 -0.17991,-0.402166 -0.16934,-0.179916 -0.635,-0.179916 h -1.778 v 1.164163 z m -1.778,2.899824 q 0,0.07408 0.0423,0.127 0.0529,0.04233 0.254,0.0635 v 0.126999 h -2.18016 v -0.126999 q 0.20108,-0.02117 0.24341,-0.0635 0.0529,-0.05292 0.0529,-0.127 v -4.931817 q 0,-0.07408 -0.0529,-0.116417 -0.0423,-0.05292 -0.24341,-0.07408 v -0.126999 h 3.87349 q 1.17474,0 1.70391,0.433915 0.52916,0.423332 0.52916,1.322912 0,0.730248 -0.43391,1.142997 -0.42334,0.412749 -1.0795,0.592665 l 1.24883,1.756827 q 0.127,0.1905 0.30691,0.1905 v 0.126999 h -2.20132 v -0.126999 q 0.23283,-0.01058 0.23283,-0.1905 0,-0.02117 -0.0847,-0.148166 -0.0847,-0.126999 -0.21166,-0.306916 -0.127,-0.179916 -0.28575,-0.380998 -0.14817,-0.211666 -0.29633,-0.402166 -0.13759,-0.190499 -0.24342,-0.338665 -0.10583,-0.148166 -0.13758,-0.201083 h -1.03717 z"
           style="font-style:normal;font-variant:normal;font-weight:bold;font-stretch:normal;font-size:10.5833px;line-height:1.25;font-family:Copperplate;-inkscape-font-specification:'Copperplate Bold';letter-spacing:0.529167px;white-space:pre;fill:#000000;fill-opacity:1;stroke:none"
           id="path1117" />
        <path
           d="m -117.86959,92.438034 q 0.20108,-0.02117 0.24342,-0.0635 0.0529,-0.05292 0.0529,-0.127 V 88.28938 h -1.82032 q -0.0847,0 -0.127,0.0635 -0.0423,0.05292 -0.0635,0.232833 h -0.127 v -1.883828 h 0.127 q 0.0212,0.179916 0.0635,0.243416 0.0423,0.05292 0.127,0.05292 h 5.22815 q 0.0847,0 0.12699,-0.05292 0.0423,-0.0635 0.0635,-0.243416 h 0.127 v 1.883828 h -0.127 q -0.0212,-0.179916 -0.0635,-0.232833 -0.0423,-0.0635 -0.12699,-0.0635 h -1.82033 v 3.958154 q 0,0.07408 0.0423,0.127 0.0529,0.04233 0.254,0.0635 v 0.126999 h -2.18016 z"
           style="font-style:normal;font-variant:normal;font-weight:bold;font-stretch:normal;font-size:10.5833px;line-height:1.25;font-family:Copperplate;-inkscape-font-specification:'Copperplate Bold';letter-spacing:0.529167px;white-space:pre;fill:#000000;fill-opacity:1;stroke:none"
           id="path1119" />
        <path
           d="m -112.03472,92.438034 q 0.20109,-0.02117 0.24342,-0.0635 0.0529,-0.05292 0.0529,-0.127 v -4.931817 q 0,-0.07408 -0.0529,-0.116417 -0.0423,-0.05292 -0.24342,-0.07408 v -0.126999 h 2.18016 v 0.126999 q -0.20108,0.02117 -0.254,0.07408 -0.0423,0.04233 -0.0423,0.116417 v 4.931817 q 0,0.07408 0.0423,0.127 0.0529,0.04233 0.254,0.0635 v 0.126999 h -2.18016 z"
           style="font-style:normal;font-variant:normal;font-weight:bold;font-stretch:normal;font-size:10.5833px;line-height:1.25;font-family:Copperplate;-inkscape-font-specification:'Copperplate Bold';letter-spacing:0.529167px;white-space:pre;fill:#000000;fill-opacity:1;stroke:none"
           id="path1121" />
        <path
           d="m -104.20655,90.543623 q -0.0847,0 -0.11641,0.0635 -0.0317,0.05292 -0.0423,0.148166 h -0.127 v -1.481662 h 0.127 q 0.0212,0.1905 0.15874,0.1905 h 3.12208 v 0.126999 q -0.16933,0.01058 -0.16933,0.179916 v 1.756828 q 0,0.07408 0.0212,0.127 0.0212,0.05292 0.10583,0.05292 h 0.0529 v 0.127 q -1.43933,0.761997 -3.40782,0.761997 -0.66675,0 -1.29116,-0.158749 -0.61384,-0.169333 -1.09008,-0.518582 -0.47625,-0.349249 -0.77258,-0.878414 -0.28575,-0.539748 -0.28575,-1.259412 0,-0.719665 0.28575,-1.24883 0.29633,-0.539748 0.77258,-0.888997 0.47624,-0.359832 1.09008,-0.529165 0.62441,-0.179916 1.29116,-0.179916 0.26458,0 0.46566,0.01058 0.20109,0.01058 0.39159,0.04233 0.1905,0.03175 0.39158,0.08467 0.20108,0.04233 0.47625,0.116416 0.26458,0.07408 0.48683,0.179916 0.22225,0.09525 0.28575,0.09525 0.0847,0 0.14816,-0.08467 l 0.127,0.04233 -0.68791,1.396995 -0.127,-0.07408 q 0.0212,-0.0635 0.0212,-0.116416 0,-0.07408 -0.17992,-0.15875 -0.17992,-0.09525 -0.45508,-0.169332 -0.27517,-0.07408 -0.62442,-0.127 -0.33866,-0.05292 -0.66674,-0.05292 -0.381,0 -0.73025,0.105833 -0.33867,0.09525 -0.61383,0.306916 -0.26459,0.211666 -0.42334,0.529165 -0.15875,0.306916 -0.15875,0.740831 0,0.423332 0.1905,0.740831 0.1905,0.306916 0.47625,0.507998 0.29633,0.201083 0.65617,0.296333 0.35983,0.09525 0.70908,0.09525 0.4445,0 0.79375,-0.05292 0.35983,-0.05292 0.68791,-0.148166 v -0.698498 z"
           style="font-style:normal;font-variant:normal;font-weight:bold;font-stretch:normal;font-size:10.5833px;line-height:1.25;font-family:Copperplate;-inkscape-font-specification:'Copperplate Bold';letter-spacing:0.529167px;white-space:pre;fill:#000000;fill-opacity:1;stroke:none"
           id="path1123" />
        <path
           d="m -94.73813,87.315717 q 0,-0.07408 -0.0529,-0.116417 -0.0423,-0.05292 -0.24341,-0.07408 v -0.126999 h 2.180158 v 0.126999 q -0.201083,0.02117 -0.253999,0.07408 -0.04233,0.04233 -0.04233,0.116417 v 2.836324 q 0,0.698498 -0.232833,1.174746 -0.222256,0.476249 -0.624416,0.761998 -0.39158,0.285749 -0.93133,0.402165 -0.52917,0.105833 -1.13241,0.105833 -0.60325,0 -1.143,-0.105833 -0.52917,-0.116416 -0.93133,-0.402165 -0.39158,-0.285749 -0.62442,-0.761998 -0.22225,-0.476248 -0.22225,-1.174746 v -2.836324 q 0,-0.07408 -0.0529,-0.116417 -0.0423,-0.05292 -0.24342,-0.07408 v -0.126999 h 2.18016 v 0.126999 q -0.20108,0.02117 -0.254,0.07408 -0.0423,0.04233 -0.0423,0.116417 v 2.836324 q 0,0.613831 0.34925,0.878414 0.34925,0.264582 0.98425,0.264582 0.63499,0 0.98424,-0.264582 0.34925,-0.264583 0.34925,-0.878414 z"
           style="font-style:normal;font-variant:normal;font-weight:bold;font-stretch:normal;font-size:10.5833px;line-height:1.25;font-family:Copperplate;-inkscape-font-specification:'Copperplate Bold';letter-spacing:0.529167px;white-space:pre;fill:#000000;fill-opacity:1;stroke:none"
           id="path1125" />
        <path
           d="m -86.40543,90.53304 q -0.02117,-0.105833 -0.09525,-0.169333 -0.0635,-0.07408 -0.222249,-0.07408 h -1.968494 v 0.984247 h 3.397239 q 0.08467,0 0.127,-0.05292 0.04233,-0.0635 0.0635,-0.264582 h 0.126999 v 1.809744 h -0.126999 q -0.02117,-0.137583 -0.0635,-0.169333 -0.04233,-0.03175 -0.127,-0.03175 h -5.281066 v -0.126999 q 0.201083,-0.02117 0.243416,-0.0635 0.05292,-0.05292 0.05292,-0.127 v -4.931817 q 0,-0.07408 -0.05292,-0.116417 -0.04233,-0.05292 -0.243416,-0.07408 v -0.126999 h 5.281066 q 0.08467,0 0.127,-0.05292 0.04233,-0.0635 0.0635,-0.243416 h 0.126999 v 1.841494 h -0.126999 q -0.02117,-0.179916 -0.0635,-0.232832 -0.04233,-0.0635 -0.127,-0.0635 h -3.397239 v 0.878414 h 1.968494 q 0.158749,0 0.222249,-0.0635 0.07408,-0.07408 0.09525,-0.179916 h 0.126999 v 1.650995 z"
           style="font-style:normal;font-variant:normal;font-weight:bold;font-stretch:normal;font-size:10.5833px;line-height:1.25;font-family:Copperplate;-inkscape-font-specification:'Copperplate Bold';letter-spacing:0.529167px;white-space:pre;fill:#000000;fill-opacity:1;stroke:none"
           id="path1127" />
        <path
           d="m -82.511105,90.416624 q -0.02117,0.0635 -0.02117,0.222249 0,0.105833 0.190499,0.243416 0.201083,0.126999 0.507998,0.243416 0.317499,0.116416 0.719665,0.201082 0.402165,0.07408 0.814914,0.07408 0.793747,0 1.164163,-0.179916 0.370415,-0.190499 0.370415,-0.539748 0,-0.190499 -0.328082,-0.264582 -0.317499,-0.08467 -0.804331,-0.127 -0.486832,-0.05292 -1.047746,-0.105833 -0.560915,-0.0635 -1.047747,-0.211666 -0.486832,-0.15875 -0.814914,-0.444499 -0.317499,-0.296332 -0.317499,-0.80433 0,-0.402166 0.179916,-0.730248 0.190499,-0.328082 0.518582,-0.560915 0.338665,-0.232833 0.814914,-0.359832 0.476248,-0.137583 1.05833,-0.137583 0.539748,0 1.005413,0.07408 0.465665,0.0635 0.825497,0.148166 0.359833,0.08467 0.603249,0.15875 0.243415,0.0635 0.349248,0.0635 0.105833,0 0.169333,-0.04233 0.0635,-0.05292 0.116417,-0.116416 l 0.116416,0.04233 -0.730248,1.471079 -0.126999,-0.0635 v -0.116416 q 0,-0.09525 -0.211666,-0.1905 -0.201083,-0.105833 -0.518582,-0.179916 -0.317499,-0.08467 -0.709081,-0.137583 -0.391582,-0.05292 -0.761998,-0.05292 -0.687914,0 -0.96308,0.158749 -0.275166,0.15875 -0.275166,0.338666 0,0.179916 0.1905,0.275166 0.190499,0.08467 0.497415,0.126999 0.306915,0.04233 0.698497,0.07408 0.391583,0.02117 0.804331,0.07408 0.412749,0.05292 0.804331,0.148166 0.391582,0.09525 0.698498,0.285749 0.306915,0.179916 0.497415,0.486832 0.190499,0.296332 0.190499,0.751414 0,0.349249 -0.148166,0.687914 -0.137583,0.338666 -0.486832,0.613832 -0.338665,0.264582 -0.920747,0.423332 -0.571498,0.158749 -1.428745,0.158749 -0.666748,0 -1.15358,-0.0635 -0.476248,-0.0635 -0.814914,-0.148166 -0.338666,-0.09525 -0.539748,-0.169333 -0.1905,-0.07408 -0.285749,-0.07408 -0.0635,0 -0.116417,0.04233 -0.04233,0.04233 -0.09525,0.09525 l -0.127,-0.03175 0.783164,-1.883827 z"
           style="font-style:normal;font-variant:normal;font-weight:bold;font-stretch:normal;font-size:10.5833px;line-height:1.25;font-family:Copperplate;-inkscape-font-specification:'Copperplate Bold';letter-spacing:0.529167px;white-space:pre;fill:#000000;fill-opacity:1;stroke:none"
           id="path1129" />
      </g>
      <g
         id="g1224"
         style="fill:#000000"
         transform="translate(-0.23439102)">
        <path
           d="m -150.59949,113.02133 h 0.15663 q 0,0.0653 0.0131,0.1958 0.0261,0.11747 0.13052,0.11747 0.0261,0 0.14359,-0.0392 0.11747,-0.0522 0.26105,-0.10442 0.14358,-0.0522 0.27411,-0.10442 0.13053,-0.0522 0.16969,-0.0653 v -0.41769 q 0,-0.14358 -0.0914,-0.18274 -0.0914,-0.0392 -0.16969,-0.0522 v -0.15664 h 2.55835 v 0.15664 q -0.14358,0.013 -0.248,0.0522 -0.0914,0.0392 -0.0914,0.18274 v 6.0826 q 0,0.14358 0.0914,0.18274 0.10442,0.0392 0.22189,0.0522 v 0.15663 h -2.5975 v -0.15663 q 0.13052,-0.013 0.22189,-0.0522 0.10443,-0.0392 0.10443,-0.18274 v -4.15079 q -0.32632,0.0783 -0.53517,0.13053 -0.19579,0.0522 -0.30021,0.11747 -0.0914,0.0522 -0.13053,0.13053 -0.0261,0.0783 -0.0261,0.20885 h -0.15663 z"
           style="font-style:normal;font-variant:normal;font-weight:bold;font-stretch:normal;font-size:13.0528px;line-height:1.25;font-family:Copperplate;-inkscape-font-specification:'Copperplate Bold';letter-spacing:0.396875px;white-space:pre;shape-inside:url(#rect1051);fill:#000000;fill-opacity:1;stroke:none"
           id="path1094" />
        <path
           d="m -140.44789,113.46513 q -0.18274,0 -0.43074,0.0522 -0.24801,0.0392 -0.4699,0.14358 -0.2219,0.10442 -0.37853,0.30022 -0.15664,0.18273 -0.15664,0.4699 0,0.28716 0.15664,0.48295 0.15663,0.18274 0.37853,0.28716 0.22189,0.10442 0.4699,0.15663 0.248,0.0392 0.43074,0.0392 0.18274,0 0.43074,-0.0392 0.24801,-0.0522 0.4699,-0.15663 0.2219,-0.10442 0.37853,-0.28716 0.15664,-0.19579 0.15664,-0.48295 0,-0.28717 -0.15664,-0.4699 -0.15663,-0.1958 -0.37853,-0.30022 -0.22189,-0.10442 -0.4699,-0.14358 -0.248,-0.0522 -0.43074,-0.0522 z m -2.06234,3.64173 v 0.11748 q 0,0.16968 0.14358,0.30021 0.14358,0.11748 0.37853,0.19579 0.23495,0.0783 0.53516,0.11748 0.31327,0.0392 0.62654,0.0392 0.41769,0 0.79622,-0.10443 0.39158,-0.11747 0.6918,-0.33937 0.31327,-0.23495 0.50906,-0.57432 0.20884,-0.33937 0.248,-0.80927 -0.67874,0.33937 -1.24002,0.50905 -0.56127,0.16969 -1.21391,0.16969 -0.50906,0 -0.9659,-0.15663 -0.45685,-0.15664 -0.80928,-0.45685 -0.35242,-0.30022 -0.56127,-0.7179 -0.20884,-0.43075 -0.20884,-0.96591 0,-0.62654 0.28716,-1.05728 0.30021,-0.44379 0.74401,-0.7179 0.45685,-0.27411 1.00506,-0.39159 0.56128,-0.13052 1.08339,-0.13052 0.82232,0 1.48802,0.20884 0.66569,0.20884 1.13559,0.63959 0.48295,0.41769 0.74401,1.05727 0.26106,0.62654 0.26106,1.48802 0,0.86149 -0.32632,1.54023 -0.32632,0.67875 -0.87454,1.1356 -0.54822,0.45685 -1.27918,0.6918 -0.7179,0.22189 -1.51412,0.22189 -0.50906,0 -0.9398,-0.0522 -0.41769,-0.0522 -0.73096,-0.13052 -0.31327,-0.0914 -0.49601,-0.15664 -0.18274,-0.0653 -0.22189,-0.0653 -0.15664,0 -0.30022,0.14358 l -0.15663,-0.0653 1.03117,-1.74907 z"
           style="font-style:normal;font-variant:normal;font-weight:bold;font-stretch:normal;font-size:13.0528px;line-height:1.25;font-family:Copperplate;-inkscape-font-specification:'Copperplate Bold';letter-spacing:0.396875px;white-space:pre;shape-inside:url(#rect1051);fill:#000000;fill-opacity:1;stroke:none"
           id="path1096" />
        <path
           d="m -129.06933,117.5376 q 0.15664,0 0.2219,-0.0522 0.0783,-0.0653 0.10442,-0.248 h 0.15664 v 2.1015 h -0.15664 q -0.0261,-0.18274 -0.11747,-0.2219 -0.0783,-0.0392 -0.27411,-0.0392 h -5.79544 q -0.13053,0 -0.1958,0.0392 -0.0653,0.0392 -0.0653,0.2219 h -0.15663 q -0.0261,-0.57432 0.15663,-1.05728 0.18274,-0.48295 0.50906,-0.88759 0.32632,-0.40463 0.75706,-0.74401 0.4438,-0.33937 0.9137,-0.62653 0.48295,-0.28716 0.9659,-0.54822 0.48296,-0.26106 0.9137,-0.52211 0.19579,-0.11748 0.28716,-0.248 0.0914,-0.13053 0.0914,-0.35243 0,-0.248 -0.2219,-0.45685 -0.20884,-0.22189 -0.70485,-0.22189 -0.45684,0 -0.86148,0.14358 -0.39159,0.14358 -0.6918,0.33937 -0.30021,0.19579 -0.4699,0.40464 -0.16969,0.19579 -0.16969,0.32632 0,0.0783 0.0522,0.19579 l -0.15663,0.11747 -1.3836,-1.94486 0.14358,-0.10443 q 0.0392,0.0392 0.0914,0.0783 0.0653,0.0261 0.14358,0.0261 0.10443,0 0.33938,-0.16968 0.248,-0.18274 0.65264,-0.39159 0.41769,-0.22189 0.97896,-0.39158 0.56127,-0.16969 1.30528,-0.16969 0.56127,0 1.07033,0.16969 0.50906,0.16969 0.90064,0.4699 0.39158,0.28716 0.62653,0.70485 0.23496,0.40464 0.23496,0.90064 0,0.48296 -0.20885,0.83538 -0.19579,0.35243 -0.52211,0.62654 -0.32632,0.26105 -0.74401,0.4699 -0.40464,0.20884 -0.82233,0.40464 -0.41769,0.18274 -0.79622,0.37853 -0.37853,0.19579 -0.63959,0.44379 z"
           style="font-style:normal;font-variant:normal;font-weight:bold;font-stretch:normal;font-size:13.0528px;line-height:1.25;font-family:Copperplate;-inkscape-font-specification:'Copperplate Bold';letter-spacing:0.396875px;white-space:pre;shape-inside:url(#rect1051);fill:#000000;fill-opacity:1;stroke:none"
           id="path1098" />
        <path
           d="m -125.47023,113.02133 h 0.15663 q 0,0.0653 0.0131,0.1958 0.0261,0.11747 0.13053,0.11747 0.0261,0 0.14358,-0.0392 0.11748,-0.0522 0.26106,-0.10442 0.14358,-0.0522 0.27411,-0.10442 0.13052,-0.0522 0.16968,-0.0653 v -0.41769 q 0,-0.14358 -0.0914,-0.18274 -0.0914,-0.0392 -0.16968,-0.0522 v -0.15664 h 2.55834 v 0.15664 q -0.14358,0.013 -0.248,0.0522 -0.0914,0.0392 -0.0914,0.18274 v 6.0826 q 0,0.14358 0.0914,0.18274 0.10442,0.0392 0.2219,0.0522 v 0.15663 h -2.59751 v -0.15663 q 0.13053,-0.013 0.2219,-0.0522 0.10442,-0.0392 0.10442,-0.18274 v -4.15079 q -0.32632,0.0783 -0.53516,0.13053 -0.19579,0.0522 -0.30022,0.11747 -0.0914,0.0522 -0.13053,0.13053 -0.0261,0.0783 -0.0261,0.20885 h -0.15663 z"
           style="font-style:normal;font-variant:normal;font-weight:bold;font-stretch:normal;font-size:13.0528px;line-height:1.25;font-family:Copperplate;-inkscape-font-specification:'Copperplate Bold';letter-spacing:0.396875px;white-space:pre;shape-inside:url(#rect1051);fill:#000000;fill-opacity:1;stroke:none"
           id="path1100" />
        <path
           d="m -114.26015,115.4361 h 3.41984 v 1.54023 h -3.41984 z"
           style="font-style:normal;font-variant:normal;font-weight:bold;font-stretch:normal;font-size:13.0528px;line-height:1.25;font-family:Copperplate;-inkscape-font-specification:'Copperplate Bold';letter-spacing:0.396875px;white-space:pre;shape-inside:url(#rect1051);fill:#000000;fill-opacity:1;stroke:none"
           id="path1102" />
        <path
           d="m -98.812381,117.5376 q 0.156634,0 0.221898,-0.0522 0.07832,-0.0653 0.104422,-0.248 h 0.156634 v 2.1015 h -0.156634 q -0.02611,-0.18274 -0.117475,-0.2219 -0.07832,-0.0392 -0.274109,-0.0392 h -5.795445 q -0.13053,0 -0.19579,0.0392 -0.0653,0.0392 -0.0653,0.2219 h -0.15663 q -0.0261,-0.57432 0.15663,-1.05728 0.18274,-0.48295 0.50906,-0.88759 0.32632,-0.40463 0.75706,-0.74401 0.4438,-0.33937 0.9137,-0.62653 0.48295,-0.28716 0.96591,-0.54822 0.48295,-0.26106 0.91369,-0.52211 0.1958,-0.11748 0.28717,-0.248 0.0914,-0.13053 0.0914,-0.35243 0,-0.248 -0.22189,-0.45685 -0.20885,-0.22189 -0.70485,-0.22189 -0.45685,0 -0.86149,0.14358 -0.39158,0.14358 -0.6918,0.33937 -0.30021,0.19579 -0.4699,0.40464 -0.16968,0.19579 -0.16968,0.32632 0,0.0783 0.0522,0.19579 l -0.15664,0.11747 -1.38359,-1.94486 0.14358,-0.10443 q 0.0392,0.0392 0.0914,0.0783 0.0653,0.0261 0.14358,0.0261 0.10442,0 0.33937,-0.16968 0.248,-0.18274 0.65264,-0.39159 0.41769,-0.22189 0.97896,-0.39158 0.56127,-0.16969 1.30528,-0.16969 0.56127,0 1.07033,0.16969 0.509062,0.16969 0.900646,0.4699 0.391584,0.28716 0.626535,0.70485 0.23495,0.40464 0.23495,0.90064 0,0.48296 -0.208845,0.83538 -0.195792,0.35243 -0.522112,0.62654 -0.32632,0.26105 -0.744014,0.4699 -0.40464,0.20884 -0.82232,0.40464 -0.41769,0.18274 -0.79623,0.37853 -0.37853,0.19579 -0.63958,0.44379 z"
           style="font-style:normal;font-variant:normal;font-weight:bold;font-stretch:normal;font-size:13.0528px;line-height:1.25;font-family:Copperplate;-inkscape-font-specification:'Copperplate Bold';letter-spacing:0.396875px;white-space:pre;shape-inside:url(#rect1051);fill:#000000;fill-opacity:1;stroke:none"
           id="path1104" />
        <path
           d="m -93.229261,112.13374 q 0.730957,0 1.370544,0.27411 0.639587,0.26106 1.122541,0.73096 0.496006,0.4699 0.770115,1.10949 0.287162,0.63958 0.287162,1.39665 0,0.75706 -0.287162,1.39665 -0.274109,0.63958 -0.770115,1.10948 -0.482954,0.4699 -1.122541,0.71791 -0.639587,0.248 -1.370544,0.248 -0.717904,0 -1.370544,-0.248 -0.639587,-0.248 -1.135594,-0.71791 -0.482953,-0.4699 -0.770115,-1.10948 -0.274109,-0.63959 -0.274109,-1.39665 0,-0.75707 0.274109,-1.39665 0.287162,-0.63959 0.770115,-1.10949 0.496007,-0.4699 1.135594,-0.73096 0.65264,-0.27411 1.370544,-0.27411 z m 0,1.54023 q -0.430743,0 -0.74401,0.16969 -0.300214,0.16969 -0.496006,0.45685 -0.195792,0.27411 -0.287162,0.62653 -0.09137,0.35243 -0.09137,0.71791 0,0.36547 0.09137,0.7179 0.09137,0.35243 0.287162,0.63959 0.195792,0.27411 0.496006,0.44379 0.313267,0.16969 0.74401,0.16969 0.430742,0 0.730957,-0.16969 0.313267,-0.16968 0.509059,-0.44379 0.195792,-0.28716 0.287162,-0.63959 0.09137,-0.35243 0.09137,-0.7179 0,-0.36548 -0.09137,-0.71791 -0.09137,-0.35242 -0.287162,-0.62653 -0.195792,-0.28716 -0.509059,-0.45685 -0.300215,-0.16969 -0.730957,-0.16969 z"
           style="font-style:normal;font-variant:normal;font-weight:bold;font-stretch:normal;font-size:13.0528px;line-height:1.25;font-family:Copperplate;-inkscape-font-specification:'Copperplate Bold';letter-spacing:0.396875px;white-space:pre;shape-inside:url(#rect1051);fill:#000000;fill-opacity:1;stroke:none"
           id="path1106" />
        <path
           d="m -82.059543,117.5376 q 0.156634,0 0.221898,-0.0522 0.07832,-0.0653 0.104422,-0.248 h 0.156634 v 2.1015 h -0.156634 q -0.02611,-0.18274 -0.117475,-0.2219 -0.07832,-0.0392 -0.274109,-0.0392 h -5.795443 q -0.130528,0 -0.195792,0.0392 -0.06526,0.0392 -0.06526,0.2219 h -0.156634 q -0.02611,-0.57432 0.156634,-1.05728 0.182739,-0.48295 0.509059,-0.88759 0.32632,-0.40463 0.757063,-0.74401 0.443795,-0.33937 0.913696,-0.62653 0.482953,-0.28716 0.965907,-0.54822 0.482953,-0.26106 0.913696,-0.52211 0.195792,-0.11748 0.287161,-0.248 0.09137,-0.13053 0.09137,-0.35243 0,-0.248 -0.221898,-0.45685 -0.208844,-0.22189 -0.704851,-0.22189 -0.456848,0 -0.861485,0.14358 -0.391584,0.14358 -0.691798,0.33937 -0.300214,0.19579 -0.469901,0.40464 -0.169686,0.19579 -0.169686,0.32632 0,0.0783 0.05221,0.19579 l -0.156634,0.11747 -1.383596,-1.94486 0.14358,-0.10443 q 0.03916,0.0392 0.09137,0.0783 0.06526,0.0261 0.143581,0.0261 0.104422,0 0.339373,-0.16968 0.248003,-0.18274 0.65264,-0.39159 0.417689,-0.22189 0.97896,-0.39158 0.56127,-0.16969 1.30528,-0.16969 0.56127,0 1.070329,0.16969 0.509059,0.16969 0.900643,0.4699 0.391584,0.28716 0.626535,0.70485 0.23495,0.40464 0.23495,0.90064 0,0.48296 -0.208845,0.83538 -0.195792,0.35243 -0.522112,0.62654 -0.32632,0.26105 -0.744009,0.4699 -0.404637,0.20884 -0.822327,0.40464 -0.417689,0.18274 -0.79622,0.37853 -0.378532,0.19579 -0.639588,0.44379 z"
           style="font-style:normal;font-variant:normal;font-weight:bold;font-stretch:normal;font-size:13.0528px;line-height:1.25;font-family:Copperplate;-inkscape-font-specification:'Copperplate Bold';letter-spacing:0.396875px;white-space:pre;shape-inside:url(#rect1051);fill:#000000;fill-opacity:1;stroke:none"
           id="path1108" />
        <path
           d="m -78.460449,113.02133 h 0.156634 q 0,0.0653 0.01305,0.1958 0.02611,0.11747 0.130528,0.11747 0.02611,0 0.143581,-0.0392 0.117475,-0.0522 0.261056,-0.10442 0.14358,-0.0522 0.274108,-0.10442 0.130528,-0.0522 0.169687,-0.0653 v -0.41769 q 0,-0.14358 -0.09137,-0.18274 -0.09137,-0.0392 -0.169686,-0.0522 v -0.15664 h 2.558349 v 0.15664 q -0.143581,0.013 -0.248004,0.0522 -0.09137,0.0392 -0.09137,0.18274 v 6.0826 q 0,0.14358 0.09137,0.18274 0.104423,0.0392 0.221898,0.0522 v 0.15663 h -2.597507 v -0.15663 q 0.130528,-0.013 0.221897,-0.0522 0.104423,-0.0392 0.104423,-0.18274 v -4.15079 q -0.32632,0.0783 -0.535165,0.13053 -0.195792,0.0522 -0.300214,0.11747 -0.09137,0.0522 -0.130528,0.13053 -0.02611,0.0783 -0.02611,0.20885 h -0.156634 z"
           style="font-style:normal;font-variant:normal;font-weight:bold;font-stretch:normal;font-size:13.0528px;line-height:1.25;font-family:Copperplate;-inkscape-font-specification:'Copperplate Bold';letter-spacing:0.396875px;white-space:pre;shape-inside:url(#rect1051);fill:#000000;fill-opacity:1;stroke:none"
           id="path1110" />
      </g>
      <g
         id="g1280"
         style="fill:#000000"
         transform="translate(-0.40324102)">
        <path
           d="m -134.25682,139.64979 0.0927,0.0738 q -0.0308,0.0386 -0.0846,0.12205 -0.0399,0.0819 0.0219,0.13108 0.0155,0.0123 0.10346,0.0445 0.0942,0.0245 0.20377,0.0613 0.10961,0.0368 0.21149,0.0674 0.10188,0.0306 0.13122,0.0414 l 0.19691,-0.24727 q 0.0677,-0.085 0.0321,-0.15125 -0.0356,-0.0662 -0.0758,-0.1109 l 0.0738,-0.0927 1.51449,1.20607 -0.0738,0.0927 q -0.0911,-0.06 -0.17143,-0.086 -0.0726,-0.0199 -0.14024,0.0651 l -2.86749,3.60076 q -0.0677,0.085 -0.0321,0.15125 0.0434,0.0724 0.10675,0.13552 l -0.0738,0.0927 -1.53767,-1.22453 0.0738,-0.0927 q 0.0834,0.0538 0.15597,0.0737 0.0803,0.0261 0.14797,-0.0589 l 1.95678,-2.45718 q -0.23009,-0.10747 -0.37834,-0.17502 -0.14052,-0.0614 -0.2331,-0.072 -0.0787,-0.0122 -0.1388,0.0157 -0.0524,0.0341 -0.11391,0.11133 l -0.0927,-0.0738 z"
           style="font-style:normal;font-variant:normal;font-weight:bold;font-stretch:normal;font-size:9.87778px;line-height:1.25;font-family:Copperplate;-inkscape-font-specification:'Copperplate Bold';letter-spacing:1.5875px;white-space:pre;fill:#000000;fill-opacity:1;stroke:none;stroke-width:1.06689"
           id="path1075" />
        <path
           d="m -127.09665,143.78977 q 0.48592,0.2643 0.812,0.67778 0.3308,0.40481 0.48195,0.89182 0.15983,0.49173 0.11079,1.01603 -0.0404,0.52902 -0.3141,1.0323 -0.27373,0.50329 -0.6959,0.82464 -0.41348,0.32608 -0.91313,0.45912 -0.49096,0.13776 -1.00582,0.0714 -0.51486,-0.0664 -1.00079,-0.33069 -0.47726,-0.25958 -0.82145,-0.66043 -0.33551,-0.39613 -0.49534,-0.88786 -0.15116,-0.48701 -0.1108,-1.01603 0.049,-0.5243 0.32278,-1.02758 0.27374,-0.50328 0.68722,-0.82936 0.42216,-0.32136 0.91313,-0.45911 0.49964,-0.13304 1.01923,-0.0753 0.53297,0.0538 1.01023,0.31334 z m -0.55692,1.02392 q -0.28635,-0.15574 -0.55596,-0.15621 -0.26094,0.004 -0.49493,0.12436 -0.22927,0.11143 -0.41744,0.31268 -0.18817,0.20125 -0.32032,0.44421 -0.13215,0.24297 -0.19884,0.51029 -0.0667,0.26733 -0.0404,0.52902 0.031,0.25302 0.16927,0.47438 0.1469,0.22607 0.43325,0.38182 0.28635,0.15575 0.54729,0.15149 0.26961,4.7e-4 0.49888,-0.11096 0.23399,-0.12011 0.42216,-0.32136 0.18817,-0.20125 0.32032,-0.44421 0.13215,-0.24296 0.19884,-0.51029 0.0667,-0.26732 0.0356,-0.52034 -0.0263,-0.2617 -0.17323,-0.48777 -0.13822,-0.22136 -0.42457,-0.37711 z"
           style="font-style:normal;font-variant:normal;font-weight:bold;font-stretch:normal;font-size:9.87778px;line-height:1.25;font-family:Copperplate;-inkscape-font-specification:'Copperplate Bold';letter-spacing:1.5875px;white-space:pre;fill:#000000;fill-opacity:1;stroke:none;stroke-width:1.06689"
           id="path1077" />
        <path
           d="m -121.09951,146.30369 q 0.53057,0.15646 0.93614,0.49232 0.40838,0.32638 0.65835,0.77083 0.25946,0.44725 0.32152,0.97017 0.0715,0.52571 -0.0905,1.07523 -0.16204,0.54951 -0.50737,0.9523 -0.33586,0.40558 -0.79647,0.64049 -0.45113,0.23771 -0.96846,0.28083 -0.51733,0.0431 -1.0479,-0.11334 -0.52109,-0.15366 -0.94173,-0.47336 -0.41117,-0.31691 -0.67062,-0.76416 -0.24998,-0.44445 -0.32152,-0.97016 -0.0621,-0.52292 0.1,-1.07244 0.16204,-0.54951 0.4979,-0.95509 0.34534,-0.40279 0.79647,-0.64049 0.46061,-0.23492 0.98073,-0.28751 0.53239,-0.0593 1.05349,0.0944 z m -0.32967,1.11799 q -0.31266,-0.0922 -0.57637,-0.0361 -0.25423,0.0589 -0.45781,0.22544 -0.20078,0.15706 -0.34254,0.39331 -0.14175,0.23625 -0.21998,0.50154 -0.0782,0.26528 -0.0873,0.54065 -0.009,0.27537 0.0715,0.52571 0.0834,0.24087 0.26504,0.4283 0.19107,0.19022 0.50373,0.28241 0.31266,0.0922 0.56689,0.0333 0.2637,-0.0561 0.46449,-0.21318 0.20358,-0.16653 0.34533,-0.40278 0.14176,-0.23625 0.21998,-0.50154 0.0782,-0.26528 0.0873,-0.54065 0.009,-0.27537 -0.0743,-0.51624 -0.0807,-0.25034 -0.27172,-0.44056 -0.1816,-0.18743 -0.49425,-0.27962 z"
           style="font-style:normal;font-variant:normal;font-weight:bold;font-stretch:normal;font-size:9.87778px;line-height:1.25;font-family:Copperplate;-inkscape-font-specification:'Copperplate Bold';letter-spacing:1.5875px;white-space:pre;fill:#000000;fill-opacity:1;stroke:none;stroke-width:1.06689"
           id="path1079" />
        <path
           d="m -111.32792,148.05355 q -0.22589,0.0242 -0.42721,0.18492 -0.20132,0.16068 -0.18935,0.45743 0.0513,0.29254 0.28208,0.40685 0.23083,0.11432 0.45672,0.0901 0.22589,-0.0242 0.42721,-0.18492 0.20132,-0.16068 0.18935,-0.45743 -0.0513,-0.29254 -0.28208,-0.40685 -0.23083,-0.11432 -0.45672,-0.0901 z m 0.15486,3.48032 q 0.28482,-0.0306 0.58435,-0.20178 0.29848,-0.18105 0.45103,-0.42591 -0.3972,-0.83161 -1.18291,-0.74731 -0.37321,0.04 -0.59873,0.25299 -0.22656,0.20313 -0.19179,0.52724 0.0348,0.32411 0.30033,0.48437 0.26451,0.15044 0.63772,0.1104 z m 3.35665,-1.49268 q -0.027,-0.0667 -0.0793,-0.0908 -0.0435,-0.0351 -0.15154,-0.0235 -0.0982,0.0105 -0.19676,0.11052 -0.0985,0.1 -0.18307,0.2382 -0.0856,0.1284 -0.15044,0.26451 -0.0551,0.13505 -0.075,0.22661 0.0544,0.0438 0.14909,0.0933 0.0947,0.0494 0.1982,0.088 0.10348,0.0386 0.20591,0.0673 0.10138,0.0189 0.17013,0.0115 0.14732,-0.0158 0.16203,-0.15647 l 0.11786,-0.0126 0.14437,1.34553 q -0.23572,0.0253 -0.48336,0.032 -0.24659,0.0165 -0.48863,-0.0171 -0.24309,-0.0435 -0.4718,-0.13814 -0.2189,-0.0957 -0.40483,-0.2546 -0.43455,0.39434 -0.90315,0.56383 -0.45983,0.15862 -1.0393,0.22079 -0.36339,0.039 -0.75486,0.002 -0.39251,-0.0473 -0.72788,-0.21 -0.32553,-0.16376 -0.55463,-0.44715 -0.2291,-0.28338 -0.27546,-0.71553 -0.0306,-0.28482 0.0424,-0.53107 0.0719,-0.25607 0.21776,-0.47041 0.14589,-0.21435 0.35703,-0.37608 0.21008,-0.17156 0.45596,-0.28735 -0.21329,-0.13607 -0.38274,-0.32651 -0.16069,-0.20132 -0.18809,-0.45668 -0.0422,-0.39285 0.0985,-0.6563 0.14939,-0.27433 0.39982,-0.44028 0.25919,-0.17683 0.57803,-0.26071 0.3276,-0.0948 0.63206,-0.12742 0.31429,-0.0337 0.6349,-0.009 0.31955,0.0154 0.58966,0.12549 0.27993,0.10905 0.46342,0.33772 0.19225,0.2178 0.23335,0.60084 0.02,0.1866 -0.0406,0.362 -0.0519,0.16452 -0.155,0.31466 -0.10415,0.14033 -0.23988,0.26417 -0.13573,0.12384 -0.27357,0.22804 0.18172,0.11959 0.34801,0.28056 0.16628,0.16098 0.3217,0.31319 0.29,-0.53777 0.67789,-0.99664 0.38683,-0.46868 0.91925,-0.78411 l 0.18125,1.68929 z"
           style="font-style:normal;font-variant:normal;font-weight:bold;font-stretch:normal;font-size:9.87778px;line-height:1.25;font-family:Copperplate;-inkscape-font-specification:'Copperplate Bold';letter-spacing:1.5875px;white-space:pre;fill:#000000;fill-opacity:1;stroke:none;stroke-width:1.06689"
           id="path1081" />
        <path
           d="m -100.71068,144.46503 q 0.56369,-0.28619 1.137408,-0.37806 0.578054,-0.10516 1.100013,0.006 0.530766,0.10717 0.974542,0.43576 0.443777,0.32859 0.738909,0.90989 0.295133,0.58131 0.298528,1.13348 0.0034,0.55217 -0.223295,1.04392 -0.217883,0.48727 -0.64837,0.88308 -0.42168,0.39134 -0.985369,0.67753 -0.563688,0.28618 -1.13727,0.40015 -0.564776,0.10949 -1.095546,0.002 -0.52196,-0.11165 -0.96574,-0.44024 -0.44377,-0.32859 -0.73891,-0.90989 -0.29513,-0.5813 -0.29852,-1.13348 -0.003,-0.55217 0.21449,-1.03944 0.22669,-0.49175 0.64389,-0.89189 0.42155,-0.41343 0.98524,-0.69962 z m 0.54555,1.07453 q -0.29065,0.14757 -0.51017,0.3698 -0.2107,0.21775 -0.32831,0.48795 -0.11328,0.25691 -0.11138,0.56613 0.006,0.29594 0.16275,0.60421 0.15651,0.30826 0.39621,0.49674 0.24405,0.17521 0.52278,0.24417 0.283067,0.0557 0.583205,0.0141 0.308946,-0.0461 0.599598,-0.19364 0.290652,-0.14757 0.501356,-0.36532 0.219512,-0.22223 0.332789,-0.47915 0.117613,-0.27019 0.111376,-0.56613 -0.0019,-0.30922 -0.158411,-0.61748 -0.15651,-0.30827 -0.400553,-0.48347 -0.239707,-0.18849 -0.522773,-0.24417 -0.27873,-0.069 -0.587676,-0.0229 -0.300139,0.0416 -0.590791,0.18917 z"
           style="font-style:normal;font-variant:normal;font-weight:bold;font-stretch:normal;font-size:9.87778px;line-height:1.25;font-family:Copperplate;-inkscape-font-specification:'Copperplate Bold';letter-spacing:1.5875px;white-space:pre;fill:#000000;fill-opacity:1;stroke:none;stroke-width:1.06689"
           id="path1083" />
        <path
           d="m -92.329013,141.68543 q 0.342504,-0.26756 0.369757,-0.4894 0.02896,-0.23571 -0.104824,-0.40696 -0.133779,-0.17125 -0.363404,-0.19242 -0.227922,-0.035 -0.570426,0.23252 l -1.307741,1.02159 0.668897,0.85626 z m 0.358421,3.15445 q 0.04257,0.0545 0.104107,0.0691 0.06324,7.3e-4 0.223305,-0.0992 l 0.07297,0.0934 -1.60354,1.25266 -0.07297,-0.0934 q 0.135738,-0.1311 0.142551,-0.18656 0.0085,-0.0693 -0.03405,-0.12382 l -2.833691,-3.62742 q -0.04257,-0.0545 -0.105811,-0.0552 -0.06154,-0.0146 -0.221602,0.0854 l -0.07297,-0.0934 2.849009,-2.2256 q 0.864044,-0.67498 1.502569,-0.65988 0.632444,0.007 1.149319,0.66898 0.419581,0.53711 0.337584,1.09001 -0.07421,0.54682 -0.453457,1.05616 l 1.92796,0.57463 q 0.202866,0.0671 0.335197,-0.0362 l 0.07297,0.0934 -1.619108,1.26483 -0.07297,-0.0934 q 0.165171,-0.14157 0.0618,-0.2739 -0.01216,-0.0156 -0.147406,-0.0603 -0.135244,-0.0448 -0.332029,-0.10412 -0.196785,-0.0594 -0.429085,-0.11605 -0.230596,-0.0705 -0.44903,-0.12553 -0.21065,-0.0611 -0.373624,-0.10924 -0.162974,-0.0482 -0.216731,-0.0688 l -0.76285,0.59593 z"
           style="font-style:normal;font-variant:normal;font-weight:bold;font-stretch:normal;font-size:9.87778px;line-height:1.25;font-family:Copperplate;-inkscape-font-specification:'Copperplate Bold';letter-spacing:1.5875px;white-space:pre;fill:#000000;fill-opacity:1;stroke:none;stroke-width:1.06689"
           id="path1085" />
      </g>
    </g>
  </g>
</svg>
