<?xml version="1.0" encoding="UTF-8"?>
<svg width="269" height="371" version="1.1" viewBox="0 0 269 371" xmlns="http://www.w3.org/2000/svg">
 <defs>
  <clipPath id="a">
   <path d="m0 0h163.8v225.96h-163.8z" fill="none"/>
  </clipPath>
 </defs>
 <g transform="matrix(1.6248 0 0 1.6248 1.3585 2.7164)">
  <path d="m27.845 1e-3 -1 21.361-0.012 1.139-22.215 5.816 20.247 7.743 1.044 0.417-0.089 1.094-1.672 21.413 13.778-16.668 0.667-0.81 0.978 0.378 20.179 7.772-11.899-17.855-0.62-0.907 0.715-0.881 13.839-16.68-21.389 5.6-0.554-0.925zm108.54 0-12 18.011-0.555 0.925-21.389-5.6 13.84 16.678 0.715 0.881-0.62 0.907-11.9 17.854 20.178-7.772 0.978-0.378 0.667 0.81 13.779 16.668-1.671-21.414-0.087-1.094 1.042-0.417 20.249-7.743-22.21-5.816-0.013-1.135z" fill="#af9862"/>
  <g transform="translate(0 .001)" clip-path="url(#a)">
   <path d="m160.55 117.84c2.162 6.732 2.937 13.912 3.183 21.373 0.337 10.215-0.517 22.244-3.631 31.92-10.931 33.912-42.656 54.828-77.523 54.828-45.408 1e-3 -82.578-36.105-82.578-81.512a81.913 81.913 0 0 1 82.221-81.858c38.952 0 68.272 23.907 78.328 55.249" fill="#fff"/>
   <g fill="#005791">
    <path d="m82.444 182.68a38.515 38.515 0 1 1 0.172-77.026 40.238 40.238 0 0 1 33.685 19.08l12.357-10.4a55.323 55.323 0 0 0-84.992-8.847 54.165 54.165 0 0 0-0.176 77.193 55.075 55.075 0 0 0 38.918 16.092 53.821 53.821 0 0 0 49.319-30.947l-13.911-7.557a38.8 38.8 0 0 1-35.377 22.412"/>
    <path d="m59.163 119.31-0.031 13.3s19.13-0.021 24.957-9e-3c-0.194 0.194-0.428 0.4-0.688 0.638-5.84 5.347-24.983 21.634-24.983 21.634l-0.049 13.4h48.241l-0.018-13.619c-19.388-0.01-19.388-0.01-25.423-0.019 4.923-4.571 25.257-22.021 25.257-22.021v-13.273z"/>
    <path d="m83.292 133.36c0.441-0.37 0.58-0.488 0.937-0.77l-0.3 0.013-2.166 2.075s1.018-0.9 1.528-1.318m-1.327 20.508c-0.457 0.377-0.585 0.491-0.921 0.761l0.283-0.013 2.155-2.066s-1.007 0.905-1.516 1.318"/>
    <path d="m158.04 140.78-0.011-0.38 0.014-5.309-38.654-7e-3 0.016 15.024h21.968c-0.4 8.967-1.442 13-4.314 19.384-9.6 21.483-30.556 34.8-54.682 34.762-33.426-0.071-60.562-27.081-60.491-60.208s27.321-60.033 60.75-59.959a60.768 60.768 0 0 1 30.441 8.193 63.8 63.8 0 0 1 19.748 18.555l12.577-10.593a79.083 79.083 0 0 0-24.079-21.9 77.389 77.389 0 0 0-93.059 11.824 75.634 75.634 0 0 0-0.247 107.76 76.672 76.672 0 0 0 54.327 22.472c30.723 0.071 57.474-16.938 69.8-44.367 3.236-6.724 5.143-15.424 5.723-25.935h0.02c0.044-0.661 0.083-1.658 0.124-2.753v-0.845c0.049-1.865 0.057-3.761 0.029-5.717"/>
   </g>
  </g>
 </g>
</svg>
