<?xml version="1.0" encoding="UTF-8" standalone="no"?>
<svg
   xmlns:dc="http://purl.org/dc/elements/1.1/"
   xmlns:cc="http://creativecommons.org/ns#"
   xmlns:rdf="http://www.w3.org/1999/02/22-rdf-syntax-ns#"
   xmlns:svg="http://www.w3.org/2000/svg"
   xmlns="http://www.w3.org/2000/svg"
   xmlns:sodipodi="http://sodipodi.sourceforge.net/DTD/sodipodi-0.dtd"
   xmlns:inkscape="http://www.inkscape.org/namespaces/inkscape"
   width="160.23143pt"
   height="160.24217pt"
   viewBox="0 0 160.23144 160.24218"
   version="1.2"
   id="svg47"
   sodipodi:docname="Hamarkameratene_logo.svg"
   inkscape:version="0.92.4 (5da689c313, 2019-01-14)">
  <metadata
     id="metadata53">
    <rdf:RDF>
      <cc:Work
         rdf:about="">
        <dc:format>image/svg+xml</dc:format>
        <dc:type
           rdf:resource="http://purl.org/dc/dcmitype/StillImage" />
        <dc:title></dc:title>
      </cc:Work>
    </rdf:RDF>
  </metadata>
  <defs
     id="defs51" />
  <sodipodi:namedview
     pagecolor="#ffffff"
     bordercolor="#666666"
     borderopacity="1"
     objecttolerance="10"
     gridtolerance="10"
     guidetolerance="10"
     inkscape:pageopacity="0"
     inkscape:pageshadow="2"
     inkscape:window-width="1366"
     inkscape:window-height="705"
     id="namedview49"
     showgrid="false"
     inkscape:pagecheckerboard="true"
     inkscape:zoom="1.9981374"
     inkscape:cx="98.667527"
     inkscape:cy="108.21372"
     inkscape:window-x="-8"
     inkscape:window-y="-8"
     inkscape:window-maximized="1"
     inkscape:current-layer="svg47" />
  <ellipse
     style="fill:#ffffff;fill-opacity:1;stroke-width:150;stroke-miterlimit:4;stroke-dasharray:none"
     id="path57"
     cx="80.496925"
     cy="79.743828"
     rx="78.072807"
     ry="78.371162" />
  <g
     id="surface40"
     transform="translate(-628.26074,-629.57812)">
    <path
       style="fill:#1e9745;fill-opacity:1;fill-rule:nonzero;stroke:none"
       d="m 708.375,629.57812 h -0.14453 l -5.92969,0.25782 h -0.14453 l -2.93359,0.25781 c -0.0859,0 -0.17188,0 -0.25782,0.0312 l -6.10156,0.97656 c -0.0586,0.0312 -0.11719,0.0312 -0.17187,0.0312 l -2.85157,0.63281 c -0.0273,0 -0.0586,0 -0.0859,0.0273 l -2.96485,0.71875 c -0.0547,0.0312 -0.11328,0.0586 -0.17187,0.0586 l -2.84766,0.86328 c -0.0312,0.0312 -0.0859,0.0312 -0.11719,0.0586 l -2.84765,0.97656 c -0.0586,0 -0.0859,0.0312 -0.14453,0.0586 l -2.82032,1.09375 c -0.0586,0.0274 -0.11328,0.0586 -0.17187,0.0859 l -2.70703,1.20703 c -0.0274,0.0312 -0.0859,0.0586 -0.11328,0.0586 l -5.4961,2.76562 c -0.0586,0.0273 -0.11719,0.0547 -0.17578,0.082 l -2.53125,1.44141 c -0.0859,0.0586 -0.20312,0.11719 -0.28906,0.20312 l -2.41797,1.69532 -2.61719,1.72656 c -0.0586,0.0312 -0.11328,0.0859 -0.17187,0.11719 l -3.07813,2.35937 c -0.0586,0.0273 -0.0898,0.0586 -0.14453,0.11328 l -3.05078,2.5625 c -0.0859,0.0586 -0.17188,0.14453 -0.23047,0.20313 l -2.84766,2.84765 c 0,0.0274 -0.0312,0.0274 -0.0586,0.0586 l -2.70703,2.84765 c -0.0547,0.0586 -0.11328,0.11719 -0.17188,0.17188 l -2.58984,3.10937 c -0.0273,0 -0.0273,0.0274 -0.0586,0.0586 l -2.47266,3.07812 c -0.0586,0.0859 -0.11719,0.17188 -0.17578,0.25781 l -1.75391,2.6211 -1.61328,2.47265 c -0.0273,0.0312 -0.0273,0.0586 -0.0547,0.0898 l -1.58203,2.55859 c -0.0586,0.0859 -0.11718,0.17578 -0.14453,0.28906 l -2.73437,5.41016 c -0.0312,0.0859 -0.0586,0.17188 -0.11719,0.25781 l -2.21484,5.44141 c -0.0274,0.0547 -0.0586,0.14062 -0.0586,0.19922 l -1.00781,2.82031 c 0,0.0586 -0.0273,0.11719 -0.0273,0.17578 l -0.89063,2.96094 -0.83594,2.82031 c -0.0586,0.11719 -0.0586,0.20313 -0.0859,0.31641 l -0.60547,2.91015 c -0.0274,0.0547 -0.0274,0.11329 -0.0274,0.14063 l -0.48828,2.96484 c -0.0312,0.0586 -0.0312,0.11719 -0.0312,0.14453 l -0.74609,5.95704 c 0,0.0859 -0.0312,0.20312 -0.0312,0.3164 l -0.11328,3.07813 -0.11719,2.9375 c -0.0273,0.11718 -0.0273,0.19922 0,0.3164 l 0.11719,2.9336 0.11328,3.10937 c 0,0.0859 0.0312,0.20313 0.0312,0.28906 l 0.74609,5.95704 c 0,0.0273 0,0.0859 0.0312,0.14453 l 0.48828,2.96484 c 0,0.0273 0,0.0859 0.0274,0.14063 l 0.60547,2.90625 c 0.0273,0.11718 0.0273,0.23046 0.0859,0.32031 l 0.83594,2.82031 0.89063,2.96094 c 0,0.0586 0.0273,0.11719 0.0273,0.17578 l 1.00781,2.82031 c 0,0.0859 0.0312,0.14063 0.0586,0.19922 l 1.09375,2.70703 1.12109,2.82031 c 0.0312,0.11329 0.0859,0.19922 0.11719,0.28516 l 1.35156,2.70703 c 0.0312,0.0274 0.0312,0.0274 0.0312,0.0586 l 1.35156,2.58984 c 0.0547,0.0547 0.0859,0.14453 0.14453,0.23047 l 3.22266,5.17969 c 0.0273,0.0547 0.0547,0.11328 0.11328,0.14453 l 1.69922,2.47265 c 0.0273,0.0312 0.0586,0.0586 0.0859,0.11719 l 2.35937,3.07813 c 0.0274,0.0586 0.0859,0.14453 0.14453,0.20312 l 2.73438,3.07813 c 0.0273,0.0273 0.0273,0.0586 0.0586,0.0586 l 2.70313,2.99219 c 0.0586,0.0586 0.11718,0.11328 0.17187,0.14453 l 2.82031,2.70312 c 0.0586,0.0586 0.11719,0.11719 0.17579,0.17188 l 3.07812,2.58984 c 0.0547,0.0312 0.0859,0.0586 0.14453,0.0899 l 3.10547,2.35937 c 0.0312,0.0273 0.0586,0.0547 0.0859,0.0547 l 2.59375,1.87109 c 0.0547,0.0312 0.082,0.0586 0.14062,0.0859 l 2.44532,1.58594 c 0.0586,0.0547 0.11718,0.0859 0.17578,0.11328 l 2.58984,1.49609 c 0.0273,0 0.0586,0 0.0586,0.0312 l 2.70313,1.46485 c 0.0859,0.0586 0.17187,0.0859 0.23047,0.11718 l 5.46875,2.47266 c 0.0586,0.0312 0.11328,0.0586 0.17187,0.0859 l 2.82032,1.09375 c 0.0586,0.0312 0.0859,0.0586 0.14453,0.0586 l 2.84765,0.98047 c 0.0312,0.0273 0.0859,0.0273 0.11719,0.0547 l 2.84766,0.86328 c 0.0586,0 0.11718,0.0312 0.17187,0.0586 l 2.96485,0.71875 c 0.0273,0.0312 0.0586,0.0312 0.0859,0.0312 l 5.8711,1.23438 c 0.0859,0.0312 0.20312,0.0586 0.28906,0.0586 l 3.05078,0.375 h 0.14063 l 5.92968,0.51953 h 3.25391 v -3.6289 h -2.96484 l -5.92969,-0.48829 -3.05078,-0.375 -5.8125,-1.23828 -2.96485,-0.71875 -2.82031,-0.86328 -2.84766,-1.00781 -2.82031,-1.09375 -5.46875,-2.47266 -2.70312,-1.46875 -2.59375,-1.49609 -2.44532,-1.58203 -2.58984,-1.8711 -3.10547,-2.35937 -3.08203,-2.58984 -2.82031,-2.67579 -2.73438,-2.99609 -2.70312,-3.07812 -2.35938,-3.07813 -1.69922,-2.47656 -3.22265,-5.15235 -1.35547,-2.58984 -1.35156,-2.70312 -1.1211,-2.82032 v -0.0312 l -1.12109,-2.73437 -0.98047,-2.82031 -0.86328,-2.99219 -0.86328,-2.82031 -0.60547,-2.9336 -0.48828,-2.96484 -0.7461,-5.95703 -0.14453,-3.07813 -0.11718,-2.9375 0.11718,-2.96484 0.14453,-3.07813 0.7461,-5.95703 0.48828,-2.96484 0.60547,-2.90625 0.86328,-2.84766 0.86328,-2.99609 0.98047,-2.82031 2.24219,-5.4375 2.70703,-5.44141 1.58203,-2.55859 1.64062,-2.50391 1.69922,-2.58984 2.47266,-3.08204 2.58984,-3.07812 2.73438,-2.84766 2.85156,-2.85156 3.05078,-2.55859 3.07813,-2.35938 2.61718,-1.73047 0.0312,-0.0273 2.44532,-1.69922 2.5625,-1.46484 5.46484,-2.73438 2.70703,-1.23828 2.82031,-1.09375 2.84766,-1.00781 2.82031,-0.86328 2.96485,-0.71875 2.85156,-0.63282 6.04297,-0.98046 2.93359,-0.25782 5.92969,-0.23047 z m 80.11719,80.14844 v -3.13672 l -0.11328,-3.05078 c 0,-0.11328 0,-0.23047 -0.0274,-0.3164 l -0.74609,-5.95704 v -0.14453 l -0.49219,-2.93359 c -0.0273,-0.0859 -0.0586,-0.17188 -0.0586,-0.26172 l -0.7461,-2.99219 -0.75,-2.8789 c -0.0312,-0.0274 -0.0312,-0.0547 -0.0312,-0.0859 l -0.85937,-2.96094 c -0.0273,-0.0586 -0.0586,-0.11719 -0.0586,-0.17578 l -0.97656,-2.82031 c -0.0312,-0.0586 -0.0625,-0.14453 -0.0859,-0.19922 l -1.09765,-2.70703 c -0.0273,-0.0273 -0.0273,-0.0859 -0.0547,-0.11328 l -2.47656,-5.46875 c -0.0586,-0.0859 -0.0859,-0.14453 -0.11328,-0.23047 l -1.4961,-2.70313 c 0,-0.0312 -0.0312,-0.0586 -0.0312,-0.0586 l -1.46484,-2.58984 c -0.0586,-0.0586 -0.0859,-0.11719 -0.11719,-0.20313 l -1.64062,-2.50391 -1.72657,-2.5625 c -0.0586,-0.0859 -0.11328,-0.17187 -0.17187,-0.25781 l -2.47656,-3.07812 c 0,-0.0312 -0.0274,-0.0586 -0.0586,-0.0586 l -2.58984,-3.10937 c -0.0547,-0.0547 -0.11328,-0.11328 -0.14063,-0.17188 l -2.73828,-2.84765 c -0.0234,-0.0312 -0.0547,-0.0586 -0.11328,-0.11719 l -2.96484,-2.84766 c -0.0273,-0.0312 -0.0859,-0.0586 -0.11328,-0.0859 l -2.9375,-2.58985 c -0.0859,-0.0586 -0.16797,-0.14453 -0.25782,-0.20312 l -3.19531,-2.33203 c -0.0273,-0.0274 -0.0547,-0.0274 -0.0547,-0.0547 l -2.5039,-1.72656 c -0.0312,-0.0312 -0.0586,-0.0312 -0.0586,-0.0586 l -2.58984,-1.72656 c -0.0898,-0.0273 -0.14453,-0.0859 -0.23047,-0.11719 l -2.5625,-1.46875 c -0.0273,-0.0273 -0.0859,-0.0547 -0.11328,-0.082 l -2.61719,-1.35547 c 0,0 -0.0312,-0.0273 -0.0625,-0.0273 l -2.73047,-1.38281 c -0.0273,0 -0.0586,-0.0274 -0.11718,-0.0586 l -2.70313,-1.20703 c -0.0586,-0.0273 -0.11719,-0.0586 -0.17187,-0.0859 l -2.82422,-1.09375 c -0.0547,-0.0273 -0.0859,-0.0586 -0.14063,-0.0586 l -2.82031,-0.97656 c -0.0586,-0.0274 -0.11719,-0.0274 -0.14453,-0.0586 l -2.82031,-0.86328 c -0.0586,0 -0.14453,-0.0273 -0.20313,-0.0586 l -2.9375,-0.71875 c -0.0547,-0.0273 -0.0859,-0.0273 -0.14062,-0.0273 l -2.96485,-0.63281 c -0.0586,0 -0.0859,0 -0.14453,-0.0312 l -5.95703,-0.97656 c -0.0859,-0.0312 -0.19922,-0.0312 -0.28516,-0.0312 l -2.9375,-0.25781 h -0.14453 l -2.99218,-0.14453 -3.07813,-0.11329 H 708.375 v 3.625 l 3.07812,0.11719 2.99219,0.11328 2.9375,0.25782 5.92969,0.98046 2.96094,0.63282 2.96484,0.71875 2.82031,0.86328 2.84766,1.00781 2.82422,1.09375 2.70312,1.23828 2.73438,1.35156 2.61719,1.38282 2.5625,1.46484 2.58984,1.72656 2.50391,1.73047 3.19531,2.35938 2.93359,2.55859 2.99219,2.85156 2.70703,2.84766 2.58984,3.07812 2.47657,3.08204 1.72656,2.58984 1.58203,2.47266 1.49609,2.58984 1.46875,2.70703 2.47657,5.46875 1.12109,2.70313 0.98047,2.82031 0.86328,2.96484 0.74609,2.84766 0.75,2.96484 0.48438,2.9375 0.72266,5.95703 0.14062,3.05078 v 5.98438 l -0.14062,3.02344 -0.72266,5.95703 -0.48438,2.93359 -0.75,2.96485 -0.74609,2.85156 -0.86328,2.96094 -0.98047,2.82031 -1.12109,2.73437 -1.23828,2.85157 -1.23829,2.70312 -2.96484,5.21094 -1.58203,2.53125 -1.72656,2.44531 -2.47657,3.10938 -2.61718,3.10937 -2.67969,2.93359 -2.96094,2.70704 -2.96484,2.58984 -3.22266,2.35937 -2.47656,1.8711 -2.55859,1.58203 -5.21094,2.96484 -5.4375,2.47266 -2.82422,1.09375 -2.84766,1.00781 -2.82031,0.86328 -2.96484,0.71875 -5.95703,1.23828 -2.90625,0.375 -5.95704,0.48829 H 708.375 v 3.6289 h 3.36719 l 5.95703,-0.51953 h 0.14453 l 2.93359,-0.375 c 0.0859,0 0.20313,-0.0273 0.28907,-0.0586 l 5.95703,-1.23438 c 0.0547,0 0.0859,0 0.14062,-0.0312 l 2.9375,-0.71875 c 0.0586,-0.0273 0.14453,-0.0586 0.20313,-0.0586 l 2.82031,-0.86328 c 0.0273,-0.0274 0.0859,-0.0274 0.14453,-0.0547 l 2.82031,-0.98047 c 0.0547,0 0.0859,-0.0273 0.14063,-0.0586 l 2.82422,-1.09375 c 0.0547,-0.0274 0.11328,-0.0547 0.17187,-0.0859 l 5.4375,-2.47266 c 0.11328,-0.0312 0.19922,-0.0859 0.28906,-0.14453 l 5.20704,-2.96484 c 0.0586,-0.0273 0.0859,-0.0586 0.11328,-0.0586 l 2.5664,-1.58203 c 0.0859,-0.0586 0.17188,-0.14453 0.25782,-0.19922 l 2.47265,-1.84375 3.19531,-2.33203 c 0.0898,-0.0547 0.17188,-0.14453 0.25782,-0.19922 l 2.9375,-2.58984 c 0.0273,-0.0312 0.0586,-0.0312 0.0859,-0.0586 l 2.9336,-2.70703 c 0.0859,-0.0859 0.17187,-0.14063 0.23437,-0.23047 l 2.70313,-2.9336 c 0.0273,-0.0586 0.0586,-0.0859 0.11328,-0.11328 l 2.58984,-3.10937 c 0.0312,-0.0312 0.0586,-0.0586 0.0586,-0.0859 l 2.47656,-3.08203 c 0.0586,-0.0547 0.11328,-0.14063 0.14453,-0.19922 l 1.69531,-2.44531 c 0.0586,-0.0312 0.0899,-0.0899 0.11719,-0.14453 l 1.61328,-2.58985 c 0.0274,-0.0312 0.0274,-0.0859 0.0547,-0.11719 l 2.99219,-5.17968 c 0.0312,-0.0859 0.0859,-0.20313 0.14453,-0.28907 l 1.21094,-2.70312 0.0273,-0.0586 1.26562,-2.84766 c 0,-0.0312 0,-0.0586 0.0273,-0.0859 l 1.09765,-2.70703 c 0.0234,-0.0586 0.0547,-0.11328 0.0859,-0.19922 l 0.97656,-2.82031 c 0,-0.0586 0.0312,-0.11719 0.0586,-0.17578 l 0.85937,-2.96094 c 0,-0.0312 0,-0.0586 0.0312,-0.0898 l 0.75,-2.90625 0.7461,-2.96485 c 0,-0.0859 0.0312,-0.17187 0.0586,-0.25781 l 0.49219,-2.93359 v -0.14453 l 0.74609,-5.95704 c 0.0274,-0.0859 0.0274,-0.20312 0.0274,-0.28906 l 0.11328,-3.05078 z m 0,0"
       id="path2"
       inkscape:connector-curvature="0" />
    <path
       style="fill:#1e9745;fill-opacity:1;fill-rule:nonzero;stroke:none"
       d="m 779.34375,699.28125 0.66406,6.44531 1.20703,-0.14453 -0.80859,-7.82812 -10.79297,1.125 0.83594,8.02734 1.23828,-0.14453 -0.69141,-6.58985 3.77344,-0.40234 0.62891,5.84375 1.125,-0.11719 -0.60547,-5.84375 z m 0,0"
       id="path4"
       inkscape:connector-curvature="0" />
    <path
       style="fill:#1e9745;fill-opacity:1;fill-rule:nonzero;stroke:none"
       d="m 780.49219,719.59766 0.28906,-1.4375 -10.67578,-1.95704 -0.25781,1.29297 8.66015,1.61328 -9.69531,4.0586 -0.26172,1.4375 10.67969,1.95703 0.22656,-1.29297 -8.66016,-1.58594 z m 0,0"
       id="path6"
       inkscape:connector-curvature="0" />
    <path
       style="fill:#1e9745;fill-opacity:1;fill-rule:nonzero;stroke:none"
       d="m 775.17187,683.39453 1.29297,3.22266 1.09375,-0.42969 -3.13672,-7.85938 -1.12109,0.46094 1.32031,3.28125 -8.94531,3.625 0.51563,1.29688 z m 0,0"
       id="path8"
       inkscape:connector-curvature="0" />
    <path
       style="fill:#1e9745;fill-opacity:1;fill-rule:nonzero;stroke:none"
       d="m 773.26953,739.54297 -2.93359,5.7539 1.0625,0.54688 3.59765,-6.99219 -9.64062,-4.98047 -3.6836,7.16797 1.09375,0.57422 3.05079,-5.89844 3.36718,1.72657 -2.67578,5.23828 1.00781,0.51562 2.70704,-5.23437 z m 0,0"
       id="path10"
       inkscape:connector-curvature="0" />
    <path
       style="fill:#1e9745;fill-opacity:1;fill-rule:nonzero;stroke:none"
       d="m 762.50781,672.91797 -1.98828,2.8789 0.92188,1.26563 2.30078,-3.42578 v -2.47266 l -0.54688,0.77735 -1.98047,-2.73438 2.52735,-0.80859 v -1.35157 l -7.91407,2.27344 0.89454,1.23828 3.33984,-1.00781 z m 1.23438,0.71875 4.11718,-6.1875 -0.94921,-1.32031 -3.16797,0.91796 v 1.35157 l 2.53515,-0.80469 -2.53515,3.57031 z m 0,0"
       id="path12"
       inkscape:connector-curvature="0" />
    <path
       style="fill:#1e9745;fill-opacity:1;fill-rule:nonzero;stroke:none"
       d="m 746.62109,654.96094 2.47657,1.87109 0.48828,0.42969 0.48828,0.75 0.0312,0.92187 -0.375,0.86328 -0.54688,0.86329 -0.375,0.57421 -0.3164,0.63282 -0.0859,0.23047 1.29297,0.97656 v -0.22656 l 0.11719,-0.4336 0.25781,-0.54687 0.40625,-0.66407 v -4.74609 l -0.0859,-0.0273 -0.92187,-0.63282 -2.19141,-1.67187 2.47656,-3.25 0.72266,0.54687 v -1.38281 l -1.15625,-0.89062 -6.5586,8.63281 1.0625,0.83203 z m 3.85938,6.24218 0.23047,-0.39843 c 0.17187,-0.23438 0.3125,-0.49219 0.42968,-0.75 0.0859,-0.14453 0.17188,-0.31641 0.22657,-0.46094 l 0.11718,-0.98047 -0.23046,-0.74609 -0.17188,-0.25782 0.34766,0.0859 1.08984,0.0859 1.03906,-0.34766 0.80469,-0.74609 c 0.17188,-0.23047 0.28516,-0.42969 0.40234,-0.66016 0.0859,-0.23047 0.17188,-0.46093 0.20313,-0.72265 0.0547,-0.28516 0.0547,-0.57422 0.0273,-0.83203 -0.0586,-0.28907 -0.14453,-0.54688 -0.28515,-0.8086 -0.11719,-0.22656 -0.28907,-0.42969 -0.46485,-0.63281 -0.22656,-0.25781 -0.46093,-0.46094 -0.71875,-0.66016 l -3.04687,-2.33203 v 1.38281 l 2.15625,1.64063 0.80469,0.80469 0.25781,1.03515 -0.42969,1.00782 -0.71875,0.66015 -1.12109,0.26172 -0.94922,-0.375 z m 0,0"
       id="path14"
       inkscape:connector-curvature="0" />
    <path
       style="fill:#1e9745;fill-opacity:1;fill-rule:nonzero;stroke:none"
       d="m 730.01562,772.23437 -0.40234,0.31641 -0.66406,0.77734 -0.3125,1.1211 0.17187,1.15234 c 0.0859,0.25781 0.22657,0.48828 0.375,0.71875 0.14063,0.20313 0.34375,0.40235 0.54688,0.57813 0.23047,0.19922 0.51562,0.37109 0.80078,0.48828 0.0859,0.0273 0.14844,0.0586 0.23437,0.0859 v -1.38282 l -0.17187,-0.0859 -0.63281,-0.80469 -0.11719,-1.03516 0.48828,-1.09375 c 0.11328,-0.14453 0.26172,-0.28906 0.43359,-0.40234 v -1.29688 h -0.11718 c -0.20313,0.0274 -0.40235,0.0586 -0.60157,0.0274 l -0.92578,-0.3711 -0.45703,-0.66406 -0.0898,-0.86328 0.49219,-0.86328 c 0.17187,-0.14453 0.34375,-0.28516 0.54687,-0.40235 0.17188,-0.11328 0.40234,-0.19921 0.60547,-0.28906 l 0.54687,-0.11328 v -1.03516 c -0.25781,0.0273 -0.49218,0.11329 -0.75,0.17188 -0.28515,0.11328 -0.60546,0.25781 -0.89453,0.40234 -0.25781,0.17188 -0.51562,0.34766 -0.77343,0.57422 -0.20313,0.17578 -0.375,0.375 -0.51954,0.60547 -0.14062,0.23047 -0.25781,0.48828 -0.34375,0.75 -0.0586,0.23047 -0.0898,0.45703 -0.0898,0.6875 0.0312,0.26172 0.0586,0.51953 0.14453,0.75 l 0.40235,0.75 0.75,0.57422 0.92187,0.17187 z m 0.75,5.23829 c 0.19922,0.0586 0.40235,0.0859 0.60157,0.0859 0.34765,0.0312 0.6914,0 1.00781,-0.0586 0.40234,-0.0547 0.80859,-0.17188 1.17969,-0.28516 0.3164,-0.11718 0.63281,-0.26172 0.92187,-0.43359 0.28906,-0.17188 0.57813,-0.375 0.80469,-0.57422 0.23047,-0.17187 0.43359,-0.40234 0.57422,-0.63281 0.17578,-0.26172 0.28906,-0.54688 0.375,-0.83594 0.0859,-0.28906 0.14453,-0.60547 0.14453,-0.92187 0,-0.34375 -0.0586,-0.66016 -0.17188,-0.97657 l -0.63281,-1.03515 c -0.17187,-0.20313 -0.375,-0.34766 -0.57812,-0.46094 -0.17188,-0.14453 -0.39844,-0.23047 -0.63282,-0.28906 l -0.97656,-0.0859 -0.34765,0.0586 0.32031,-0.23047 0.54297,-0.6914 0.20703,-0.92188 -0.14453,-0.80468 c -0.0625,-0.20313 -0.17578,-0.40235 -0.28907,-0.60547 -0.14453,-0.17188 -0.28906,-0.34375 -0.43359,-0.48828 -0.20312,-0.14454 -0.40234,-0.28907 -0.60156,-0.375 -0.23438,-0.0859 -0.4336,-0.14454 -0.66406,-0.17188 -0.31641,-0.0273 -0.60547,-0.0273 -0.91797,0 -0.0899,0 -0.20313,0.0273 -0.28907,0.0586 v 1.03516 l 0.54688,-0.0859 1.00391,0.31641 0.54687,0.74609 0.0586,0.83594 -0.51953,0.94922 -1.0625,0.63281 c -0.19922,0.0586 -0.375,0.11719 -0.57422,0.14453 v 1.29688 c 0.0547,-0.0586 0.11329,-0.11719 0.17188,-0.14453 0.25781,-0.17188 0.51562,-0.28907 0.77734,-0.40235 0.28907,-0.0859 0.57422,-0.17578 0.85938,-0.20312 0.23437,-0.0586 0.49219,-0.0586 0.75,-0.0273 0.20312,0.0273 0.40625,0.0859 0.60547,0.17188 0.20312,0.0859 0.40234,0.23047 0.57812,0.375 l 0.54688,0.89062 0.0547,1.00782 -0.48828,1.03515 c -0.17578,0.17188 -0.375,0.34766 -0.57422,0.46094 -0.26171,0.17188 -0.51953,0.28906 -0.80859,0.40234 -0.25781,0.0859 -0.51562,0.14454 -0.77344,0.20313 -0.23437,0.0273 -0.49218,0.0273 -0.72265,0.0273 l -0.97657,-0.375 z m 0,0"
       id="path16"
       inkscape:connector-curvature="0" />
    <path
       style="fill:#1e9745;fill-opacity:1;fill-rule:nonzero;stroke:none"
       d="m 731.85547,641.92578 6.01562,2.32813 0.4336,-1.14844 -7.33985,-2.82422 -3.88672,10.16016 7.54297,2.84765 0.4336,-1.14844 -6.21875,-2.35937 1.38281,-3.54297 5.49609,2.07422 0.40235,-1.06641 -5.5,-2.09765 z m 0,0"
       id="path18"
       inkscape:connector-curvature="0" />
    <path
       style="fill:#1e9745;fill-opacity:1;fill-rule:nonzero;stroke:none"
       d="m 717.03516,770.33594 -1.00782,0.11328 -0.0273,0.26172 -0.40234,0.94922 -0.91797,0.71875 -1.125,0.3164 h -0.19922 l 0.082,0.83594 2.5625,-0.26172 0.77734,7.62891 1.32422,-0.14453 z m 0,0"
       id="path20"
       inkscape:connector-curvature="0" />
    <path
       style="fill:#1e9745;fill-opacity:1;fill-rule:nonzero;stroke:none"
       d="m 709.26562,636.82812 -1.7539,-0.0859 -0.60547,10.85156 1.26562,0.0586 0.48829,-8.75 2.96875,8.94922 1.11718,0.0586 3.94532,-8.54688 -0.46094,8.71875 1.26562,0.0859 0.60547,-10.84766 -1.7539,-0.0859 -4.0586,8.86329 z m 0,0"
       id="path22"
       inkscape:connector-curvature="0" />
    <path
       style="fill:#1e9745;fill-opacity:1;fill-rule:nonzero;stroke:none"
       d="m 700.14453,770.13281 c -0.34766,0 -0.66406,0.0312 -0.98047,0.0859 -0.40234,0.0859 -0.80469,0.26172 -1.14844,0.49219 -0.40625,0.25781 -0.75,0.60156 -1.00781,1.03515 -0.28906,0.42969 -0.46094,0.92188 -0.54687,1.4375 -0.0586,0.46094 -0.0312,0.94922 0.0859,1.41016 0.11329,0.46094 0.31641,0.86328 0.60157,1.23828 0.28906,0.375 0.66406,0.69141 1.0664,0.89063 0.46094,0.26171 0.94922,0.40625 1.4375,0.46093 h 0.49219 v -1.03515 c -0.11719,0 -0.23047,0 -0.34766,-0.0274 -0.37109,-0.0312 -0.74609,-0.17187 -1.09375,-0.34765 -0.28515,-0.17188 -0.51562,-0.40235 -0.6875,-0.6875 -0.17578,-0.23047 -0.28906,-0.49219 -0.34765,-0.77735 -0.0586,-0.3164 -0.0586,-0.63281 0,-0.98047 0.0586,-0.3164 0.17187,-0.66015 0.34765,-0.94921 0.14063,-0.28907 0.34375,-0.51954 0.60157,-0.69141 0.23047,-0.19922 0.51953,-0.34375 0.83593,-0.40234 0.19922,-0.0586 0.4336,-0.0859 0.69141,-0.0859 z m -4.05859,7.3125 -0.0274,0.28516 c 0,0.26172 0.0547,0.49219 0.11328,0.72265 0.0586,0.25782 0.17188,0.48829 0.31641,0.71875 0.14453,0.25782 0.31641,0.48829 0.51953,0.6875 0.19922,0.20313 0.42969,0.375 0.6875,0.51954 0.26172,0.14453 0.49219,0.25781 0.75,0.375 0.28906,0.0859 0.54688,0.14453 0.83594,0.17187 0.28516,0.0273 0.57422,0.0273 0.86328,0 v -1.15234 l -0.75,0.0859 -1.00781,-0.34375 -0.80469,-0.86328 -0.23047,-0.80468 v -0.23047 z m 4.05859,3.48047 c 0.0859,0 0.19922,-0.0273 0.28516,-0.0273 0.34765,-0.0586 0.63281,-0.17188 0.92187,-0.31641 0.34766,-0.17578 0.66406,-0.40625 0.92188,-0.66406 0.25781,-0.28516 0.48828,-0.60156 0.66015,-0.94922 0.23047,-0.42969 0.40625,-0.86328 0.51953,-1.32422 0.17188,-0.54687 0.28907,-1.0625 0.34375,-1.60937 0.0586,-0.40235 0.11719,-0.8086 0.11719,-1.21094 0,-0.40235 0,-0.77735 -0.0586,-1.17969 -0.0273,-0.46094 -0.14453,-0.92187 -0.34375,-1.35156 -0.14453,-0.375 -0.34766,-0.69141 -0.60547,-0.98047 -0.28906,-0.31641 -0.60547,-0.54688 -0.94922,-0.71875 -0.43359,-0.19922 -0.89453,-0.34375 -1.35156,-0.40234 -0.17578,-0.0274 -0.31641,-0.0274 -0.46094,-0.0586 v 1.06641 c 0.0859,0 0.19922,0.0273 0.28516,0.0273 0.34765,0.0586 0.6914,0.17188 0.98047,0.34766 0.28906,0.14453 0.54687,0.37109 0.74609,0.63281 0.17578,0.25781 0.31641,0.51563 0.40625,0.83203 0.0547,0.31641 0.0859,0.63672 0.0547,0.95313 -0.0547,0.34375 -0.14453,0.6875 -0.31641,1.0039 -0.17187,0.28907 -0.40234,0.51953 -0.66016,0.72266 -0.25781,0.17187 -0.51953,0.31641 -0.80468,0.37109 -0.23047,0.0586 -0.46094,0.0859 -0.69141,0.0586 v 1.03515 h 0.17188 c 0.23046,-0.0273 0.42968,-0.0547 0.66015,-0.11328 0.23047,-0.0586 0.4336,-0.14453 0.66406,-0.25781 0.19922,-0.0898 0.375,-0.20313 0.54688,-0.31641 l 0.31641,-0.23047 -0.0859,0.42969 c -0.0312,0.20313 -0.0859,0.40235 -0.14453,0.63281 -0.0586,0.23047 -0.14453,0.46094 -0.23047,0.66407 l -0.57422,1.09375 -0.83594,0.63281 -0.48828,0.0547 z m 0,0"
       id="path24"
       inkscape:connector-curvature="0" />
    <path
       style="fill:#1e9745;fill-opacity:1;fill-rule:nonzero;stroke:none"
       d="m 692.37109,640.25391 -0.83203,-1.20704 -1.55469,0.40235 -1.09375,11.51172 1.4961,-0.40235 0.25781,-3.45312 1.72656,-0.46094 v -1.15234 l -1.60937,0.40234 0.34375,-5.29297 1.26562,1.95703 z m 2.33203,5.78515 1.92969,2.90625 1.52344,-0.40234 -5.78516,-8.28906 v 2.30468 l 1.64453,2.50391 -1.64453,0.42969 v 1.15234 z m 0,0"
       id="path26"
       inkscape:connector-curvature="0" />
    <path
       style="fill:#1e9745;fill-opacity:1;fill-rule:nonzero;stroke:none"
       d="m 687.79687,767.19922 -0.94921,-0.375 -0.14454,0.23047 -0.80468,0.66406 -1.1211,0.19922 -1.15234,-0.25781 -0.20313,-0.0859 -0.3164,0.77734 2.41797,0.97656 -2.84766,7.10938 1.23438,0.48828 z m 0,0"
       id="path28"
       inkscape:connector-curvature="0" />
    <path
       style="fill:#1e9745;fill-opacity:1;fill-rule:nonzero;stroke:none"
       d="m 668.62891,649.11719 -1.20704,0.72265 5.64063,9.26563 1.20703,-0.71875 -1.98437,-3.25391 0.66406,-2.41797 6.41406,2.5625 1.5,-0.89062 -7.57031,-2.9375 1.64062,-6.16016 -1.58203,0.94922 -1.90234,7.51563 z m 0,0"
       id="path30"
       inkscape:connector-curvature="0" />
    <path
       style="fill:#1e9745;fill-opacity:1;fill-rule:nonzero;stroke:none"
       d="m 656.80469,659.42187 c -0.17578,0.0859 -0.375,0.19922 -0.54688,0.34375 -0.23437,0.17188 -0.49219,0.40625 -0.6914,0.63282 l -3.54297,3.94531 4.78125,4.25781 v -1.83984 l -3.02344,-2.67578 2.41797,-2.70703 0.60547,-0.54688 z m 0.80468,8.0586 2.07032,-2.30469 0.48828,-0.45703 0.75,-0.40625 0.92187,0.0312 0.83203,0.42969 0.83594,0.60547 0.54688,0.40234 0.60547,0.40234 0.23046,0.0859 1.0625,-1.20703 -0.23046,-0.0312 -0.40235,-0.14063 -0.54687,-0.3164 -1.00782,-0.72266 c -0.23046,-0.14062 -0.46093,-0.3164 -0.71875,-0.45703 -0.14453,-0.11719 -0.28515,-0.20312 -0.46093,-0.26172 l -0.94922,-0.19922 -0.77735,0.19922 -0.25781,0.14453 0.11328,-0.34375 0.17578,-1.09375 -0.28906,-1.0664 -0.6914,-0.86328 c -0.17188,-0.17188 -0.40235,-0.31641 -0.63282,-0.42969 -0.20312,-0.11719 -0.42968,-0.23438 -0.66015,-0.28906 -0.28907,-0.0586 -0.57813,-0.0859 -0.86328,-0.0586 -0.26172,0.0274 -0.54688,0.0859 -0.8086,0.20313 -0.0273,0.0273 -0.0859,0.0547 -0.14062,0.0859 v 1.41016 l 0.22656,-0.20312 1.06641,-0.17188 0.97656,0.48828 0.60547,0.77735 0.17187,1.125 -0.45703,1.0039 -0.72266,0.86719 -1.83984,2.07031 -0.0273,-0.0273 v 1.83984 l 3.33593,2.96485 0.92188,-1.00782 z m 0,0"
       id="path32"
       inkscape:connector-curvature="0" />
    <path
       style="fill:#1e9745;fill-opacity:1;fill-rule:nonzero;stroke:none"
       d="m 708.89062,651.48047 h -2.35937 l -2.24219,0.14062 -2.24609,0.23047 -2.27344,0.26172 -2.24609,0.48828 -2.12891,0.375 -2.27344,0.63281 -2.1289,0.63282 -2.12891,0.74609 -2.12891,0.89453 -2.13281,0.86328 -2.01172,1.00782 -2.01562,1.12109 -1.98438,1.15234 -1.90234,1.1211 -1.87109,1.3789 -2.38672,1.8711 -2.2461,1.87109 -2.27343,2.16016 -2.12891,2.1289 -1.87109,2.35938 -1.89844,2.39062 -1.23828,1.89844 -1.26563,1.87109 -1.12109,2.01563 -1.125,1.98437 -1.00391,2.01563 -0.89453,2.12891 -0.75,2.01171 -0.74609,2.2461 -0.75,2.16015 -0.48828,2.12891 -0.51954,2.24609 -0.37109,2.26954 -0.375,2.24609 -0.25781,2.24609 -0.11719,2.27344 v 4.51953 l 0.11719,2.24219 0.25781,2.27344 0.375,2.24609 0.37109,2.27344 0.51954,2.24609 0.48828,2.12891 0.75,2.27344 0.74609,2.1289 0.75,2.12891 0.89453,1.98828 1.00391,2.15625 1.125,1.98828 1.12109,1.89844 1.26563,1.87109 1.23828,1.8711 1.89844,2.38671 1.87109,2.38672 2.12891,2.10157 2.27343,2.1289 2.2461,2.01563 2.38672,1.75781 1.87109,1.37891 1.90234,1.23828 1.98438,1.15234 2.01562,1.00781 2.01172,0.97657 2.13281,0.89062 2.12891,0.86719 2.12891,0.77344 2.1289,0.60546 2.27344,0.63282 2.12891,0.51953 2.24609,0.375 2.27344,0.23047 2.24609,0.25781 2.24219,0.11328 2.24609,0.14453 h 0.11328 v -3.74219 c -2.84765,0 -5.64062,-0.22656 -8.46093,-0.66015 -2.78907,-0.46094 -5.58203,-1.1211 -8.28516,-1.98438 -2.70703,-0.89453 -5.32422,-1.98828 -7.85937,-3.28125 -2.53125,-1.26562 -4.94922,-2.76562 -7.25,-4.43359 -2.30469,-1.66797 -4.46094,-3.48047 -6.47657,-5.49609 -2.01562,-2.01563 -3.85547,-4.17188 -5.52734,-6.47657 -1.66797,-2.30078 -3.16406,-4.74609 -4.45703,-7.28125 -1.29688,-2.53125 -2.36328,-5.14843 -3.25391,-7.85547 -0.89062,-2.70312 -1.55469,-5.46875 -1.98437,-8.25781 -0.46094,-2.82031 -0.66407,-5.67187 -0.66407,-8.49219 0,-2.84765 0.20313,-5.69921 0.66407,-8.48828 0.42968,-2.82031 1.09375,-5.58203 1.98437,-8.28906 0.89063,-2.70703 1.95703,-5.32422 3.25391,-7.85547 1.29297,-2.53515 2.78906,-4.98047 4.45703,-7.28125 1.67187,-2.27344 3.51172,-4.46094 5.52734,-6.44922 2.01563,-2.01172 4.17188,-3.88281 6.47657,-5.55078 2.30078,-1.67187 4.71875,-3.13672 7.25,-4.43359 2.53515,-1.29688 5.15234,-2.39063 7.85937,-3.25391 2.70313,-0.89062 5.49609,-1.55078 8.28516,-1.98437 2.82031,-0.46094 5.61328,-0.69141 8.46093,-0.69141 z m 57.84766,57.8164 -0.14453,-2.24609 -0.11328,-2.27344 -0.14453,-2.24609 -0.375,-2.24609 -0.375,-2.26954 -0.48828,-2.24609 -0.63282,-2.12891 -0.63672,-2.16015 -0.74609,-2.2461 -0.74609,-2.01171 -1.00782,-2.12891 -0.86328,-2.01563 -1.15234,-1.98437 -1.125,-2.01563 -1.23438,-1.87109 -1.26562,-1.89844 -1.87109,-2.39062 -2.01563,-2.35938 -2.01562,-2.1289 -2.24219,-2.16016 -2.27344,-1.87109 -2.38672,-1.8711 -1.87109,-1.3789 -2.01953,-1.1211 -1.86719,-1.15234 -2.01563,-1.12109 -1.98437,-1.00782 -2.16016,-0.86328 -2.1289,-0.89453 -2.12891,-0.74609 -2.13281,-0.63282 -2.24219,-0.63281 -2.27344,-0.375 -2.1289,-0.48828 -2.2461,-0.26172 -2.27343,-0.23047 -2.2461,-0.14062 h -2.27344 v 3.50781 c 2.85157,0 5.67188,0.23047 8.49219,0.69141 2.79297,0.43359 5.58203,1.09375 8.28906,1.98437 2.67579,0.86328 5.32032,1.95703 7.85547,3.25391 2.53125,1.29687 4.94922,2.76172 7.25,4.43359 2.30469,1.66797 4.46094,3.53906 6.47657,5.55078 2.01562,1.98828 3.85546,4.17578 5.52343,6.44922 1.67188,2.30078 3.16797,4.7461 4.46094,7.28125 1.29688,2.53125 2.36328,5.14844 3.25391,7.85547 0.86328,2.70703 1.55468,5.46875 1.98828,8.28906 0.42969,2.78907 0.66015,5.64063 0.66015,8.48828 0,2.82032 -0.23046,5.67188 -0.66015,8.49219 -0.4336,2.78906 -1.125,5.55469 -1.98828,8.25781 -0.89063,2.70704 -1.95703,5.32422 -3.25391,7.85547 -1.29297,2.53516 -2.78906,4.98047 -4.46094,7.28125 -1.66797,2.30469 -3.50781,4.46094 -5.52343,6.47657 -2.01563,1.98437 -4.17188,3.82812 -6.47657,5.49609 -2.30078,1.66797 -4.71875,3.16797 -7.25,4.43359 -2.53515,1.29297 -5.17968,2.38672 -7.85547,3.28125 -2.70703,0.86328 -5.49609,1.52344 -8.28906,1.98438 -2.82031,0.43359 -5.64062,0.66015 -8.49219,0.66015 v 3.74219 l 2.27344,-0.14453 2.2461,-0.11328 2.27343,-0.25781 2.2461,-0.23047 2.1289,-0.375 2.27344,-0.51953 2.24219,-0.63282 2.13281,-0.60546 2.12891,-0.77344 2.1289,-0.86719 2.16016,-0.89062 1.98437,-0.97657 2.01563,-1.00781 1.86719,-1.15234 2.01953,-1.23828 1.87109,-1.37891 2.38672,-1.75781 2.27344,-2.01563 2.24219,-2.1289 2.01562,-2.10157 2.01563,-2.38672 1.87109,-2.38671 1.26562,-1.8711 1.23438,-1.87109 1.125,-1.89844 1.15234,-1.98828 0.86328,-2.15625 1.00782,-1.98828 1.49218,-4.25781 0.63672,-2.27344 0.63282,-2.12891 0.48828,-2.24609 0.375,-2.27344 0.375,-2.24609 0.14453,-2.27344 0.11328,-2.24219 z m 0,0"
       id="path34"
       inkscape:connector-curvature="0" />
    <path
       style="fill:#1e9745;fill-opacity:1;fill-rule:nonzero;stroke:none"
       d="m 647.24609,678.27344 -3.5664,-0.28907 -0.69141,1.46485 4.25781,4.23437 v -1.87109 l -2.64453,-2.50391 2.64453,0.28516 z m 3.82813,1.72265 3.45312,0.34766 0.66407,-1.41016 -7.94532,-0.66015 v 1.32031 l 2.64844,0.28906 -1.4375,3.07813 -1.21094,-1.14844 v 1.87109 l 3.91407,3.91407 0.66406,-1.38282 -2.50391,-2.44531 z m 0,0"
       id="path36"
       inkscape:connector-curvature="0" />
    <path
       style="fill:#1e9745;fill-opacity:1;fill-rule:nonzero;stroke:none"
       d="m 645.75,744.66406 0.63672,1.26563 9.66797,-4.94922 -0.66407,-1.26563 -4.57421,2.35938 -2.64844,-5.20703 4.60547,-2.33203 -0.66407,-1.26563 -9.66796,4.92188 0.66406,1.26562 4.11328,-2.10156 2.64844,5.20703 z m 0,0"
       id="path38"
       inkscape:connector-curvature="0" />
    <path
       style="fill:#1e9745;fill-opacity:1;fill-rule:nonzero;stroke:none"
       d="m 641.72266,718.90625 -4.14454,2.44922 0.28907,1.58203 3.85547,0.66016 v -1.32422 l -2.64844,-0.3711 2.64844,-1.46875 z m 3.07812,-0.17188 3.02344,-1.72656 -0.28906,-1.52344 -5.8125,3.42188 v 1.52734 l 2.01562,-1.09375 0.60156,3.3086 -2.61718,-0.375 v 1.32422 l 7.51171,1.29687 -0.25781,-1.52734 -3.45703,-0.54688 z m 0,0"
       id="path40"
       inkscape:connector-curvature="0" />
    <path
       style="fill:#1e9745;fill-opacity:1;fill-rule:nonzero;stroke:none"
       d="m 636.6875,703.48047 -0.23047,1.75781 10.76172,1.41016 0.17187,-1.26563 -8.6914,-1.125 9.125,-2.30078 0.14453,-1.12109 -8.23047,-4.57813 8.69141,1.125 0.14062,-1.26953 -10.73437,-1.37891 -0.23047,1.72657 8.51953,4.71875 z m 0,0"
       id="path42"
       inkscape:connector-curvature="0" />
    <path
       style="fill:#1e9745;fill-opacity:1;fill-rule:nonzero;stroke:none"
       d="m 678.61719,723.3125 -0.14453,0.17187 -1.00782,-0.77734 -0.83203,0.63281 -1.26953,-0.89062 -1.69531,1.0625 1.8125,3.59765 -0.57813,0.20313 -0.22656,0.94922 0.51563,0.91797 0.34765,0.32031 -3.82812,3.22266 0.57422,2.21484 1.58203,-0.40234 0.34765,1.49609 2.07032,-0.54688 0.54687,1.17969 1.78516,-0.48828 v -6.24609 c -0.31641,-0.0859 -0.63282,-0.17188 -0.92188,-0.28907 -0.48828,-0.17187 -0.92187,-0.34375 -1.38281,-0.57421 l -0.6875,-0.60547 -0.0312,-0.3711 0.40234,-0.14453 0.57813,0.14453 2.04297,0.80469 z m 0,-18.19141 -3.76953,-3.45312 -2.50391,-0.66016 -0.375,1.1211 -1.32422,-0.31641 -0.51562,1.12109 -1.32422,-0.45703 -0.40625,1.00391 -1.4961,-0.51563 -0.83203,1.09375 -1.21094,-0.57812 -0.77734,1.00781 -1.86719,-0.71875 -1.26953,1.29688 2.35938,3.625 h -0.71875 c -0.19922,0 -0.40235,0 -0.57422,0.0273 -0.28906,0.0273 -0.54688,0.11719 -0.80469,0.23047 -0.14453,0.0859 -0.26172,0.20312 -0.34766,0.34765 -0.0859,0.17188 -0.14453,0.375 -0.0859,0.57422 0.0586,0.28907 0.17187,0.60547 0.34765,0.86328 0.14063,0.20313 0.31641,0.40235 0.54297,0.54688 0.17578,0.14453 0.40625,0.23047 0.63672,0.28906 l 1.09375,0.19922 -2.9375,2.79297 -0.0586,1.98437 2.33203,0.11719 0.375,1.20703 2.47265,-0.66015 0.66407,1.23437 1.95703,-0.77344 0.71875,1.35157 2.39062,-1.41016 0.94922,0.83203 2.41797,-1.3789 1.14844,0.97656 2.10156,-1.03516 0.69141,-2.1875 v -6.64844 l -2.87891,1.15235 c -0.86328,0.25781 -1.75391,0.54687 -2.64844,0.77734 -0.42968,0.14453 -0.86328,0.23047 -1.32031,0.34375 -0.63672,0.14453 -1.26953,0.23047 -1.92969,0.31641 -0.71875,0.0859 -1.4414,0.14453 -2.1875,0.17578 -0.57422,0.0273 -1.17968,0.0273 -1.78515,0 -0.51563,0 -1.03516,-0.0586 -1.55469,-0.11719 -0.28516,-0.0273 -0.57422,-0.0859 -0.83203,-0.14453 -0.28906,-0.0859 -0.57813,-0.17187 -0.83594,-0.28516 l -0.42969,-0.34765 0.0859,-0.25781 0.42969,-0.0586 0.89062,0.14453 c 0.57813,0.0859 1.15235,0.17188 1.73047,0.19922 0.54297,0.0586 1.1211,0.0586 1.69531,0.0586 0.69141,-0.0274 1.38282,-0.0859 2.10157,-0.17188 0.80468,-0.11328 1.61328,-0.25781 2.41797,-0.46094 0.57421,-0.14453 1.17968,-0.3164 1.72656,-0.48828 0.51953,-0.17187 1.03515,-0.34765 1.55469,-0.54687 l 3.76953,-1.52735 z m 0,-25.26562 -2.47657,0.71875 c -0.37109,0.0859 -0.71875,0.23047 -1.03515,0.43359 -0.23047,0.14063 -0.42969,0.3125 -0.60547,0.51563 l -0.0273,0.75 0.77734,0.23047 0.97656,-0.11719 2.39063,-0.40235 z m 0,-2.99219 v 2.12891 c -0.48828,0.0859 -0.94922,0.17187 -1.4375,0.25781 l -2.6211,0.54687 -1.09375,-0.0273 -0.3164,-0.46094 0.23047,-0.63281 0.57421,-0.28906 1.95704,-0.77735 c 0.57812,-0.20312 1.17968,-0.375 1.78515,-0.51562 0.31641,-0.0898 0.60547,-0.14844 0.92188,-0.23047 m 0,-3.25391 -3.13672,0.86329 -2.84766,0.92187 -0.86328,0.63281 -0.20312,0.66016 0.48828,0.57812 h 1.03515 l 2.87891,-0.57812 c 0.89453,-0.17188 1.75781,-0.31641 2.64844,-0.46094 z m 21.55468,72.32032 -1.00781,-0.0859 -3.16406,-4.42969 -2.30469,-0.54687 -0.57422,1.12109 -1.69922,-0.46094 -0.42968,1.15235 -1.38282,-0.48828 -0.19921,1.23437 -1.00782,-0.77734 -0.46093,0.98047 -1.20704,-1.00782 -0.375,1.09375 -1.125,-1.00781 -0.48828,1.06641 -1.12109,-0.92188 -1.29688,1.64063 1.41016,3.19531 -0.80469,0.28516 -0.17187,0.95312 0.54687,0.86328 0.48828,0.28516 -2.44531,2.27344 0.42969,1.78515 1.72656,-0.51953 0.375,1.17969 1.41016,-0.80469 0.6914,1.32422 1.4961,-1.09375 0.6914,1.15234 1.4961,-1.09375 0.77734,1.03516 1.15235,-0.94922 0.74609,0.89063 1.46875,-1.03516 0.80469,0.92187 2.21875,-1.26562 1.83984,-4.98047 c 0.375,0 0.75,0 1.09375,0.0312 h 0.40234 v -0.89453 c -0.46093,-0.0586 -0.92187,-0.0586 -1.38281,-0.0273 -0.17187,0.0273 -0.34375,0.0273 -0.48828,0.0547 -0.34375,0.0586 -0.66016,0.14453 -1.00781,0.20313 l -3.13672,0.92187 c -0.375,0.0859 -0.74609,0.17188 -1.09375,0.25782 -0.40234,0.0859 -0.80469,0.17187 -1.20703,0.25781 -0.54688,0.0898 -1.06641,0.14453 -1.61328,0.17578 -0.48828,0.0547 -0.97657,0.0859 -1.46485,0.11328 -0.49218,0 -1.00781,0 -1.49609,-0.0273 -0.49219,-0.0312 -0.95313,-0.0586 -1.44141,-0.11719 -0.3164,-0.0273 -0.66015,-0.11328 -0.94922,-0.23047 -0.28906,-0.0859 -0.54687,-0.19922 -0.77734,-0.31641 l -0.34375,-0.40234 0.0859,-0.375 0.3164,-0.0859 0.77735,0.0859 c 0.37109,0.0898 0.77734,0.14453 1.15234,0.20313 0.51563,0.0586 1.03516,0.0859 1.52344,0.0859 0.60547,0 1.20703,0 1.8125,-0.0586 0.54687,-0.0273 1.06641,-0.0859 1.58203,-0.17188 0.28906,-0.0586 0.57813,-0.11328 0.83594,-0.17187 0.54687,-0.14453 1.09375,-0.25781 1.64062,-0.40234 l 2.04297,-0.69141 1.38281,-0.48828 c 0.46094,-0.11719 0.89063,-0.17188 1.35157,-0.20313 0.57422,-0.0273 1.17968,-0.0273 1.7539,0.0586 0.0586,0 0.11719,0 0.14453,0.0273 z m -21.55468,-9.75391 v -6.24609 c 0.17187,0.0586 0.375,0.0859 0.54687,0.14453 0.77735,0.17187 1.55469,0.3164 2.33203,0.375 0.71875,0.0859 1.46485,0.11328 2.1875,0.0859 l 4.25782,-0.34766 6.96484,-1.52344 c 0.42969,-0.0859 0.83203,-0.17187 1.26562,-0.23047 0.40235,-0.0586 0.77735,-0.11718 1.17969,-0.14453 0.57813,-0.0586 1.15235,-0.0586 1.72656,-0.0273 0.375,0.0547 0.75,0.11328 1.09375,0.19922 v 1.00781 c -0.3164,-0.0859 -0.6914,-0.17188 -1.03515,-0.19922 -0.375,-0.0586 -0.77735,-0.0586 -1.17969,-0.0312 -0.66406,0.0312 -1.29687,0.11719 -1.92969,0.23047 -0.86328,0.17187 -1.72656,0.34766 -2.58984,0.57812 l -3.05078,6.70313 -1.32422,0.75 -0.71875,-0.89453 -1.35156,1.0664 -1.00782,-0.98046 -1.00781,0.72265 -0.63281,-0.95312 -1.58203,0.80859 -0.71875,-0.98047 -2.35938,1.00781 L 679.25,736.004 Z m 21.55468,-10.35937 c -0.42968,-0.0586 -0.89062,-0.0586 -1.35156,-0.0312 -0.54687,0.0586 -1.09375,0.11718 -1.64062,0.20312 -0.69141,0.11328 -1.38282,0.23047 -2.07422,0.40234 l -2.26953,0.51563 -4.11719,-5.72656 -2.01563,-0.23047 -0.40234,1.0664 -1.15234,-0.46093 -0.48828,1.12109 -1.17969,-0.63281 -0.94922,1.17969 -1.52734,-0.89063 -0.80469,0.92188 -0.92188,-0.66407 -0.66015,0.72266 v 5.58203 l 0.0273,0.0273 c 0.34766,0.14454 0.71875,0.23047 1.09375,0.25782 1.15234,0.14453 2.27344,0.23047 3.39844,0.26172 0.74609,0 1.49609,0 2.24219,-0.0312 0.66406,0 1.32421,-0.0547 1.98828,-0.11329 0.48828,-0.0586 0.97656,-0.14453 1.46484,-0.23046 0.40234,-0.0586 0.83594,-0.14454 1.23828,-0.25782 l 5.4961,-1.46875 c 0.54687,-0.11328 1.09375,-0.23047 1.67187,-0.3164 0.40234,-0.0586 0.83203,-0.11719 1.29297,-0.14453 0.54687,-0.0586 1.09375,-0.0586 1.64062,0.0273 z m 0,-14.5625 v 11.51171 c -0.57421,0.14063 -1.20703,0.23047 -1.8125,0.25782 -0.77734,0.0273 -1.55468,-0.0274 -2.30078,-0.17188 -0.63281,-0.14453 -1.23828,-0.375 -1.8164,-0.6914 -0.60157,-0.31641 -1.14844,-0.75 -1.60938,-1.23829 -0.48828,-0.51953 -0.92187,-1.12109 -1.23828,-1.78515 -0.34375,-0.63281 -0.54687,-1.29297 -0.69141,-2.01172 -0.11328,-0.66406 -0.14453,-1.38281 -0.0586,-2.07422 0.0586,-0.54687 0.20313,-1.0625 0.40625,-1.58203 0.17188,-0.48828 0.46094,-0.94922 0.77734,-1.38281 0.17188,-0.23047 0.3711,-0.48828 0.57422,-0.71875 0.28907,-0.31641 0.57422,-0.63282 0.86328,-0.94922 l 0.0273,1.09375 c 0.0312,0.3164 0.0859,0.60547 0.20312,0.89062 0.0859,0.20313 0.19922,0.375 0.34375,0.54688 0.23047,0.23047 0.51953,0.40234 0.83594,0.51953 0.42969,0.14453 0.92188,0.19922 1.41016,0.19922 0.51953,-0.0273 1.0625,-0.11328 1.55468,-0.31641 0.51563,-0.19922 0.94922,-0.46094 1.35157,-0.80469 0.43359,-0.40234 0.83593,-0.80468 1.17968,-1.29296 m 0,-33.64454 c -0.11328,0.0586 -0.25781,0.11719 -0.40234,0.14454 l -1.52734,0.71875 -0.17188,-0.98047 c -0.0859,-0.3711 -0.23047,-0.71875 -0.40234,-1.0625 -0.17188,-0.28907 -0.375,-0.57422 -0.60547,-0.80469 -0.60156,-0.57813 -1.29297,-1.09375 -2.04297,-1.46875 -0.91797,-0.48828 -1.89844,-0.86328 -2.90625,-1.15234 -0.94922,-0.23047 -1.89844,-0.42969 -2.84766,-0.54688 -0.98046,-0.11328 -1.92968,-0.14453 -2.90625,-0.14453 -0.86328,0.0312 -1.75781,0.0898 -2.64843,0.20312 -1.1211,0.17188 -2.2461,0.375 -3.33985,0.63282 l -1.7539,0.46093 v 2.61719 c 0.11328,-0.0273 0.23047,-0.0547 0.34375,-0.0547 0.28906,-0.0586 0.54687,-0.0859 0.83593,-0.11718 0.28907,0 0.57422,-0.0274 0.86329,0 0.6914,0.0312 1.38281,0.0859 2.07031,0.14453 l -2.64453,0.40234 c -0.49219,0.0859 -0.98047,0.17188 -1.46875,0.26172 v 2.12891 c 0.54687,-0.0899 1.09375,-0.17578 1.64062,-0.23047 0.60547,-0.0859 1.17969,-0.11719 1.78516,-0.11719 0.19922,0 0.40234,0 0.60156,0.0312 0.51953,0.0273 1.03906,0.0859 1.55469,0.14063 -1.09375,0.14453 -2.1875,0.28906 -3.28125,0.46093 -0.31641,0.0312 -0.63281,0.11719 -0.94922,0.20313 l -1.35156,0.375 v 2.1289 l 1.17968,-0.17187 c 0.83594,-0.14453 1.69922,-0.20313 2.53125,-0.20313 0.57813,0 1.15235,0.0586 1.72657,0.17188 0.20312,0.0312 0.43359,0.0859 0.63281,0.14453 0.43359,0.11719 0.83594,0.26172 1.26953,0.40234 l -2.53516,0.77735 c -0.46093,0.14453 -0.89062,0.34375 -1.26562,0.63281 -0.28906,0.20313 -0.48828,0.46094 -0.63281,0.75 l 0.0586,0.51953 0.54688,0.19922 c 0.17187,0.0273 0.375,0.0273 0.57421,0.0273 0.4336,0 0.89454,-0.0273 1.35157,-0.0273 0.34765,-0.0273 0.72265,0 1.0664,0.0273 0.77735,0.0586 1.55469,0.14454 2.30078,0.26172 -0.28515,0.11328 -0.54687,0.25782 -0.80468,0.40235 -0.17188,0.0859 -0.31641,0.17187 -0.48828,0.28906 l -0.86329,0.89062 -0.23046,0.7461 0.25781,0.23047 0.92187,-0.0547 c 0.28907,-0.0898 0.60547,-0.11719 0.92188,-0.11719 0.42969,-0.0273 0.89062,0 1.32422,0.0586 l 1.7539,0.25781 -2.10156,2.24609 -0.11328,0.7461 0.60156,0.28906 4.28906,-0.40235 -1.69531,1.4961 -0.20312,0.80859 0.57422,0.19922 4.49218,-0.92187 -1.32422,2.04296 0.0547,0.375 h 0.375 l 3.28125,-1.0625 -2.07031,4 -1.32422,0.14063 -0.72266,-0.54688 -0.40234,0.0586 -0.91797,0.375 -0.51953,0.66015 -0.375,1.00782 c -0.91797,0.34765 -1.8125,0.6914 -2.73437,1.0664 -0.23047,0.0859 -0.48829,0.19922 -0.71875,0.31641 l -6.90625,3.39453 c -0.14454,0.0586 -0.28907,0.14453 -0.4336,0.17188 -0.74609,0.28906 -1.49609,0.57812 -2.27344,0.86328 l -0.42968,-0.40235 v 1.8125 l 1.69922,-0.6875 3.16406,-1.38281 5.98437,-2.84766 c 0.55078,-0.23046 1.06641,-0.46093 1.61328,-0.66406 0.46094,-0.19922 0.92188,-0.34375 1.41016,-0.48828 0.25781,-0.0859 0.54688,-0.14453 0.83594,-0.20312 0.57422,-0.11329 1.14844,-0.23047 1.72656,-0.34375 l -0.23047,0.60546 -0.0859,0.48829 c -0.49218,0.0859 -0.98046,0.17187 -1.46875,0.28515 -0.23046,0.0586 -0.46093,0.11719 -0.6914,0.20313 -0.42969,0.11718 -0.86328,0.25781 -1.26563,0.43359 -0.34375,0.14453 -0.6914,0.28516 -1.03515,0.45703 l -5.17969,2.64844 -2.64844,1.17969 -3.82812,1.55468 v 6.64844 l 2.01562,-6.27344 2.64453,-1.00781 7.6875,-3.71094 c 0.51563,-0.26171 1.0625,-0.48828 1.63672,-0.71875 0.34766,-0.11718 0.66406,-0.23046 1.03906,-0.32031 0.11329,-0.0273 0.25782,-0.0273 0.40235,-0.0547 0.3164,-0.0586 0.66015,-0.0859 0.97656,-0.11718 0.11719,0.23047 0.26172,0.43359 0.43359,0.63672 0.11329,0.14062 0.25782,0.28515 0.40235,0.37109 l 0.86328,0.0273 0.17187,-0.14062 -0.17187,-0.51953 v -0.31641 c 0.69141,0.0586 1.41016,0.14453 2.10156,0.28906 0.34375,0.0547 0.66016,0.17188 0.97656,0.28907 0.14454,0.0547 0.26172,0.11328 0.375,0.17187 v -1.26953 c -0.42968,-0.17188 -0.86328,-0.31641 -1.32421,-0.40234 -0.19922,-0.0586 -0.40235,-0.0859 -0.57422,-0.14454 -0.40235,-0.0547 -0.80469,-0.11328 -1.17969,-0.17187 l 0.23047,-0.69141 0.48828,-0.6875 c 0.60547,0 1.20703,0.0274 1.8125,0.0859 0.20312,0 0.375,0.0273 0.54687,0.0547 v -1.89844 l -0.23046,-0.46094 -1.1211,0.0859 1.35156,-2.93359 z m 0,71.31641 v -0.89453 h 0.0273 c 0.57812,0.0586 1.15234,0.17187 1.69922,0.34766 0.54687,0.17187 1.09375,0.40234 1.58203,0.6875 0.46094,0.26171 0.86328,0.54687 1.23828,0.86328 0.375,0.34765 0.71875,0.77734 1.00781,1.23828 0.28906,0.48828 0.48828,1.03515 0.63281,1.61328 0.0586,0.19922 0.0859,0.375 0.14454,0.57422 v 7.16797 l -0.69141,-0.46094 -0.0586,-6.35938 c -0.11329,-0.40625 -0.25782,-0.80859 -0.40235,-1.18359 -0.11328,-0.25781 -0.23047,-0.51562 -0.34375,-0.77344 -0.23047,-0.43359 -0.48828,-0.80859 -0.83594,-1.15234 -0.40234,-0.375 -0.83203,-0.71875 -1.29296,-0.94922 -0.34766,-0.17187 -0.72266,-0.34766 -1.09375,-0.46094 -0.375,-0.11718 -0.77735,-0.17187 -1.15235,-0.23047 -0.14453,0 -0.3164,0 -0.46094,-0.0273 m 0,-19.45703 c 0.0273,0.0312 0.0859,0.0312 0.11719,0.0312 0.57422,0.19922 1.1211,0.45703 1.64063,0.80469 0.57422,0.34375 1.08984,0.74609 1.55078,1.20703 0.43359,0.43359 0.83594,0.92187 1.17969,1.4414 0.26171,0.42969 0.49218,0.89063 0.66406,1.37891 0.0859,0.23047 0.14453,0.46094 0.19922,0.66406 0.11718,0.46094 0.20312,0.91797 0.28906,1.37891 l 0.11719,11.97266 c -0.4336,-0.31641 -0.86719,-0.66016 -1.29688,-0.94922 -0.23047,-0.17188 -0.46094,-0.28907 -0.6914,-0.42969 -0.51563,-0.26172 -1.03516,-0.46094 -1.58204,-0.63672 -0.63281,-0.17187 -1.29687,-0.28516 -1.98437,-0.37109 l -0.20313,-0.0312 v 0.77734 c 0.60547,0.0859 1.17969,0.20313 1.75782,0.40234 0.60156,0.17579 1.17578,0.4336 1.72265,0.72266 0.46094,0.25781 0.89453,0.54688 1.23828,0.86328 0.375,0.28516 0.71875,0.63281 1.00782,1.00391 l 0.60547,0.80859 v -16.20312 c -0.0274,0 -0.0274,-0.0312 -0.0274,-0.0312 -0.11719,-0.34375 -0.28906,-0.66016 -0.46094,-0.97657 -0.3164,-0.51953 -0.66406,-1.03515 -1.0664,-1.49609 -0.375,-0.48828 -0.80469,-0.92187 -1.29688,-1.32422 -0.54687,-0.48828 -1.14843,-0.92187 -1.78125,-1.32422 -0.43359,-0.25781 -0.89453,-0.46093 -1.38281,-0.60547 -0.11328,-0.0273 -0.19922,-0.0547 -0.31641,-0.0859 z m 0,-26.04297 v -1.26953 c 0.20313,0.0586 0.375,0.11719 0.54688,0.20312 0.63281,0.25782 1.23828,0.60547 1.78516,0.98047 0.66015,0.42969 1.23828,0.91797 1.78515,1.46485 0.51563,0.54687 1.00781,1.15234 1.41016,1.78515 0.3164,0.4336 0.57422,0.89063 0.80469,1.35157 v 23.10937 c -0.23047,-0.25781 -0.4336,-0.51562 -0.66016,-0.77734 -0.26172,-0.28516 -0.51953,-0.60157 -0.80859,-0.89063 -0.375,-0.40234 -0.80469,-0.77734 -1.29297,-1.12109 -0.51953,-0.34766 -1.06641,-0.63281 -1.67188,-0.86328 -0.54687,-0.23047 -1.12109,-0.40235 -1.69531,-0.49219 h -0.20313 v -1.08984 c 0.25782,0 0.51954,0.0547 0.77735,0.0859 0.63281,0.11328 1.26562,0.34375 1.83984,0.63282 0.46094,0.23046 0.89453,0.48828 1.29688,0.77734 0.66015,0.48828 1.32422,1.00391 1.95703,1.55078 l 0.40234,-11.71094 -1.78515,2.5625 c -0.3711,0.48828 -0.80469,0.94922 -1.26563,1.35157 -0.42969,0.375 -0.92187,0.6914 -1.41016,0.97656 -0.51562,0.28906 -1.0625,0.51953 -1.64062,0.66406 -0.0547,0.0273 -0.11328,0.0273 -0.17188,0.0586 v -11.51171 c 0.0586,-0.0586 0.11719,-0.11719 0.17188,-0.20313 0.43359,-0.63281 0.80469,-1.29687 1.09375,-1.98437 0.17187,-0.40625 0.28906,-0.8086 0.40234,-1.21094 0.11719,-0.40235 0.20313,-0.80469 0.26172,-1.20703 0.0274,-0.20313 0.0547,-0.40235 0.0547,-0.63282 0.0312,-0.40234 0.0312,-0.80468 0.0586,-1.23828 -0.51562,-0.375 -1.03515,-0.75 -1.58203,-1.09375 -0.14453,-0.0859 -0.28906,-0.17187 -0.46094,-0.25781 m 6.33204,-44.75391 c -0.28907,0.0859 -0.54688,0.20313 -0.77735,0.31641 -0.3164,0.17188 -0.63281,0.375 -0.89062,0.60547 -0.17578,0.17187 -0.375,0.40234 -0.51953,0.63281 l -0.48829,1.125 h -1.125 l -1.14843,0.3125 -0.49219,0.51953 0.14453,0.66407 0.54688,0.22656 0.77734,-0.11328 0.63281,0.23047 0.60547,0.86328 c 0.14453,0.3164 0.34375,0.63281 0.57422,0.92187 0.14453,0.17188 0.31641,0.31641 0.49219,0.42969 l 0.80468,0.23047 c -0.0586,0.34765 -0.0859,0.71875 -0.11718,1.09375 0,0.0859 0,0.17187 0.0312,0.25781 l 0.66015,2.47656 c 0.0859,0.25782 0.0859,0.51953 0.0312,0.77735 -0.14453,0.54687 -0.3164,1.0664 -0.57812,1.58203 L 704,675.30859 c -0.0586,0.11328 -0.11328,0.22657 -0.14453,0.3711 -0.20313,0.54687 -0.375,1.09375 -0.54688,1.67187 -0.34375,-0.0312 -0.71875,-0.0312 -1.0625,-0.0312 -0.20312,0 -0.43359,0 -0.63672,0.0312 -0.3125,0 -0.63281,0.0547 -0.91796,0.14063 -0.17579,0.0312 -0.34766,0.0898 -0.51954,0.11718 v 17.38282 l 0.0859,-0.17188 0.48828,1.41016 c 0.14453,0.40234 0.28907,0.83203 0.4336,1.29297 0.0586,0.17187 0.11718,0.34765 0.14453,0.51953 0.0273,0.17187 0.0586,0.34375 0.0859,0.51953 0.0586,0.34375 0.11328,0.6875 0.14453,1.00391 l -0.83594,-0.28516 -0.54688,-0.98047 v 1.89844 c 0.14454,0.0312 0.25782,0.0312 0.375,0.0586 0.63282,0.14453 1.26563,0.34766 1.83985,0.60547 0.77734,0.375 1.52734,0.77734 2.21875,1.26563 0.45703,0.34765 0.91797,0.71875 1.3789,1.125 0.17188,0.17187 0.34766,0.3125 0.51954,0.45703 V 661.4375 h -0.83594 l 0.0312,-0.26172 0.11328,-0.25781 0.17187,-0.17188 0.23047,-0.14453 0.26172,-0.0312 h 0.0274 z m 0,72.37891 v -23.10937 c 0.11328,0.28906 0.25781,0.57812 0.375,0.86328 0.25781,0.66406 0.46093,1.35547 0.54687,2.07422 0.0859,0.63281 0.14063,1.26562 0.17188,1.89843 0.0586,0.94922 0.0586,1.89844 0.0273,2.84766 l -0.71875,15.91797 c -0.14453,-0.17578 -0.28906,-0.34766 -0.40234,-0.49219 m 0,19.45703 0.23046,0.375 0.11329,-13.84375 c 0,-0.375 -0.0274,-0.75 -0.0274,-1.125 -0.0273,-0.22656 -0.0586,-0.45703 -0.0859,-0.66015 -0.0586,-0.31641 -0.14453,-0.63282 -0.23046,-0.94922 z m 0,10.01563 v -7.16797 c 0,0.0859 0.0273,0.17187 0.0273,0.25781 0.0586,0.34766 0.11719,0.72266 0.17187,1.06641 l -0.0273,4.80468 1.92969,1.23829 1.98437,-1.17969 -0.0273,-5.38281 c 0.0859,-0.45704 0.17187,-0.89063 0.28906,-1.32032 0.0547,-0.20312 0.11328,-0.40625 0.19922,-0.60547 0.20313,-0.54687 0.48828,-1.03515 0.83594,-1.46875 0.48828,-0.60546 1.03515,-1.09375 1.63672,-1.55468 0.63281,-0.48828 1.32812,-0.89063 2.07422,-1.23828 0.51562,-0.23047 1.09375,-0.3711 1.67187,-0.42969 0.19922,-0.0273 0.40234,-0.0586 0.62891,-0.0586 v 0.92188 h -0.3125 c -0.14844,0 -0.28907,0.0273 -0.4336,0.0273 -0.375,0.0586 -0.71875,0.17578 -1.0664,0.34766 -0.51953,0.23047 -1.00782,0.51562 -1.46875,0.86328 -0.48438,0.31641 -0.91797,0.69141 -1.32032,1.12109 -0.375,0.40235 -0.6914,0.83594 -0.98046,1.32422 -0.11719,0.19922 -0.23047,0.40235 -0.31641,0.60547 -0.19922,0.42969 -0.37109,0.86328 -0.54688,1.26563 l -0.11328,6.10156 -2.70703,1.98437 z m 11.39453,-82.94141 c -0.0859,0 -0.14063,-0.0312 -0.19922,-0.0586 -0.375,-0.0586 -0.71875,-0.11719 -1.09375,-0.14453 -0.31641,-0.0274 -0.63281,-0.0274 -0.95313,0 -0.66015,0.0586 -1.29297,0.14453 -1.95312,0.25781 -0.14453,-0.97656 -0.34375,-1.92578 -0.57813,-2.875 -0.0586,-0.34766 -0.17187,-0.72266 -0.3125,-1.03906 l -1.35547,-3.48047 c -0.19921,-0.51953 -0.34765,-1.06641 -0.375,-1.60938 -0.0586,-0.57812 -0.0586,-1.18359 0.0586,-1.78515 l 0.34375,-1.75782 c 0.11719,-0.48828 0.20312,-1.0039 0.26172,-1.52343 0.0273,-0.4336 0.0273,-0.89454 0,-1.32422 -0.0274,-0.54688 -0.14453,-1.06641 -0.375,-1.55469 -0.20313,-0.42969 -0.51563,-0.86328 -0.86328,-1.17969 -0.28516,-0.28906 -0.63282,-0.48828 -1.00782,-0.63281 -0.40234,-0.17188 -0.86328,-0.28906 -1.32422,-0.34766 -0.42968,-0.0273 -0.86328,-0.0273 -1.26562,0.0586 -0.14453,0.0273 -0.28906,0.0586 -0.40234,0.0859 v 1.89844 l 0.23046,0.0312 0.23047,0.11328 0.17188,0.20313 0.14453,0.23047 0.0273,0.23047 -0.0547,0.28515 -0.69141,-0.22656 h -0.0586 v 42.27344 c 0.25781,0.28906 0.51562,0.54687 0.77734,0.83593 l 1.37891,1.69922 c 0.43359,-0.51953 0.83593,-1.03515 1.26953,-1.55468 0.22656,-0.25782 0.46093,-0.49219 0.6875,-0.71875 0.40234,-0.40625 0.86328,-0.77735 1.35547,-1.09375 0.71875,-0.49219 1.46484,-0.94922 2.24609,-1.35547 0.63281,-0.31641 1.32031,-0.63282 1.98437,-0.91797 0.54297,-0.23047 1.1211,-0.4336 1.69532,-0.57813 v -1.83984 l -0.11328,0.11328 -0.31641,0.57813 -1.55469,0.48828 c 0,-0.40235 0.0274,-0.80469 0.0859,-1.21094 0.0273,-0.28516 0.0586,-0.54688 0.11328,-0.83203 0.0898,-0.40235 0.20313,-0.77735 0.375,-1.15235 0.17188,-0.40234 0.40625,-0.77734 0.66406,-1.15234 0.17188,-0.19922 0.31641,-0.40234 0.48828,-0.60547 0.0859,-0.11328 0.17188,-0.19922 0.25782,-0.3125 z m 0,48.11719 v 0.94922 c -0.77735,0.20312 -1.52344,0.46093 -2.26953,0.75 -0.63672,0.28515 -1.23829,0.60156 -1.84375,0.97656 -0.54688,0.375 -1.09375,0.77734 -1.58594,1.23828 -0.19922,0.20313 -0.39844,0.43359 -0.60156,0.63281 -0.40625,0.4336 -0.77735,0.89063 -1.15235,1.35157 l -0.34375,-19.28125 c 0.0274,-0.54688 0.0859,-1.1211 0.14063,-1.66797 0.0312,-0.28907 0.0625,-0.54688 0.14843,-0.83594 0.14063,-0.69141 0.375,-1.37891 0.71485,-2.04297 0.375,-0.77734 0.86719,-1.52344 1.41406,-2.1875 0.54297,-0.71875 1.17969,-1.35156 1.89844,-1.92969 0.6875,-0.54297 1.46875,-1.03515 2.27344,-1.4375 0.375,-0.19922 0.77734,-0.375 1.20703,-0.51953 v 1.41406 c -0.25782,0.11329 -0.48828,0.25782 -0.71875,0.40235 -0.69141,0.40234 -1.35157,0.83203 -1.98438,1.32422 0.0274,0.54687 0.0859,1.09375 0.14453,1.66797 0.0274,0.42968 0.0859,0.86328 0.17188,1.26562 0.14062,0.89063 0.42969,1.72656 0.83594,2.53125 0.42968,0.75 0.92187,1.46875 1.55078,2.07422 v 10.01562 c -0.14063,-0.0312 -0.25782,-0.0859 -0.40235,-0.11718 -0.80468,-0.28516 -1.58203,-0.66016 -2.27343,-1.1211 -0.63282,-0.40234 -1.17969,-0.92187 -1.64063,-1.49609 -0.37109,-0.51953 -0.74609,-1.03516 -1.0625,-1.55469 -0.49219,-0.83594 -0.92187,-1.66797 -1.35547,-2.5039 l 0.26172,13.21093 c 0.375,-0.3164 0.77344,-0.60547 1.17969,-0.89453 0.23047,-0.19922 0.48828,-0.37109 0.75,-0.54687 0.57422,-0.3711 1.17578,-0.69141 1.83984,-0.94922 0.71875,-0.28516 1.4375,-0.51563 2.1875,-0.66016 0.17188,-0.0312 0.34375,-0.0586 0.51563,-0.0586 m -6.47266,9.4414 c 0.40234,-0.66406 0.80469,-1.29687 1.26563,-1.92968 0.3164,-0.46094 0.6914,-0.92188 1.0664,-1.38282 0.48828,-0.57421 1.0625,-1.09375 1.69531,-1.52343 0.60547,-0.40235 1.23829,-0.75 1.92969,-0.94922 0.17188,-0.0586 0.34375,-0.11719 0.51563,-0.14453 v -1.1211 c -0.375,0.0859 -0.71875,0.19922 -1.0625,0.34375 -0.69141,0.34375 -1.38282,0.71875 -2.01563,1.15235 -0.6875,0.48828 -1.32422,1.03515 -1.92578,1.60937 -0.54687,0.54688 -1.06641,1.125 -1.55469,1.72656 -0.26172,0.31641 -0.46093,0.66407 -0.63672,1.03907 -0.0273,0.11328 -0.0859,0.19922 -0.11328,0.3125 -0.0586,0.32031 -0.14453,0.63672 -0.19922,0.95312 l 0.0273,15.42578 c 0.23047,-0.28906 0.43359,-0.60547 0.63281,-0.89453 0.11328,-0.14453 0.23047,-0.28515 0.34375,-0.42969 0.23438,-0.23046 0.46094,-0.43359 0.69141,-0.63281 0.26172,-0.23047 0.54687,-0.43359 0.83593,-0.63672 0.60157,-0.40234 1.26563,-0.77343 1.92969,-1.08984 0.42969,-0.20313 0.86328,-0.375 1.32422,-0.49219 0.37109,-0.0859 0.77344,-0.14453 1.17969,-0.17187 0.16797,0 0.34375,0 0.54297,0.0273 v -0.60156 c -0.34375,0.0273 -0.71875,0.0547 -1.0625,0.0859 -0.20313,0 -0.40235,0.0273 -0.63282,0.0859 -0.55078,0.0859 -1.09765,0.23047 -1.61328,0.42969 -0.51953,0.17578 -1.03515,0.43359 -1.49609,0.72266 l -1.69922,1.09375 z m 6.47266,13.26563 c 0.23437,0 0.46093,0.0273 0.71875,0.0273 l 2.62109,5.58594 1.64063,1.0625 0.75,-1.00781 1.58203,1.26562 0.6875,-1.0039 1.90234,1.14843 0.54688,-1.12109 1.66796,0.92188 0.71875,-1.09375 1.52735,0.80468 0.51562,-1.15234 1.69922,0.75 0.42969,-1.4375 1.03906,0.34375 0.40235,-2.10156 -2.58985,-2.1875 0.51563,-0.66016 -0.22657,-0.94922 -0.375,-0.23047 1.38282,-2.53515 -0.49219,-1.41016 -1.55078,0.54688 -0.14844,-0.97657 -1.09375,0.63282 -0.34375,-1.03516 -1.37891,0.91797 -0.40234,-1.00391 -1.61328,0.54688 -0.28906,-1.03907 -1.64063,0.49219 -0.28906,-0.94922 -1.26172,0.40235 -0.40625,-1.09375 -2.1875,0.3164 -3.82422,4.54688 h -0.23437 v 0.60156 c 0.32031,0 0.63281,0.0312 0.95312,0.0898 l 2.67188,0.51563 3.22656,0.77734 c 0.60547,0.14453 1.20703,0.28907 1.8125,0.375 0.375,0.0859 0.71875,0.11328 1.09375,0.17188 0.25781,0 0.48828,0.0273 0.74609,0.0273 h 1.00782 c 0.40234,0 0.80859,-0.0273 1.20703,-0.0547 0.17578,0 0.375,-0.0312 0.55078,-0.0859 l 1.46875,-0.31641 0.6875,0.0273 0.23047,0.19922 -0.0859,0.51953 -0.60547,0.375 c -0.3125,0.0859 -0.63281,0.20313 -0.94922,0.25782 -0.375,0.0859 -0.71875,0.11718 -1.09375,0.17187 -0.42969,0.0312 -0.83203,0.0586 -1.23437,0.0586 -0.40235,0.0312 -0.77735,0 -1.15235,0 -0.25781,-0.0274 -0.49218,-0.0586 -0.71875,-0.0859 -0.46093,-0.0586 -0.92187,-0.11328 -1.38281,-0.17188 l -5.38281,-1.29687 c -0.80469,-0.17188 -1.58203,-0.28516 -2.38672,-0.3711 -0.23047,0 -0.46094,-0.0312 -0.66406,-0.0312 z m 0,-45.29688 v -1.41406 c 0.26172,-0.0859 0.51953,-0.17187 0.78125,-0.25781 0.60156,-0.14063 1.20703,-0.25781 1.83984,-0.25781 0.28906,0 0.57422,0 0.86328,0.0273 0.57422,0.0586 1.17969,0.11719 1.75781,0.20313 l -0.11718,-0.66407 -0.63282,-0.83203 c -0.14453,-0.0859 -0.28906,-0.14453 -0.43359,-0.17578 -0.25781,-0.0547 -0.51953,-0.11328 -0.77344,-0.11328 -0.57812,-0.0273 -1.125,0 -1.67187,0.0586 -0.54688,0.0547 -1.06641,0.17188 -1.58203,0.31641 0,0 -0.0312,0 -0.0312,0.0273 v -1.83984 l 0.375,-0.40234 0.71875,-0.34766 0.86328,-0.14063 -1.55078,-3.65625 c -0.14453,0.17188 -0.28907,0.31641 -0.40625,0.46094 v -16.51953 c 0.66406,0.17188 1.29687,0.34375 1.95703,0.54688 0.11719,-0.31641 0.25781,-0.66407 0.40625,-0.98047 0.0547,-0.11328 0.14062,-0.25782 0.19922,-0.375 0.3164,-0.51563 0.72265,-0.97657 1.21093,-1.35157 0.63282,-0.54687 1.32032,-0.97656 2.07032,-1.35156 0.86328,-0.46094 1.78515,-0.80469 2.70312,-1.09375 0.94922,-0.25781 1.92969,-0.46094 2.91016,-0.54687 1.08984,-0.11719 2.18359,-0.14453 3.30859,-0.0859 1.20703,0.0586 2.41797,0.23047 3.625,0.46094 l 3.48047,0.74609 v 2.12891 c -0.0547,0 -0.11328,-0.0274 -0.16797,-0.0274 -0.60937,-0.0859 -1.17969,-0.11718 -1.78906,-0.11718 -0.37109,0 -0.74609,0.0586 -1.12109,0.11718 -0.77735,0.0859 -1.52344,0.23047 -2.26954,0.40235 l 4.02344,0.46093 c 0.46094,0.0586 0.89453,0.14454 1.32422,0.23047 v 2.15625 c -0.60156,-0.11328 -1.23437,-0.22656 -1.86719,-0.3125 -0.66406,-0.0859 -1.35156,-0.14453 -2.01562,-0.11718 -0.31641,0 -0.60547,0.0312 -0.89453,0.0586 -0.6875,0.0859 -1.37891,0.19922 -2.04297,0.31641 0.80859,0.0859 1.61328,0.17187 2.39062,0.25781 0.40235,0.0312 0.80469,0.0859 1.21094,0.14453 0.60156,0.11328 1.20703,0.23047 1.78516,0.375 0.48437,0.11328 0.97656,0.25781 1.43359,0.37109 v 2.21875 c -0.71484,-0.17187 -1.46484,-0.34765 -2.21094,-0.51953 -0.375,-0.0859 -0.72265,-0.14453 -1.07031,-0.17187 -0.51562,-0.0586 -1.03516,-0.0859 -1.55078,-0.0859 -1.06641,0 -2.10156,0.0586 -3.16797,0.14453 l 2.44922,1.09375 c 0.3125,0.14453 0.57422,0.31641 0.83594,0.51563 0.22656,0.17187 0.42968,0.375 0.60156,0.60546 l 0.14453,0.46094 -0.71875,0.34375 -4.92187,0.31641 1.23437,1.41015 c 0.23438,0.28907 0.40625,0.57813 0.54688,0.89454 0.0625,0.17187 0.0898,0.40234 0.0625,0.60156 l -0.26172,0.28906 -0.63282,0.0312 -2.58984,-0.46094 1.49609,2.15625 v 0.48828 l -0.63281,0.0586 -2.99219,-0.77735 0.97657,2.04297 -0.0274,0.4336 -0.57422,0.0586 -2.16015,-1.03906 0.23047,1.90234 -0.14453,0.48828 -0.71875,-0.0586 -1.37891,-0.92188 0.14062,1.03907 -0.11718,0.19922 -0.60157,0.0586 -1.87109,-0.80469 1.35156,4 c 0.34766,0.0274 0.66407,0.0859 1.00782,0.17188 0.14453,0.0273 0.26171,0.0586 0.375,0.11718 l 1.4375,0.57422 c 0.0859,0.0274 0.14453,0.0547 0.23437,0.0547 0.39844,0.0312 0.80469,0.0312 1.20703,0 0.28906,0 0.54688,0.0312 0.83594,0.0898 0.19922,0.0273 0.37109,0.0859 0.57031,0.17188 l 0.63672,1.03516 v 1.03515 l 8.75,4.17578 1.55469,0.66016 1.66406,-1.12109 v 3.16406 l -2.44531,-1.17969 -2.09766,-1.00781 -10.24609,-4.71875 0.0859,0.83203 -0.23047,0.86719 9.58593,4.46093 4.3711,1.95313 0.97656,0.51953 v 6.85156 l -0.6875,-0.51953 -2.85156,-6.99219 -2.5,-1.09375 -9.58594,-4.375 -0.57422,0.40235 -0.66406,0.25781 -0.3125,-0.28516 0.19922,-0.32031 0.0586,-0.40234 -1.38281,-0.11328 c -0.51953,0 -1.06641,0.0273 -1.58203,0.11328 -0.46094,0.0898 -0.92188,0.23047 -1.35547,0.40234 -0.22656,0.11719 -0.42969,0.20313 -0.63281,0.32031 m 0,19.28125 c 0.60547,0.17188 1.23828,0.25782 1.87109,0.28516 0.69141,0.0312 1.41406,-0.0547 2.10156,-0.22656 0.54688,-0.14453 1.09375,-0.375 1.58203,-0.63672 0.51954,-0.28516 1.00782,-0.63281 1.44141,-1.03516 0.48828,-0.46093 0.91797,-0.94922 1.26563,-1.49609 0.37109,-0.57422 0.6914,-1.17969 0.91796,-1.8125 0.23438,-0.66406 0.375,-1.32422 0.4336,-2.01563 0.0586,-0.66015 0.0273,-1.35156 -0.11719,-2.01171 -0.11328,-0.55079 -0.28516,-1.06641 -0.57422,-1.55469 -0.17187,-0.375 -0.46094,-0.69141 -0.77344,-0.94922 -0.14843,-0.0898 -0.28906,-0.17578 -0.43359,-0.26172 -0.28906,-0.14453 -0.60547,-0.28516 -0.95312,-0.40234 0,0.34765 -0.0234,0.71875 -0.0547,1.0664 -0.0312,0.25782 -0.0859,0.48828 -0.14453,0.71875 -0.11328,0.34375 -0.28516,0.66016 -0.48828,0.92188 -0.23047,0.25781 -0.49219,0.46094 -0.8086,0.63281 -0.37109,0.17188 -0.77344,0.28516 -1.17969,0.31641 -0.42968,0.0586 -0.89062,0.0273 -1.32421,-0.0586 -0.51563,-0.11328 -1.00391,-0.3164 -1.4961,-0.54687 -0.42969,-0.23047 -0.83203,-0.51953 -1.20703,-0.86328 0,-0.0274 -0.0273,-0.0586 -0.0586,-0.0859 z m 21.87109,0.34375 v 5.23829 c -0.0273,0.0273 -0.082,0.0586 -0.14062,0.0586 -0.4336,0.14453 -0.83594,0.25781 -1.26954,0.34375 -0.45703,0.11719 -0.91796,0.23047 -1.3789,0.31641 -0.28906,0.0586 -0.57813,0.11718 -0.89063,0.17187 -0.40234,0.0586 -0.80859,0.11719 -1.21093,0.14453 -0.4336,0.0312 -0.83204,0.0312 -1.26563,0.0312 -0.40234,0 -0.80469,0 -1.21094,-0.0312 -0.51562,-0.0547 -1.00781,-0.0859 -1.52343,-0.17187 -0.57422,-0.0586 -1.1211,-0.14453 -1.69532,-0.25782 -0.43359,-0.0859 -0.89453,-0.17187 -1.32812,-0.28906 l -4.91797,-1.29297 c -0.71875,-0.17578 -1.44141,-0.32031 -2.19141,-0.46093 -0.34375,-0.0586 -0.71875,-0.0859 -1.0625,-0.0859 -0.57422,0 -1.15234,0.0547 -1.72656,0.19922 h -0.0586 v -0.94922 c 0.49218,-0.0859 0.98047,-0.14453 1.46875,-0.14453 0.63281,-0.0274 1.23828,0 1.87109,0.0859 l 2.64844,0.49219 4.77734,-5.55469 2.24219,-0.23046 0.26172,1.00781 1.64062,-0.4336 0.22657,1.29688 1.35546,-0.34766 0.34375,0.94922 1.21094,-0.40234 0.54297,0.80469 1.26953,-0.57422 0.57813,0.75 z m -21.87109,6.47657 c 0.46093,-0.14453 0.95312,-0.23047 1.4414,-0.25782 0.60157,-0.0586 1.23438,-0.0586 1.8711,0.0273 l 2.55859,0.48828 3.30859,6.1875 1.69922,0.83594 0.60547,-0.71875 1.29688,1.0625 0.63281,-1.14844 1.23828,1.0625 0.48438,-1.12109 2.27734,1.32421 0.74609,-1.26562 2.38672,1.12109 0.46094,-1.52734 0.86328,0.34766 v -6.5625 c -0.25391,0.11328 -0.54297,0.23046 -0.83203,0.3164 -0.69141,0.23047 -1.41016,0.4336 -2.12891,0.54688 -0.6914,0.11718 -1.38281,0.17187 -2.07422,0.17187 -0.60156,-0.0273 -1.20703,-0.0273 -1.8125,-0.0859 -0.77734,-0.0273 -1.55468,-0.11328 -2.32812,-0.19921 -0.46094,-0.0312 -0.89453,-0.0859 -1.32422,-0.17579 -0.23437,-0.0273 -0.46094,-0.0547 -0.69531,-0.11328 l -4.60156,-1.03515 c -0.66016,-0.14453 -1.35547,-0.26172 -2.01563,-0.40235 -0.43359,-0.0586 -0.89062,-0.11718 -1.32031,-0.17578 -0.69531,-0.0859 -1.38281,-0.0547 -2.04688,0.0312 -0.23047,0.0274 -0.45703,0.0859 -0.6914,0.14453 z m 21.87109,-53.53125 c 0.83594,0.11718 1.64063,0.28906 2.44922,0.51953 l 3.30859,0.94922 0.95313,0.23047 0.66015,-0.20313 0.14063,-0.66016 -0.66016,-0.94921 c -0.43359,-0.25782 -0.89062,-0.48829 -1.35156,-0.66407 -0.66406,-0.25781 -1.35547,-0.45703 -2.07422,-0.60156 l -3.42578,-0.75 z m 0,3.22265 v -2.15625 c 0.32031,0.0586 0.60938,0.11719 0.89453,0.17188 0.66016,0.14453 1.29688,0.3164 1.89844,0.48828 0.46094,0.14453 0.92187,0.34766 1.35156,0.57812 0.46485,0.23047 0.86328,0.51954 1.26953,0.80469 l 0.48828,0.71875 -0.14453,0.48828 -0.42968,0.0899 -0.83594,-0.11719 -3.05078,-0.74609 c -0.46094,-0.11719 -0.94922,-0.23047 -1.44141,-0.32032 m 0,3.3125 0.34766,0.0859 1.92968,0.48828 0.94922,0.0586 0.69141,-0.31641 -0.0312,-0.77734 -0.71875,-0.60547 c -0.34375,-0.17188 -0.71875,-0.31641 -1.06641,-0.46094 -0.42968,-0.17188 -0.85937,-0.31641 -1.32031,-0.45703 -0.26172,-0.0586 -0.51953,-0.14453 -0.78125,-0.23438 z m 0,33.5 1.38281,1.03516 0.83594,-0.69141 2.15625,1.26563 1.17969,-0.97656 2.70703,1.26562 0.80859,-1.17969 2.41407,1.23828 0.6914,-1.0664 2.12891,0.71875 0.63672,-1.1211 1.92578,0.63282 0.89062,-1.89844 -3.10547,-3.16797 0.7461,-0.375 0.51953,-0.45703 0.0547,-1.21094 -0.97657,-0.54687 -0.6914,-0.0274 1.61328,-2.27343 -0.69141,-1.4961 -1.69531,0.23047 -0.23437,-0.77734 -1.4961,0.17187 -0.22656,-1.03515 -1.41016,0.14062 -0.32031,-1.17969 -1.75391,0.26172 0.0859,-0.89453 -1.72656,0.28906 0.14062,-1.46875 h -2.41406 l -4.17578,2.85157 v 3.16406 l 3.88672,1.84375 c 0.72266,0.23047 1.44141,0.45703 2.16016,0.63281 0.37109,0.11328 0.74609,0.19922 1.12109,0.25781 0.40234,0.0859 0.83594,0.14453 1.26562,0.19922 0.60547,0.0586 1.23829,0.0899 1.8711,0.11719 0.54687,0.0273 1.12109,0.0586 1.66797,0.0273 0.32031,0 0.63672,-0.0273 0.98047,-0.0859 l 1.32421,-0.14454 0.60157,0.14454 0.0859,0.28906 -0.39843,0.48828 c -0.26172,0.14453 -0.48828,0.28906 -0.75,0.375 -0.28516,0.11328 -0.57422,0.17187 -0.86328,0.23047 -0.49219,0.0859 -1.00782,0.14453 -1.4961,0.17187 -0.57812,0.0274 -1.12109,0.0274 -1.69922,0.0274 -0.77343,-0.0274 -1.55078,-0.11328 -2.33203,-0.22657 -0.6875,-0.0898 -1.3789,-0.23046 -2.04297,-0.40625 l -2.21484,-0.66015 -3.16797,-1.55469 z m 0,19.91407 1.26953,0.51562 0.40235,-1.35156 1.8125,0.80469 0.28906,-1.4961 1.64062,0.4336 0.48828,-1.98829 -3.80078,-3.50781 0.31641,-0.40234 0.23437,-0.72266 -0.26171,-1.00781 -0.40235,-0.17188 1.38281,-2.58984 -0.98046,-1.17969 -1.58204,0.71875 -0.75,-0.97656 -0.0586,0.0273 v 5.23829 c 0.20313,-0.0586 0.375,-0.11329 0.57813,-0.17188 l 0.97656,-0.23047 0.26172,0.0859 v 0.31641 l -0.51953,0.46093 c -0.34375,0.17188 -0.6875,0.375 -1.0625,0.51953 -0.0586,0.0547 -0.14454,0.0859 -0.23438,0.11329 z m 0,0"
       id="path44"
       inkscape:connector-curvature="0" />
  </g>
</svg>
