<?xml version="1.0" encoding="UTF-8" standalone="no"?>
<svg
   xmlns:dc="http://purl.org/dc/elements/1.1/"
   xmlns:cc="http://creativecommons.org/ns#"
   xmlns:rdf="http://www.w3.org/1999/02/22-rdf-syntax-ns#"
   xmlns:svg="http://www.w3.org/2000/svg"
   xmlns="http://www.w3.org/2000/svg"
   viewBox="0 0 175.86891 251.99999"
   height="252"
   width="175.86891"
   xml:space="preserve"
   id="svg2"
   version="1.1"><metadata
     id="metadata8"><rdf:RDF><cc:Work
         rdf:about=""><dc:format>image/svg+xml</dc:format><dc:type
           rdf:resource="http://purl.org/dc/dcmitype/StillImage" /><dc:title></dc:title></cc:Work></rdf:RDF></metadata><defs
     id="defs6"><linearGradient
       id="linearGradient18"
       spreadMethod="pad"
       gradientUnits="userSpaceOnUse"
       y2="213.93779"
       x2="496.76712"
       y1="537.32031"
       x1="219.58057"><stop
         id="stop12"
         offset="0"
         style="stop-opacity:1;stop-color:#720a21" /><stop
         id="stop14"
         offset="0.56068897"
         style="stop-opacity:1;stop-color:#1c030a" /><stop
         id="stop16"
         offset="1"
         style="stop-opacity:1;stop-color:#1c030a" /></linearGradient><linearGradient
       id="linearGradient28"
       spreadMethod="pad"
       gradientUnits="userSpaceOnUse"
       y2="258.74655"
       x2="473.88858"
       y1="617.15381"
       x1="115.48291"><stop
         id="stop22"
         offset="0"
         style="stop-opacity:1;stop-color:#ffffff" /><stop
         id="stop24"
         offset="0.45124293"
         style="stop-opacity:1;stop-color:#ffffff" /><stop
         id="stop26"
         offset="1"
         style="stop-opacity:1;stop-color:#cbccd4" /></linearGradient><radialGradient
       id="radialGradient38"
       spreadMethod="pad"
       gradientUnits="userSpaceOnUse"
       r="34.539928"
       cy="729.03564"
       cx="294.63135"
       fy="729.03564"
       fx="294.63135"><stop
         id="stop32"
         offset="0"
         style="stop-opacity:1;stop-color:#e6c14c" /><stop
         id="stop34"
         offset="0.49816328"
         style="stop-opacity:1;stop-color:#e6c14c" /><stop
         id="stop36"
         offset="1"
         style="stop-opacity:1;stop-color:#f1de1e" /></radialGradient><radialGradient
       id="radialGradient48"
       spreadMethod="pad"
       gradientUnits="userSpaceOnUse"
       r="28.196369"
       cy="650.68848"
       cx="84.806641"
       fy="650.68848"
       fx="84.806641"><stop
         id="stop42"
         offset="0"
         style="stop-opacity:1;stop-color:#a8a9ab" /><stop
         id="stop44"
         offset="0.49816328"
         style="stop-opacity:1;stop-color:#a8a9ab" /><stop
         id="stop46"
         offset="1"
         style="stop-opacity:1;stop-color:#ddd9d8" /></radialGradient><radialGradient
       id="radialGradient58"
       spreadMethod="pad"
       gradientUnits="userSpaceOnUse"
       r="28.196621"
       cy="650.68848"
       cx="504.56543"
       fy="650.68848"
       fx="504.56543"><stop
         id="stop52"
         offset="0"
         style="stop-opacity:1;stop-color:#a8a9ab" /><stop
         id="stop54"
         offset="0.49816328"
         style="stop-opacity:1;stop-color:#a8a9ab" /><stop
         id="stop56"
         offset="1"
         style="stop-opacity:1;stop-color:#ddd9d8" /></radialGradient></defs><g
     transform="matrix(1.3333333,0,0,-1.3333333,-113.9779,342.88165)"
     id="g10"><g
       transform="matrix(0.27306405,0,0,0.27306405,70.966107,48.14584)"
       id="g67"><path
         d="M 294.64844,681.17212 C 168.94092,682.12402 84.45117,600.69727 68.79199,584.36426 l -1.41699,-1.47119 -0.28467,-1.52588 c -5.6997,-33.44922 -8.02441,-115.38916 19.41992,-210.32471 15.61621,-54.01562 38.70264,-104.55762 68.61914,-150.21631 35.91309,-54.8125 81.89258,-102.81201 136.66065,-142.67138 l 2.896,-2.10889 2.89599,2.10889 c 54.76807,39.85937 100.74756,87.85888 136.66065,142.67138 29.91796,45.65869 53.00341,96.20069 68.61962,150.21631 27.44434,94.93701 25.11963,176.87549 19.41993,210.32471 l -0.25537,1.49414 -1.44581,1.50293 c -15.66113,16.33301 -100.1499,97.75976 -225.93261,96.80786 z"
         style="fill:url(#linearGradient18);fill-opacity:1;fill-rule:nonzero;stroke:none"
         id="path20" /><path
         d="m 512.80615,578.23779 c 1.84619,-11.48242 3.27344,-28.27734 3.27344,-49.17383 0,-40.03125 -5.21875,-94.90234 -22.6748,-155.28564 -15.34375,-53.07617 -38.01807,-102.71826 -67.396,-147.55615 -34.61426,-52.82813 -78.81738,-99.17578 -131.32275,-137.90137 -52.50586,38.72559 -96.70997,85.07324 -131.32276,137.90137 -29.37793,44.83789 -52.05273,94.47998 -67.39551,147.55615 -17.45605,60.3833 -22.67431,115.25439 -22.67431,155.28564 0,20.89649 1.42675,37.69141 3.27295,49.17383 16.66943,17.20166 97.91259,93.99927 218.08203,93.08936 120.24316,0.90991 201.48926,-75.8877 218.15771,-93.08936 m -218.00439,78.93824 h -0.25879 C 186.39453,657.9939 110.79834,592.09814 90.20654,571.88379 c 0,0 -0.19043,-0.1875 -0.3042,-0.29932 -0.02099,-0.15918 -0.05566,-0.42334 -0.05566,-0.42334 -1.04785,-8.1123 -2.29639,-21.89502 -2.29639,-41.48925 0,-34.58545 3.81885,-89.02442 22.01319,-151.96387 14.95019,-51.71631 37.03369,-100.07666 65.6372,-143.72998 31.48145,-48.04688 71.42969,-90.87891 118.73536,-127.29883 0,0 0.46923,-0.36328 0.75,-0.5791 0.28173,0.21582 0.75097,0.5791 0.75097,0.5791 47.30469,36.42139 87.25244,79.25195 118.7334,127.29883 28.604,43.65332 50.68848,92.0122 65.6377,143.72998 18.19482,62.9375 22.01318,117.37695 22.01318,151.96387 0,19.59765 -1.24951,33.37939 -2.29736,41.49072 0,0 -0.0342,0.26416 -0.0542,0.42187 -0.11426,0.11133 -0.30371,0.29785 -0.30371,0.29785 -20.59278,20.21582 -96.18457,86.11158 -204.33545,85.29371 h -0.0147 -0.0142 m 0.10547,-11.69092 h 0.0137 c 100.16894,0.75805 171.77539,-58.87281 193.4292,-79.42115 0.85888,-7.74072 1.78076,-19.85058 1.78076,-36.39208 0,-33.83204 -3.74023,-87.09473 -21.55322,-148.71875 -14.62549,-50.59424 -36.21973,-97.88819 -64.18555,-140.5669 -29.23633,-44.62158 -66.16797,-84.70605 -109.70605,-119.28613 -43.53711,34.57715 -80.46778,74.66162 -109.70557,119.28467 -27.96484,42.68017 -49.56006,89.97412 -64.18604,140.56836 -17.81445,61.62548 -21.55371,114.88867 -21.55371,148.71875 0,16.54541 0.92285,28.65283 1.78174,36.39062 21.65186,20.5498 93.25684,80.18091 193.43067,79.42261 l 0.15039,-10e-4 0.30371,10e-4 M 294.70068,558.729 c 56.61524,0.42823 101.64258,-28.58837 122.9087,-45.92334 l 21.8374,-17.80175 46.53906,63.67627 -18.61279,15.17236 c -29.47705,24.0293 -91.36524,64.24951 -172.67237,63.63379 h 0.004 c -81.34277,0.61572 -143.22852,-39.60547 -172.70557,-63.63428 l -18.60937,-15.16992 46.53564,-63.67725 21.83692,17.79981 c 21.26513,17.33496 66.30127,46.35254 122.93847,45.92431 m -29.08154,-44.44482 c -0.12012,-0.58447 -0.33105,-1.1665 -0.50098,-1.73779 -0.94775,-2.96729 -2.67382,-5.53809 -3.6372,-8.37403 -0.28809,-0.84863 0.0469,-2.58789 -0.0942,-3.57617 -0.80078,-5.65088 -4.21533,-11.47705 -2.82715,-17.28808 0.98096,-4.11377 3.91553,-6.95704 4.75293,-11.43262 1.00195,-5.3711 -0.61621,-11.07276 0.10742,-16.50391 1.01563,-7.60547 2.99561,-14.32666 3.50391,-21.98779 0.96582,-14.54248 -1.48828,-27.63428 -3.19971,-42.16943 -1.61816,-13.73682 -6.57031,-25.65821 -14.15137,-37.05323 -4.61914,-6.94482 -11.5913,-13.32177 -14.46093,-21.30566 -2.01661,-5.60645 1.69238,-16.51758 -1.33887,-20.59326 -0.54199,-0.73242 -2.73731,-1.98047 -3.55176,-2.61377 -1.2876,-1.0044 -2.70996,-1.07373 -3.42627,-2.43311 -0.65185,-1.24072 -0.91211,-2.74463 -1.72656,-4.08154 -0.84277,-1.38525 -1.2334,-2.22461 -1.53955,-3.7915 -0.90381,-4.63038 -0.0889,-9.34375 -0.22901,-14.00733 -0.12939,-4.36816 -2.17382,-8.29883 -2.35693,-12.60254 -0.0771,-1.8667 -0.0117,-2.54248 -1.36767,-4.03955 -0.52442,-0.57764 -0.68995,-0.98535 -1.38086,-1.33887 -1.38086,-0.70068 -1.84571,-0.15332 -2.83204,-1.38623 -0.58642,-0.73877 -0.0601,-1.89209 -0.97412,-2.57031 -1.45214,-1.08154 -3.71582,0.31201 -5.28808,-0.35205 -1.54151,-0.6543 -0.74268,-1.53467 -1.74951,-2.21387 -1.32178,-0.8955 -2.97803,0.11377 -3.82129,-1.90576 8.92334,-1.35742 15.38183,1.52344 20.06884,9.30225 2.32618,3.85595 1.73975,7.70166 3.10987,11.75 0.96679,2.86328 3.57763,4.32959 4.35986,7.40429 0.3291,0.0586 1.30029,0.0317 1.62695,-0.0449 0.95166,-5.59375 1.04639,-9.08496 -2.09912,-13.84424 -2.72802,-4.13134 -4.70019,-8.00097 -8.12841,-11.65966 -3.54346,-3.78077 -6.20215,-7.1709 -11.82911,-6.87305 -3.3413,0.17676 -6.2666,1.41504 -8.41015,-1.96924 1.0459,-0.11426 3.42236,-0.17529 4.13135,-1.07226 2.38916,-3.01758 -5.38575,-2.99659 -6.24903,-4.52002 2.69727,-0.59571 5.14307,-0.20166 7.72901,0.60205 2.10351,0.65722 4.76757,1.42236 6.90918,0.49853 -1.72217,-1.83447 -4.35791,-2.13525 -6.45704,-3.31445 1.87012,-1.31641 4.41895,-0.0767 6.08887,0.93555 3.54736,2.1582 7.90723,-0.98829 11.69238,0.63769 2.96631,1.27588 4.67774,4.66943 6.47559,7.14941 3.40625,4.69532 5.79883,9.35743 8.10986,14.66993 1.33057,-2.38575 0.75098,-5.14698 -0.0566,-7.61573 -1.94336,-5.93896 -6.16601,-11.73486 -10.43701,-16.22802 -1.56934,-1.6543 -3.85937,-4.1543 -5.88623,-5.22803 -1.90137,-1.00244 -4.44141,-0.22656 -5.58398,-2.48975 1.52685,-0.31201 3.05468,0.66602 4.19043,-0.56543 -1.16797,-1.97802 -3.60547,-2.66504 -5.70801,-3.14648 -0.23487,-0.0527 -6.18408,-1.15479 -5.42871,-1.91357 1.65869,-1.66504 4.31787,0.66992 5.39795,-1.42676 -2.23731,-2.4375 -5.05371,-1.30567 -7.8584,-2.82959 2.6123,-1.07373 4.90381,-0.64649 7.50439,-0.0674 1.39942,0.30909 4.01758,1.35889 4.08496,-0.99267 -1.4707,-0.51123 -6.7622,-0.70899 -6.91797,-2.78369 -0.17187,-2.28662 5.87598,0.0752 7.09375,0.29101 2.05225,0.36621 9.96827,4.78565 11.15918,3.04639 2.38916,-3.49316 -6.93847,-4.99902 -8.84033,-5.39941 2.2959,-3.59961 7.40283,1.02294 9.5669,2.46289 3.89257,2.58984 9.04638,-1.41895 12.30566,1.56836 3.4834,3.19873 7.25879,7.59912 10.13672,11.49072 3.65527,4.9375 4.53809,10.92822 4.54932,16.92139 0.007,3.26953 -0.65625,6.55664 -0.70752,9.83544 -0.0381,2.51758 2.00634,7.90577 4.0415,3.01661 0.92773,-2.22657 1.47852,-6.34766 1.62158,-8.75928 0.25928,-4.34766 -1.96338,-8.7251 -0.854,-13.05762 1.58447,-6.18555 7.06494,-9.71387 11.17627,-13.95019 1.71631,-1.76856 2.12695,-3.55225 3.27539,-5.61426 2.63525,-4.73584 4.83105,-9.37305 6.09326,-14.64404 0.36621,-1.53028 1.35547,-2.56983 1.91406,-4.01026 0.63282,-1.63623 0.52295,-3.47119 1.33252,-5.05762 0.77686,-1.52832 2.0459,-1.69287 3.15625,-2.63818 0.84864,-0.72119 1.40821,-2.10693 2.35254,-2.6709 1.05225,-0.63476 2.34326,-0.25928 3.44238,-0.75097 0.53077,-0.23829 1.16309,-1.30909 1.71875,-1.30909 0.46924,0 11.73731,0 11.73731,0 l 0.79541,0.63233 c 0,5.9917 -4.15674,6.72754 -7.40625,10.83691 -3.14746,3.98633 -4.8999,8.91162 -6.86475,13.53516 -2.68017,6.31054 -8.88281,10.23877 -11.97851,16.29248 -1.69043,3.30566 -1.66358,6.88281 -2.21826,10.4834 -0.68702,4.45459 -1.68165,8.86767 -2.02686,13.37304 -0.52881,6.91797 0.95166,13.17139 0.85986,20.00684 -0.0527,3.87793 0.14649,6.16602 1.3003,9.83545 0.95019,3.01807 2.39111,5.97217 2.68213,9.16016 0.28027,3.06933 -0.87403,5.854 -0.97901,8.87451 -0.0903,2.54004 0.0278,5.05859 2.75195,5.57275 5.61377,1.05566 6.63526,-3.14062 11.05079,-4.73633 4.2456,-1.53271 8.5791,0.33545 12.56836,-2.1416 3.23339,-2.00488 5.61035,-5.45264 7.77148,-8.49121 1.11719,-1.57617 2.01855,-3.29053 3.17432,-4.8667 1.73291,-2.36328 4.67822,-3.1792 4.56494,-6.71533 -0.063,-1.83252 -0.35157,-3.24951 -0.63672,-5.08399 -0.0132,-0.0801 -0.47852,-3.01709 -0.47852,-3.01709 0.10791,-2.64892 -0.28808,-4.60351 2.26709,-5.97656 1.77735,-0.95263 4.6211,-1.29199 6.60401,-0.92724 2.0166,0.37695 2.42578,1.56884 4.25634,2.27343 2.75538,1.06446 6.79346,0.23291 9.71827,0.41748 2.9082,0.18702 6.0957,0.0669 8.79199,1.09913 2.6875,1.02587 4.31201,1.39501 7.46533,1.20703 2.42285,-0.14698 4.9209,-0.48145 7.3125,-0.88575 3.53076,-0.60009 3.86475,-1.94531 6.05127,-4.28466 0.37549,-0.40381 3.92529,-2.25293 3.92529,-1.99659 0,-0.39794 0,-6.65087 0,-6.65087 l 1.1128,-0.63624 0.31543,-1.74462 1.75,-0.63819 c 3.04443,-4.19092 11.42187,0.56397 14.98535,2.76172 0.28613,0.17578 7.06982,4.39453 6.7622,4.8877 -2.125,3.38086 -3.99023,3.68701 -7.63183,4.89843 -4.8794,1.62403 -8.34717,5.51319 -11.2085,9.61426 -3.78808,5.43067 -7.18408,7.29102 -13.71191,7.06543 l -1.74512,-0.79248 c -4.90771,-1.82129 -10.15723,-1.83203 -15.38281,-1.35058 -4.65332,0.42871 -10.93408,1.64501 -13.69531,5.62597 -4.28809,6.17334 -7.66456,17.52637 -6.18702,25.0835 0.12989,0.65136 0.60059,1.18994 0.86524,1.81396 0.93994,2.22412 0.22607,5.28467 0.14941,7.70752 -0.0342,1.0459 0.021,1.84229 -0.34814,2.7793 -0.42285,1.06787 -1.47656,1.49707 -2.22412,2.28418 -0.62696,0.6665 -1.10059,1.52637 -1.61768,2.27685 l -1.90576,2.38526 c -1.24805,1.87256 -5.83594,8.90478 -1.74512,10.43262 2.11817,0.78613 5.51416,-2.67676 6.6001,-4.2002 1.04639,-1.46729 2.11035,-2.25879 3.65918,-3.1582 1.10498,-0.6333 1.26904,-0.99024 1.90967,-2.15381 0.81738,-1.47803 2.06494,-2.44678 3.77636,-1.99854 3.56495,0.93067 2.31543,5.33106 1.99756,7.94825 -0.4956,4.04248 0.73291,7.55078 1.10791,11.5332 0.50733,5.32519 -1.04004,4.17041 -1.05273,9.5542 -0.003,1.34179 0.49512,9.67334 0.18017,10.9834 -0.35595,1.48584 -1.6123,2.82129 -1.23291,4.44384 0.32227,1.36719 1.79981,1.86328 2.22852,3.19434 0.30957,0.97461 0.0234,2.23047 -0.003,3.2334 -0.0508,1.85449 -0.56006,4.74804 1.4419,5.82617 1.78417,0.9624 4.38427,0.97607 6.31445,1.66455 3.76611,1.34473 7.15283,3.65772 10.28711,6.09863 4.86084,3.77832 7.40088,9.04151 11.46045,13.49219 1.51172,1.65381 6.05664,5.27051 7.08154,1.22363 0.59619,-2.37011 -0.23877,-5.26855 -0.0635,-7.70703 0.14209,-1.9541 0.25293,-4.00683 -0.6123,-5.82666 -0.86279,-1.80908 -2.61231,-2.98681 -3.3335,-4.8833 -0.13769,-0.37158 -0.55029,-5.28613 -0.60547,-5.2998 -0.47412,-0.11573 -3.98828,-0.11719 -4.125,-0.55469 -0.50732,-1.62305 -0.86523,-2.29541 -2.06494,-3.49219 -0.002,0 0.31543,-7.46387 0.31543,-7.46387 l 0.4751,-2.0664 1.27441,-3.65283 1.42725,-2.86084 1.43066,-2.06446 c 3.57422,-3.24853 6.17237,0.0161 7.5083,3.80909 0.83204,2.35986 1.1919,4.9541 1.76416,7.38427 0.43604,1.83301 0.8125,3.97608 1.89454,5.54639 1.40039,2.03467 3.083,2.50537 3.74267,5.13721 0.96338,3.87402 0.26367,8.45361 -0.7749,12.18945 -1.09033,3.93115 -0.79492,8.12842 -0.042,12.01465 0.44189,2.28906 0.68652,4.20947 1.23681,6.48926 0.95215,3.94775 2.06739,8.45214 -0.4707,12.03711 -1.59326,2.25195 -4.15332,4.3706 -7.08105,4.51953 -2.91504,0.14795 -5.18995,-1.47412 -7.34766,-3.2251 -2.34375,-1.89942 -4.86768,-3.64063 -7.39551,-5.28662 -1.10644,-0.72266 -2.41113,-1.17383 -3.61816,-1.72901 -1.59815,-0.73339 -2.93897,-1.32812 -4.646,-1.72168 -2.38867,-0.55029 -5.12207,-4.083 -7.71777,-2.07812 -1.90625,1.47217 -2.46533,4.23877 -4.06153,5.99805 -5.02441,5.54199 -7.41796,13.07714 -13.51611,17.54296 -5.29492,3.88184 -11.83056,4.89991 -16.7207,9.62696 -7.1333,6.89892 -9.03076,17.86572 -14.83057,25.79053 -1.1001,1.50585 -2.39453,3.11425 -1.66357,5.08105 0.69189,1.86621 2.67529,3.20508 4.22119,4.32031 1.86084,1.34131 2.23047,1.17334 3.28369,3.32178 1.69922,3.48145 5.62842,5.00488 8.73145,6.98047 0.63476,0.41064 1.28369,0.77002 1.729,1.40332 0.95801,1.37305 0.51904,2.64355 2.55713,1.73779 0.91553,-0.40674 1.74463,-1.01074 2.63135,-1.47851 1.46386,-0.77393 3.83349,-0.67627 5.54101,-0.66016 1.396,0.0132 4.33008,0.88184 5.02002,2.2085 0.76026,1.45849 0.49072,3.86963 -0.2666,5.25195 -0.42725,0.77734 -1.12695,1.45703 -1.32422,2.23926 -0.33935,1.34375 0.84326,2.09668 1.16797,3.2456 0.23633,0.83692 0.17822,1.86133 0.25977,2.73096 l -0.16114,5.2417 c -0.35742,1.81103 -0.35009,4.2583 -1.79101,5.59033 -1.09375,1.01367 -2.74951,1.46094 -4.09326,1.92383 -1.34034,0.46191 -2.70801,0.75244 -3.91504,1.47314 -1.58399,0.94141 -2.75733,1.40918 -4.74707,0.88819 -1.48291,-0.38916 -1.49268,-1.92823 -3.50635,-1.58203 -1.62012,0.27734 -1.82031,1.48193 -2.89893,2.35791 -0.82861,0.67138 -2.0166,0.24218 -2.97119,0.0361 -1.73779,-0.3794 -3.4248,-1.22461 -5.18896,-1.47803 -4.01514,-0.57666 -8.11426,-0.59912 -12.15674,-0.40625 -3.7002,0.17676 -8.03955,1.51758 -11.54248,-0.11035 -1.89356,-0.87842 -3.93994,-5.24316 -6.12451,-2.47607 -1.01612,1.28711 -1.28077,1.88281 -2.9878,2.53271 -1.05713,0.40137 -2.95996,0.71631 -3.99463,0.0674 -0.50634,-0.31738 -0.6538,-1.15185 -1.07763,-1.62304 -0.45069,-0.5044 -0.71826,-0.61328 -1.3711,-0.95948 -1.39599,-0.74218 -2.20361,-1.67627 -3.45654,-2.61523 -1.45605,-1.09229 -3.27197,-1.79297 -5.0332,-2.21924 -1.59131,-0.38428 -3.39649,-0.23437 -4.8042,-1.18603 -1.7832,-1.20606 -1.74317,-3.14112 -0.78906,-4.85303 1.02197,-1.83545 3.06445,-2.59912 4.98144,-3.10938 0.75391,-0.20019 2.05762,-0.22168 2.84424,-0.60791 0.46631,-0.229 0.75146,-0.58545 0.62744,-1.18359 m 142.33936,73.88232 -2.36914,-53.09082 c -0.0269,-0.59961 0.35644,-1.36816 0.85107,-1.70752 l 8.67139,-5.95019 c 0.49463,-0.33936 0.92138,-0.12695 0.94824,0.47314 l 2.98291,66.86231 c 0.0268,0.59961 -0.39258,1.30664 -0.93164,1.57031 l -10.61621,5.2002 c -0.53907,0.26367 -1.32617,0.13183 -1.74951,-0.29395 L 362.1114,557.34766 c -0.42334,-0.42578 -0.31445,-0.95899 0.2417,-1.18506 l 8.80224,-3.58057 c 0.55616,-0.22607 1.35743,-0.063 1.78077,0.36231 l 35.02246,35.22216 m -125.25,6.65039 h 23.54052 c 0.6001,0 1.09131,0.49122 1.09131,1.0918 v 6.67188 c 0,0.60058 -0.49121,1.09131 -1.09131,1.09131 h -23.55224 l 0.004,16.17041 h 30.47803 c 0.60059,0 1.0918,0.49121 1.0918,1.09179 v 6.67188 c 0,0.60058 -0.49121,1.09131 -1.0918,1.09131 h -40.1665 c -0.60059,0 -1.09131,-0.49073 -1.09131,-1.09131 v -59.93067 c 0,-0.60058 0.49072,-1.09131 1.09131,-1.09131 h 44.27392 c 0.6001,0 1.09131,0.49073 1.09131,1.09131 v 6.67188 c 0,0.60058 -0.49121,1.09179 -1.09131,1.09179 h -34.58447 l 0.007,19.37793 m -100.19922,-31.20068 -1.09571,24.55029 16.21436,-16.30566 -15.11865,-8.24463 m 21.62646,1.69922 12.30078,-12.37109 c 0.42334,-0.4253 1.22412,-0.58838 1.78028,-0.36231 l 8.80273,3.58057 c 0.55567,0.22607 0.66455,0.75928 0.24121,1.18506 l -43.63379,43.88232 c -0.42334,0.42578 -1.21093,0.55762 -1.75,0.29395 l -10.61621,-5.2002 c -0.53906,-0.26367 -0.95801,-0.9707 -0.93164,-1.57031 l 2.98291,-66.86231 c 0.0269,-0.60009 0.45362,-0.8125 0.94824,-0.47314 l 8.67139,5.95019 c 0.49463,0.33936 0.87793,1.10791 0.85107,1.70752 l -0.83447,18.69873 21.1875,11.54102 m 97.46924,-367.79004 c 0.11426,-0.0962 0.27734,-0.19434 0.5083,-0.28027 1.04492,-0.40674 2.27344,-0.46192 3.35254,-0.64356 1.5459,-0.25635 3.49512,0.44287 1.80322,2.13672 -0.68017,0.67383 -0.84179,0.55518 -1.85791,0.50098 -0.8955,-0.0474 -1.84131,-0.0791 -2.70849,-0.31885 -0.72705,-0.20312 -1.72168,-0.84912 -1.09766,-1.39502 m -10.23828,5.00732 c 0.0527,-0.0391 0.10791,-0.0742 0.16846,-0.10742 0.68994,-0.37646 1.61621,-0.26709 2.36914,-0.39306 1.16894,-0.19629 1.23877,-0.38086 2.20508,-1.03467 1.59521,-1.08154 3.5747,-0.62744 5.28955,0.0659 1.65087,0.66992 1.36328,2.08447 0.7749,3.37695 -0.2749,0.60303 -0.45752,0.88672 -1.14942,1.05127 -1.14892,0.27441 -2.22949,0.48975 -3.41552,0.45361 -1.71045,-0.0454 -3.35791,-0.41308 -5.07471,-0.44287 -1.646,-0.0317 -2.74902,-1.84765 -1.16748,-2.96973 m -6.64844,12.4087 c 0.46485,-0.38916 1.01856,-0.67286 1.64112,-0.65918 2.40966,0.0474 2.26464,3.10547 0.86181,4.27832 -0.72217,0.61133 -2.12842,3.80566 -3.3706,1.80566 -0.35303,-0.56689 -0.0259,-1.7207 -0.10498,-2.35596 -0.0962,-0.77978 -0.36377,-1.52099 0.17334,-2.22265 0.22412,-0.28809 0.49169,-0.58936 0.79931,-0.84619 m -42.71094,14.00146 c 1.04541,-0.79785 2.86231,0.19727 3.58008,1.05127 0.84864,1.01074 0.75586,2.52734 1.73487,3.45606 0.7622,0.72265 2.0039,0.82568 2.84277,1.51757 1.15039,0.94873 2.26074,2.81739 2.73584,4.21094 0.48242,1.41406 0.35498,2.89404 1.0791,4.24512 0.53613,0.9956 1.44336,1.16894 1.77637,2.34472 0.25635,0.90528 1.92236,8.38428 -0.51905,5.65186 -0.4956,-0.55713 -0.65234,-1.4707 -1.02148,-2.11328 -1.09766,-1.91895 -1.63086,-6.65674 -4.51514,-6.49365 -0.12939,0.90332 0.271,1.42187 0.55762,2.28271 0.35986,1.08008 1.18457,2.04981 1.72022,3.04346 1.37695,2.5625 2.83691,4.50635 2.49755,7.55127 -0.0913,0.82617 -0.40087,5.38818 -2.22363,2.5581 -0.85742,-1.33935 -1.27539,-4.51855 -1.79541,-6.09179 -0.79053,-2.38916 -1.49853,-4.6958 -3.10596,-6.69483 -1.9038,-2.36621 -3.94677,-4.71826 -4.62255,-7.76513 -0.32032,-1.43409 -1.65137,-7.09864 -1.11768,-8.24463 0.10254,-0.22022 0.23779,-0.3877 0.39648,-0.50977 m -8.53418,11.56299 c -0.87451,-1.48877 0.77295,-4.69141 2.14844,-5.31494 2.80225,-1.26709 4.33447,3.54101 5.33155,5.27295 0.80615,1.40674 0.62939,2.73388 1.12402,4.14062 0.4917,1.39502 1.10547,1.60498 1.96094,2.86572 0.87109,1.28516 0.81445,3.25293 1.69238,4.63868 2.27344,3.58935 5.72754,8.79052 6.25586,13.104 0.0859,0.69971 -0.14649,2.72559 -0.90381,3.05566 -1.32275,0.57129 -1.16211,-1.58349 -1.53125,-2.41015 -2.22119,-4.99072 -4.52588,-10.06494 -7.43408,-14.69531 -1.19336,-1.89942 -1.83594,-2.86914 -2.62696,-4.99903 -1.21386,-3.26953 -4.55419,-3.16406 -6.01709,-5.6582 m -6.22119,14.87402 c 2.76172,1.34229 4.8335,4.91358 6.22461,7.65674 1.75684,3.46338 6.4253,9.61865 6.52295,13.37549 0.22461,8.64746 -4.47998,-3.33545 -5.54248,-5.2417 -2.30029,-4.11523 -9.78369,-10.6748 -7.23144,-15.73779 0.009,-0.0151 0.0185,-0.0327 0.0264,-0.0527 m 157.69483,10.98242 c -0.57471,-0.45556 -0.86719,-1.14209 -0.55518,-2.34521 0.97168,-3.73145 7.04492,-1.53857 8.65039,0.23389 0.90381,1 0.91895,1.09033 2.36328,1.7334 1.65186,0.72753 3.05274,0.79833 2.38868,2.73681 -0.42286,1.24854 -3.4419,1.36328 -4.48682,1.74463 -1.92529,0.33984 -2.64209,0.5127 -4.28418,-0.6333 -0.0835,-0.0571 0.21728,-1.11133 0.13721,-1.31494 -0.23047,-0.55664 -0.51416,-0.40967 -0.9126,-0.66406 -0.98779,-0.63331 -2.45215,-0.80909 -3.30078,-1.49122 m -14.71924,14.88184 c 1.82959,0.51318 2.31934,2.26074 4.63184,1.66065 1.28027,-0.33008 1.9707,-1.42823 3.06542,-2.00733 1.29004,-0.68506 2.77051,-0.49316 3.89356,-1.62109 2.66016,-2.6709 3.7417,-5.3628 7.78418,-5.52881 0.72168,1.34277 -2.38428,4.26807 -3.40625,5.13428 -2.88135,2.42871 -5.43848,5.88769 -9.37793,6.54785 -2.64356,0.44385 -6.83789,0.40429 -9.12158,-1.21729 -0.646,-0.45801 -0.88916,-0.92871 -0.86084,-1.36328 0.0708,-1.13428 1.98388,-1.99805 3.3916,-1.60498 m -41.47852,-6.521 c 1.51172,-1.08398 4.23828,-1.41796 4.70362,0.62452 0.42578,1.8667 -0.94873,6.13672 -3.3208,5.78857 -2.14649,-0.31299 -3.02198,-3.67139 -2.26758,-5.40381 0.15967,-0.37012 0.479,-0.71826 0.88476,-1.00928 m 9.91455,74.37305 c -0.59814,1.72315 -1.40576,3.26465 -3.42871,2.9624 -1.39502,-0.21045 -2.90136,-1.79101 -1.67822,-3.08886 0.70361,-0.74756 2.72998,-0.58057 3.68408,-0.60743 0.9502,-0.0259 1.62793,0.14258 1.42285,0.73389 m 2.375,-6.13769 c 0.19532,-0.65088 0.44776,-1.30518 0.5459,-1.39112 1.47608,-1.30517 3.88867,0.69434 2.94385,2.31836 -0.69629,1.19776 -4.05713,0.96485 -3.48975,-0.92724 m -11.71728,43.06738 c -3.36963,-4.42285 4.70166,-4.72217 2.56982,-0.76856 -0.93213,1.72364 -1.92285,1.61377 -2.56982,0.76856 m 1.6665,3.89062 c 0.47119,-0.87695 0.85938,-1.8706 1.56885,-2.58203 2.5625,-2.55664 2.55225,-5.30761 3.24756,-8.74218 0.38623,-1.93409 0.97754,-3.16602 0.7959,-5.19141 -0.0825,-0.93408 0.49219,-1.94629 0.27148,-2.86817 -0.20947,-0.89355 -1.48095,-1.48437 -1.22461,-2.37744 1.43994,-5.03369 6.39893,-0.14306 7.28321,2.50684 1.29052,3.85742 -2.70362,7.16455 -3.79786,10.49268 -0.74414,2.26806 -0.92431,4.94628 -2.32617,6.9541 -0.75732,1.08447 -4.98974,4.14013 -5.81836,1.80761 m 47.26563,-10.6792 c -0.021,0.0122 2.88379,2.74024 2.99756,2.95655 1.33056,2.52051 -2.12061,5.30761 -4.33936,3.4082 -0.6001,-0.51465 -0.53808,-1.22461 -0.50879,-1.98682 0.0605,-1.48291 0.32373,-3.70849 1.85059,-4.37793 m 2.53613,41.33204 c 1.00147,-1.11329 2.15527,-0.50684 3.48975,-0.5835 2.20556,-0.125 1.52099,-1.6665 3.13818,-2.51465 0.97119,-0.50976 2.68506,-0.5581 3.44238,0.36084 0.84375,1.01367 0.63428,3.25586 0.0933,4.3584 -1.32374,2.70557 -1.9419,2.52637 0.10449,4.86084 2.13818,2.43994 -3.70166,6.74316 -6.05713,6.36963 -2.62061,-0.41699 -5.70703,-2.52832 -7.57227,-4.29688 -1.12158,-1.05957 -1.76904,-2.2622 -3.15332,-3.01464 -1.85937,-1.01172 -4.0708,-0.46729 -6.01074,-1.17872 -1.71338,-0.63037 -3.92041,-1.08447 -5.5166,-1.88525 -1.16992,-0.58789 -1.99658,-1.78906 -2.95801,-2.63867 -1.87988,-1.65576 -1.5459,-3.67236 -1.01025,-5.91016 0.27929,-1.1709 0.18799,-1.63769 1.37988,-2.06201 3.1582,-1.12646 4.64355,2.44678 5.73779,4.66895 0.49024,1.00097 2.35938,3.03125 3.1919,1.48632 0.92724,-1.72314 -2.76905,-4.83203 -3.4878,-6.09961 -0.51025,-0.89355 -1.01904,-2.61084 -0.36767,-3.54638 0.46582,-0.66895 1.88476,-0.96094 2.6289,-0.85401 1.49561,0.20899 1.61817,0.98487 1.61817,2.46778 0,2.24902 1.6582,1.50683 2.79053,2.61523 1.2666,1.23535 0.27148,3.47705 0.48291,5.01172 0.27832,2.07178 2.07226,2.75 3.65332,3.69775 2.11523,1.26758 2.62256,3.19581 4.36523,4.77002 1.65527,1.49317 5.9585,0.87207 3.56445,-1.60156 -0.53857,-0.56103 -1.90185,-0.58789 -2.56689,-1.08594 -1.02148,-0.7622 -1.92285,-2.22705 -1.00732,-3.36425 0.008,-0.0117 0.0142,-0.021 0.0269,-0.0312 m -41.72851,11.58203 c -0.3462,-1.34766 -0.37256,-3.66699 0.66943,-4.75391 1.54443,-1.6084 5.11328,-0.51953 7.18213,-1.17432 0.98095,-0.30908 2.76513,-0.51123 3.48779,-1.27783 1.13281,-1.19677 0.22168,-2.95215 0.48096,-4.38379 0.71142,-3.90527 5.28271,0.56397 3.38623,3.71192 -1.87451,3.10742 -5.89112,4.11621 -8.2749,6.63818 -1.30079,1.37354 -2.29151,4.05567 -4.59864,3.46875 -1.38623,-0.35254 -2.06884,-1.19433 -2.333,-2.229 m -11.59766,-36.61182 c 0.82959,0.73877 0.5918,3.14649 0.53857,4.15234 -0.0522,1.04053 -0.95263,1.82276 -1.3623,2.71631 -0.36328,0.79102 -0.17871,1.7295 -0.48633,2.38965 -0.65137,1.37891 -2.54932,1.71436 -3.96143,1.56836 -3.71289,-0.3833 -4.31445,-4.68896 -2.65527,-7.27441 0.80762,-1.26172 2.04834,-2.13672 3.39453,-2.75196 1.00196,-0.45556 3.08545,-1.5083 4.23047,-0.99414 0.11231,0.0478 0.21094,0.11426 0.30176,0.19385 m -64.8232,125.88518 c -0.72217,-0.50048 -1.36817,-1.31738 -0.76807,-2.07177 0.95117,-1.19141 3.47168,-0.72071 4.76221,-0.55908 1.91308,0.24316 4.77294,0.89209 6.3706,1.95654 -1.0415,1.82861 -4.53955,1.13721 -6.22217,1.16113 -1.02392,0.0147 -2.24707,0.24463 -3.27783,-0.0522 -0.24463,-0.0693 -0.56055,-0.22413 -0.86474,-0.43458 m 45.97656,-27.03662 c 0.46631,2.35303 -2.74756,3.46387 -4.28223,2.12207 -0.81738,-0.71533 -1.16748,-2.79882 -0.27002,-3.62402 0.76416,-0.70215 1.97949,-0.24853 2.81348,0.0801 0.88135,0.34473 1.625,0.84521 1.73877,1.42187 m -3.33252,29.89258 c 0.86963,1.22656 0.73242,1.44531 2.38232,1.37744 0.23096,-0.009 2.81543,-0.22558 2.82959,0.019 0.0127,1.5288 1.40088,3.73974 -0.10547,4.65966 -1.03808,0.63379 -4.48535,0.51563 -5.65625,0.56055 -0.69433,0.0269 -7.94336,0.5293 -8.02197,0.19092 -0.20752,-0.85986 -0.50928,-2.0791 -0.98144,-2.83203 -0.64747,-1.03369 -1.60108,-1.74024 -2.86768,-1.68946 -1.05078,0.0415 -1.9292,0.50684 -2.69336,1.19141 -1.479,1.32422 -1.85449,3.00098 -4.14893,2.23828 -1.43603,-0.47607 -3.09765,-1.76025 -3.74755,-3.15429 -0.72559,-1.55567 -2.37403,-4.88379 0.19043,-5.73731 0.95752,-0.31836 2.24658,0.12793 3.20263,0.25732 1.50098,0.20264 3.02295,0.28272 4.53906,0.24024 1.89502,-0.0464 3.80372,0.14844 5.69874,0.16894 1.36914,0.0156 2.69238,0.37549 4.01123,0.75538 1.46337,0.4248 4.42675,0.42675 5.36865,1.7539 m -28.4336,-8.10888 c 1.19825,-0.47559 3.26758,-0.39063 4.00245,-0.43897 1.37207,-0.0898 2.79541,-0.24414 4.13574,0.15479 1.31689,0.39257 2.30957,1.50878 3.6665,1.76367 2.76856,0.51758 5.68262,-0.22998 8.43311,-0.51172 3.27343,-0.3335 6.5747,-0.49268 9.86084,-0.24707 1.33545,0.10156 2.58056,-0.24463 3.86181,-0.56348 1.80518,-0.44922 3.49219,-1.41553 4.05274,1.04541 0.38623,1.70117 -1.53125,2.62891 -2.95703,3.01758 -0.9541,0.26123 -2.30762,0.17725 -3.31104,0.22559 -1.66357,0.0845 -3.63281,0.50927 -5.30127,0.50634 -3.51758,-0.007 -6.7666,-0.67871 -10.27197,-0.95312 -3.44336,-0.26953 -6.67285,-0.71875 -10.15088,-0.47315 -1.90283,0.13379 -5.44629,0.29786 -6.62256,-1.65918 -0.60058,-0.99804 -0.18994,-1.55371 0.60156,-1.86669 m 53.36719,-5.12354 c -0.48877,-0.93604 -0.6206,-2.03467 0.0259,-2.63135 1.72412,-1.56396 3.41357,-3.63428 5.14844,-0.9248 1.90381,2.96777 -0.0811,5.02539 -3.06445,5.21289 -0.78077,0.0474 -1.61915,-0.72363 -2.10987,-1.65674 m -12.94629,17.59473 c -0.58838,-0.80909 -0.95215,-2.01563 -0.65381,-3.00293 0.1377,-0.45264 0.41895,-1.07618 0.90186,-1.2627 1.18213,-0.45312 1.83643,2.46192 3.55518,2.42432 1.59765,-0.0371 3.03759,-1.60938 4.05126,-2.70752 1.56543,-1.6958 0.10401,-2.22901 -0.061,-3.96631 -0.0991,-1.02979 0.41748,-1.86523 1.35742,-2.2959 1.61328,-0.73828 5.46826,-1.03564 7.02051,0.0649 1.56055,1.10498 -0.1582,4.22852 -1.57715,4.64209 -1.54834,0.45313 -3.32031,0.89698 -3.50146,2.81201 -0.12256,1.26612 0.16845,1.97998 1.36328,2.53565 0.55908,0.26025 1.23486,0.1665 1.6167,0.72558 1.68115,2.48438 -4.06446,1.53125 -4.81641,1.39112 -1.45166,-0.27051 -2.8916,0.0952 -4.3457,0.0747 -1.26123,-0.0166 -4.08789,-0.30762 -4.91065,-1.43506 M 279.3853,510.59469 c -0.37207,-0.23926 -0.69384,-0.56592 -0.93701,-1.00928 -1.31543,-2.39746 0.52442,-5.55029 1.8374,-7.51563 1.49268,-2.23242 3.06153,-4.71923 5.73829,-5.61132 1.41015,-0.46827 4.01904,-0.37842 5.55224,-0.0825 1.52197,0.29297 2.50049,1.78857 3.84619,2.43945 1.09815,0.53125 2.44385,-0.2666 3.50147,0.34326 1.03564,0.59717 0.97461,1.87158 1.47314,2.82178 0.57666,1.10156 1.48096,4.26123 3.10157,4.12744 1.30664,-0.10645 0.77734,-1.43701 1.00146,-2.34473 0.43311,-1.7539 2.2417,-3.00732 4.02637,-2.90136 1.05176,0.0615 1.41992,0.71338 2.3042,1.04931 1.54589,0.58594 4.40576,0.17578 4.92236,2.26905 0.0381,0.15918 -3.34277,1.95019 -3.61475,2.44482 -0.40136,0.72607 0.0342,1.86475 -0.68505,2.47412 -0.63428,0.54248 -2.04932,0.40039 -2.70362,0.02 -0.82959,-0.48291 -0.61328,-1.36963 -1.77148,-0.49365 -0.80274,0.60742 -0.79492,1.88428 -1.48389,2.59033 -0.72119,0.74512 -1.63818,0.89844 -2.78516,1.00147 -1.15039,0.10253 -3.07959,0.27001 -4.18212,-0.12452 -1.68897,-0.60644 -2.26319,-1.69238 -2.67286,-3.3125 -0.30712,-1.21533 -1.36328,-2.80713 -2.41406,-1.27685 -0.61719,0.89599 -0.24219,2.41797 -0.5039,3.43701 -0.30372,1.1792 -0.61231,1.05176 -1.86084,1.19873 -2.60694,0.30762 -4.64161,-1.07764 -7.15284,-0.98096 -1.44189,0.0552 -3.28271,0.24024 -4.53711,-0.56347 m 53.96192,-86.23877 c 1.21435,0.99707 -0.63477,3.14892 -0.90821,4.21093 -0.19189,0.75635 -0.50244,3.71485 0.67334,4.02979 1.32374,0.35449 2.10987,-3.05566 2.54786,-3.85303 2.71728,-4.98779 5.72754,-7.49316 11.01806,-8.4751 1.7085,-0.31591 1.77832,-1.61669 1.35205,-3.01074 -0.90625,-2.9541 -1.77539,-5.62353 -5.44384,-4.29248 -1.28614,0.46924 -2.09815,1.40918 -2.48047,2.72803 -0.36914,1.27246 -0.18262,2.26953 -1.38184,3.17041 -0.67334,0.50537 -2.63721,2.2168 -3.29785,1.01221 -0.625,-1.1543 1.3335,-2.54932 1.74756,-3.55664 0.43994,-1.08594 0.25928,-2.34034 0.92236,-3.34473 0.61328,-0.92676 1.58252,-0.93848 1.74805,-2.21094 0.25,-1.92187 0.0337,-8.28174 -2.93653,-8.09717 -2.91845,0.1836 -2.41406,5.85938 -3.31494,7.68067 -0.52197,1.05127 -1.34423,2.85742 -2.55713,3.30127 -1.81103,0.66015 -2.0249,-0.97949 -3.12695,-1.98682 -0.89941,-0.81836 -1.90723,-1.14453 -3.12256,-0.98047 -1.2749,0.17139 -4.79345,0.95459 -3.75879,3.05127 0.43653,0.88721 0.33789,1.96729 0.86524,2.79444 0.76123,1.18212 2.39551,2.53857 1.00195,4.25732 -2.3418,2.89648 -3.12988,-2.45117 -3.56738,-3.43018 -0.36328,-0.8042 -1.02051,-1.48144 -1.34326,-2.3042 -0.44971,-1.15625 -0.12305,-3.38525 -1.22559,-4.19287 -1.13232,-0.83007 -2.74756,0.18067 -3.93555,0.30176 -2.20068,0.22315 -3.2915,0.36914 -5.18408,1.2666 -2.5039,1.18555 -6.10205,0.45117 -8.84375,0.84229 -0.62109,0.0474 -3.41064,-0.24365 -1.59033,-1.42871 3.79199,-2.46485 6.02686,-4.06787 8.80713,-7.45752 1.52002,-1.85303 2.43017,-3.75244 4.74951,-4.66406 2.25684,-0.88428 3.1709,1.20166 5.54932,-0.53223 1.38476,-1.00928 1.98095,-0.22412 2.59912,-1.83301 1.27197,-3.30713 -1.37549,-2.37012 -3.40137,-2.58105 -0.80371,-0.0884 -0.28662,-2.0044 0.0137,-2.32325 1.79151,-1.88769 3.33252,0.28272 4.81299,0.48096 1.87647,0.25147 4.46484,-0.4043 3.63818,-2.86767 -0.74023,-2.2212 -5.45068,-1.72657 -7.18896,-2.85743 -1.6626,-1.08007 -0.85791,-3.48925 -3.20654,-3.71631 -2.03223,-0.19531 -3.15332,4.23047 -5.56006,3.42579 -0.96289,-0.32032 -1.96387,-2.58936 -3.0752,-3.21045 -0.81054,-0.44678 -1.34424,-1.31787 -2.08642,-1.84082 -1.021,-0.72071 -5.2378,-1.51172 -5.10352,0.62988 0.0547,0.86182 3.07129,2.45605 3.87354,2.83789 1.35205,0.64697 3.13086,0.79736 3.72754,2.38525 0.51953,1.37598 -0.3877,2.29932 -0.66114,3.54834 -0.14258,0.65039 2.08643,7.41944 -1.41552,3.78614 -0.80518,-0.83594 -0.56055,-2.33252 -1.51954,-2.90088 -1.6123,-0.95362 -3.54492,0.854 -5.1582,-0.10694 -1.29101,-0.76562 -1.53955,-2.79394 -2.73974,-3.75683 -1.21729,-0.97608 -2.90088,-0.71289 -4.25635,-1.36084 -1.46143,-0.69922 -2.40918,-2.1294 -3.63916,-3.12793 -1.54151,-1.2544 -1.66114,-1.60205 -3.30762,-0.54444 -1.18408,0.75928 -1.94092,1.76514 -3.02295,2.64502 -1.56934,1.2754 -2.28125,0.53125 -4.18262,0.37891 -2.9165,-0.22998 -2.70752,2.91162 -2.70752,5.07129 0,2.48926 -0.98974,4.83057 -1.93701,7.12988 -4.04736,9.85254 8.18213,17.26367 3.95899,27.66162 4.479,1.17334 5.53857,4.40332 4.93994,8.89453 -0.40479,3.02784 -4.12988,5.32276 -4.33643,7.73975 -0.30127,3.5332 2.11963,3.18848 2.67774,6.54395 1.16992,7.03222 -2.66504,12.07324 -4.64063,18.41357 -0.6709,2.14795 -2.98584,7.18457 -1.86523,9.35352 0.50635,0.97754 2.98242,5.74902 4.4873,2.18017 1.01514,-2.40918 -0.1206,-5.17138 0.007,-7.66162 0.0786,-1.54053 2.3623,-6.36182 4.01464,-3.05566 0.31836,0.63525 -0.47656,2.6997 -0.47656,2.6997 0,0 -0.4375,3.79493 -0.47412,4.10889 -0.19482,1.69629 -0.1206,3.39795 -0.0689,5.09961 0.12354,4.08545 -4.47461,5.8208 -5.91455,9.22217 -0.82324,1.94043 0.33643,3.09814 0.74073,4.90625 0.43798,1.95654 0.1748,4.94775 -0.64405,6.76855 -0.44336,0.98975 -1.39746,1.32129 -1.82715,2.14258 -0.44043,0.84277 -0.24707,2.29443 -0.17724,3.2124 0.0747,1.00391 1.01513,2.61035 1.83887,1.4917 0.42822,-0.58545 0.30273,-2.28613 0.43701,-3.05957 0.6084,-3.63281 2.29638,-10.67334 4.6455,-13.58203 0.77295,-0.95752 2.3628,-2.3584 3.66358,-1.52637 1.49902,0.95557 1.06201,2.88428 3.41455,1.13965 1.13721,-0.84375 1.66748,-2.1333 2.82471,-2.56299 1.71045,-0.62988 3.95019,-0.084 5.57715,-0.84082 0.65039,-0.30273 3.6748,-8.02685 4.51123,-9.45996 3.03564,-5.21484 7.37646,-9.61328 10.31543,-14.98486 3.48046,-6.36377 7.76513,-16.04346 12.99658,-21.04981 2.73828,-2.61718 2.875,-6.20605 4.92138,-9.15185 0.77051,-1.10889 2.86182,-2.32568 3.39991,-3.375 0.97607,-1.89209 0.23584,-2.4751 0.81445,-4.20361 0.28809,-0.85401 1.94775,-1.85889 2.77881,-1.18506 m -48.71729,61.88916 c -0.0381,-0.0581 -0.0732,-0.12061 -0.10351,-0.18848 -0.74463,-1.60254 2.44482,-4.80762 3.09082,-6.23291 1.18652,-2.62402 3.79931,-3.48389 4.80078,-6.05859 0.36914,-0.94727 0.39307,-4.4292 1.50195,-4.86475 1.34375,-0.52881 1.24024,1.67334 1.21436,2.61768 -0.0928,3.19287 -1.83936,5.57519 -3.27393,8.26269 -0.72754,1.36328 -1.02978,3.16651 -1.89502,4.41944 -0.78662,1.14013 -4.23193,3.77246 -5.33545,2.04492 m 11.18311,-20.82666 c -1.15576,-0.1709 -1.44531,-2.13526 -1.1001,-3.01367 0.31543,-0.80616 2.58936,-2.31983 3.31787,-1.61963 0.5293,0.50586 -0.43652,3.86572 -1.03906,4.25586 -0.48633,0.31543 -0.87109,0.42187 -1.17871,0.37744 m -16.79297,-39.9209 c -0.70264,-0.69922 0.28418,-2.42139 1.01709,-3.27686 0.78955,-0.92529 1.98486,-1.74463 2.52539,-2.90722 1.01514,-2.1792 0.43018,-5.02588 2.01416,-6.93457 2.56494,0.7788 0.86279,6.2622 0.29102,8.04736 -0.4917,1.53467 -0.90577,2.37012 -2.16309,3.41113 -0.55811,0.45703 -2.3916,2.0708 -3.12695,1.92774 -0.24854,-0.0488 -0.43067,-0.14112 -0.55762,-0.26758 m 9.36133,-19.04688 c -0.0957,-0.0693 -0.17822,-0.15527 -0.24903,-0.25586 -0.84863,-1.23486 0.6211,-4.78222 1.52784,-5.68798 1.43847,-1.43897 4.56396,-2.15332 6.54687,-1.9712 0.65381,0.0586 1.50733,-0.18212 1.91016,0.52002 0.25927,0.45264 -0.2583,2.15381 -0.75,2.29834 -1.61621,0.47071 -3.85059,0.32764 -5.19043,1.58936 -0.97559,0.91748 -1.88233,4.89355 -3.79541,3.50732 m -0.81641,18.48145 c -0.5664,-1.19434 -0.21435,-2.51465 1.9458,-3.48926 4.06006,-1.83447 9.50098,1.13721 13.41699,2.31006 4.06495,1.21533 8.15821,-1.65723 12.18116,-1 1.78613,0.29248 3.62207,1.17432 1.81299,2.72803 -1.98389,1.70312 -5.06446,0.11425 -7.19532,0.0918 -3.14013,-0.0332 -6.52929,0.98633 -9.26758,2.4043 -3.35742,1.73877 -5.7539,0.71338 -9.24414,-0.29932 -1.54199,-0.44726 -3.07129,-1.53222 -3.6499,-2.7456 M 255.26758,294.11768 c 1.6709,-0.69922 2.54394,-1.58497 4.29785,-1.45704 0.73682,5.26514 -6.20996,7.06885 -9.479,9.667 -2.87989,2.29541 0.16259,5.91015 2.96386,6.31347 3.23389,0.46289 5.93116,-3.69824 9.15576,-3.83496 3.31495,-0.14013 4.91749,1.44873 7.15674,3.72949 2.33057,2.3794 7.3628,13.17872 0.0186,12.35596 -1.97949,-0.22217 -4.34326,-4.44629 -6.58545,-5.29639 -2.62695,-0.99902 -5.56641,-0.67529 -8.3042,-1.74169 -2.89209,-1.1294 -7.61768,-1.99561 -9.63232,-4.5586 -3.09034,-3.92187 -0.0117,-4.93115 1.06396,-8.69385 0.69336,-2.43554 1.53516,-5.58837 -0.2583,-7.23388 -1.08301,4.11474 -4.68945,6.73926 -6.10205,10.66064 -1.61279,4.49561 1.40576,6.05078 2.53955,9.86768 2.67334,9.00781 -0.061,16.74609 8.63428,23.00293 3.23437,2.32617 3.2998,3.18164 4.86718,6.63916 1.03565,2.28467 2.77784,4.17041 3.69336,6.43652 1.13086,2.80029 0.30616,5.86377 1.58155,8.7124 1.3247,2.95362 2.96142,4.13282 3.78906,7.52393 0.68066,2.79297 2.23291,5.40039 2.83203,7.97803 0.67383,2.89209 -1.78613,8.28808 1.9043,9.50634 6.6831,2.21534 5.77392,-7.15527 7.59814,-9.50781 1.7168,-2.21484 7.23682,-1.26465 8.91699,0.32227 2.43164,2.29345 -0.0239,4.93261 4.47657,5.34619 3.75732,0.34717 5.77832,-3.89063 9.36084,-4.12354 4.28564,-0.28466 3.37988,1.66895 5.80078,3.94141 4.50342,4.23682 7.74902,-3.20313 11.69824,-0.97461 1.25439,0.71143 0.33594,3.12061 2.19629,3.7959 2.29297,0.83008 3.93066,-0.98779 5.11523,-2.56397 4.9917,-6.64257 -0.0786,-30.94873 -10.86572,-25.94238 -0.69092,-1.49121 -0.59033,-3.36572 0.21094,-4.9375 1.53271,1 2.34033,0.37891 3.53076,0.69922 -0.45947,-1.59668 -2.31299,-2.10596 -2.77441,-3.26758 -0.85254,-2.13721 -0.48047,-3.354 -0.93702,-5.94531 -0.52685,-2.98486 -1.70654,-4.1294 -3.21142,-6.77344 -1.4126,-2.48877 -1.32666,-5.26367 -2.42774,-7.54785 -3.46093,-7.18457 -12.94677,-5.25342 -19.37158,-5.54346 -3.09375,-0.14013 -6.67187,-0.1416 -9.08301,-2.40185 -3.26611,-3.06201 -2.86132,-9.2085 -5.125,-13.05371 -0.72363,-1.23047 -8.65039,-10.11377 -9.71972,-9.3877 6.45215,-4.39111 6.05175,2.36182 10.75976,3.08008 7.26221,1.1084 0.67334,-8.33545 -1.63574,-10.1665 -4.71191,-3.73243 -6.1709,-6.53907 -11.48926,-4.25147 -2.86279,1.23096 -7.78857,2.1958 -9.59521,5.00879 -1.00147,1.56006 -1.40186,3.51855 -0.68506,4.47656 0.48144,0.64209 1.46973,0.83448 3.11963,0.14112 m 7.00195,53.91357 c -0.73096,0.15723 -1.0918,-1.71143 -0.99267,-2.25879 0.0815,-0.44971 0.12988,-0.89502 0.45849,-1.24219 0.60791,-0.64013 0.97168,-0.68115 1.16699,-0.40332 0.42627,0.60498 0.23877,3.72217 -0.63281,3.9043 m 7.63135,19.7085 c -2.21143,-1.91895 2.79834,-4.35352 2.0083,-0.89161 -0.32373,1.41797 -1.36865,1.44678 -2.0083,0.89161 m -2.94287,-5.00537 c -0.13819,-0.0669 -0.27442,-0.1919 -0.40625,-0.39649 -0.45069,-0.71728 -0.0259,-2.86328 -0.1626,-3.71289 -0.23779,-1.49219 -1.27441,-4.67139 1.31982,-3.90137 1.38916,0.41211 1.21143,3.11621 1.21827,4.28174 0.005,0.86035 -0.13672,1.77734 -0.5083,2.55957 -0.32618,0.68408 -0.90674,1.43018 -1.46094,1.16944 m -3.50196,-12.417 c 0.39747,0.0825 0.84131,0.29444 1.1211,0.6045 0.43359,0.48242 0.64648,1.00585 0.43555,1.65869 -0.27637,0.84961 -1.00196,0.66162 -1.41602,0.0615 -0.40674,-0.59082 -0.41113,-1.72656 -0.14063,-2.32471 m 22.07666,-4.70459 c 1.65772,2.62451 4.40723,4.01563 6.10987,6.38575 0.57275,0.79882 2.64941,5.88427 0.23096,5.61279 -1.67334,-0.18945 -1.29297,-3.45752 -1.92774,-4.41992 -0.86767,-1.31446 -2.44385,-1.47852 -3.49414,-2.45459 -0.43359,-0.40235 -0.15283,-1.42578 -0.71387,-1.92188 -0.48779,-0.43164 -1.48633,0.18945 -1.8291,-0.13525 -0.82666,-0.78662 -1.58984,-3.11914 -0.47851,-4.19776 0.97558,-0.9458 1.31787,-0.73242 1.55761,-0.19677 0.16895,0.38183 0.28858,0.92187 0.54492,1.32763 m -0.94482,-8.62304 c 3.09815,-4.41944 8.65918,4.1538 10.95899,5.65625 1.50878,0.98486 3.46923,0.56054 4.60156,2.29785 0.93115,1.42431 0.71924,4.27099 -1.22461,4.87011 -2.88965,0.88819 -3.50391,-5.17382 -5.87305,-6.47558 -2.24414,-1.23242 -11.5791,-1.18115 -8.65576,-6.04932 0.0635,-0.10547 0.12793,-0.20605 0.19287,-0.29931 m -34.2183,-20.89403 c 3.04004,0.12354 2.80762,0.73535 4.97949,2.06201 0.66358,0.40674 1.50049,0.1128 2.23145,0.42188 0.98632,0.41553 1.98681,1.33447 3.05127,1.80859 0.84472,0.37647 2.94238,0.83448 3.56201,1.4712 0.75097,0.77392 0.21142,2.06591 0.90185,2.81298 1.19727,1.28907 2.57959,0.44678 2.48633,2.91944 -0.0488,1.32324 -0.4668,2.61816 -0.61377,3.93164 -0.11523,1.03662 -0.0947,2.27197 -1.04492,2.94433 -2.56494,1.81641 -3.14209,-2.60791 -3.33154,-4.05713 -0.0825,-0.63525 -0.0171,-2.40966 -0.50489,-2.87744 -2.58203,-2.47949 -7.8291,2.22119 -10.25293,-1.4873 -1.02539,-1.56885 -4.26318,-7.88086 -2.9541,-9.63672 0.0132,-0.0186 0.0254,-0.0337 0.0371,-0.0518 0.38623,-0.47119 0.84131,-0.28711 1.45264,-0.26172 z"
         style="fill:url(#linearGradient28);fill-opacity:1;fill-rule:nonzero;stroke:none"
         id="path30" /><path
         d="m 294.63135,762.698 8.35351,-25.71265 h 27.04248 l -21.87451,-15.89404 8.35352,-25.71777 -21.875,15.89355 -21.875,-15.89355 8.35351,25.71777 -21.87451,15.89404 h 27.04248 z"
         style="fill:url(#radialGradient38);fill-opacity:1;fill-rule:nonzero;stroke:none"
         id="path40" /><path
         d="m 84.80713,678.16821 6.81885,-20.99048 h 22.07568 L 95.84424,644.20264 102.66406,623.2085 84.80713,636.18311 66.94922,623.2085 73.76855,644.20264 55.91113,657.17773 H 77.9873 Z"
         style="fill:url(#radialGradient48);fill-opacity:1;fill-rule:nonzero;stroke:none"
         id="path50" /><path
         d="m 504.56543,678.16821 -6.81934,-20.99048 h -22.07568 l 17.85742,-12.97509 -6.81982,-20.99414 17.85742,12.97461 17.85742,-12.97461 -6.81885,20.99414 17.85694,12.97509 h -22.07569 z"
         style="fill:url(#radialGradient58);fill-opacity:1;fill-rule:nonzero;stroke:none"
         id="path60" /></g></g></svg>