<?xml version="1.0" encoding="UTF-8"?>
<svg xmlns="http://www.w3.org/2000/svg" xmlns:xlink="http://www.w3.org/1999/xlink" width="490.83pt" height="568pt" viewBox="0 0 490.83 568" version="1.1">
<defs>
<clipPath id="clip1">
  <path d="M 0 0 L 490.828125 0 L 490.828125 568 L 0 568 Z M 0 0 "/>
</clipPath>
</defs>
<g id="surface1">
<path style=" stroke:none;fill-rule:nonzero;fill:rgb(0%,61.999512%,84.298706%);fill-opacity:1;" d="M 241.695313 560.492188 C 241.695313 560.492188 176.074219 548.492188 120.550781 466.492188 C 22.597656 321.835938 7.480469 118.492188 7.480469 118.492188 C 7.480469 118.492188 17.277344 112.046875 30.699219 75.492188 C 38.777344 53.492188 36.757813 33.492188 36.757813 33.492188 C 36.757813 33.492188 79.761719 45.335938 138.71875 39.492188 C 209.390625 32.492188 245.328125 7.496094 245.328125 7.496094 C 245.328125 7.496094 281.441406 32.496094 352.109375 39.496094 C 411.066406 45.339844 454.074219 33.496094 454.074219 33.496094 C 454.074219 33.496094 452.054688 53.496094 460.128906 75.496094 C 473.550781 112.054688 483.347656 118.496094 483.347656 118.496094 C 483.347656 118.496094 468.230469 321.84375 370.28125 466.5 C 314.757813 548.5 249.136719 560.5 249.136719 560.5 L 241.695313 560.492188 "/>
<path style=" stroke:none;fill-rule:nonzero;fill:rgb(100%,100%,100%);fill-opacity:1;" d="M 39.480469 35.742188 C 39.480469 35.742188 96.480469 49.242188 155.730469 37.242188 C 214.980469 25.242188 245.730469 9.492188 245.730469 9.492188 C 245.730469 9.492188 295.230469 37.992188 360.480469 41.742188 C 425.730469 45.492188 451.980469 37.242188 451.980469 37.242188 C 451.980469 37.242188 450.480469 54.492188 463.230469 82.242188 C 475.980469 109.992188 481.230469 121.242188 481.230469 121.242188 C 481.230469 121.242188 481.230469 136.242188 477.480469 163.992188 C 473.730469 191.742188 469.230469 213.492188 469.230469 213.492188 L 22.980469 212.742188 C 22.980469 212.742188 16.980469 193.992188 12.480469 160.242188 C 7.980469 126.492188 7.230469 121.992188 7.230469 121.992188 C 7.230469 121.992188 18.480469 109.242188 28.980469 82.242188 C 39.480469 55.242188 39.480469 35.742188 39.480469 35.742188 "/>
<path style=" stroke:none;fill-rule:nonzero;fill:rgb(53.69873%,75.698853%,53.29895%);fill-opacity:1;" d="M 13.980469 110.242188 L 13.980469 125.242188 L 481.359375 125.242188 L 481.359375 110.242188 L 13.980469 110.242188 "/>
<path style=" stroke:none;fill-rule:nonzero;fill:rgb(53.69873%,75.698853%,53.29895%);fill-opacity:1;" d="M 399.335938 412.992188 L 376.980469 456.492188 L 337.695313 505.242188 L 337.695313 211.441406 L 399.335938 211.441406 L 399.335938 412.992188 "/>
<path style=" stroke:none;fill-rule:nonzero;fill:rgb(53.69873%,75.698853%,53.29895%);fill-opacity:1;" d="M 276.019531 556.976563 L 214.378906 556.976563 L 214.378906 211.335938 L 276.019531 211.335938 L 276.019531 556.976563 "/>
<path style=" stroke:none;fill-rule:nonzero;fill:rgb(53.69873%,75.698853%,53.29895%);fill-opacity:1;" d="M 152.734375 502.992188 L 106.980469 451.992188 L 91.09375 415.242188 L 91.09375 211.335938 L 152.734375 211.335938 L 152.734375 502.992188 "/>
<path style=" stroke:none;fill-rule:nonzero;fill:rgb(53.69873%,75.698853%,53.29895%);fill-opacity:1;" d="M 21.230469 204.242188 L 21.230469 219.242188 L 470.480469 219.242188 L 470.480469 204.242188 L 21.230469 204.242188 "/>
<path style=" stroke:none;fill-rule:nonzero;fill:rgb(53.69873%,75.698853%,53.29895%);fill-opacity:1;" d="M 75.949219 187.472656 L 68.695313 187.472656 L 59.910156 156.957031 C 59.230469 154.628906 58.699219 152.726563 58.316406 151.25 C 58.097656 150.585938 57.835938 149.4375 57.519531 147.8125 L 59.734375 147.640625 C 59.59375 148.796875 59.351563 150.238281 59.011719 151.96875 C 58.871094 152.613281 58.507813 154.011719 57.917969 156.164063 L 49.308594 187.472656 L 42.292969 187.472656 L 55.664063 141.417969 L 61.765625 141.417969 L 75.949219 187.472656 "/>
<path style=" stroke:none;fill-rule:nonzero;fill:rgb(53.69873%,75.698853%,53.29895%);fill-opacity:1;" d="M 112.238281 187.472656 L 85.734375 187.472656 L 85.734375 141.417969 L 111.515625 141.417969 L 111.515625 149.449219 L 92.296875 149.449219 L 92.296875 159.691406 L 110.246094 159.691406 L 110.246094 167.722656 L 92.296875 167.722656 L 92.296875 179.441406 L 112.238281 179.441406 L 112.238281 187.472656 "/>
<path style=" stroke:none;fill-rule:nonzero;fill:rgb(53.69873%,75.698853%,53.29895%);fill-opacity:1;" d="M 150.519531 173.226563 C 150.519531 174.480469 150.414063 175.640625 150.207031 176.707031 C 149.566406 180.035156 148.378906 182.5625 146.652344 184.285156 C 144.585938 186.40625 141.414063 187.472656 137.132813 187.472656 L 123.613281 187.472656 L 123.613281 141.417969 L 136.886719 141.417969 C 138.929688 141.417969 140.804688 141.777344 142.503906 142.5 C 144.085938 143.277344 145.34375 144.253906 146.285156 145.4375 C 147.242188 146.710938 147.90625 148.074219 148.28125 149.53125 C 148.648438 150.960938 148.828125 152.40625 148.828125 153.863281 C 148.828125 156.105469 148.394531 158.125 147.523438 159.925781 C 146.96875 161.082031 146.359375 162.027344 145.691406 162.757813 C 145.75 162.800781 146 162.976563 146.441406 163.296875 C 149.160156 165.765625 150.519531 169.074219 150.519531 173.226563 M 142.269531 154.582031 C 142.269531 153.480469 142.070313 152.492188 141.679688 151.617188 C 141.285156 150.742188 140.714844 150.179688 139.960938 149.921875 C 138.90625 149.609375 137.433594 149.449219 135.554688 149.449219 L 130.175781 149.449219 L 130.175781 159.476563 L 136.082031 159.476563 C 137.933594 159.476563 139.183594 159.335938 139.828125 159.050781 C 141.457031 158.449219 142.269531 156.960938 142.269531 154.582031 M 143.675781 173.453125 C 143.675781 172.066406 143.433594 170.941406 142.957031 170.078125 C 142.417969 169.214844 141.722656 168.609375 140.871094 168.261719 C 139.972656 167.824219 138.527344 167.601563 136.539063 167.601563 L 130.175781 167.601563 L 130.175781 179.441406 L 137.082031 179.441406 C 137.835938 179.441406 138.328125 179.417969 138.566406 179.367188 C 141.972656 179.003906 143.675781 177.03125 143.675781 173.453125 "/>
<path style=" stroke:none;fill-rule:nonzero;fill:rgb(53.69873%,75.698853%,53.29895%);fill-opacity:1;" d="M 191.441406 187.472656 L 184.191406 187.472656 L 180.390625 174.328125 L 168.394531 174.328125 L 164.859375 187.472656 L 157.785156 187.472656 L 171.148438 141.417969 L 177.265625 141.417969 L 191.441406 187.472656 M 174.273438 152.960938 C 174.195313 153.4375 173.90625 154.496094 173.40625 156.140625 L 170.472656 166.765625 L 178.164063 166.765625 L 175.410156 156.929688 C 175.359375 156.738281 175.199219 156.15625 174.921875 155.195313 C 174.648438 154.234375 174.429688 153.484375 174.273438 152.960938 "/>
<path style=" stroke:none;fill-rule:nonzero;fill:rgb(53.69873%,75.698853%,53.29895%);fill-opacity:1;" d="M 231.859375 187.578125 L 225.519531 187.363281 L 198.109375 187.578125 L 211.527344 141.417969 L 217.632813 141.417969 L 231.859375 187.578125 M 222.261719 179.433594 L 215.773438 156.957031 C 215.003906 154.285156 214.480469 152.382813 214.195313 151.25 C 214.007813 150.691406 213.738281 149.546875 213.382813 147.8125 L 215.597656 147.640625 C 215.4375 148.972656 215.199219 150.410156 214.875 151.96875 C 214.628906 153.101563 214.277344 154.503906 213.828125 156.164063 L 207.503906 179.433594 L 222.261719 179.433594 "/>
<path style=" stroke:none;fill-rule:nonzero;fill:rgb(53.69873%,75.698853%,53.29895%);fill-opacity:1;" d="M 267.867188 187.472656 L 241.363281 187.472656 L 241.363281 141.417969 L 267.144531 141.417969 L 267.144531 149.449219 L 247.925781 149.449219 L 247.925781 159.691406 L 265.878906 159.691406 L 265.878906 167.722656 L 247.925781 167.722656 L 247.925781 179.441406 L 267.867188 179.441406 L 267.867188 187.472656 "/>
<path style=" stroke:none;fill-rule:nonzero;fill:rgb(53.69873%,75.698853%,53.29895%);fill-opacity:1;" d="M 285.617188 187.472656 L 279.054688 187.472656 L 279.054688 141.417969 L 285.617188 141.417969 L 285.617188 187.472656 "/>
<path style=" stroke:none;fill-rule:nonzero;fill:rgb(53.69873%,75.698853%,53.29895%);fill-opacity:1;" d="M 329.320313 187.472656 L 322.070313 187.472656 L 318.269531 174.328125 L 306.273438 174.328125 L 302.738281 187.472656 L 295.664063 187.472656 L 309.03125 141.417969 L 315.144531 141.417969 L 329.320313 187.472656 M 312.15625 152.960938 C 312.074219 153.4375 311.785156 154.496094 311.285156 156.140625 L 308.351563 166.765625 L 316.042969 166.765625 L 313.289063 156.929688 C 313.238281 156.738281 313.078125 156.15625 312.800781 155.195313 C 312.527344 154.234375 312.3125 153.484375 312.15625 152.960938 "/>
<path style=" stroke:none;fill-rule:nonzero;fill:rgb(53.69873%,75.698853%,53.29895%);fill-opacity:1;" d="M 369.515625 187.472656 L 360.953125 187.472656 L 349.722656 166.566406 L 345.832031 171.730469 L 345.832031 187.472656 L 339.269531 187.472656 L 339.269531 141.417969 L 345.832031 141.417969 L 345.832031 160.550781 L 360.230469 141.417969 L 368.914063 141.417969 L 354.535156 160.53125 L 369.515625 187.472656 "/>
<path style=" stroke:none;fill-rule:nonzero;fill:rgb(53.69873%,75.698853%,53.29895%);fill-opacity:1;" d="M 410.929688 164.472656 C 410.929688 172.164063 409.390625 178.179688 406.308594 182.511719 C 403.238281 186.886719 399.230469 189.074219 394.289063 189.074219 C 389.339844 189.074219 385.332031 186.886719 382.269531 182.511719 C 379.1875 178.1875 377.648438 172.175781 377.648438 164.472656 C 377.648438 156.9375 379.1875 151.007813 382.269531 146.683594 C 385.332031 142.316406 389.339844 140.136719 394.289063 140.136719 C 399.230469 140.136719 403.238281 142.316406 406.308594 146.683594 C 409.390625 151.019531 410.929688 156.949219 410.929688 164.472656 M 404.273438 164.613281 C 404.273438 158.597656 403.277344 154.324219 401.289063 151.800781 C 399.289063 149.316406 396.957031 148.074219 394.289063 148.074219 C 391.625 148.074219 389.289063 149.316406 387.289063 151.800781 C 385.300781 154.324219 384.304688 158.597656 384.304688 164.613281 C 384.304688 170.617188 385.300781 174.886719 387.289063 177.410156 C 389.289063 179.894531 391.625 181.136719 394.289063 181.136719 C 396.957031 181.136719 399.289063 179.894531 401.289063 177.410156 C 403.277344 174.886719 404.273438 170.617188 404.273438 164.613281 "/>
<path style=" stroke:none;fill-rule:nonzero;fill:rgb(53.69873%,75.698853%,53.29895%);fill-opacity:1;" d="M 448.625 187.472656 L 420.6875 187.472656 L 420.6875 180.101563 L 431.0625 162.820313 L 422.238281 148.484375 L 422.238281 141.417969 L 447.710938 141.417969 L 447.710938 149.449219 L 431.019531 149.449219 C 431.3125 149.929688 431.59375 150.382813 431.851563 150.804688 C 432.113281 151.230469 432.382813 151.675781 432.65625 152.144531 L 439.285156 162.820313 L 429.570313 178.769531 L 429.160156 179.441406 L 448.625 179.441406 L 448.625 187.472656 "/>
<g clip-path="url(#clip1)" clip-rule="nonzero">
<path style=" stroke:none;fill-rule:nonzero;fill:rgb(53.69873%,75.698853%,53.29895%);fill-opacity:1;" d="M 241.0625 1.328125 C 240.714844 1.566406 205.539063 25.339844 137.980469 32.03125 C 81.257813 37.648438 39.160156 26.375 38.742188 26.261719 C 36.363281 25.609375 33.8125 26.179688 31.929688 27.765625 C 30.042969 29.355469 29.054688 31.777344 29.292969 34.230469 C 29.3125 34.414063 30.992188 52.925781 23.660156 72.90625 C 11.796875 105.222656 3.152344 112.363281 3.066406 112.429688 L 3.359375 112.226563 C 1.199219 113.746094 -0.195313 116.414063 0 119.050781 C 0.0390625 119.5625 4.007813 171.257813 19.976563 239.945313 C 34.738281 303.441406 63.09375 395.019531 114.339844 470.699219 C 170.976563 554.34375 237.539063 567.355469 240.34375 567.871094 C 240.789063 567.953125 241.238281 567.992188 241.6875 567.992188 L 249.128906 568 C 249.585938 568 250.035156 567.960938 250.484375 567.875 C 253.289063 567.363281 319.851563 554.347656 376.492188 470.707031 C 427.734375 395.027344 456.089844 303.449219 470.851563 239.949219 C 486.820313 171.261719 490.789063 119.566406 490.828125 119.054688 C 491.023438 116.421875 489.628906 113.75 487.472656 112.230469 L 487.761719 112.4375 C 487.675781 112.367188 479.035156 105.226563 467.171875 72.914063 C 459.835938 52.933594 461.519531 34.421875 461.535156 34.238281 C 461.773438 31.78125 460.789063 29.359375 458.902344 27.769531 C 457.015625 26.183594 454.46875 25.613281 452.089844 26.265625 C 451.667969 26.378906 409.570313 37.652344 352.847656 32.035156 C 285.28125 25.34375 249.933594 1.558594 249.585938 1.320313 C 247.023438 -0.4375 243.617188 -0.433594 241.0625 1.328125 M 139.460938 46.957031 C 198.371094 41.121094 233.699219 23.175781 245.335938 16.328125 C 257.003906 23.164063 292.4375 41.125 351.367188 46.960938 C 395.300781 51.3125 430.265625 46.152344 446.398438 42.925781 C 446.671875 51.449219 448.058594 64.378906 453.089844 78.082031 C 462.8125 104.566406 470.972656 116.347656 475.5625 121.402344 C 473.03125 148.363281 452.925781 331.070313 364.070313 462.296875 C 313.8125 536.519531 254.632813 551.585938 248.351563 553 C 247.234375 553 243.59375 552.992188 242.488281 552.992188 C 236.242188 551.589844 177.039063 536.539063 126.757813 462.289063 C 37.902344 331.0625 17.796875 148.355469 15.265625 121.398438 C 19.859375 116.339844 28.015625 104.558594 37.738281 78.078125 C 42.769531 64.371094 44.160156 51.445313 44.429688 42.921875 C 60.5625 46.148438 95.527344 51.308594 139.460938 46.957031 "/>
</g>
<path style=" stroke:none;fill-rule:nonzero;fill:rgb(100%,100%,100%);fill-opacity:1;" d="M 216.496094 225.773438 L 232.898438 225.773438 L 232.898438 247.242188 L 228.722656 247.242188 L 228.722656 229.429688 L 220.671875 229.429688 L 220.671875 247.242188 L 216.496094 247.242188 L 216.496094 225.773438 "/>
<path style=" stroke:none;fill-rule:nonzero;fill:rgb(100%,100%,100%);fill-opacity:1;" d="M 255.730469 247.242188 L 251.230469 247.242188 L 249.449219 242.367188 L 241.21875 242.367188 L 239.535156 247.242188 L 235.054688 247.242188 L 242.9375 225.773438 L 247.460938 225.773438 L 255.730469 247.242188 M 248.0625 238.710938 L 245.21875 230.789063 L 242.480469 238.710938 L 248.0625 238.710938 "/>
<path style=" stroke:none;fill-rule:nonzero;fill:rgb(100%,100%,100%);fill-opacity:1;" d="M 257.980469 247.242188 L 257.980469 225.773438 L 273.191406 225.773438 L 273.191406 229.429688 L 262.15625 229.429688 L 262.15625 234.164063 L 272.398438 234.164063 L 272.398438 237.820313 L 262.15625 237.820313 L 262.15625 243.585938 L 273.589844 243.585938 L 273.589844 247.242188 L 257.980469 247.242188 "/>
<path style=" stroke:none;fill-rule:nonzero;fill:rgb(100%,100%,100%);fill-opacity:1;" d="M 218.90625 508.679688 L 224.816406 508.679688 L 224.816406 530.242188 L 220.882813 530.242188 L 220.882813 512.476563 L 216.621094 512.476563 L 218.90625 508.679688 "/>
<path style=" stroke:none;fill-rule:nonzero;fill:rgb(100%,100%,100%);fill-opacity:1;" d="M 238.074219 530.757813 L 234.765625 529.054688 L 238.378906 521.710938 C 236.613281 521.710938 235.117188 521.058594 233.878906 519.753906 C 232.644531 518.449219 232.027344 516.828125 232.027344 514.886719 C 232.027344 513.007813 232.65625 511.417969 233.921875 510.117188 C 235.179688 508.816406 236.703125 508.164063 238.488281 508.164063 C 240.355469 508.164063 241.910156 508.839844 243.152344 510.1875 C 244.394531 511.535156 245.015625 513.085938 245.015625 514.839844 C 245.015625 515.5 244.921875 516.164063 244.730469 516.832031 C 244.539063 517.5 244.097656 518.527344 243.40625 519.917969 L 238.074219 530.757813 M 238.570313 517.820313 C 239.308594 517.820313 239.929688 517.542969 240.429688 516.992188 C 240.929688 516.441406 241.179688 515.757813 241.179688 514.945313 C 241.179688 514.109375 240.917969 513.414063 240.394531 512.851563 C 239.867188 512.289063 239.257813 512.007813 238.554688 512.007813 C 237.820313 512.007813 237.183594 512.289063 236.65625 512.84375 C 236.125 513.402344 235.859375 514.097656 235.859375 514.929688 C 235.859375 515.753906 236.117188 516.441406 236.632813 516.992188 C 237.148438 517.542969 237.796875 517.820313 238.570313 517.820313 "/>
<path style=" stroke:none;fill-rule:nonzero;fill:rgb(100%,100%,100%);fill-opacity:1;" d="M 254.808594 508.164063 L 258.113281 509.878906 L 254.5 517.210938 C 256.265625 517.210938 257.765625 517.867188 259 519.171875 C 260.238281 520.480469 260.855469 522.101563 260.855469 524.042969 C 260.855469 525.917969 260.222656 527.503906 258.960938 528.804688 C 257.699219 530.109375 256.179688 530.757813 254.394531 530.757813 C 252.53125 530.757813 250.972656 530.085938 249.730469 528.734375 C 248.488281 527.382813 247.867188 525.835938 247.867188 524.089844 C 247.867188 523.429688 247.960938 522.761719 248.152344 522.089844 C 248.34375 521.414063 248.785156 520.382813 249.476563 518.988281 L 254.808594 508.164063 M 254.3125 521.101563 C 253.574219 521.101563 252.953125 521.378906 252.453125 521.925781 C 251.949219 522.472656 251.699219 523.160156 251.699219 523.984375 C 251.699219 524.8125 251.964844 525.507813 252.488281 526.070313 C 253.011719 526.632813 253.625 526.914063 254.324219 526.914063 C 255.0625 526.914063 255.695313 526.640625 256.226563 526.085938 C 256.753906 525.53125 257.019531 524.832031 257.019531 523.984375 C 257.019531 523.160156 256.761719 522.472656 256.246094 521.925781 C 255.730469 521.378906 255.085938 521.101563 254.3125 521.101563 "/>
<path style=" stroke:none;fill-rule:nonzero;fill:rgb(100%,100%,100%);fill-opacity:1;" d="M 267.285156 508.679688 L 273.195313 508.679688 L 273.195313 530.242188 L 269.265625 530.242188 L 269.265625 512.476563 L 264.996094 512.476563 L 267.285156 508.679688 "/>
</g>
</svg>
