<svg xmlns="http://www.w3.org/2000/svg" xmlns:xlink="http://www.w3.org/1999/xlink" id="Livello_1" x="0px" y="0px" viewBox="0.0 0.0 134.1 162.7" style="enable-background:new 0 0 134.1 162.7;" xml:space="preserve" width="287.1370144310216" height="348.2657928938758"><style type="text/css">	.st0{fill:#FFFFFF;}	.st1{fill:#DB0218;}	.st2{fill:#DC0619;}	.st3{fill:#040506;}	.st4{fill:#FFAC00;}	.st5{fill:#171716;}	.st6{fill:#129CDC;}</style><g>	<path id="Tracciato_44_00000152254040527755004390000002566296071577579425_" class="st0" d="M67.1,162.7l-0.3-0.2   c-17.2-9.6-40.7-31.6-52.1-55C2.4,82.5,2,62.5,1.8,55.9C1.7,48.4,0,1.1,0,0.6V0h134.1v0.6c0,0.5-1.7,47.8-1.8,55.3   c-0.1,6.6-0.6,26.6-12.8,51.6c-11.5,23.5-34.9,45.4-52.1,55L67.1,162.7z"/>	<g id="Raggruppa_117_00000181773656613144217340000009800409042759829657_" transform="translate(0 0)">		<g>			<g id="Raggruppa_41_00000158711000917533290960000004248157339358811030_" transform="translate(0 0)">				<path id="Tracciato_32_00000153671962897353912070000009435095426164158646_" class="st1" d="M0.6,0.6L1,13.1L133,13l0.6-12.4      C133.6,0.6,0.6,0.6,0.6,0.6z"/>				<path id="Tracciato_33_00000157301663756328940510000015746274556796625575_" class="st2" d="M67,56.4l0.1,105.8      c0,0-27.1-18.8-38-33.7c0,0-26.1-30.8-26.7-72.1L67,56.4L67,56.4z"/>				<path id="Tracciato_44_00000022545809584120778720000014491421843953362622_" class="st3" d="M67.1,162.7l-0.3-0.2      c-17.2-9.6-40.7-31.6-52.1-55C2.4,82.5,2,62.5,1.8,55.9C1.7,48.4,0,1.1,0,0.6V0h134.1v0.6c0,0.5-1.7,47.8-1.8,55.3      c-0.1,6.6-0.6,26.6-12.8,51.6c-11.5,23.5-34.9,45.4-52.1,55L67.1,162.7z M1.2,1.1C1.4,6.6,2.8,48.8,3,55.9      c0.1,6.5,0.6,26.4,12.7,51.1C27,130.1,50,151.8,67.1,161.4c17-9.6,40.1-31.2,51.4-54.4c12.1-24.8,12.6-44.6,12.7-51.1      c0.2-7.1,1.6-49.3,1.8-54.7L1.2,1.1z"/>									<rect id="Rettangolo_64_00000067220742825846037380000003312139301879240333_" x="1" y="12.5" class="st3" width="132" height="1.1"/>									<rect id="Rettangolo_65_00000009578230931883783600000014880815210815835044_" x="2" y="55.7" class="st3" width="130" height="1.1"/>				<path id="Tracciato_45_00000119091017903892734030000017472897236084583296_" class="st1" d="M8,38.6h2.7V24.4l4.3,5.7l4-5.7      v14.2h2.8V16.5l-6.6,9.2l-7.1-9.1C8.1,16.7,8,38.6,8,38.6"/>				<path id="Tracciato_46_00000178181166289255930440000009521774109293451411_" class="st1" d="M44.1,38.7h2.5V25.9L55.2,39V17.1      h-2.4v13.3l-8.5-13.8L44.1,38.7z"/>				<path id="Tracciato_47_00000132088823711088073730000011777123521258921896_" class="st1" d="M58.3,17.1v2.6h4.6v19h2.8V19.6      h4.6v-2.4C70.2,17.2,58.3,17.3,58.3,17.1"/>				<path id="Tracciato_48_00000070098005418823860260000011759773579943775392_" class="st1" d="M118.6,16.8l-8.5,21.7h2.7l1.1-2.9      h9.4l1.1,3.1l2.6,0.1L118.6,16.8z M114.6,33.8l3.9-10.3l3.9,10.3H114.6z"/>				<path id="Tracciato_49_00000016771010186971691540000013975434385891790247_" class="st1" d="M33,16.8l-8.5,21.7h2.7l1.1-2.9      h9.4l1.1,3.1l2.6,0.1L33,16.8z M29,33.8l3.9-10.3l3.9,10.3H29z"/>				<path id="Tracciato_50_00000167367346629170659430000004587925509671097243_" class="st1" d="M93.9,17.2h3l5.8,15.2l5.9-15.2      h2.7l-8.6,22L93.9,17.2z"/>				<path id="Tracciato_51_00000003824058031833643410000009665522849634275456_" class="st1" d="M82.2,38.7      c-5.9,0-10.7-4.8-10.7-10.7s4.8-10.7,10.7-10.7c5.9,0,10.7,4.8,10.7,10.7C92.9,33.9,88.1,38.7,82.2,38.7 M82.2,19.5      c-4.7,0-8.5,3.8-8.5,8.5s3.8,8.5,8.5,8.5s8.5-3.8,8.5-8.5l0,0C90.7,23.3,86.9,19.5,82.2,19.5"/>				<path id="Tracciato_52_00000165213884167258993610000012909434555329584786_" class="st1" d="M59.1,52.1h1.8v-11L59.1,43      C59.1,43,59.2,52.3,59.1,52.1"/>				<path id="Tracciato_53_00000143606329702984717070000003456426042320589703_" class="st1" d="M70,52.2h1.8v-11L70,43      C70,43,70.1,52.3,70,52.2"/>				<path id="Tracciato_54_00000181076577669088762690000012109838055117209783_" class="st1" d="M74,52.2h1.8v-11L74,43      C74,43,74.1,52.3,74,52.2"/>				<path id="Tracciato_55_00000016777047972409304480000000681866285135487153_" class="st1" d="M65.6,47.9      c-1.6,0.1-3.1-1.1-3.2-2.8c0-0.1,0-0.3,0-0.4c-0.1-1.7,1.3-3.2,3-3.3c0.1,0,0.1,0,0.2,0c1.8,0,3.3,1.5,3.3,3.3v0.1      c0.1,1.6-1.2,3-2.8,3.1C65.9,47.9,65.7,47.9,65.6,47.9 M65.6,43c-0.9,0-1.4,0.6-1.4,1.6s0.6,1.6,1.4,1.6c0.9,0,1.4-0.6,1.4-1.7      C67,43.6,66.4,43,65.6,43"/>				<path id="Tracciato_56_00000029035526563407846450000008113869502489843349_" class="st1" d="M63.7,52.2h1.8c0,0,3-5.5,3.2-6.3      c0.2-0.7-2.6,1.7-2.6,1.7L63.7,52.2z"/>			</g>		</g>	</g>	<g>		<circle class="st0" cx="67.4" cy="99" r="34.1"/>		<path class="st2" d="M68,95.9v10.3h-8.2v24.9c-3.9-0.9-7.5-2.5-10.8-4.7v-20.1H35.2c-0.5-2.2-0.8-4.5-0.8-6.9c0-1.2,0-2.3,0.1-3.5    h14.7V71.4c3.2-2.1,6.8-3.7,10.7-4.6v29.1H68z"/>		<g>			<path class="st4" d="M67.1,60c-21.8,0-39.5,17.5-39.5,39s17.7,39,39.5,39s39.5-17.5,39.5-39C106.5,77.5,88.8,60,67.1,60z      M67.9,132c-18.2,0.2-33.2-14.3-33.5-32.6C34.2,81.2,48.8,66.2,67,66l0,0c18.3-0.1,33.3,14.7,33.5,33     C100.5,117,86,131.7,67.9,132z"/>			<path id="Tracciato_43_00000143591922602408599560000001220572334429473929_" class="st5" d="M67.9,64.8     C49,64.6,33.5,79.7,33.3,98.6c-0.2,18.9,14.9,34.4,33.8,34.6c19,0.1,34.5-15.2,34.6-34.2C101.7,80.2,86.7,65,67.9,64.8z      M67.9,132c-18.2,0.2-33.2-14.3-33.5-32.6C34.2,81.2,48.8,66.2,67,66l0,0c18.3-0.1,33.3,14.7,33.5,33     C100.5,117,86,131.7,67.9,132z M67.9,64.8C49,64.6,33.5,79.7,33.3,98.6c-0.2,18.9,14.9,34.4,33.8,34.6     c19,0.1,34.5-15.2,34.6-34.2C101.7,80.2,86.7,65,67.9,64.8z M67.9,132c-18.2,0.2-33.2-14.3-33.5-32.6C34.2,81.2,48.8,66.2,67,66     l0,0c18.3-0.1,33.3,14.7,33.5,33C100.5,117,86,131.7,67.9,132z M67.1,60c-21.8,0-39.5,17.5-39.5,39s17.7,39,39.5,39     s39.5-17.5,39.5-39C106.5,77.5,88.8,60,67.1,60z M67.1,136.7c-21.1,0-38.3-17-38.3-37.8S46,61.1,67.1,61.1s38.3,17,38.3,37.8     C105.4,119.8,88.2,136.7,67.1,136.7z M67.9,64.8C49,64.6,33.5,79.7,33.3,98.6c-0.2,18.9,14.9,34.4,33.8,34.6     c19,0.1,34.5-15.2,34.6-34.2C101.7,80.2,86.7,65,67.9,64.8z M67.9,132c-18.2,0.2-33.2-14.3-33.5-32.6C34.2,81.2,48.8,66.2,67,66     l0,0c18.3-0.1,33.3,14.7,33.5,33C100.5,117,86,131.7,67.9,132z M67.9,64.8C49,64.6,33.5,79.7,33.3,98.6     c-0.2,18.9,14.9,34.4,33.8,34.6c19,0.1,34.5-15.2,34.6-34.2C101.7,80.2,86.7,65,67.9,64.8z M67.9,132     c-18.2,0.2-33.2-14.3-33.5-32.6C34.2,81.2,48.8,66.2,67,66l0,0c18.3-0.1,33.3,14.7,33.5,33C100.5,117,86,131.7,67.9,132z      M67.9,64.8C49,64.6,33.5,79.7,33.3,98.6c-0.2,18.9,14.9,34.4,33.8,34.6c19,0.1,34.5-15.2,34.6-34.2     C101.7,80.2,86.7,65,67.9,64.8z M67.9,132c-18.2,0.2-33.2-14.3-33.5-32.6C34.2,81.2,48.8,66.2,67,66l0,0     c18.3-0.1,33.3,14.7,33.5,33C100.5,117,86,131.7,67.9,132z"/>		</g>		<path id="Tracciato_39_00000127045966643011056510000015186988889182343845_" class="st6" d="M67.3,74c14.4,0,26,11.6,26,26    s-11.6,26-26,26V74z"/>		<path id="Tracciato_40_00000042696606273966592540000007637888850000852922_" class="st5" d="M67.3,126.6v-1.1    c14.1,0,25.4-11.4,25.4-25.4S81.4,74.6,67.3,74.6v-1.1C82,73.4,94,85.2,94.1,99.9s-11.7,26.6-26.4,26.7    C67.6,126.6,67.5,126.6,67.3,126.6L67.3,126.6z"/>		<path class="st5" d="M67.7,64.8v68.4c-0.4,0-0.8,0-1.2,0V64.8C66.9,64.8,67.3,64.8,67.7,64.8z"/>	</g></g></svg>