<svg xmlns="http://www.w3.org/2000/svg" id="svg1" width="600" height="600" viewBox="0 0 600 600"><path id="path1" d="m158.182 115.09-3.273 2.183 2.182 3.272 8.182-6-1.637-2.727c-4.363-.545-8.181-2.182-9.818-4.909-3.273-4.364-2.727-9.818 2.182-13.09 4.364-3.274 9.818-1.637 13.09 2.726 2.183 2.728 2.183 7.091 1.637 10.91l1.637 2.727 8.181-6-2.181-3.273-3.819 2.182c.546-3.818-.545-8.182-2.181-10.364-4.364-6-12-7.636-19.091-2.727s-8.182 13.09-3.818 19.09c1.636 2.728 4.909 4.91 8.727 6m102-62.726 3.273 21.818 4.909-.546-3.819-26.181-8.181.545.545 4.364zm22.363 9.818q4.092 0 6.546-3.273c.545 6-2.182 8.727-5.455 8.727-2.181 0-4.363-1.09-4.909-3.272L274.91 66c1.091 4.364 5.455 6 9.818 6 6-.545 9.273-4.91 9.273-10.91v-3.817c-.545-7.637-4.364-13.091-11.455-13.091-6.545 1.09-9.818 5.454-9.272 10.363.545 5.455 4.363 7.637 9.272 7.637m0-13.637c2.728 0 4.91 1.637 5.455 4.364 0 .546.545 1.091.545 1.636-1.09 2.182-3.818 3.273-6 3.273-2.727 0-4.909-1.09-4.909-4.363 0-2.182 1.637-4.364 4.91-4.91m-93.273 50.728-8.728-16.364 22.91 9.273L207.273 90l-12-23.455-4.364 2.182 8.727 16.91-23.454-9.273L172.909 78l12 23.455zm43.636-27.818c2.727-.546 4.364-3.819 3.273-6-.546-2.728-3.818-4.364-6-3.273-2.727.545-4.364 3.818-3.273 6 .546 2.727 3.273 4.363 6 3.273m248.182 88.909L504 154.909l-12.545 19.636 3.272 4.364L510 154.364l-3.273-4.91L478.364 156Zm43.636 48.545c-7.636 2.727-11.454 9.273-8.727 18 2.727 7.636 10.364 11.455 17.455 8.727 7.636-2.727 11.454-9.818 8.727-18-2.182-8.181-10.364-11.454-17.455-8.727m13.637 9.818c1.636 4.91-1.091 9.818-6 12-4.91 1.637-10.364-.545-12-5.454-1.637-5.455 1.09-9.818 6-11.455 4.909-2.182 10.363 0 12 4.91M138 138l-8.182-22.364L151.091 126l3.818-3.818-26.182-12-4.363 4.363 9.818 27.273zm367.636 61.09 3.819-2.18-7.091-12.546 6-3.273 6 10.364 3.272-1.637-6-10.363 6-3.273 6.546 12L528 186l-8.727-16.364-22.91 12.546Zm4.364 9.82L534 198l-2.182-4.91-24 10.91zm13.636 42 1.091 4.908 6.546-1.09 21.818 6-1.091-5.455-16.364-3.818 13.637-10.364-1.091-5.455-17.455 14.182zm4.91 36.545 10.909-.546v5.455L529.09 300v6l13.09-9.273 13.092 8.182v-5.454l-11.455-7.091v-5.455l10.91-.545v-4.91L528 282ZM423.272 106.909l3.272-4.909 6 3.818c5.455 3.818 11.455 1.637 14.182-2.727S448.91 92.727 444 89.455l-10.364-7.091-14.727 21.818zm12.545-18.545 4.91 3.272c3.272 2.728 3.272 6 1.636 8.728-1.637 2.727-4.91 3.272-8.182 1.09l-4.91-3.272zm-68.727-16.91c2.727.546 5.454-.545 6-3.272.545-2.727-.546-5.455-3.273-6-2.727-.546-5.454.545-6 3.273-1.09 2.181.546 5.454 3.273 6M402 82.909l13.09 6.546-4.908 9.818 4.363 2.182 12-23.455-4.363-2.182-4.91 10.364-13.636-7.091 4.91-10.364-4.364-2.182L392.727 90l4.364 2.182zM441.273 120l4.363-2.182L456 126.545l-1.636 4.91 3.818 3.272 8.727-27.272-3.273-3.819L438 116.727Zm21.272-10.91-4.363 13.637-8.182-7.09ZM331.091 69.274c-2.182-.546-4.364-2.182-4.91-4.364l-4.363 1.636c1.091 4.364 4.364 6 8.727 6.546 6 1.09 10.364-2.727 10.91-7.091.545-5.455-2.728-8.727-7.637-9.818-1.636 0-3.273 0-4.909.545l1.636-6.545 10.91 1.636.545-4.363-14.727-2.182L324 57.818 327.273 60c1.09-.545 2.727-1.09 4.363-.545 2.728.545 4.91 2.181 4.364 5.454.545 3.273-1.636 4.91-4.91 4.364m134.183 72 8.182-7.637 3.818 4.364L474 151.09l3.818 4.365 3.818-15.819 15.273-2.181-3.818-3.819L480 135.273l-3.273-4.364 8.182-7.636-3.273-3.818-19.636 18zM317.455 67.09l-10.91-.546c5.455-3.272 10.91-8.727 10.91-14.727 0-4.363-2.728-8.182-8.728-8.182-5.454 0-9.272 3.273-9.272 8.182v1.091L303.818 54v-.545c0-2.728 1.637-5.455 4.91-4.91 2.727 0 4.363 1.637 4.363 4.364 0 5.455-7.636 11.455-13.636 14.727v3.273l18.545.546Zm55.636 439.636 2.182 21.818-25.637 3.273L347.455 510l-10.91 1.09 6 54.546 10.91-1.09-2.182-21.819 25.636-3.272 2.182 21.818L390 560.182l-6-54.546ZM120 140.727l-2.727-2.182-7.637 8.728 2.728 2.182zM300 102c-109.09 0-198 88.91-198 198s88.91 198 198 198 198-88.91 198-198-88.91-198-198-198m-14.182 306.545h-1.636c-10.91-1.636-21.818-4.909-31.637-9.818l-.545-.545v-84.546h33.818zm0-122.181H252v-85.091l.545-.546c9.819-4.909 20.728-8.182 31.637-9.818h1.636zm0-122.728h-1.09C215.454 171.273 162.544 230.182 162.544 300s52.364 128.727 122.182 136.364h1.091v33.272h-1.636c-42-3.818-81.273-23.454-110.182-54.545-28.91-31.636-44.727-72.546-44.727-115.091S145.09 216.545 174 184.91c28.91-31.092 67.636-50.728 110.182-54.546h1.636zm-61.09 56.728v159.272l-2.183-2.181c-20.727-20.728-31.636-48-31.636-76.91s11.455-56.727 31.636-76.909zm88.908-29.455h1.637c11.454 1.636 22.363 4.91 32.182 9.818l.545.546v85.09h-34.91V190.91zm0 122.727h34.91v85.091l-.546.546a115.3 115.3 0 0 1-32.182 9.818h-1.636v-95.455zm111.819 102c-28.91 31.637-68.182 50.728-110.728 54.546h-1.636v-33.818h1.09C384 428.727 436.91 370.364 436.91 300S384 171.273 314.182 163.636h-1.091v-33.272h1.636c42.546 3.818 81.273 22.909 110.728 54.545 28.909 31.636 45.272 72.546 45.272 115.636 0 42.546-16.363 83.455-45.272 115.091m-50.182-36V220.364l2.182 2.181c20.727 20.728 31.636 48 31.636 76.91S398.18 356.727 378 376.909zM241.636 506.182c-15.272-3.818-30.545 5.454-34.909 20.182-3.818 15.272 5.455 30.545 20.182 34.909 2.182.545 4.91 1.09 7.091 1.09 4.91 0 9.818-1.09 14.182-3.818 6.545-3.818 11.454-9.818 13.09-17.454 4.91-15.273-4.363-31.091-19.636-34.91m9.819 31.637c-2.182 9.273-12 14.727-20.728 12.546-9.272-2.182-14.727-12-12.545-20.728 2.182-7.636 9.273-13.09 16.909-13.09 1.636 0 2.727 0 4.364.545 8.727 2.182 14.181 11.454 12 20.727m54-23.454v-5.455h-10.91v5.455c-13.09 2.727-22.909 14.181-22.909 27.818 0 13.636 9.819 25.09 22.91 27.818v5.455h10.909V570c13.09-2.727 22.909-14.182 22.909-27.818s-9.819-25.091-22.91-27.818m-10.909 44.181c-6.545-2.181-11.454-8.727-11.454-16.363 0-7.637 4.909-14.182 11.454-16.364Zm10.91 0v-32.727c6.545 2.182 11.454 8.727 11.454 16.364.546 7.636-4.364 14.182-11.454 16.363m223.09-243.272 6 .545-.545 7.091c-.545 6.546 4.364 10.91 9.273 11.455s10.363-3.273 10.909-8.728l1.09-12.545-26.181-2.727zm9.819 7.09.545-6 11.455 1.092-.546 6c-.545 4.363-3.818 6-6.545 5.454-2.728 0-5.455-2.182-4.91-6.545m-450 96c-6.545 4.363-9.272 12-4.363 19.636 4.364 7.09 13.09 8.727 19.636 4.364s8.728-12 3.819-19.091c-4.364-7.637-12.546-9.273-19.091-4.91M100.909 438c-4.364 2.727-10.364 2.182-13.09-2.727-2.728-4.364-1.092-10.364 3.272-13.091s9.818-2.182 13.09 2.727c2.728 4.91 1.092 10.364-3.272 13.091M300 0C134.182 0 0 134.182 0 300s134.182 300 300 300 300-134.182 300-300S465.818 0 300 0m0 586.364C141.818 586.364 13.636 458.182 13.636 300S141.818 13.636 300 13.636 586.364 141.818 586.364 300 458.182 586.364 300 586.364m210-194.182 9.818 4.909-6 13.09-9.818-4.908-2.182 4.363 24 11.455 2.182-4.364-10.364-4.909 6-13.09L534 403.635l2.182-4.363-24.546-12zm28.364-13.091L517.09 372l-1.636 4.91 21.272 7.09-2.182 7.09 4.364 1.637 6.546-19.09L541.09 372ZM525.273 342l10.909 2.182-3.273 14.182L522 356.182l-1.09 4.909 26.18 5.454 1.092-4.909-10.91-2.181 3.273-14.182 10.91 2.182 1.09-4.91-26.181-5.454zm-19.637 85.636-3.818-10.909-3.273-2.182-10.909 16.91 3.819 2.727 7.636-11.455 3.273 10.364L513.818 432l-7.09 11.455 3.817 2.181 10.364-16.363-3.273-2.182zm-420-207.818-25.09-9.273-1.637 4.91L84 224.727Zm-24.545 37.637c7.09 1.636 10.909-2.728 13.09-10.364l3.274.545 1.09-4.909-3.272-.545c1.636-7.637 0-13.637-6.546-15.273-6.545-1.636-11.454 3.273-13.09 10.364l-2.728-.546-1.09 4.91 2.726.545c-2.181 7.09-.545 13.09 6.546 15.273m6.545-26.182c4.364 1.09 4.91 4.909 3.273 9.818l-11.454-2.727c1.636-6 4.363-8.182 8.181-7.091m-9.272 11.454 11.454 2.728c-1.09 4.909-3.273 7.636-7.636 6.545-3.818-.545-4.91-3.818-3.818-9.273m31.09-32.182-15.818-17.454 23.455 1.636 2.182-4.909-28.91-1.636-2.727 5.454 19.091 21.273zm16.364-55.636c6 4.91 14.182 4.91 19.637-1.636 5.454-6.546 4.363-14.728-1.637-19.637s-14.182-4.909-19.636 1.637c-5.455 6-4.364 14.727 1.636 19.636M107.455 138c3.272-4.364 9.272-4.364 13.09-.545 3.819 3.272 4.91 8.727 1.091 13.09-3.818 4.364-9.272 4.364-13.09 1.091-3.819-3.818-4.91-9.272-1.091-13.636m-4.364 45.273-2.727-4.364L108 167.455l4.91 1.09 2.726-4.363-28.363-5.455-3.273 4.91 16.364 24zm-13.636-19.637 14.181 2.728-6 9.272zm-31.091 130.91 8.727 7.636h3.818L71.455 282H67.09l-.546 13.636-8.181-7.09-9.273 6.545.545-13.636h-4.363l-.546 19.636h3.818zm36.545 108-19.636 8.727 15.818-17.455L89.455 390H66l19.636-8.727-2.181-4.91-24.546 10.91 3.273 7.09H84l-15.273 16.364L72 417.818l24.545-10.909ZM78 355.635l-23.455-4.363 19.637-13.091-1.091-5.455-23.455 16.364 1.091 6 28.364 5.454zm2.727 9.819-25.09 7.636 1.635 4.91 25.09-7.636ZM60 333.818c7.636-.545 13.636-6.545 12.545-15.273-.545-8.181-7.09-13.636-14.727-13.09-7.636.545-13.636 6.545-13.09 15.272s7.09 13.637 15.272 13.091m-10.91-13.09c-.545-5.455 3.82-9.273 8.728-9.819 5.455-.545 9.818 2.727 10.364 8.182.545 5.454-3.273 9.273-8.727 9.818-5.455.546-9.819-2.727-10.364-8.182" style="stroke-width:5.45455"/></svg>