<svg xmlns="http://www.w3.org/2000/svg" viewBox="0.0 0.0 206.61 268.32" width="277.4751902477184" height="360.39258108346235">
  <defs>
    <style>
      .cls-1, .cls-2, .cls-3, .cls-4 {
        stroke-width: 0px;
      }

      .cls-1, .cls-2, .cls-4 {
        fill-rule: evenodd;
      }

      .cls-1, .cls-3 {
        fill: #cfba87;
      }

      .cls-2 {
        fill: #e31f26;
      }

      .cls-4 {
        fill: #fff;
      }
    </style>
  </defs>
  <g>
    <g id="OSFP">
      <path class="cls-4" d="M206.61,165.01c0,57.05-46.25,103.31-103.3,103.31S0,222.07,0,165.01,46.24,61.72,103.3,61.72s103.3,46.24,103.3,103.3"/>
      <path class="cls-2" d="M171.2,97.12c-18.14-18.14-42.25-28.12-67.89-28.12s-49.77,9.98-67.89,28.12c-18.14,18.14-28.13,42.24-28.13,67.89s9.99,49.77,28.13,67.9c18.13,18.14,42.24,28.12,67.89,28.12s49.75-9.98,67.89-28.12c18.13-18.13,28.11-42.25,28.11-67.9s-9.98-49.75-28.11-67.89ZM170.41,232.13c-17.93,17.92-41.76,27.79-67.11,27.79s-49.19-9.87-67.11-27.79c-17.93-17.92-27.8-41.76-27.8-67.11s9.86-49.17,27.8-67.11c17.92-17.93,41.75-27.79,67.11-27.79s49.18,9.86,67.11,27.79c17.92,17.93,27.79,41.76,27.79,67.11s-9.87,49.19-27.79,67.11ZM103.3,72.05c-51.36,0-92.97,41.62-92.97,92.97s41.61,92.98,92.97,92.98,92.96-41.62,92.96-92.98-41.62-92.97-92.96-92.97ZM103.3,238.09c-40.37,0-73.08-32.73-73.08-73.08s32.71-73.07,73.08-73.07,73.06,32.71,73.06,73.07-32.7,73.08-73.06,73.08ZM103.3,93.85c-39.24,0-71.17,31.93-71.17,71.17s31.93,71.18,71.17,71.18,71.15-31.94,71.15-71.18-31.91-71.17-71.15-71.17ZM103.3,235.08c-38.64,0-70.06-31.44-70.06-70.06s31.42-70.06,70.06-70.06,70.05,31.43,70.05,70.06-31.43,70.06-70.05,70.06ZM128.58,199.03c.14.09.12.43-.06.49-.48-.06-1.56-.07-2.45-.07s-2.06,0-2.44.07c-.2-.06-.21-.4-.08-.49l.55-.07c1.18-.14,1.23-.32,1.23-1.7v-4.1c0-1.38-.06-1.5-1.23-1.7l-.34-.07c-.13-.09-.13-.44.05-.47.4.03,1.37.05,2.26.05s1.77-.02,2.25-.05c.19.03.2.38.07.47l-.34.07c-1.17.2-1.23.32-1.23,1.7v4.1c0,1.39.04,1.61,1.12,1.7l.64.07h0ZM137.49,194.89c0,2.05-.87,4.32-2.96,6.25-1.4,1.28-3.22,2.03-4.66,2.27-.13-.07-.23-.31-.1-.44,1.14-.39,2.08-.92,2.87-1.53,1.05-.79,3.19-3.03,3.19-6.67,0-1.33-.44-3.43-2.39-3.43-1.23,0-2.04,1.04-2.04,2.42,0,1.24.74,2.89,2.08,2.89.4,0,.67-.04.96-.17.15.05.16.21.13.36-.52.42-1.15.69-1.95.69-1.54,0-2.64-1.33-2.64-2.97,0-2.3,1.84-3.89,3.93-3.89,2.41,0,3.58,1.74,3.58,4.19h0ZM147.3,197.47c-.36.76-.7,1.48-.94,2.06-.75-.06-1.6-.07-2.74-.07h-1.98c-.67,0-1.36,0-1.79.07-.11-.06-.19-.23-.11-.35.58-.45,1.22-.98,2.02-1.82,1.05-1.12,2.07-2.27,2.07-3.54s-.68-1.94-1.77-1.94c-.86,0-1.52.53-2.05,1.37-.21.07-.4-.09-.4-.29.47-.99,1.63-2.25,3.2-2.25s2.6.96,2.6,2.32c0,1.21-.6,1.97-1.81,3.28l-1.57,1.71c-.01.16.04.28.38.28h2.39c1.08,0,1.53-.02,2-.99.17-.1.41-.02.49.17h0ZM153.81,190.92c-.13.43-.51,1.2-1.14,1.28l-2.55.38c-.59.08-.7.23-.78.55-.13.36,0,.6.55.97.33.22.69.46.95.65,1.3.9,2.23,2.04,2.23,3.62,0,2.79-2.97,4.62-4.44,5.06-.23-.08-.31-.41-.15-.55,1.1-.34,3.2-1.83,3.2-4.04,0-1.26-.79-2.16-1.64-2.79-.86-.62-1.59-1.01-1.59-1.72,0-.33.18-1,.44-1.6.27-.62.63-1.23.89-1.32.26-.07.66-.13,1.31-.23l1.4-.21c.75-.1.88-.16,1.09-.3.19.03.25.14.23.26h0ZM167.93,162.5c-2.21-3.35-6.59-8.01-16.24-8.58,2.39-.77,7.91-7.59,8.32-11.31-2.18-1.99-5.82-2.29-8.49-2.86.86-5.82-3.87-9.47-4.47-9.99-.21-.58-.57-8.98-11.33-11.66-.31-.08-2.87-6.14-9.32-9.1-9.95-4.57-17.58-1.11-19.25-.67-15.31-2.36-18.99,4.75-20.02,5.78-.48.47-6.14-.6-11.53,5.39-1.45-.14-7.6-3.46-9.72-2.94-.87,2.4.26,11.62.74,13.35-5.16,1.15-13.7-2.21-15.61-.5-.64,3.76,2.76,8.19,2.76,8.25-3.94-.4-11.45.05-13.82,1.85-.5.49.86,3.54,2.85,5.49,2.14,2.1,5.62,3.89,10.16,4.26,0,.07-8.2,5.02-10.93,8.61.8.51,6.6,2.19,7.19,2.38,3.19,1.02,12.15-1.97,12.3-1.97-.49,2.44-2.17,8.95-2.21,10.19.07,1.89,3.76,4.48,5.08,5.32.02,4.19-.42,16.39-.42,16.39-.01,1.87-.28,4.51.22,5.99,1.81.34,8.64-1.45,8.9-1.26.65.95.71,4.08,1.08,5.29,1.19.27,2.05.87,3.35,1.01.35,1.07-.56,2.88.04,3.85.46,1.37,2.67,1.73,3.94,2.25,0,2.45.09,4.88.09,7.32.64,1.32,5.48,3.07,6.81,3.84,0-.08,10.57-10.23,10.58-10.25,1.98,2,3.37,3.54,4.76,5.8-1.59,4.57-7.52,12.79-7.9,13.31-.25.45,1.36,1.58,1.55,1.88,2.1-2.48,2.9-3.63,4.8-6.88,1.89-3.26,2.91-4.93,4.54-8.93-1.78-2.29-3.84-4.47-5.53-6.56.89-2.59,2.06-3.34,3.45-5.83-.6-.39-.99-.7-1.8-.6-5.05,5.96-9.06,9.74-14.63,14.9-.71-.54-3.05-1.34-3.84-1.75-.28-1.54.3-6.52-.23-7.37-.61-1.55-2.69-1.38-3.93-2.25-.08-.03-.32-.2-.4-.25.19-5.45-.03-4.03-3.46-5.73-.16-.08-.32-.63-.29-1.07.02-1.68-.12-4.7-.57-5.99-1.54.06-7.82,1.96-8.83,2.5-.15.04-.22.03-.26-.04l-.06-.23v-.51c0-4.32-.01-9.81.5-13.77.17-1.28.25-2.6.42-3.73.11-.82.14-1.21.45-1.76,3.81.06,7.04,1.16,10.64,1.55,1.55-1.63,3.68-2.64,5.53-3.99,1.29-.93,2.9-2.03,3.99-2.88.15-.14.22-.26.22-.45.02-.17-.12-1.4-.44-1.98-1.24.03-4.03,1.17-5.77,1.77-2.98,1.02-6.07,1.64-8.87,2.45-2.1.6-4.6,1.46-6.42,1.76-1.64-.08-3.47-1.7-3.98-2.88-.85-1.93,2.13-9.29,1.54-12.41,2.87-2.88,4.25-4.78,5.54-5.32-2.06,3.33-3.05,6.53-3.16,10.54,3.46-.46,7.62-.65,11.09-1.96,5.59-2.13,7.82-4.66,9.79-7.26,1.37,7.56,4.07,10.01,6.04,16.03,4.16.17,7.23-11.59,7.31-11.59,1.76,6.89,4.12,8.26,5.04,12.64,1.65-.25,3.18-3.81,4.15-4.01.18.79.27,1.11.5,1.77,7.09-.57,12.42-6.16,12.5-6.16-3.15,7.65,3.82,17.69,4.58,18.38,2.7-1.14,6.05-6.04,6.65-6.65,1.31,2.91,3.04,5.62,5.54,7.3,1.19.84,2.21,1.37,3.45,2.15,1.25-1.13,2.16-5.04,2.81-5.79,3.11,3.42,9.63,7.11,14.32,5.39,0,0-.78-11.39-8.2-15.77,1.05.13,2.57.54,3.58.74,1.67.31,9.43-1,12.2-4.22h.01ZM156.84,143.88c-.46,1.38-1.47,2.01-2.44,2.87-7.55,6.75-9.94,5.03-18.18,3.99,4.97-8.33,16.54-9.33,20.62-6.86h0ZM128.05,127.66c2.65,7.72-1.36,17.47-15.6,19.71,0-.07,12.41-5.65,12.95-13.68-1.35-.5-3.89-.97-3.83-.9,1.45-2.24,4.73-4.7,6.48-5.12h0ZM67.87,119.13c2.42.45,9.08,3.88,10.55,5.38,1.38,1.43,1.92,3.92,2.45,6.08.74,2.98.76,6.52-.28,8.2-3.65-.39-10.61-7.2-11.8-11.51-1.17-4.3-1.04-6.02-.92-8.16ZM43.23,141.18c1.59-2,11.77-1.87,13.55-.78,1.37.85,4.38,3.03,6.12,3.58-.76,1.35-5.15,2.8-8.17,2.74-4.22-.07-9.57-2.44-11.5-5.53h0ZM58.75,156.43c-1.24.6-2.95.63-4.23.8-2.42.34-4.96-.74-6.85-1.18,0-.22,8.62-6.56,13.7-8.43,1.08-.41,5.88-.64,6.87-.08-.72,2.36-7.24,7.81-9.49,8.88h0ZM66.73,143.78c-4.28-1.42-12.18-8.38-13.18-12.54,3.15.14,5.28.59,7.77,1.29,3.79.51,5.94.63,9.6,3.49,1.82,1.44,3.82,5.09,4.01,6.55-1.28.99-5.61,2.07-8.2,1.21h0ZM78.38,156.54c-2.33,1.18-5.56,1.04-9.1,1.96,3.24-14.85,14.47-15.68,17.13-15.7.03,3.74-1.41,10.44-8.03,13.74ZM85.69,136.43c-3.77-6.15-3.84-11.24-.67-18.27,3.88.53,11.85,12.68,4.44,21.96-1.49-.75-2.82-2.13-3.77-3.68ZM94.57,164.69c-.89-3.77-3.35-6.48-4.31-10.46-.28-1.17-.75-3.28-.15-5.02.77-2.25,2.11-4.53,3.41-6.16,4.96,2.17,6.79,16.79,1.04,21.64h0ZM94.28,138.92c.51-6.61,7.89-12.8,18.05-13.92-.23,6.23-6.04,12.48-11.18,13.92-2.16.25-6.52.22-6.88,0h0ZM106.49,166.26c-.76-3.54-6-12.1-4.48-17.01.41-1.32.84-2.7,1.42-4.12,2.25,1,5.08,5.72,5.66,7.55,1.7,5.54-1.46,13.12-2.6,13.57h0ZM108.73,143.88c-2-.46-3.93-1.36-5.13-2.22,5.25-5.56,13.59-9.04,18.44-7.09-1.13,3.24-4.61,6.47-7.88,7.84-.87.36-3.94,1.81-5.43,1.47ZM111.67,164.67c.55-3.99,1.58-10.12,4.35-11.99,1.81-1.24,5.58-2.33,7.56-2.59,1.4,4.01-4.54,14.11-11.92,14.57ZM128.07,175.75c-.68-1.41-1.89-3.08-2.52-4.54-1.44-3.26-.66-9.81.74-12.82,1.01-2.2,3.3-3.12,4.65-4.92,4.69,4.5-1.16,21.52-2.88,22.28ZM122.04,147.43c3.87-1.98,5.9-5.88,9.31-8.21,5.72-3.9,10.67-3.05,11.75-1.99-1.24,2.34-4.86,6.62-7.32,8.63-4.44,2.59-12.49,2.84-13.74,1.56ZM142.44,178.69c-2.15-.67-4.29-3.23-5.33-4.67-3.39-5.04-2-11.32.66-15.95.84.68,1.8,1.94,2.66,3.1,4.28,5.96,3.27,9.59,2,17.53h0ZM152.37,168.82c2.56,2.71,5.21,7.12,6.04,11.5-7.26-.28-11.74-7.1-11.76-14.51,2.11.25,4.52,1.73,5.72,3.01ZM143.28,157.88c4.53-5.64,21.64,1.71,21.64,4.21-3.01,1.31-5.17,1.34-7.6,1.56-5.57.51-13.28-4.74-14.05-5.77h0Z"/>
      <path class="cls-4" d="M50.01,110.14c2.83-2.74,3.13-7.01.36-9.85-2.76-2.85-6.89-2.8-9.85.08-2.82,2.74-3.13,7.01-.37,9.85,2.78,2.85,6.9,2.8,9.86-.09h0ZM42.14,102.05c1.96-1.9,4.64-1.94,6.46-.04,1.84,1.88,1.61,4.68-.23,6.46-1.96,1.91-4.63,1.95-6.47.06-1.84-1.89-1.6-4.68.24-6.47ZM56.71,94.04l1.68,9.09-2.33.43-2.5-13.69.57-.38,11.56,7.74-1.31,1.97-7.67-5.17h0ZM68.08,90.94l-6.96-4.79,1.45-1.82,5.51,3.8.76-6.65,2.31.09-.95,8.4,2.16,4.74-2.13.98s-2.15-4.74-2.15-4.74ZM87.87,80.9l-3.04,6.01-.4.09-5.41-4.02,1.31,9-2.31.32-1.93-13.29.85-.41,6.94,5.21,3.91-7.77h.93s4.22,12.75,4.22,12.75l-2.22.74-2.85-8.63h0ZM99.08,77.62l.14,10.73-2.35.02-.16-12.98,10.39-.14.18,12.99-2.34.04-.14-10.74-5.72.08h0ZM114.33,89.12l-2.32-.31,1.71-12.88,2.33.32-1.72,12.87h0ZM126.55,78.13l-8.86,10.81,1.84,1.51,1.61-1.96,5.45,1.5.37,2.52,2.35-.37-2.08-13.82s-.68-.18-.68-.18ZM122.7,86.57l2.84-3.49.68,4.46-3.52-.97h0ZM133.69,94.67l-2.11-1,5.57-11.75,2.12,1.02-1.9,3.97,5.87-2.08,2.65,1.24-7.02,2.51,3.05,9.99-2.88-1.37-2.55-8.41-2.79,5.86h0ZM147.16,102.72c3.2,2.28,7.44,1.84,9.75-1.4,2.31-3.23,1.52-7.29-1.84-9.67-3.19-2.29-7.45-1.84-9.76,1.4-2.31,3.22-1.52,7.28,1.84,9.67h0ZM147.31,94.47c1.52-2.14,4.31-2.41,6.4-.92,2.23,1.58,2.74,4.22,1.2,6.34-1.52,2.15-4.29,2.42-6.39.92-2.23-1.59-2.75-4.21-1.21-6.35ZM155.24,107.01l6.4-1.42.81-5.37,1.28-1.26,5.82,5.9-1.62,1.61-3.48-3.52-.69,4.63-5.45,1.19,3.67,3.71-1.61,1.59-6.05-6.15.92-.9h0ZM23.92,125.36l-1.1-.61,4.1-7.35.64.35,3.64,6.29,6.01-.62.93.54-3.92,7.01-1.09-.61,2.98-5.35-5.7.58-3.36-5.84-3.12,5.6h0ZM23.77,135.41l-4.68-1.78.5-1.37,4.71,1.77,8.81-1.94.35,1.43-7.97,1.74,4.83,6.59-1.22.85-5.32-7.29h0ZM26.72,163.82l-12.69-5.78-.44.45-.1,10.99.38.46,12.84-5.59v-.54s0,0,0,0ZM14.76,167.97l.07-7.95,8.99,4.05-9.06,3.91h0ZM16.34,181.82l-1.24.17-1.05-7.17,12.85-1.87.95,6.42-1.25.19-.73-4.98-3.67.55.67,4.6-1.25.17-.67-4.6-5.45.81.84,5.72h0ZM17.95,188.27l1.88,6.14-1.19.36-2.48-8.04.72-.22,7.06,1.76,3.73-4.77,1.02-.31,2.35,7.69-1.19.37-1.79-5.86-3.53,4.52-6.55-1.63h0ZM38.26,205.23l-11.39,7.25-.78-1.24,9.12-5.82-8.5-.66-.32-.61,4.33-7.33-9.99,4.13-.57-1.34,12.47-5.18.42.92-4.89,8.27,9.58.75.52.86h0ZM44.74,213.76c-2.53-3.01-6.77-3.63-9.79-1.08-3.03,2.56-3.29,6.67-.63,9.84,2.52,3.01,6.76,3.63,9.8,1.07,3.05-2.55,3.29-6.66.63-9.83h0ZM43.18,222.48c-2.45,2.06-5.78,1.53-7.79-.85-2.14-2.54-1.95-5.76.5-7.82,2.44-2.06,5.78-1.54,7.77.86,2.15,2.53,1.97,5.75-.49,7.81ZM50.96,220.9l6.18,5.16-.8.96-4.7-3.92-.49,5.7-6.38,2.22,4.92,4.12-.8.94-6.45-5.39.46-.56,6.87-2.39.52-6.03.67-.82h0ZM73.18,235.81l.24-.56-1.37-.59-.24.58c-3.59-1.28-7.24-.37-8.48,2.52-1.23,2.87.43,6.09,4,7.9l-.4.93,1.36.59.4-.94c3.63,1.26,7.28.36,8.52-2.52,1.22-2.88-.44-6.11-4.03-7.91h0ZM67.84,244.47c-2.77-1.44-4.14-3.86-3.16-6.13.98-2.29,3.81-2.87,6.61-1.91l-3.46,8.04ZM75.85,243.16c-.97,2.28-3.81,2.85-6.65,1.9l3.47-8.06c2.81,1.46,4.18,3.88,3.19,6.16ZM82.9,238.51l1.42.38-3.28,12.57-1.42-.38,3.28-12.57ZM93.3,240.38l3.54,13.69-1.39.34-2.83-10.93-5.57,9.86-1.21-.77,6.94-12.25.52.07h0ZM105.3,240.99l-5.13,13.23,1.33.55,1.22-3.1,6.37-.21,1.39,2.99,1.33-.57-5.97-12.91h-.53s0,.01,0,.01ZM103.2,250.4l2.45-6.39,2.87,6.21-5.33.18h0ZM133.2,234.81l10.03,9.95-1.02,1-8.01-7.95.26,11.32-1.46-.03-.27-14.07.48-.21h0ZM157.28,234.57l.69,1.04-4.11,2.75-.97-1.46c1.07-1.7,1.95-4.7.66-6.65-1.68-2.52-5.09-2.6-7.48-1-2.4,1.59-3.62,4.77-1.93,7.29,1.29,1.94,4.41,2.29,6.39,1.94l.97,1.45-4.12,2.74-.69-1.03,2.56-1.7c-2.39.16-4.97-.55-6.32-2.58-2.21-3.32-.52-7.35,2.37-9.27,2.88-1.94,7.27-1.95,9.47,1.35,1.39,2.06,1.03,4.7-.03,6.84l2.55-1.7h0ZM173.02,196.01l11.49,6.07-.68,1.29-10.39-5.48-3.18,6.05,10.39,5.47-.68,1.29-11.49-6.05s4.55-8.64,4.55-8.64ZM188.15,188.39l1.18.39-2.27,6.88-12.34-4.08,2.04-6.16,1.18.39-1.58,4.78,3.53,1.16,1.46-4.42,1.2.4-1.46,4.41,5.23,1.74,1.83-5.49h0ZM178.05,179.63l12.72,2.64-.3,1.43-12.73-2.63.31-1.45ZM186.64,171.69c.21-2.27-1.25-4.49-3.29-4.66-2.24-.21-3.84,1.3-4.08,3.78l-.33,3.77,12.95,1.16.13-1.46-5.56-.5.19-2.09h0ZM185.4,171.59l-.19,2.1-4.89-.44.21-2.3c.15-1.68,1.13-2.6,2.7-2.46,1.35.11,2.3,1.63,2.17,3.1ZM189.98,163.14l-.34-6.37,2.96-1.46-.6-1.31-12.78,6.25.02.52,13.33,4.84.54-1.33-3.14-1.15h0ZM182.26,160.37l6.16-3,.27,5.31-6.44-2.3h0ZM178.2,150.43l12.78-2.3.26,1.43-12.78,2.31-.26-1.44h0ZM185.31,132.66l-1-2.9,1.19-.42,1.62,4.67-1.65.59c-1.37-1.47-4.06-3.09-6.27-2.32-2.85,1-3.8,4.27-2.85,6.98.95,2.74,3.71,4.71,6.58,3.71,2.22-.78,3.32-3.69,3.48-5.7l1.66-.59,1.62,4.69-1.19.42-1.02-2.91c-.44,2.34-1.76,4.68-4.08,5.47-3.76,1.31-7.23-1.35-8.37-4.62-1.17-3.28-.07-7.52,3.68-8.83,2.34-.8,4.8.19,6.61,1.76h0ZM168.74,122.97l3.03,5.33,2.47-5.17,6.74.16-3.16-5.57,1.09-.62,4.16,7.3-.64.38-7.27-.19-2.6,5.46-.93.52-3.97-6.99,1.1-.61h0ZM26.86,155.24l-12.74-2.48.28-1.43h.03l10.4-5-9.11-2.58.46-1.38,12.74,3.64-11.97,5.84,10.18,1.96-.28,1.44h0ZM119.69,239.03c-3.84.82-6.38,4.25-5.54,8.12.81,3.88,4.32,6.04,8.38,5.19,3.83-.82,6.36-4.26,5.54-8.12-.83-3.9-4.34-6.05-8.37-5.19h0ZM122.22,250.96c-3.24.7-5.99-.98-6.65-4.11-.66-3.12,1.37-5.81,4.41-6.46,3.24-.69,5.99.99,6.66,4.11.66,3.12-1.37,5.81-4.41,6.46h0ZM124.8,244.23l.27,1.27-7.66,1.63-.27-1.28,7.66-1.61h0ZM161.03,214.9l9.2,9.13-1.03,1.03h-.02s-11.43-1.63-11.43-1.63l6.13,7.2-1.15.88-8.55-10.09,13.19,1.79-7.38-7.29,1.04-1.03h0Z"/>
    </g>
    <polygon class="cls-1" points="159.68 33.4 158.82 44.66 169.17 49.18 158.2 51.84 157.09 63.08 151.17 53.47 140.14 55.88 147.45 47.28 141.75 37.54 152.19 41.84 159.68 33.4"/>
    <polygon class="cls-1" points="201.71 60.69 197.05 70.98 205.23 78.77 194.01 77.52 189.12 87.69 186.85 76.64 175.66 75.14 185.47 69.56 183.44 58.45 191.78 66.06 201.71 60.69"/>
    <polygon class="cls-1" points="46.93 33.4 54.42 41.84 64.86 37.54 59.16 47.28 66.47 55.88 55.44 53.47 49.52 63.08 48.41 51.84 37.44 49.18 47.78 44.66 46.93 33.4"/>
    <polygon class="cls-1" points="4.9 60.69 14.83 66.06 23.17 58.45 21.14 69.56 30.95 75.14 19.76 76.64 17.49 87.69 12.6 77.52 1.38 78.77 9.56 70.98 4.9 60.69"/>
    <polygon class="cls-3" points="103.3 10.41 107.37 22.92 120.53 22.92 109.88 30.66 113.95 43.17 103.3 35.44 92.66 43.17 96.73 30.66 86.08 22.92 99.24 22.92 103.3 10.41"/>
    <path class="cls-3" d="M120.14,51.83l-16.84-12.23-16.84,12.23,6.43-19.8-16.84-12.23h20.81L103.3,0l6.43,19.8h20.81l-16.84,12.23,6.43,19.8ZM103.3,37.97l14.35,10.43-5.48-16.87,14.35-10.43h-17.73l-5.48-16.87-5.48,16.87h-17.73l14.35,10.43-5.48,16.87,14.35-10.43h0Z"/>
  </g>
</svg>