<?xml version="1.0" encoding="UTF-8" standalone="no"?>
<svg height="76.572327mm" viewBox="0 0 89.958336 76.572327" width="89.958336mm" xmlns="http://www.w3.org/2000/svg">
   <g stroke-width=".26458332" transform="matrix(.38765093 0 0 .38765093 141.406929 -27.706273)">
      <path d="m-216.34778 268.67226c-2.74717-.76756-4.87358-2.32218-9.82457-7.18275-3.64232-3.57579-4.81706-4.57999-5.35782-4.57999h-.69261v5.50333c0 3.92759-.0909 5.59424-.3175 5.82084-.36214.36213-7.52817.45173-8.08037.10103-.2518-.15992-.34408-3.09408-.39688-12.619l-.0688-12.41063-.89409-.18282c-.49176-.10055-.99595-.34354-1.12043-.53997-.37363-.5896-.28475-6.14033.10691-6.67595.31816-.43512 1.05007-.46059 10.78177-.37518 10.10567.0887 10.49557.11119 12.16022.70141 4.41292 1.56466 6.87269 4.38512 7.44858 8.5408.66567 4.80352-1.48185 8.77371-5.9024 10.91197l-1.88983.91413 1.03172.96573c1.60849 1.50562 4.1045 3.21096 5.23161 3.57439.69366.22366 1.69882.27167 3.11014.14856 1.7197-.15001 2.11175-.11282 2.23645.21212.33818.8813.81542 5.62267.60716 6.03218-.58546 1.15121-5.61624 1.85312-8.16926 1.1398zm-7.23053-18.62555c2.01493-.91484 2.71639-3.00073 1.68739-5.01773-.84492-1.65619-1.59483-1.87779-6.35462-1.87779h-3.97724v3.52777c0 1.94028.0794 3.60716.17639 3.70417.097.097 1.79365.17378 3.77031.17058 2.95356-.005 3.7906-.0951 4.69777-.507zm71.39198 18.86232c-3.87934-.62318-6.9249-2.12913-9.54923-4.72184-3.37143-3.33082-4.87056-7.02986-4.87056-12.01795 0-5.07813 1.55573-8.99392 4.91076-12.36047 3.16402-3.17487 7.00829-4.69237 11.89028-4.69362 5.77618-.002 10.3381 2.16183 13.70657 6.49976 5.01012 6.45204 4.37341 16.6305-1.40219 22.41563-2.1573 2.16085-4.17432 3.37085-6.96998 4.18122-2.12123.61489-6.02972.9681-7.71565.69727zm5.96657-8.74341c1.74757-.77488 3.08125-2.06126 4.03783-3.89464.7718-1.47923.84038-1.81564.84188-4.12952.002-2.31417-.069-2.66262-.8668-4.28315-1.48-3.00632-3.97768-4.52468-7.49129-4.55404-1.80344-.0151-2.21433.0822-3.83167.90721-3.08265 1.57243-4.60964 4.21614-4.60964 7.98072 0 5.14952 3.82703 8.86418 8.86354 8.60326 1.09054-.0565 2.34717-.31547 3.05615-.62984zm-214.67871 8.20918c-.097-.097-.17639-5.81202-.17639-12.7v-12.52361h-.77485c-1.35095 0-1.49283-.38603-1.43887-3.91472.0269-1.76096.12634-3.32695.22091-3.47997.11535-.18664 3.46263-.27823 10.16818-.27823 9.15395 0 10.17257.0449 12.08908.53337 4.71107 1.20062 7.61836 4.61021 8.31006 9.74581.86044 6.38842-2.16488 11.54621-7.95129 13.55594-1.47012.5106-2.40847.60902-6.79874.7131l-5.09323.12075v3.88447c0 2.66848-.0994 3.98387-.3175 4.20198-.34169.34169-7.90718.47129-8.23736.14111zm16.69929-16.37411c2.78311-1.16257 3.76411-4.3196 2.16127-6.95528-.91836-1.51011-2.20446-1.88174-6.53539-1.88841l-3.77031-.006v4.45381c0 2.44961.0794 4.5332.17639 4.63021.097.097 1.70818.17639 3.58037.17639 2.47879 0 3.67135-.11168 4.38767-.41091zm9.75904 16.37411c-.40934-.40934-.28302-.77325 4.7147-13.58195 4.137-10.60275 4.41135-11.42128 3.98566-11.89165-.60983-.67386-.60245-7.02791.008-7.26233.23017-.0883 3.25169-.1606 6.71447-.1606 4.71642 0 6.36368.083 6.56588.33073.14846.1819 1.22621 2.83104 2.39501 5.88698 1.94479 5.08488 3.00617 7.88114 8.16093 21.50046.95074 2.51192 1.66061 4.74435 1.57749 4.96094-.20996.54715-7.88189.58483-8.33329.0409-.16107-.19408-.69747-1.47401-1.192-2.84427l-.89915-2.4914-1.0232-.13229c-.56276-.0728-3.56531-.0728-6.67233 0l-5.64913.13229-.96545 2.51355c-.531 1.38244-1.06179 2.66237-1.17951 2.84427-.15534.24-1.28641.33073-4.12309.33073-2.14997 0-3.98842-.0794-4.08543-.17639zm21.05219-12.40913c.16463-.16464-.22959-1.35793-2.22261-6.72782-1.6728-4.50709-1.69798-4.55308-2.02966-3.70541-3.09844 7.91878-3.94658 10.21011-3.84196 10.37938.14358.23233 7.86439.28368 8.09423.0538zm15.14188 12.25746c-.0701-.18337-.0966-7.59622-.0589-16.47299l.0686-16.13958h4.10104 4.10104l.13229 12.56771.13229 12.56771 7.9375.14219c4.36563.0782 7.97063.1675 8.01112.19843.0405.0309.0405 1.69336 0 3.69427l-.0736 3.63802-12.11196.0688c-9.5483.0543-12.13895-.002-12.23945-.26458zm26.98647-.003c-.0696-.1819-.0956-7.59355-.0578-16.47032l.0686-16.13958h13.09687 13.09687l.0736 3.63802c.0405 2.00091.0405 3.66381 0 3.69533-.0405.0315-4.12174.12082-9.06945.19844l-8.99583.14113-.0765 2.3151-.0764 2.31511 7.08791.004c3.89835.002 7.25484.10975 7.45887.23892.27702.17539.38016.96167.40728 3.10481.0568 4.48965.88422 4.03983-7.5831 4.12243l-7.21806.0704-.0754 2.71198-.0754 2.71198h8.68994c6.55049 0 8.79384.0814 9.11195.33073.32565.25522.44956.99523.54267 3.24114.0664 1.60073.0212 3.17831-.10031 3.50573l-.22097.59532h-12.97943c-10.13972 0-13.00711-.0724-13.1059-.33073zm65.02547.0198c-.46456-.46455-.47094-31.98011-.007-32.44448.21373-.21373 1.41963-.3175 3.6896-.3175h3.3721l1.04367 1.12448c.57401.61846 1.38321 1.5412 1.7982 2.05052 3.00267 3.68516 8.65278 10.03074 8.8325 9.91967.12063-.0746 2.56716-2.90253 5.43673-6.28439 2.86956-3.38185 5.40201-6.29765 5.62765-6.47955.28047-.22609 1.48458-.33073 3.80583-.33073 3.28479 0 3.403.0195 3.62347.59943.31545.82971.29904 31.42237-.0172 32.01729-.2252.42366-.64503.46267-4.27168.39687l-4.02195-.073-.0695-9.32656c-.0406-5.45217-.17067-9.32656-.31301-9.32656-.13392 0-.69794.56513-1.25339 1.25584-.55544.69071-1.72427 2.10131-2.5974 3.13467-.87312 1.03336-2.40348 2.85594-3.4008 4.05017-1.722 2.062-1.86181 2.16728-2.77666 2.09085-1.02057-.0853-1.7855-.89547-7.63242-8.08413-1.09482-1.34607-2.09513-2.4474-2.22291-2.4474-.12777 0-.2636 4.19695-.30184 9.32656l-.0695 9.32656-3.97541.0727c-2.86806.0525-4.06568-.0175-4.29948-.25136zm-58.7049-45.33906c-.35694-.93017 5.29747-12.97236 8.73155-18.59553 10.84022-17.75048 25.53717-31.62264 42.53363-40.14669 7.23525-3.62861 19.95901-7.73712 28.67919-9.26053 3.34919-.5851 9.13045-.79331 11.34061-.40843 4.28845.7468 7.07072 2.71354 8.75001 6.18525l.90072 1.86209.30498-1.16652c.16774-.64158.58826-2.23808.93451-3.54776.8757-3.31241 1.44938-6.5537 1.44938-8.18899 0-1.90586-.83989-5.01649-1.94931-7.2195-1.27969-2.54113-3.12596-4.45691-6.45942-6.70262-6.55099-4.41331-7.00887-4.89809-10.10364-10.69723-2.80464-5.25547-4.70539-7.38069-8.94875-10.00552-5.44743-3.36964-7.20462-4.06191-24.28199-9.56619-28.16403-9.077662-61.22784-19.879675-62.22616-20.329411-.32742-.147503-.59531-.42767-.59531-.622594 0-.294608 6.84248-.354404 40.55529-.354404 34.79589 0 41.02386.05751 43.85469.404969 11.32451 1.389972 21.31366 5.860033 28.65797 12.824197 9.55435 9.059803 14.50134 22.055473 14.50037 38.092323-.00053 9.21021-1.57878 16.12269-5.46872 23.95247-4.78493 9.63124-11.84172 16.62378-21.35349 21.15907-4.00235 1.90836-6.60712 2.74322-15.80878 5.06692-9.35786 2.36314-11.52137 3.07329-16.01338 5.25618-10.77075 5.23406-18.32506 13.26331-24.52292 26.0647-1.30341 2.69213-2.51476 5.19245-2.6919 5.55625l-.32206.66146-15.14476.0683c-13.48361.0608-15.16204.0233-15.30231-.34227zm-10.33076-6.26091c-2.31761-2.5177-15.62758-17.0792-29.57772-32.35888-33.2668-36.43737-40.68001-44.55238-45.83007-50.16872-5.92348-6.4598-9.77901-9.40043-13.0005-9.91557-.81082-.12966-1.10095-.29953-1.10095-.64461 0-.99209 7.46144-4.19164 11.77396-5.04881 2.67679-.53204 8.00294-.46812 10.45104.12543 3.11547.75536 7.50095 2.99975 9.44949 4.83605 1.98096 1.86686 67.26992 73.09454 67.48121 73.61935.0814.20223-.16476 1.33332-.54706 2.51354-1.75844 5.42846-3.11255 12.06974-3.70058 18.14951-.25975 2.68565-.40047 3.31927-.75225 3.38701-.27779.0535-1.94155-1.55575-4.64657-4.4943zm10.37097-29.54235c-.87313-.9854-4.68313-5.17142-8.46667-9.30226-3.78354-4.13085-9.4347-10.31457-12.55813-13.74162-3.12343-3.42704-8.89796-9.74972-12.83229-14.05039-16.28932-17.80608-32.58242-35.65917-36.69096-40.20394-4.34247-4.80354-8.21549-7.87616-11.38415-9.03152-.84911-.3096-1.54384-.66469-1.54384-.789088 0-.338675 3.79182-2.1785 6.35-3.081073 3.86953-1.365242 6.26384-1.727901 10.45104-1.582986 4.18275.144761 6.78079.798888 9.92187 2.498097 2.99328 1.619256 3.42379 2.028219 11.79611 11.20572 2.46167 2.69841 7.04288 7.69904 10.18047 11.11249 3.13758 3.41346 7.03688 7.66481 8.6651 9.44744 7.02269 7.68866 8.9733 9.81918 14.71942 16.07698 3.33877 3.63607 9.82767 10.70381 14.41979 15.70609 4.59213 5.00228 8.44573 9.2609 8.56356 9.4636.14336.24662-.58205 1.70191-2.19261 4.3987-1.32378 2.21658-3.49259 6.20304-4.81959 8.85879-1.32701 2.65576-2.54299 4.82368-2.70218 4.81762-.1592-.006-1.00382-.81726-1.87694-1.80265zm10.29058-28.42561c-3.07142-3.37751-12.71549-13.94669-21.43125-23.48707-8.71576-9.54038-18.28608-20.01788-21.26739-23.28333-26.08489-28.571015-27.6547-30.222465-30.64286-32.236338-1.9272-1.298837-3.13729-1.846046-4.65544-2.105216-1.7349-.296166-1.54352-.88147.68632-2.09904 2.90217-1.584682 6.37019-2.867781 9.47316-3.504874 2.31849-.476028 3.36909-.548743 6.35-.439502 4.05051.148434 6.28411.674518 9.39531 2.212882 3.03183 1.499126 4.47852 2.764155 9.78315 8.554696 2.73285 2.983177 6.12262 6.674114 7.53283 8.202083 1.41021 1.527968 9.32849 10.159999 17.59618 19.182289 8.26769 9.02229 16.72709 18.24964 18.79867 20.50521 13.66496 14.87866 17.12867 18.69013 17.24641 18.97796.0731.17866-1.10067 1.72647-2.60834 3.43959-3.18906 3.62361-6.42689 7.60398-8.39859 10.32463-.79009 1.09023-1.58086 1.91364-1.83195 1.90759-.24299-.006-2.95478-2.77406-6.02621-6.15156zm55.59066-25.55714c-2.18263-.57313-4.26256-2.2562-5.01367-4.05705-.22566-.54103-.41248-1.73166-.41516-2.64584l-.005-1.66214-1.24964-.79375c-1.17266-.74485-1.80551-1.71979-1.11634-1.71979.1699 0 3.69097 1.38521 7.82461 3.07824 6.15717 2.52183 7.51569 3.16985 7.51569 3.58501 0 1.17473-1.43561 2.92039-3.08607 3.7526-1.00565.50707-3.35592.75121-4.45456.46272z" fill="#eec0c8"/>
      <path d="m-217.25884 267.89219c-2.55416-1.04997-4.27004-2.40245-8.7763-6.91757-3.12043-3.12657-4.48877-4.32129-5.10406-4.45643-1.53859-.33793-1.5945-.14052-1.67361 5.90944l-.0714 5.4621-3.77031.0734-3.77032.0734v-12.25982c0-9.40161-.0771-12.3603-.33073-12.6908-.1819-.23705-.68791-.46816-1.12448-.51359l-.79375-.0826v-3.175-3.175h10.58334c10.3437 0 10.61928.0136 12.17083.59782 4.30087 1.61963 6.60828 4.59286 6.93825 8.94033.2327 3.06586-.83568 5.88304-2.92761 7.71979-1.17601 1.03254-2.97627 2.09348-3.96586 2.33717-1.62706.40067-1.06727 1.34796 2.34225 3.96361 2.51425 1.92884 3.68724 2.32588 6.27162 2.12285 2.35398-.18493 2.10847-.48444 2.58866 3.15801.26257 1.9917.24712 2.14275-.26165 2.55842-1.41617 1.157-5.9074 1.34823-8.32484.35446zm-5.98649-17.45546c1.12438-.58144 2.06336-1.8449 2.26704-3.05042.14327-.84806.0508-1.33569-.43822-2.31054-1.0892-2.17134-1.46079-2.30892-6.49827-2.40592-3.41605-.0658-4.43539-.007-4.60775.26458-.26153.41246-.30996 7.45636-.053 7.71328.097.097 2.06746.17639 4.37876.17639 3.17214 0 4.38602-.095 4.95147-.38737zm70.52983 17.94287c-5.00357-1.04205-9.19385-3.91921-11.31024-7.76591-1.57239-2.85794-2.16959-5.23132-2.16371-8.59896.006-3.26752.40469-4.97037 1.82569-7.7921 4.04831-8.03888 14.0139-11.06516 22.6046-6.86442 3.68132 1.80012 7.23677 6.4021 8.10248 10.48741.50758 2.39522.49311 6.59437-.0297 8.62883-1.45147 5.64802-6.0973 10.20555-11.75798 11.53452-2.12937.49992-5.76135.68505-7.27111.37063zm6.27713-7.65652c6.01684-2.11107 7.65909-11.21222 2.81316-15.59023-1.95194-1.76346-2.95463-2.11396-6.04758-2.11396-2.5005 0-2.912.0707-4.11783.70706-1.67482.88391-3.14542 2.49157-4.04371 4.42057-.59223 1.27178-.69313 1.85069-.69722 4.0005-.004 2.21911.0815 2.6891.73134 4.01229 2.10984 4.29562 6.7798 6.17143 11.36184 4.56377zm-210.99847 7.36594l-3.10885-.0838v-12.39462c0-9.5934-.0747-12.45645-.33073-12.66819-.1819-.15046-.68792-.31387-1.12448-.36312l-.79375-.0896v-3.175-3.175l10.18156-.0693c9.78864-.0667 10.25629-.0472 12.11781.50546 5.17689 1.53685 8.08151 6.11331 7.66151 12.07134-.33463 4.74698-2.78956 8.22016-7.09534 10.03837-1.61987.68403-1.94498.72205-6.99054.8176-3.09038.0585-5.42925.21377-5.6224.37319-.23652.19522-.33073 1.3539-.33073 4.06772 0 3.48098-.0423 3.8174-.51177 4.06865-.28148.15064-.6089.24829-.72761.217-.1187-.0313-1.61481-.0946-3.32468-.14069zm12.7397-15.42956c2.44042-.56256 3.78353-2.34235 3.78353-5.01365 0-2.27266-.97302-3.75708-3.02459-4.61429-1.24437-.51993-8.11579-.59329-8.61708-.092-.44615.44616-.44615 9.23759 0 9.68375.39682.39682 6.17823.42345 7.85814.0362zm10.60978 14.99424c0-.20258 1.17409-3.3875 2.60909-7.07761 6.54374-16.8272 6.7477-17.40904 6.28273-17.92282-.33937-.37499-.42516-1.09292-.42516-3.55781v-3.08802h6.45641 6.45641l.26667.7276c.14667.40018 1.17983 3.10886 2.29592 6.01927 1.83015 4.77248 2.99333 7.83692 7.91424 20.85036.81465 2.15436 1.48119 4.02959 1.48119 4.16718 0 .14559-1.5933.25017-3.81144.25017h-3.81143l-.83505-2.31511c-.45927-1.2733-1.01037-2.58499-1.22466-2.91486l-.38962-.59976-6.80219.0706-6.80219.0706-.92795 2.51354c-.51036 1.38245-1.02422 2.66237-1.14191 2.84427-.32723.50582-7.59106.46984-7.59106-.0376zm21.10545-11.80251c.0742-.6904-3.65663-10.96743-4.16656-11.47736-.4078-.4078-.422-.37814-2.92182 6.10021-1.79465 4.65089-2.12756 5.73413-1.82255 5.93017.20525.13192 2.27819.21029 4.60652.17415l4.23333-.0657zm15.04464 11.57552c-.2092-.78065-.2151-30.45627-.006-31.00076.13578-.35384.72863-.41851 3.83646-.41851 2.02172 0 3.7027.0298 3.73551.0661.0328.0364.12211 5.72162.19844 12.63386l.13878 12.5677 7.79212.0702c5.82932.0525 7.84437.15251 7.99959.39687.24375.38375.2894 5.25038.055 5.86126-.1431.37292-1.43711.41852-11.87539.41852h-11.71479zm26.94319.26712c-.0701-.1833-.0966-7.35796-.0588-15.94369l.0686-15.61041h12.83229 12.83229v3.175 3.175l-8.84079.0698c-5.98596.0472-8.95494.1645-9.19427.36313-.36702.3046-.5165 4.25838-.19288 5.10172.14102.36748 1.04093.41851 7.38003.41851 6.33909 0 7.23901.051 7.38002.41852.30276.78897.17579 5.54587-.1569 5.87857-.23108.23108-2.23973.3175-7.38003.3175-6.19602 0-7.08222.0513-7.22312.41851-.20875.54399-.20875 4.96898 0 5.51297.14207.37023 1.19455.41852 9.12308.41852h8.96249l.14853.59531c.0817.32742.11373 1.78594.0712 3.24114l-.0773 2.64584-12.77347.0687c-10.07762.0542-12.80038-.002-12.90095-.26459zm65.08653-.003c-.0696-.1819-.0956-7.35542-.0579-15.94115l.0687-15.61041h3.42687 3.42688l1.565 1.85208c.86074 1.01865 2.97326 3.51896 4.69447 5.55625 4.35373 5.15322 4.94138 5.75603 5.36535 5.50379.40445-.24063 1.5458-1.53035 5.33393-6.02733 1.4552-1.7275 3.4066-4.01649 4.33643-5.08663l1.6906-1.94571 3.33648.0738 3.33648.0739v15.875 15.875h-3.78359-3.7836l-.0529-9.30463c-.0291-5.11755-.13323-9.38495-.23146-9.48311-.35255-.35232-1.02205.34092-5.2405 5.42628-2.35391 2.83766-4.45147 5.25593-4.66123 5.37395-.20976.11801-.59691.14617-.86032.0626-.26341-.0836-2.4339-2.52128-4.82331-5.41707-4.15429-5.03471-4.88158-5.78777-5.24214-5.42787-.0883.0881-.19467 4.3772-.23636 9.53123l-.0758 9.37095h-3.70282c-2.7184 0-3.73645-.0879-3.82931-.33073zm-58.71204-44.88921c-.46599-.75399 5.8082-13.68437 9.60043-19.78537 9.21362-14.82301 22.32931-27.68976 36.687-35.99069 8.95758-5.17884 22.89429-10.06383 33.91234-11.88671 4.19541-.69411 10.47582-.63836 12.76348.11329 3.37489 1.10889 5.9412 3.6443 7.04137 6.95658.24662.74253.53752 1.25006.64643 1.12785.10891-.12221.76112-2.42485 1.44934-5.11699 1.59474-6.23816 1.82237-9.15092.96051-12.2912-1.34897-4.91519-3.54491-7.60826-9.3821-11.50616-2.02027-1.34907-4.1634-2.94805-4.7625-3.55329-.59911-.60524-1.84862-2.46777-2.7767-4.13896-3.04953-5.4913-3.71619-6.54547-5.08989-8.04851-1.74701-1.91152-6.07902-4.80246-10.19514-6.80367-3.3321-1.62003-4.31783-1.95597-31.71089-10.80699-30.69516-9.917979-48.97255-15.957422-49.33534-16.301991-.33094-.31433 5.40252-.367975 39.32874-.367975 25.67655 0 40.68475.09768 42.45617.276321 9.02148.90978 17.36484 3.787841 24.30355 8.383566 3.77558 2.500682 8.8904 7.507599 11.28973 11.051569 5.78686 8.54756 8.46028 17.64731 8.74488 29.76563.14694 6.25687-.21853 9.84985-1.53329 15.07389-3.77486 14.99898-13.89331 26.96228-27.37577 32.36708-3.00407 1.20426-9.48602 3.11682-14.54117 4.2905-9.46565 2.19769-15.37615 4.56472-20.9725 8.39904-8.04103 5.50927-13.8714 12.66767-18.90674 23.21323-1.14648 2.40109-2.23175 4.66328-2.4117 5.02708l-.32719.66146-14.85573.0683c-8.9184.041-14.91632-.0297-15.00732-.17692zm-6.38923-2.08623c-.15485-.10254-18.58533-20.24847-40.9566-44.76873-22.37128-24.52026-41.47146-45.34078-42.44485-46.26782-3.15116-3.00114-6.12679-4.97142-8.59316-5.6899-.56166-.16361-1.04211-.41655-1.06767-.56207-.0759-.43195 3.977-2.41381 6.96499-3.40588 3.78405-1.25638 5.68907-1.57952 9.26041-1.57081 3.33196.008 5.43402.40706 8.57828 1.62798 4.44152 1.72465 2.90629.16696 39.14924 39.72192 18.352 20.02907 33.58297 36.66552 33.8466 36.96987.46581.53776.4527.63811-.46437 3.55723-1.69918 5.40856-3.06331 12.33992-3.48116 17.68823-.18985 2.43017-.35397 2.98984-.79171 2.69998zm17.46748-61.37886c-43.83603-48.0658-66.75532-73.127983-68.60628-75.020794-3.87405-3.961643-6.90012-6.126474-9.70257-6.941168-1.29109-.375333-1.42851-.478714-1.12624-.847289.47591-.580308 4.66674-2.532829 7.22344-3.365428 3.45808-1.126136 6.46453-1.542685 9.92188-1.37469 5.02357.244094 9.49607 1.890127 12.89411 4.745473 1.90646 1.601981 66.74547 72.309086 66.74547 72.786106 0 .17454-1.15377 1.62355-2.56394 3.22003-2.62199 2.96842-6.91617 8.25875-8.53056 10.50946-.4958.69122-1.08963 1.25338-1.31963 1.24924-.22999-.004-2.45105-2.23656-4.93568-4.96094zm54.99134-26.54509c-3.5303-.65231-5.87109-3.423-5.56686-6.58923.12494-1.30027.1003-1.35782-.93094-2.17458-.5826-.46143-.93207-.88137-.7766-.93319.35917-.11972 13.30003 5.15293 13.77594 5.61289.2961.28619.28909.468-.0425 1.10316-1.17238 2.2455-3.82178 3.46825-6.45901 2.98095z" fill="#c5ad39"/>
      <path d="m-264.29859 222.62885c-.49177-.49177 5.32302-12.65502 8.7613-18.32668 10.28551-16.96659 25.00082-30.90359 41.43846-39.2467 12.93066-6.5631 31.88044-11.31954 40.01223-10.04316 4.86941.76432 7.84387 3.12672 9.23888 7.3378.43331 1.308.77958 1.88672.99813 1.66816.0657-.0657.73382-2.5581 1.48465-5.53861 2.11515-8.39638 2.06293-11.20095-.29952-16.08716-1.42218-2.94148-3.57315-5.08311-8.30088-8.26483-2.03377-1.36872-4.11766-2.92125-4.63087-3.45008-.51321-.52882-1.69513-2.31696-2.6265-3.97364-3.2946-5.86026-3.76053-6.58763-5.25118-8.19772-1.57677-1.7031-4.64042-3.90055-8.01115-5.74612-3.01853-1.65274-6.98538-3.23257-12.69191-5.05466-24.70179-7.887285-69.40552-22.511908-69.71171-22.805879-.1611-.154664 15.20103-.217709 40.74583-.167211 37.84555.07481 41.19805.117023 43.51796.547944 11.74218 2.181103 20.18225 6.305939 27.13356 13.260731 7.0363 7.039815 11.10545 15.491525 13.00078 27.002865.74546 4.52755.6839 15.56437-.10993 19.71146-2.83461 14.80827-10.97776 26.64543-22.99057 33.4199-4.66437 2.63041-8.51802 3.94705-19.81196 6.76898-3.4925.87264-7.60016 2.01918-9.12813 2.54785-13.02925 4.50813-23.00101 13.68944-29.95396 27.57958-1.07353 2.14462-2.26509 4.64345-2.6479 5.55296l-.69603 1.65364h-14.66008c-8.06304 0-14.72732-.0672-14.8095-.14942zm-9.37799-5.0761c-1.44789-1.56435-8.93728-9.7499-16.6431-18.1901-70.04314-76.71852-63.7058-69.83112-65.92365-71.64561-2.25101-1.84162-4.49538-3.20959-6.1885-3.77195-.70887-.23545-1.28886-.51702-1.28886-.62571 0-.27716 4.8198-2.53295 6.81955-3.19172 3.2462-1.06939 5.39446-1.41245 8.92315-1.42497 2.76766-.01 3.87831.10512 5.68537.58837 2.8852.77158 6.11625 2.35514 8.04411 3.94249 2.31798 1.90855 68.20658 73.93657 68.06693 74.40931-1.70247 5.76309-2.19289 7.61198-2.84232 10.71562-.42629 2.03729-.98171 5.5794-1.23426 7.87135-.25255 2.29196-.53269 4.16719-.62254 4.16719-.0898 0-1.34799-1.27992-2.79588-2.84427zm2.65062-77.67086c-54.06295-59.285512-53.86935-59.078574-57.06285-60.994718-.81015-.4861-2.1368-1.153607-2.94812-1.483349-.81131-.329745-1.54396-.668372-1.62809-.752507-.19168-.191683 2.42746-1.523135 5.02956-2.556801 8.09414-3.215333 16.67484-2.717887 22.84612 1.324449.90698.594098 2.58915 2.054465 3.73815 3.245265 3.58301 3.713374 64.38923 70.140501 64.52194 70.486331.0691.18021-.27306.792-.76047 1.35954-4.9711 5.78837-7.02102 8.26876-8.82369 10.67661-1.16417 1.55499-2.29526 2.82624-2.51354 2.825-.21828-.001-10.29783-10.85966-22.39901-24.12982zm71.8599-7.41304c-3.06677-.85255-4.96036-3.41358-4.68015-6.32977.10157-1.05705.027-1.4281-.36618-1.82124-.27155-.27155-.36936-.49373-.21735-.49373.6393 0 12.23196 4.90924 12.356 5.2325.19613.5111-1.26183 2.21222-2.46957 2.88147-1.34738.74661-3.11592.94967-4.62275.53077z" fill="#040404"/>
   </g>
</svg>
