<svg xmlns:dc="http://purl.org/dc/elements/1.1/" xmlns:cc="http://creativecommons.org/ns#" xmlns:rdf="http://www.w3.org/1999/02/22-rdf-syntax-ns#" xmlns:svg="http://www.w3.org/2000/svg" xmlns="http://www.w3.org/2000/svg" xmlns:xlink="http://www.w3.org/1999/xlink" xmlns:sodipodi="http://sodipodi.sourceforge.net/DTD/sodipodi-0.dtd" xmlns:inkscape="http://www.inkscape.org/namespaces/inkscape" inkscape:version="1.0 (4035a4f, 2020-05-01)" sodipodi:docname="Logo AS Pisa 1909.cdr.svg" id="svg122" height="356.4291546531391" width="280.5606631626852" version="1.1" viewBox="0 0 550.9295 700.0">
  <metadata id="metadata128">
    <rdf:RDF>
      <cc:Work rdf:about="">
        <dc:format>image/svg+xml</dc:format>
        <dc:type rdf:resource="http://purl.org/dc/dcmitype/StillImage"/>
        <dc:title/>
      </cc:Work>
    </rdf:RDF>
  </metadata>
  <defs id="defs126">
    <defs id="defs26">
      <linearGradient id="grad1">
        <stop offset="201392128.0000%" stop-color="#323935" stop-opacity="1.0000" id="stop18"/>
        <stop offset="201392171.0000%" stop-color="#1e2521" stop-opacity="1.0000" id="stop20"/>
        <stop offset="100.0000%" stop-color="#1d2421" stop-opacity="1.0000" id="stop22"/>
      </linearGradient>
      <linearGradient xlink:href="#grad1" id="grad2" x1="93.088219" y1="120.8936" x2="93.088219" y2="611.18762" gradientTransform="scale(0.88945198,1.1242878)" gradientUnits="userSpaceOnUse"/>
    </defs>
  </defs>
  <sodipodi:namedview inkscape:current-layer="svg122" inkscape:window-maximized="0" inkscape:window-y="0" inkscape:window-x="0" inkscape:cy="294.11339" inkscape:cx="221.16659" inkscape:zoom="0.79464085" showgrid="false" id="namedview124" inkscape:window-height="900" inkscape:window-width="1440" inkscape:pageshadow="2" inkscape:pageopacity="0" guidetolerance="10" gridtolerance="10" objecttolerance="10" borderopacity="1" bordercolor="#666666" pagecolor="#ffffff"/>
  <g transform="matrix(1.2242582,0,0,1.2242582,-93.620494,-155.2745)" id="g331">
    <path id="path12" style="fill:#ffffff;fill-rule:evenodd" d="m 301.4768,126.8315 c 15.5412,0 30.9856,2.0674 46.009,6.1017 53.8114,14.4507 97.8425,52.5725 127.9631,99.2123 34.3554,53.1977 51.0332,117.2119 51.0332,180.5735 0,61.7265 -15.55,124.1694 -48.0177,176.6478 -28.6004,46.2277 -70.5211,84.4104 -122.4758,100.8062 -17.6748,5.5778 -36.0015,8.4333 -54.5118,8.4333 -18.5108,0 -36.8378,-2.8556 -54.5129,-8.4337 C 195.0094,673.7766 153.0889,635.594 124.4885,589.3662 92.021,536.888 76.4712,474.4453 76.4712,412.719 c 0,-63.3618 16.6778,-127.376 51.0336,-180.5737 30.1207,-46.64 74.1523,-84.7616 127.9638,-99.2122 15.0231,-4.0344 30.4673,-6.1016 46.0082,-6.1016 z"/>
    <path id="path14" style="fill:#e7e6e6;fill-rule:evenodd" d="m 525.7128,436.438 c -3.4912,53.8317 -18.9371,107.1685 -47.2484,152.9287 -28.6004,46.2279 -70.521,84.4106 -122.4757,100.8063 -17.6749,5.5779 -36.0016,8.4333 -54.5118,8.4333 -18.5109,0 -36.838,-2.8556 -54.5131,-8.4337 C 195.0095,673.7767 153.0888,635.594 124.4885,589.3661 92.0209,536.8881 76.4712,474.4453 76.4712,412.719 c 0,-63.3619 16.6777,-127.376 51.0335,-180.5736 25.9089,-40.1181 62.1106,-73.9329 105.975,-91.8023 -42.6526,18.4619 -78.5066,52.9746 -103.7314,91.8363 -34.1609,52.6288 -50.7466,115.9623 -50.7466,178.6487 0,61.0683 14.7001,122.8461 46.9842,174.7642 28.3151,45.5352 70.9985,83.9276 122.5498,100.1138 17.5756,5.5185 35.7996,7.962 54.2065,7.962 18.4061,0 36.6297,-2.8252 54.2051,-8.3435 51.6626,-16.221 93.3475,-53.9968 121.7871,-99.7318 26.4244,-42.4941 42.1419,-97.2075 46.9784,-149.1548 z"/>
    <path id="path16" style="fill:#e7e6e6;fill-rule:evenodd" d="m 302.0083,131.9663 c 15.0284,0 29.9601,1.9623 44.4878,5.7894 52.601,13.8573 95.603,50.6438 125.0291,95.3432 34.0521,51.7261 50.5366,114.0395 50.5366,175.6409 0,44.1477 -7.9318,87.1828 -24.9335,127.1669 15.6942,-39.3901 23.2896,-82.0725 23.2896,-124.3716 0,-61.6837 -16.4486,-124.0803 -50.4264,-175.8755 -29.3619,-44.7592 -72.2702,-81.5947 -124.7565,-95.4706 -14.496,-3.8322 -29.3952,-5.7972 -44.3908,-5.7972 -14.9954,0 -29.8945,1.9648 -44.3901,5.797 -52.4866,13.8757 -95.3951,50.7112 -124.7573,95.4704 -17.6704,26.9366 -30.5976,56.7412 -38.9382,87.8211 8.3272,-32.004 21.5148,-62.7082 39.7327,-90.3818 29.4263,-44.6994 72.4285,-81.4859 125.0299,-95.343 14.5273,-3.8271 29.4588,-5.7892 44.4871,-5.7892 z"/>
    <path id="path28" style="fill:url(#grad2)" d="m 300.8442,135.9192 c 118.6853,0 218.0463,123.4231 218.0463,275.6159 0,152.1926 -97.6431,275.6157 -218.0463,275.6157 -120.4036,0 -218.0467,-123.4231 -218.0467,-275.6157 0,-152.1928 99.3614,-275.6159 218.0467,-275.6159 z"/>
    <path id="path30" style="fill:#1d2421;fill-rule:evenodd" d="m 300.8448,142.0146 c -14.4028,0 -28.7117,2.2545 -42.6334,5.9042 -50.8225,13.3234 -91.3935,48.8649 -119.8123,91.8262 -33.2403,50.2503 -50.2551,110.4552 -50.2551,170.294 0,58.3197 13.8291,117.4475 45.2555,167.0393 27.0115,42.625 67.1419,78.2065 116.255,93.3369 16.4137,5.0565 33.9988,7.648 51.1903,7.648 17.191,0 34.7752,-2.5911 51.1891,-7.6478 49.1133,-15.1306 89.2437,-50.7111 116.2555,-93.3366 31.4271,-49.5921 45.2558,-108.7199 45.2558,-167.0398 0,-59.8386 -17.0141,-120.0432 -50.2547,-170.2938 -28.419,-42.9617 -68.9895,-78.5027 -119.8116,-91.8262 -13.9221,-3.6499 -28.2311,-5.9044 -42.6341,-5.9044 z"/>
    <path id="path32" style="fill:#0072b4;fill-rule:evenodd" d="m 141.3279,235.4093 c -0.9898,1.4367 -1.9669,2.8814 -2.9288,4.3357 -33.2403,50.2503 -50.2551,110.4552 -50.2551,170.294 0,58.3198 13.8291,117.4475 45.2555,167.0394 27.0115,42.6249 67.1419,78.2065 116.255,93.3369 16.4137,5.0565 33.9988,7.6479 51.1903,7.6479 17.191,0 34.7752,-2.5911 51.1891,-7.6477 49.1133,-15.1306 89.2437,-50.7112 116.2555,-93.3366 31.4271,-49.5922 45.2558,-108.7199 45.2558,-167.0399 0,-56.4928 -15.1675,-113.3102 -44.8342,-161.7717 25.7178,46.7277 38.9831,100.4941 38.9831,153.9692 0,59.4122 -12.6459,118.1073 -43.1172,167.816 -10.4696,17.0796 -23.1265,32.9676 -37.5889,46.8591 V 346.0283 l -84.567,-10.5008 v 330.1399 c -13.4108,3.4599 -27.4127,5.226 -41.1551,5.226 -14.0003,0 -28.2706,-1.8331 -41.9099,-5.4227 V 335.5275 l -84.567,10.5008 V 616.1855 C 160.6403,602.4674 148.2418,586.8342 137.9544,570.0519 107.4837,520.3436 94.8374,461.6485 95.0284,402.2365 95.216,343.7844 110.7088,284.9843 141.3279,235.4093 Z"/>
  </g>
  <path d="m 47.049841,287.97455 c 71.619839,-21.32523 153.308709,-30.65408 229.736579,-30.48183 74.93893,0.16883 152.40044,8.9388 224.38156,29.52372 -85.9635,-29.43202 -150.75271,-38.00109 -226.08414,-38.76136 -74.56161,-0.75267 -159.93954,14.71987 -228.033999,39.71947 z" style="fill:#ffffff;fill-rule:evenodd;stroke-width:1.22426" id="path34"/>
  <g transform="matrix(1.2242582,0,0,1.2242582,-93.620494,-155.2745)" id="g323">
    <g id="g301">
      <path id="path36" style="fill:#1d2421;fill-rule:evenodd" d="m 273.7876,403.6304 a 86.5459,86.5459 0 0 1 86.546,86.5459 86.5459,86.5459 0 1 1 -86.546,-86.5459 z"/>
      <path id="path38" style="fill:#e1001e;fill-rule:evenodd" d="m 273.7876,408.5945 a 81.5819,81.5819 0 0 1 81.5819,81.5819 81.5819,81.5819 0 1 1 -81.5819,-81.5819 z"/>
      <path d="m 260.4517,441.2129 c 4.4833,-0.9006 8.7759,-3.488 13.2594,-7.4461 3.5632,3.0093 7.5236,5.9129 13.3708,7.4461 -2.9702,9.8051 -8.5544,29.9067 -9.3316,46.7716 15.0596,-0.6821 30.5134,-4.9003 46.3932,-9.1373 1.9353,4.532 4.397,9.0793 8.0189,13.0488 -3.4632,3.6732 -6.7687,8.0315 -8.0189,13.3905 -14.9108,-5.2149 -32.6401,-8.693 -46.3965,-9.6655 0.6618,15.1046 4.8936,30.6062 9.144,46.5362 -4.532,1.9352 -9.0792,4.397 -13.0488,8.0189 -3.6732,-3.4632 -8.0314,-6.7687 -13.3905,-8.0189 5.2321,-14.9603 8.7161,-32.7579 9.6751,-46.5334 -15.3215,1.0417 -30.653,4.3485 -46.5458,9.6627 -1.2167,-4.2725 -4.0607,-8.9668 -8.0188,-13.4502 2.904,-3.4579 6.2749,-7.6489 8.0188,-13.18 9.8298,2.9777 29.686,8.5827 46.5239,9.3376 -1.0522,-15.3265 -4.3552,-30.9366 -9.6532,-46.781 z" style="fill:#ffffff;fill-rule:evenodd" id="path40"/>
      <path id="path42" style="fill:#ffffff;fill-rule:evenodd" d="m 223.9629,463.3892 a 6.5976,6.5976 0 0 1 6.5976,6.5976 6.5976,6.5976 0 1 1 -6.5976,-6.5976 z"/>
      <path id="path44" style="fill:#ffffff;fill-rule:evenodd" d="m 223.9629,507.111 a 6.5976,6.5976 0 0 1 6.5976,6.5976 6.5976,6.5976 0 1 1 -6.5976,-6.5976 z"/>
      <path id="path46" style="fill:#ffffff;fill-rule:evenodd" d="m 206.6788,485.3807 a 6.5976,6.5976 0 0 1 6.5976,6.5976 6.5976,6.5976 0 1 1 -6.5976,-6.5976 z"/>
      <path id="path49" style="fill:#ffffff;fill-rule:evenodd" d="m 245.2638,541.4874 a 6.5976,6.5976 0 0 1 6.5976,-6.5976 6.5976,6.5976 0 1 1 -6.5976,6.5976 z"/>
      <path id="path51" style="fill:#ffffff;fill-rule:evenodd" d="m 288.9856,541.4874 a 6.5976,6.5976 0 0 1 6.5977,-6.5976 6.5976,6.5976 0 1 1 -6.5977,6.5976 z"/>
      <path id="path53" style="fill:#ffffff;fill-rule:evenodd" d="m 267.2553,558.7715 a 6.5976,6.5976 0 0 1 6.5976,-6.5976 6.5976,6.5976 0 1 1 -6.5976,6.5976 z"/>
      <path id="path56" style="fill:#ffffff;fill-rule:evenodd" d="m 245.5346,442.0569 a 6.5976,6.5976 0 0 0 6.5976,6.5976 6.5976,6.5976 0 1 0 -6.5976,-6.5976 z"/>
      <path id="path58" style="fill:#ffffff;fill-rule:evenodd" d="m 289.2564,442.0569 a 6.5976,6.5976 0 0 0 6.5976,6.5976 6.5976,6.5976 0 1 0 -6.5976,-6.5976 z"/>
      <path id="path60" style="fill:#ffffff;fill-rule:evenodd" d="m 267.5261,424.7729 a 6.5976,6.5976 0 0 0 6.5976,6.5976 6.5976,6.5976 0 1 0 -6.5976,-6.5976 z"/>
    </g>
    <g id="g287">
      <path id="path65" style="fill:#1d2421;fill-rule:evenodd" d="m 307.5075,441.8475 -13.4377,-13.3311 h 40.6252 l 5.0788,-23.8993 -13.4377,-13.3311 h 72.6021 l -7.5293,37.2304 h 23.7579 l -7.5293,37.2303 h 0.0833 l -7.5293,37.2304 h 0.0832 l -7.5293,37.2304 h 0.0832 l -8.6292,42.6691 H 278.9348 l 6.2344,-29.338 -13.4376,-13.3311 h 15.8049 l 5.0788,-23.8992 -13.4377,-13.3312 h 15.805 l 5.0788,-23.8992 -13.4377,-13.3312 h 15.805 z"/>
      <path id="path67" style="fill:#ffffff;fill-rule:evenodd" d="M 408.1649,434.2441 H 307.976 l 5.7836,5.7377 -5.4139,25.4759 h 93.5065 z"/>
      <path id="path69" style="fill:#ffffff;fill-rule:evenodd" d="m 391.9362,397.0137 h -51.6939 l 5.7836,5.7377 -5.4138,25.4759 h 45.0115 z"/>
      <path id="path71" style="fill:#ffffff;fill-rule:evenodd" d="M 400.7188,471.4745 H 300.5299 l 5.7836,5.7377 -5.4138,25.4758 h 93.5065 z"/>
      <path id="path73" style="fill:#ffffff;fill-rule:evenodd" d="M 393.2727,508.7049 H 293.0839 l 5.7835,5.7376 -5.4138,25.4759 h 93.5065 z"/>
      <path id="path75" style="fill:#ffffff;fill-rule:evenodd" d="M 385.8266,545.9352 H 285.6378 l 5.7836,5.7377 -5.4139,25.4759 h 93.5065 z"/>
    </g>
  </g>
  <g transform="matrix(1.2242582,0,0,1.2242582,-93.620494,-155.2745)" id="g279">
    <path d="m 271.4381,655.804 h 3.1285 v -18.4581 h -2.8417 l -5.579,4.6405 1.8248,2.1639 3.4674,-3.2068 z" style="fill:#ffffff;fill-rule:evenodd" id="path78"/>
    <path d="m 291.6433,655.804 4.7187,-7.4302 c 0.3433,-0.5344 0.6431,-1.0688 0.8995,-1.599 0.2564,-0.5344 0.4563,-1.082 0.5997,-1.6512 0.1478,-0.5649 0.2173,-1.1688 0.2215,-1.8074 -0.004,-0.9822 -0.165,-1.8554 -0.4823,-2.6333 -0.3215,-0.7734 -0.7691,-1.4338 -1.3556,-1.977 -0.5823,-0.5432 -1.2775,-0.956 -2.0771,-1.2427 -0.7994,-0.2824 -1.6858,-0.4302 -2.6548,-0.4302 -0.9515,0.004 -1.825,0.1522 -2.62,0.4475 -0.7996,0.2956 -1.4948,0.717 -2.0815,1.2689 -0.5909,0.5518 -1.047,1.2166 -1.3729,1.99 -0.326,0.7735 -0.4911,1.6426 -0.4955,2.6027 0.004,0.8082 0.139,1.5643 0.4084,2.2726 0.2696,0.7081 0.6518,1.334 1.1473,1.877 0.4908,0.5388 1.0775,0.9647 1.7553,1.2731 0.6778,0.3085 1.4253,0.4651 2.2421,0.4693 0.213,0 0.4259,-0.013 0.6432,-0.0348 0.2173,-0.0216 0.4214,-0.0565 0.6083,-0.1042 0.1867,-0.0478 0.3433,-0.1043 0.4693,-0.1738 l 0.0521,0.0522 -4.4321,6.8305 z m 3.1545,-12.4357 c -0.004,0.4649 -0.0913,0.8994 -0.265,1.3078 -0.1738,0.404 -0.4128,0.7605 -0.7213,1.0688 -0.3086,0.3086 -0.6648,0.5476 -1.069,0.7213 -0.4084,0.174 -0.843,0.2608 -1.3079,0.2652 -0.4649,-0.004 -0.8994,-0.0912 -1.3078,-0.2652 -0.4042,-0.1737 -0.7604,-0.4127 -1.069,-0.7213 -0.3083,-0.3083 -0.5474,-0.6648 -0.7213,-1.0688 -0.1737,-0.4084 -0.2606,-0.8429 -0.265,-1.3078 0.004,-0.4649 0.0913,-0.9039 0.265,-1.308 0.1739,-0.404 0.413,-0.7603 0.7213,-1.0688 0.3086,-0.3086 0.6648,-0.5476 1.069,-0.7214 0.4084,-0.1737 0.8429,-0.2608 1.3078,-0.265 0.4649,0.004 0.8995,0.0913 1.3079,0.265 0.4042,0.1738 0.7604,0.4128 1.069,0.7214 0.3085,0.3085 0.5475,0.6648 0.7213,1.0688 0.1737,0.4041 0.2606,0.8431 0.265,1.308 z" style="fill:#ffffff;fill-rule:evenodd" id="path80"/>
    <path d="m 304.1833,646.5749 c 0.004,1.4514 0.1216,2.6983 0.3519,3.7411 0.2304,1.0429 0.5345,1.912 0.9212,2.6159 0.3868,0.6996 0.8169,1.2643 1.2904,1.6903 0.4781,0.4257 0.9648,0.7472 1.4644,0.9601 0.4997,0.2173 0.9778,0.3607 1.4383,0.4346 0.4563,0.0739 0.8603,0.1042 1.2079,0.1 0.3475,0.004 0.7517,-0.0261 1.208,-0.1 0.4605,-0.0739 0.9384,-0.2173 1.4383,-0.4346 0.4996,-0.2129 0.9863,-0.5344 1.4642,-0.9601 0.4737,-0.426 0.9038,-0.9907 1.2904,-1.6903 0.3868,-0.7039 0.6954,-1.573 0.9212,-2.6159 0.2303,-1.0428 0.3477,-2.2897 0.3521,-3.7411 -0.004,-1.4513 -0.1218,-2.6984 -0.3521,-3.7412 -0.2258,-1.0428 -0.5344,-1.9117 -0.9212,-2.6157 -0.3866,-0.6995 -0.8167,-1.2645 -1.2904,-1.6902 -0.4779,-0.4258 -0.9646,-0.7475 -1.4642,-0.9604 -0.4999,-0.2173 -0.9778,-0.3606 -1.4383,-0.4345 -0.4563,-0.0737 -0.8605,-0.1043 -1.208,-0.0999 -0.3476,-0.004 -0.7516,0.0262 -1.2079,0.0999 -0.4605,0.0739 -0.9386,0.2172 -1.4383,0.4345 -0.4996,0.2129 -0.9863,0.5346 -1.4644,0.9604 -0.4735,0.4257 -0.9036,0.9907 -1.2904,1.6902 -0.3867,0.704 -0.6908,1.5729 -0.9212,2.6157 -0.2303,1.0428 -0.3475,2.2899 -0.3519,3.7412 z m 3.1285,0 c 0,-0.3867 0.013,-0.8168 0.0435,-1.2817 0.0348,-0.4693 0.0913,-0.9516 0.1823,-1.4426 0.0871,-0.4911 0.2087,-0.9648 0.3739,-1.4209 0.1649,-0.4563 0.3736,-0.8691 0.6342,-1.2298 0.2608,-0.3648 0.5823,-0.656 0.9648,-0.8689 0.378,-0.213 0.8255,-0.3217 1.3469,-0.3259 0.5215,0.004 0.969,0.1129 1.3514,0.3259 0.378,0.2129 0.6996,0.5041 0.9602,0.8689 0.2608,0.3607 0.4737,0.7735 0.6344,1.2298 0.1652,0.4561 0.2912,0.9298 0.3781,1.4209 0.0868,0.491 0.1433,0.9733 0.1781,1.4426 0.0303,0.4649 0.0477,0.895 0.0435,1.2817 0.004,0.3868 -0.0132,0.8125 -0.0435,1.2818 -0.0348,0.4693 -0.0913,0.9516 -0.1781,1.4427 -0.0869,0.4908 -0.2129,0.9645 -0.3781,1.4208 -0.1607,0.4562 -0.3736,0.8689 -0.6344,1.2296 -0.2606,0.365 -0.5822,0.6562 -0.9602,0.8691 -0.3824,0.2129 -0.8299,0.3215 -1.3514,0.3259 -0.5214,-0.004 -0.9689,-0.113 -1.3469,-0.3259 -0.3825,-0.2129 -0.704,-0.5041 -0.9648,-0.8691 -0.2606,-0.3607 -0.4693,-0.7734 -0.6342,-1.2296 -0.1652,-0.4563 -0.2868,-0.93 -0.3739,-1.4208 -0.091,-0.4911 -0.1475,-0.9734 -0.1823,-1.4427 -0.0305,-0.4693 -0.0435,-0.895 -0.0435,-1.2818 z" style="fill:#ffffff;fill-rule:evenodd" id="path82"/>
    <path d="m 330.0718,655.804 4.7187,-7.4302 c 0.3433,-0.5344 0.643,-1.0688 0.8994,-1.599 0.2564,-0.5344 0.4563,-1.082 0.5997,-1.6512 0.1478,-0.5649 0.2173,-1.1688 0.2215,-1.8074 -0.004,-0.9822 -0.165,-1.8554 -0.4823,-2.6333 -0.3215,-0.7734 -0.769,-1.4338 -1.3556,-1.977 -0.5823,-0.5432 -1.2774,-0.956 -2.077,-1.2427 -0.7994,-0.2824 -1.6859,-0.4302 -2.6548,-0.4302 -0.9516,0.004 -1.8251,0.1522 -2.6201,0.4475 -0.7996,0.2956 -1.4948,0.717 -2.0815,1.2689 -0.5909,0.5518 -1.047,1.2166 -1.3729,1.99 -0.3259,0.7735 -0.4911,1.6426 -0.4955,2.6027 0.004,0.8082 0.139,1.5643 0.4084,2.2726 0.2696,0.7081 0.6518,1.334 1.1473,1.877 0.4909,0.5388 1.0776,0.9647 1.7554,1.2731 0.6777,0.3085 1.4252,0.4651 2.242,0.4693 0.2131,0 0.4259,-0.013 0.6432,-0.0348 0.2173,-0.0216 0.4214,-0.0565 0.6083,-0.1042 0.1867,-0.0478 0.3433,-0.1043 0.4693,-0.1738 l 0.0521,0.0522 -4.4321,6.8305 z m 3.1544,-12.4357 c -0.004,0.4649 -0.0912,0.8994 -0.265,1.3078 -0.1737,0.404 -0.4128,0.7605 -0.7213,1.0688 -0.3085,0.3086 -0.6648,0.5476 -1.069,0.7213 -0.4084,0.174 -0.8429,0.2608 -1.3078,0.2652 -0.4649,-0.004 -0.8995,-0.0912 -1.3079,-0.2652 -0.4041,-0.1737 -0.7604,-0.4127 -1.0689,-0.7213 -0.3084,-0.3083 -0.5474,-0.6648 -0.7214,-1.0688 -0.1737,-0.4084 -0.2606,-0.8429 -0.265,-1.3078 0.004,-0.4649 0.0913,-0.9039 0.265,-1.308 0.174,-0.404 0.413,-0.7603 0.7214,-1.0688 0.3085,-0.3086 0.6648,-0.5476 1.0689,-0.7214 0.4084,-0.1737 0.843,-0.2608 1.3079,-0.265 0.4649,0.004 0.8994,0.0913 1.3078,0.265 0.4042,0.1738 0.7605,0.4128 1.069,0.7214 0.3085,0.3085 0.5476,0.6648 0.7213,1.0688 0.1738,0.4041 0.2606,0.8431 0.265,1.308 z" style="fill:#ffffff;fill-rule:evenodd" id="path84"/>
  </g>
  <g transform="matrix(1.2242582,0,0,1.2242582,-93.620494,-155.2745)" id="g259">
    <path d="m 146.4724,308.8827 19.5482,-4.2346 4.0542,-25.9896 25.763,-4.5635 c 17.6728,-3.1306 36.8572,-15.1727 37.7782,-36.4111 0.5096,-11.749 -7.1774,-18.4823 -17.5181,-20.8544 -5.7345,-1.3154 -12.5928,-0.8582 -19.6592,0.5301 l -35.255,6.9267 z m 25.7298,-44.8408 4.4932,-28.801 22.3504,-4.1032 c 8.2356,-1.5121 16.7747,1.6983 15.5998,11.5255 -1.3517,11.3061 -10.7692,15.69 -19.5052,17.2591 z" style="fill:#ffffff;fill-rule:evenodd" id="path87"/>
    <path d="m 244.8477,293.5572 19.4501,-1.4244 4.9,-83.1381 -17.7322,1.233 z" style="fill:#ffffff;fill-rule:evenodd" id="path89"/>
    <path d="m 355.8123,216.4355 c -7.8622,-5.9779 -21.8712,-10.1929 -32.4774,-10.1929 -18.6012,0 -35.7842,9.185 -35.4283,25.0347 0.378,16.8311 18.6795,21.0559 35.1476,25.5351 6.9362,1.8865 14.503,5.2236 14.4472,10.9255 -0.0668,6.7982 -5.7289,8.4458 -13.9429,8.993 -8.0211,0.5345 -21.6135,-3.3606 -28.2307,-8.425 l -11.2847,13.3679 c 8.5183,7.747 25.6014,11.1323 38.1538,11.1323 19.8546,0 36.4453,-6.5805 36.4789,-24.5188 0.0328,-17.5315 -17.6581,-24.088 -34.0001,-28.7441 -6.5669,-1.871 -16.7847,-4.4675 -16.5484,-10.2651 0.2429,-5.9614 6.7208,-7.701 14.8751,-7.701 6.7499,0 18.4474,3.4594 23.2368,8.0305 z" style="fill:#ffffff;fill-rule:evenodd" id="path91"/>
    <path d="m 362.4948,293.5446 21.7989,1.7772 5.3058,-10.6316 44.804,6.4075 6.2707,12.4196 21.6481,4.1352 -48.567,-91.6429 -6.6314,-1.0391 z m 33.4312,-20.9914 15.4504,-30.0839 16.4303,34.4555 z" style="fill:#ffffff;fill-rule:evenodd" id="path93"/>
  </g>
  <g transform="matrix(1.2242582,0,0,1.2242582,-93.620494,-155.2745)" id="g273">
    <path d="m 157.0059,316.807 c -1.2286,-0.4941 -2.8458,-0.7302 -5.2652,-0.4898 -3.5441,0.352 -6.8571,2.1754 -8.0883,4.8995 -1.133,2.5084 0.1304,4.1892 2.2842,4.797 0.858,0.2421 3.374,0.4218 5.0606,0.4731 1.0821,0.033 1.776,0.2739 1.6105,1.2538 -0.2271,1.3432 -1.8704,2.0443 -3.337,2.2091 -1.8576,0.2086 -3.0709,0.2086 -4.5909,-0.4344 l -2.4117,3.0035 c 1.7325,0.779 4.4994,1.1858 7.3352,0.6432 3.9304,-0.7522 6.7245,-2.8263 7.2218,-6.1558 0.2725,-1.8245 -0.7668,-3.2167 -2.3428,-3.6407 -0.9438,-0.254 -2.5957,-0.1863 -4.5018,-0.3727 -0.881,-0.0862 -2.5658,-0.1721 -2.4174,-1.2624 0.2382,-1.7524 2.5286,-2.1016 3.5721,-2.261 1.0313,-0.1575 2.9756,0.0897 4.0133,0.4031 z" style="fill:#ffffff;fill-rule:evenodd" id="path96"/>
    <path d="m 168.0033,329.0826 4.1022,-0.7157 0.2977,-4.798 4.9544,-0.7832 c 3.3619,-0.5316 6.6013,-2.3808 7.0077,-6.339 0.4101,-3.994 -3.1245,-5.3867 -6.4585,-4.8298 l -8.2518,1.3782 z m 4.9544,-13.6698 4.4896,-0.731 c 1.3001,-0.212 3.3653,0.0482 3.2026,2.1546 -0.1311,1.6959 -1.7171,2.8007 -3.4095,3.0842 l -4.6633,0.7811 z" style="fill:#ffffff;fill-rule:evenodd" id="path98"/>
    <path d="m 194.4724,316.7361 c -0.1575,5.1687 4.2534,7.6153 9.2248,6.8455 4.9569,-0.7675 9.5463,-4.0941 9.7039,-9.4534 0.1576,-5.3594 -4.2674,-7.6124 -9.2246,-6.8449 -3.1074,0.4812 -5.9437,1.9604 -7.8149,4.3096 -1.1225,1.4094 -1.8278,3.133 -1.8892,5.1432 z m 3.9039,-0.4427 c 0.0924,-3.1392 2.7004,-5.1992 5.7074,-5.6647 2.9919,-0.4633 5.5061,0.8048 5.4138,3.9427 -0.0922,3.1377 -2.716,5.2016 -5.7075,5.6647 -3.0066,0.4656 -5.506,-0.8037 -5.4137,-3.9427 z" style="fill:#ffffff;fill-rule:evenodd" id="path100"/>
    <path d="m 224.8425,321.0256 4.1577,-0.428 0.1922,-4.9281 4.4438,-0.5192 3.4477,4.5722 4.877,-0.5131 -4.6419,-5.2753 c 1.9612,-0.5161 3.3395,-2.3554 3.5592,-4.195 0.253,-2.1183 -0.4084,-3.5106 -1.4121,-4.3891 -1.3754,-1.2041 -3.2929,-1.4461 -4.9017,-1.2769 l -8.684,0.9136 z m 4.6009,-13.4766 4.51,-0.4417 c 1.8409,-0.1804 3.133,0.7382 3.0364,2.2902 -0.1481,2.3802 -2.2285,2.7547 -3.5327,2.912 l -4.1729,0.5041 z" style="fill:#ffffff;fill-rule:evenodd" id="path102"/>
    <path d="m 256.8422,318.3725 4.0445,-0.2548 0.0394,-12.9158 5.8099,-0.3541 0.0558,-3.127 -15.2822,0.9629 -0.0558,3.127 5.7512,-0.354 z" style="fill:#ffffff;fill-rule:evenodd" id="path104"/>
    <path d="m 278.0168,316.978 h 4.0406 v -15.6647 h -3.8497 z" style="fill:#ffffff;fill-rule:evenodd" id="path106"/>
    <path d="m 294.8722,316.9014 4.041,0.0184 -0.2053,-9.715 0.0518,2e-4 12.2386,9.9608 0.6815,0.003 V 301.13 l -3.8497,-0.0183 v 8.8546 l -0.0519,-3e-4 -11.6168,-9.2892 -1.0982,-0.005 z" style="fill:#ffffff;fill-rule:evenodd" id="path108"/>
    <path d="m 341.5352,308.5469 -9.2869,-0.4415 0.0805,3.005 5.3966,0.2527 c 0.1264,1.2973 -1.6722,3.2689 -4.6734,3.1265 -2.2103,-0.105 -3.8569,-1.0013 -4.8079,-3.0957 -0.2841,-0.6259 -0.4366,-1.3089 -0.4607,-2.0442 -0.0153,-0.7348 0.1006,-1.4044 0.3522,-2.0047 0.2516,-0.6 0.6219,-1.1171 1.1113,-1.5434 1.0925,-0.9606 2.607,-1.2994 4.1071,-1.2284 1.6381,0.0774 2.8499,0.5185 4.1188,1.7014 l 2.5909,-2.5212 c -2.0665,-1.7051 -4.2616,-2.2573 -6.7952,-2.372 -1.4389,-0.0653 -2.7568,0.0617 -3.9485,0.3875 -1.1956,0.3257 -2.2269,0.8255 -3.0939,1.5028 -0.8668,0.6773 -1.5309,1.5083 -1.992,2.5007 -0.4615,0.9884 -0.6773,2.1105 -0.6523,3.3735 0.0425,1.2602 0.3198,2.41 0.835,3.4458 1.6121,3.2399 4.6522,5.1263 8.1472,5.2526 5.2811,0.191 9.7211,-2.6582 8.9712,-9.2974 z" style="fill:#ffffff;fill-rule:evenodd" id="path110"/>
    <path d="m 382.2848,307.2503 c -1.8663,-1.7863 -4.2496,-2.8753 -6.5839,-3.0968 -4.7762,-0.4534 -9.2472,2.369 -9.2665,7.6164 -0.0199,5.4123 5.2437,8.9202 9.7962,9.1948 2.402,0.1449 4.6908,-0.3618 6.3419,-1.5292 l -2.0328,-2.81 c -1.0781,0.7673 -3.0162,0.9539 -4.3185,0.8506 -2.8671,-0.2272 -5.7404,-2.5674 -5.9042,-5.4939 -0.1758,-3.1399 2.2732,-4.6672 4.9713,-4.413 1.6592,0.1563 3.1564,0.9555 4.5532,2.159 z" style="fill:#ffffff;fill-rule:evenodd" id="path112"/>
    <path d="m 393.9126,322.6522 13.3289,1.5909 -0.1254,-3.2621 -9.2701,-1.1257 -0.4914,-12.7767 -4.0588,-0.4652 z" style="fill:#ffffff;fill-rule:evenodd" id="path114"/>
    <path d="m 432.8959,312.6759 -3.9671,-0.6425 0.62,9.5529 c 0.1444,2.2243 -1.6668,2.9103 -3.7644,2.5706 -1.8699,-0.3028 -4.2806,-1.6696 -4.4231,-3.8656 l -0.6201,-9.5529 -3.9669,-0.6424 0.6289,8.9229 c 0.4146,5.881 4.6906,7.9041 8.5893,8.5355 4.1395,0.6704 7.8586,-1.3209 7.5322,-5.9556 z" style="fill:#ffffff;fill-rule:evenodd" id="path116"/>
    <path d="m 446.2953,331.0053 9.1526,1.9421 c 0.6689,0.142 1.3306,0.2351 1.9841,0.2803 0.6568,0.0452 1.2787,0.0267 1.8584,-0.058 0.5845,-0.0856 1.0977,-0.2522 1.5368,-0.4968 0.4412,-0.2455 0.7803,-0.5908 1.0146,-1.0304 0.2342,-0.4396 0.3361,-0.9925 0.2927,-1.6578 -0.1091,-1.672 -1.7335,-4.022 -3.5598,-4.4288 1.5165,-0.3319 2.2421,-1.5248 2.1631,-2.7353 -0.2509,-3.8445 -4.0799,-5.3636 -7.0138,-5.9862 l -8.4707,-1.7974 z m 3.0971,-12.1357 4.4735,0.9308 c 1.1098,0.231 2.7711,0.8501 2.8627,2.2535 0.0876,1.3426 -1.2042,1.6679 -2.3234,1.4265 l -4.644,-1.0015 z m 0.5503,6.0135 4.6543,0.9849 c 1.1843,0.2506 3.3166,1.2639 3.4197,2.8426 0.0933,1.4298 -1.4055,1.5478 -2.6057,1.2931 l -5.2185,-1.1073 z" style="fill:#ffffff;fill-rule:evenodd" id="path118"/>
  </g>
</svg>