<?xml version="1.0" encoding="UTF-8" standalone="no"?>
<!-- Generator: Adobe Illustrator 19.1.0, SVG Export Plug-In . SVG Version: 6.00 Build 0)  -->

<svg
   xmlns:dc="http://purl.org/dc/elements/1.1/"
   xmlns:cc="http://creativecommons.org/ns#"
   xmlns:rdf="http://www.w3.org/1999/02/22-rdf-syntax-ns#"
   xmlns:svg="http://www.w3.org/2000/svg"
   xmlns="http://www.w3.org/2000/svg"
   xmlns:sodipodi="http://sodipodi.sourceforge.net/DTD/sodipodi-0.dtd"
   xmlns:inkscape="http://www.inkscape.org/namespaces/inkscape"
   version="1.1"
   id="Livello_1"
   x="0px"
   y="0px"
   viewBox="0 0 300 295.46729"
   xml:space="preserve"
   sodipodi:docname="Unione_Sportiva_Salernitana_1919_(logo).svg"
   width="300"
   height="295.46729"
   inkscape:version="0.92.4 (5da689c313, 2019-01-14)"><metadata
   id="metadata39"><rdf:RDF><cc:Work
       rdf:about=""><dc:format>image/svg+xml</dc:format><dc:type
         rdf:resource="http://purl.org/dc/dcmitype/StillImage" /><dc:title></dc:title></cc:Work></rdf:RDF></metadata><defs
   id="defs37" /><sodipodi:namedview
   pagecolor="#ffffff"
   bordercolor="#666666"
   borderopacity="1"
   objecttolerance="10"
   gridtolerance="10"
   guidetolerance="10"
   inkscape:pageopacity="0"
   inkscape:pageshadow="2"
   inkscape:window-width="1366"
   inkscape:window-height="705"
   id="namedview35"
   showgrid="false"
   fit-margin-top="1"
   fit-margin-right="1"
   fit-margin-bottom="1"
   fit-margin-left="1"
   inkscape:zoom="0.8324515"
   inkscape:cx="81.787336"
   inkscape:cy="140.84999"
   inkscape:window-x="-8"
   inkscape:window-y="-8"
   inkscape:window-maximized="1"
   inkscape:current-layer="Livello_1" />
<style
   type="text/css"
   id="style2">
	.st0{fill-rule:evenodd;clip-rule:evenodd;fill:#C3992D;}
	.st1{fill-rule:evenodd;clip-rule:evenodd;fill:#681A12;}
	.st2{fill-rule:evenodd;clip-rule:evenodd;fill:#FFFFFF;}
</style>
<g
   id="g32"
   transform="matrix(1.0537425,0,0,1.0537425,0.68549023,-2.2666018)">
	<path
   class="st0"
   d="m 141.7,281.6 c -23.3,-8.4 -45,-20.2 -64.2,-36 C 48.8,221.9 27.3,190.7 14.6,155 5,128.1 0.2,98.5 0.3,67.5 0.3,51.1 1.8,34.4 4.2,18.8 11,16.8 17.8,15.1 24.7,13.6 41,10 58.4,7.6 75.4,6 99.2,3.8 122.3,3.1 141.7,3.1 c 19.4,0 42.6,0.7 66.3,2.9 17,1.6 34.4,4 50.7,7.5 6.9,1.5 13.8,3.3 20.5,5.2 2.5,15.6 3.9,32.3 3.9,48.7 0,31 -4.8,60.6 -14.4,87.6 -12.7,35.7 -34.2,66.9 -62.9,90.6 -19,15.8 -40.8,27.6 -64.1,36 z"
   id="path4"
   inkscape:connector-curvature="0"
   style="clip-rule:evenodd;fill:#c3992d;fill-rule:evenodd" />
	<path
   class="st1"
   d="M 141.7,274.9 C 192.1,256.3 228.5,222.8 250.8,180.4 274.2,135.8 281.9,81.2 273.6,23.8 253.1,18 230.1,14.5 207.5,12.4 184.1,10.2 161.1,9.6 141.7,9.6 c -19.4,0 -42.4,0.7 -65.8,2.8 -22.5,2 -45.6,5.6 -66,11.4 -8.3,57.4 -0.6,112 22.8,156.6 22.2,42.4 58.7,75.9 109,94.5 z"
   id="path6"
   inkscape:connector-curvature="0"
   style="clip-rule:evenodd;fill:#681a12;fill-rule:evenodd" />
	<polygon
   class="st2"
   points="232.8,46.1 239.1,48.9 232.9,51.5 235.3,57.8 229.1,55.3 226.4,61.5 223.8,55.4 217.5,57.8 220,51.6 213.8,48.9 219.9,46.3 217.5,40 223.7,42.5 226.4,36.2 229,42.4 235.3,40 "
   id="polygon8"
   style="clip-rule:evenodd;fill:#ffffff;fill-rule:evenodd" />
	<polygon
   class="st2"
   points="98.2,174 89.5,207.7 78.6,207.7 84.7,183.9 76.9,188.2 73.2,181.6 87.2,174 "
   id="polygon10"
   style="clip-rule:evenodd;fill:#ffffff;fill-rule:evenodd" />
	<path
   class="st2"
   d="m 97.8,186.7 c 0,6.1 5.1,8.9 10.4,8.9 2.4,0 4.9,-0.7 6.9,-1.7 -1,5.2 -5,6.9 -9.4,7 -3.4,0.1 -7.2,-0.9 -10,-1.9 l -1.8,7.1 c 3.6,1.3 7.8,2.2 11.8,2.2 8.4,0 14.5,-3.6 18,-9.5 1.9,-3.2 3.4,-8.2 3.5,-12.8 0.1,-9.1 -5.5,-12.4 -14.3,-12.4 -8,-0.2 -15,4.9 -15.1,13.1 z m 13.5,2.8 c -2.4,-0.1 -3.9,-1.7 -3.9,-3.9 -0.1,-3.5 2.6,-6 5.5,-6 2.5,0 3.9,1.1 3.9,4 -0.1,3.4 -2.7,5.9 -5.5,5.9 z"
   id="path12"
   inkscape:connector-curvature="0"
   style="clip-rule:evenodd;fill:#ffffff;fill-rule:evenodd" />
	<path
   class="st2"
   d="m 152.3,186.7 c 0,6.1 5.1,8.9 10.4,8.9 2.4,0 4.9,-0.7 6.9,-1.7 -1,5.2 -5,6.9 -9.4,7 -3.5,0.1 -7.2,-0.9 -10,-1.9 l -1.9,7.1 c 3.6,1.3 7.8,2.2 11.9,2.2 8.4,0 14.5,-3.6 17.9,-9.5 1.9,-3.2 3.4,-8.2 3.5,-12.8 0.1,-9.1 -5.4,-12.4 -14.2,-12.4 -8,-0.2 -15,4.9 -15.1,13.1 z m 13.5,2.8 c -2.4,-0.1 -3.9,-1.7 -4,-3.9 -0.1,-3.5 2.7,-6 5.6,-6 2.4,0 3.9,1.1 3.9,4 -0.1,3.4 -2.7,5.9 -5.5,5.9 z"
   id="path14"
   inkscape:connector-curvature="0"
   style="clip-rule:evenodd;fill:#ffffff;fill-rule:evenodd" />
	<polygon
   class="st2"
   points="152.8,174 141.8,174 127.9,181.6 131.6,188.2 139.4,183.9 133.2,207.7 144.2,207.7 "
   id="polygon16"
   style="clip-rule:evenodd;fill:#ffffff;fill-rule:evenodd" />
	<path
   class="st2"
   d="m 110.8,153.4 v -4.1 h 85.7 l 22.8,67.4 -4.3,0.3 c -3.2,-10.5 -6.3,-20.2 -12.3,-29.4 -9.8,-15 -24.3,-25.3 -43.3,-30.4 -16.1,-4.4 -32.2,-3.8 -48.6,-3.8 z"
   id="path18"
   inkscape:connector-curvature="0"
   style="clip-rule:evenodd;fill:#ffffff;fill-rule:evenodd" />
	<path
   class="st2"
   d="m 30,44.6 h 107.3 c -1.5,3.1 -6.1,7.1 -9.8,8.5 h -20.6 l -2.7,3.3 h -63 c 1.3,1.5 2.5,2.9 3.7,4.5 h 82.5 l 30.1,32.9 c 4.9,-12.5 13.6,-3.2 18.6,3 1.3,-10.4 6.4,-13.5 13,-13.6 9.7,-0.2 19.6,7.9 25,13 3.6,-7.8 11.7,-16.2 15.2,-19.1 -9.6,0.8 -42,0.8 -35.6,-18 -11.3,2.3 -14,-8.5 -13.4,-11.5 -7.8,6.6 -18.2,2.9 -18.1,-12.7 -8.8,6.9 -16.6,2.9 -21.1,-3.5 l -0.7,5.4 h -19 l -2.7,3.3 H 24.8 c 1.7,1.3 3.5,2.8 5.2,4.5 z m 143.3,13.5 c 2.5,0 4.6,2 4.6,4.6 0,2.6 -2.1,4.6 -4.6,4.6 -2.6,0 -4.6,-2 -4.6,-4.6 -0.1,-2.6 2,-4.6 4.6,-4.6 z"
   id="path20"
   inkscape:connector-curvature="0"
   style="clip-rule:evenodd;fill:#ffffff;fill-rule:evenodd" />
	<path
   class="st2"
   d="m 57.5,79.2 h 63.4 l 23.6,13.6 c 0.7,-1.2 4.3,-1.5 8,0.5 L 127.1,65.6 c -0.5,2.6 -1.4,5.3 -2,6 H 98.4 l -2.7,3.3 H 54.9 c 0.8,1.4 1.7,2.8 2.6,4.3 z"
   id="path22"
   inkscape:connector-curvature="0"
   style="clip-rule:evenodd;fill:#ffffff;fill-rule:evenodd" />
	<path
   class="st2"
   d="m 65.8,95.4 h 76.3 L 117.7,81.3 c -0.1,3 -0.4,5.7 -1.1,6.5 H 91.8 L 89,91.1 H 63.8 c 0.7,1.4 1.3,2.8 2,4.3 z"
   id="path24"
   inkscape:connector-curvature="0"
   style="clip-rule:evenodd;fill:#ffffff;fill-rule:evenodd" />
	<path
   class="st2"
   d="m 71.8,112.5 h 85 c -6.6,-4.5 -11.1,-9.1 -13,-13.7 h -34.5 c -0.1,2.9 -0.4,5.1 -1.1,5.9 H 87.1 L 84.4,108 H 70.5 c 0.5,1.5 0.9,3 1.3,4.5 z"
   id="path26"
   inkscape:connector-curvature="0"
   style="clip-rule:evenodd;fill:#ffffff;fill-rule:evenodd" />
	<path
   class="st2"
   d="M 74.5,128.9 H 187 c -7.4,-4.2 -15.5,-9.3 -20,-13 h -60.5 c 0,1.8 0,4 -0.4,5.2 H 85.3 l -2.7,3.3 H 74 c 0.2,1.4 0.4,3 0.5,4.5 z"
   id="path28"
   inkscape:connector-curvature="0"
   style="clip-rule:evenodd;fill:#ffffff;fill-rule:evenodd" />
	<path
   class="st2"
   d="m 74.6,145.9 h 125.6 c -4.2,-3.6 -9.5,-9.2 -13.1,-13.6 h -76.6 c 0.7,1.9 1,3.8 0.8,5.8 H 90.8 l -2.7,3.3 H 74.6 Z"
   id="path30"
   inkscape:connector-curvature="0"
   style="clip-rule:evenodd;fill:#ffffff;fill-rule:evenodd" />
</g>
</svg>