<?xml version="1.0" encoding="UTF-8" standalone="no"?>
<svg
   xmlns:dc="http://purl.org/dc/elements/1.1/"
   xmlns:cc="http://creativecommons.org/ns#"
   xmlns:rdf="http://www.w3.org/1999/02/22-rdf-syntax-ns#"
   xmlns:svg="http://www.w3.org/2000/svg"
   xmlns="http://www.w3.org/2000/svg"
   xmlns:sodipodi="http://sodipodi.sourceforge.net/DTD/sodipodi-0.dtd"
   xmlns:inkscape="http://www.inkscape.org/namespaces/inkscape"
   width="83.57885mm"
   height="83.608337mm"
   viewBox="0 0 83.57885 83.608337"
   version="1.1"
   id="svg1748"
   inkscape:version="1.0.1 (3bc2e813f5, 2020-09-07)"
   sodipodi:docname="SoenderjyskE_Logo-2021-RGB.svg">
  <defs
     id="defs1742" />
  <sodipodi:namedview
     id="base"
     pagecolor="#ffffff"
     bordercolor="#666666"
     borderopacity="1.0"
     inkscape:pageopacity="0.0"
     inkscape:pageshadow="2"
     inkscape:zoom="1.2038716"
     inkscape:cx="157.94428"
     inkscape:cy="158.00001"
     inkscape:document-units="mm"
     inkscape:current-layer="layer1"
     inkscape:document-rotation="0"
     showgrid="false"
     inkscape:pagecheckerboard="true"
     inkscape:window-width="1267"
     inkscape:window-height="728"
     inkscape:window-x="26"
     inkscape:window-y="0"
     inkscape:window-maximized="0" />
  <metadata
     id="metadata1745">
    <rdf:RDF>
      <cc:Work
         rdf:about="">
        <dc:format>image/svg+xml</dc:format>
        <dc:type
           rdf:resource="http://purl.org/dc/dcmitype/StillImage" />
        <dc:title></dc:title>
      </cc:Work>
    </rdf:RDF>
  </metadata>
  <g
     inkscape:label="Layer 1"
     inkscape:groupmode="layer"
     id="layer1"
     transform="translate(-104.62452,-96.295812)">
    <path
       class="st0"
       d="m 188.00827,138.09998 c 0,22.97198 -18.6371,41.60907 -41.60907,41.60907 -22.97198,0 -41.57958,-18.63709 -41.57958,-41.60907 0,-22.97198 18.6076,-41.609068 41.57958,-41.609068 22.97197,0 41.60907,18.637088 41.60907,41.609068 z"
       id="path12"
       style="fill:#ffffff;stroke:#003f79;stroke-width:0.3902;stroke-miterlimit:2" />
    <path
       id="path14"
       d="m 146.4288,106.45845 c -17.48701,0 -31.64199,14.18389 -31.64199,31.64142 0,17.48701 14.15498,31.64199 31.64199,31.64199 17.48701,0 31.64142,-14.18447 31.64142,-31.64199 0,-17.48701 -14.15441,-31.64142 -31.64142,-31.64142 z m 0.0293,0.47171 c 17.2511,0 31.22904,14.00718 31.22904,31.28777 h -62.45806 v -0.0294 c 0,-17.25111 13.97793,-31.2584 31.22902,-31.2584 z"
       style="fill:#223763;fill-opacity:1;stroke-width:0.29489" />
    <g
       id="g30"
       transform="matrix(0.29489061,0,0,0.29489061,102.51947,93.542009)"
       style="fill:#223763;fill-opacity:1">
      <path
         class="st3"
         d="m 80.3,141.6 c -0.5,-8.6 -9.4,-17.2 -3.1,-26 3,-4.3 9.7,-1.5 11.4,-7.2 l 0.8,-3.9 c -2.2,-1.6 -4.9,-3.1 -5.6,-5.9 -0.4,-2.2 0.1,-4.5 1.3,-6.3 1.6,-2 3.7,-2.8 6.2,-2.8 4.3,0.7 8,2 12.4,3.2 8.9,2.7 20.6,3.6 29.3,0.1 1.3,-0.5 1.2,-2 0.8,-2.7 -0.4,-0.7 -1.2,-0.4 -1.2,-0.4 -11.3,2.6 -23.6,0.2 -34,-3.6 -3.3,1.2 -7.2,0.3 -9.9,-1.5 -2.8,-2 -4.3,-5.2 -7.1,-7.1 6.8,-0.2 15.4,-3.3 19.7,3.7 9.5,3.1 21.1,5.2 31,2.5 4.3,-0.6 5.9,1.9 7.1,4.8 0.8,2.5 0.4,5.7 -1.4,7.5 -3,2.9 -7.2,3.6 -11.1,4.2 -12.8,1.7 -34.5,-4.6 -35.3,-4.7 -0.8,-0.1 -1.9,0.3 -1.9,1.3 0.1,1 1.2,1.7 2.6,2.4 1.4,0.6 9.1,3.2 12.4,3.7 3.2,0.5 7.8,1.1 11.9,1.1 9.3,0.1 17.1,-1 25.6,-2.5 6.9,12.4 21,12.8 30.5,21.6 2.7,3.4 4.3,7.4 4.4,11.9 -1.9,1.1 -4.2,1.1 -6.5,1.1 -0.1,-3 -0.8,-5.6 -2.3,-7.9 0.8,2.3 1.2,5.5 0.2,7.8 l -4.7,-1.3 c 0.4,-2.2 0.6,-5.4 -0.2,-7.7 -0.1,2.5 -0.2,5 -1.8,6.8 -12,-5.2 -20.4,-20.9 -35.5,-15.3 -9.3,3.5 -17.5,10.4 -29,8.1 -2,0 -4.8,-2 -6,0 -2.2,6.6 7.8,6.7 8.9,16.2 h -5.5 c -0.8,-2.4 -2.2,-4.5 -4.2,-6.3 1.1,1.9 2,4.1 2.3,6.3 h -4.9 c -0.1,-1.6 -1.1,-4.4 -2.8,-6.2 0.5,1.3 1.8,4.3 1.6,6.2 h -6.4 z"
         id="path18"
         style="fill:#223763;fill-opacity:1" />
      <path
         class="st3"
         d="m 217.6,137.2 c -9.1,-1 -18.6,9.4 -28.5,3.4 -4.9,-3.6 -8.3,-5 -8.3,-5 7.1,-4.3 11.2,-12.3 9.7,-20.8 -1.1,-5.4 -4.7,-10.2 -9.7,-13.4 6.4,0.8 14.6,0.5 18.8,-5.2 4.5,-6.6 8.6,-17.1 18,-17.3 v 5.3 c -2.2,0.9 -4.5,1.6 -6.3,3.5 1.4,-0.7 4.1,-1.6 6.3,-1.7 v 0.5 5.2 0.3 c -2.2,0 -4.4,1.1 -6.1,2.2 1.8,-0.4 3.5,-1.1 6.1,-0.7 v 6.3 c -1.8,-0.2 -5,0.5 -6.8,1.4 -6.2,4.8 -6.8,14.3 -15.4,16.6 l -4.1,0.6 c 1.9,3.9 5.4,8.4 10.4,8 4.8,-0.7 6.9,-6.3 11.5,-8.2 2.9,-1.2 4.3,-0.8 4.3,-0.8 v 5.8 c -2.1,0.1 -4.4,1.3 -6.1,2.7 1.8,-0.6 4,-1.3 6.1,-1.2 v 5.1 c -1,-0.2 -4.1,0.7 -5.6,1.7 1.2,-0.2 3.9,-0.6 5.6,-0.1 v 5.8 z"
         id="path20"
         style="fill:#223763;fill-opacity:1" />
      <path
         id="path22"
         style="fill:#223763;fill-opacity:1"
         d="m 273.49805,549.51758 c -6.0416,-0.0478 -11.65313,2.78437 -14.89063,8.29687 -3.3,5.5 -3,14.09922 1,19.19922 8.8,14.1 33.39922,10.40078 33.19922,31.30078 4.7,-1.9 8.60039,-6.80078 9.40039,-11.80078 1.5,-7.3 -1.59961,-13.9 -7.59961,-18 -1.9,-1 -3.80039,-1.89844 -5.90039,-2.39844 l 0.5,-3.5 c -4,-0.2 -9.19961,0.29961 -11.09961,-3.90039 -0.3,-1.5 -0.2,-3.20078 1,-4.30078 3.1,-2.8 7.9,-1.39922 12,-1.69922 l 1.29883,-6.59961 -16.09961,-2.90039 c -0.5,-1 -0.29922,-2.5 -0.19922,-3.5 -0.875,-0.125 -1.74629,-0.19043 -2.60937,-0.19726 z m 0.47851,9.45312 c 1.29004,0.0147 2.55469,0.40625 3.42969,1.34375 0.4,0.5 0.6,1.1 0,1.5 -1.6,0.8 -2.7,0.59922 -4.5,0.19922 -0.8,-0.3 -1.89844,-1.19961 -1.89844,-2.09961 0.3,-0.3 0.49922,-0.49961 0.69922,-0.59961 0.7125,-0.225 1.49551,-0.35254 2.26953,-0.34375 z"
         transform="translate(-114.00714,-474.61429)" />
      <path
         class="st4"
         d="m 167.6,94.1 c -0.2,0.7 -0.3,1.5 -0.5,2.2 6.9,-6.6 17.3,5.9 21.2,-5.1 l 0.2,-1.6 c -6.6,5.9 -16.3,-5.3 -20.9,4.5 z"
         id="path24"
         style="fill:#dd2413;fill-opacity:1" />
      <path
         class="st3"
         d="m 106.7,128.6 c 4,4.1 8,8.5 9.4,13.8 h 6.4 c -0.3,-2.1 -1.3,-4.3 -2.8,-6.2 1.5,0.4 2.9,2.5 3.9,3.8 0,0 1,1.4 1.3,2.4 h 5.3 c -0.5,-2.3 -1.8,-4.3 -3.3,-6.1 2.2,1.1 4.4,3.7 5.4,6.1 h 5.7 c -0.8,-5.4 -6.9,-9.1 -11.5,-11.1 -4.2,-3.7 2.3,-6.7 0.2,-10.9 -6.8,2.6 -12.8,6.9 -20,8.2 z"
         id="path26"
         style="fill:#223763;fill-opacity:1" />
    </g>
    <g
       id="g44"
       transform="matrix(0.29489061,0,0,0.29489061,102.51947,93.542009)"
       style="fill:#ffffff;fill-opacity:1">
      <path
         class="st2"
         d="m 211.7,223.5 c 0.5,-8.2 9,-16.4 3,-24.9 -2.9,-4.1 -9.3,-1.4 -11,-6.9 L 203,188 c 2.1,-1.5 4.7,-3 5.4,-5.7 0.4,-2.1 -0.1,-4.3 -1.2,-6 -1.5,-1.9 -3.5,-2.7 -5.9,-2.7 -4.1,0.7 -7.6,1.9 -11.9,3 -8.5,2.6 -19.7,3.4 -28.1,0.1 -1.3,-0.5 -1.1,-1.9 -0.8,-2.6 0.4,-0.7 1.2,-0.4 1.2,-0.4 10.8,2.5 22.6,0.1 32.5,-3.5 3.2,1.2 6.9,0.3 9.5,-1.4 2.7,-1.9 4.1,-4.9 6.8,-6.8 -6.5,-0.2 -14.7,-3.1 -18.9,3.5 -9.1,3 -20.2,4.9 -29.6,2.4 -4.1,-0.6 -5.7,1.8 -6.8,4.5 -0.8,2.4 -0.4,5.4 1.4,7.1 2.9,2.8 6.9,3.4 10.6,4 12.2,1.6 33.1,-4.4 33.8,-4.5 0.8,-0.1 1.9,0.3 1.8,1.3 -0.1,1 -1.1,1.7 -2.5,2.3 -1.4,0.6 -8.7,3 -11.8,3.5 -3.1,0.5 -7.4,1 -11.4,1.1 -8.9,0.1 -16.4,-0.9 -24.5,-2.3 -6.6,11.8 -20.1,12.2 -29.2,20.6 -2.6,3.2 -4.2,7.1 -4.2,11.4 1.8,1 4,1.1 6.2,1 0.1,-2.8 0.8,-5.3 2.2,-7.6 -0.7,2.2 -1.2,5.3 -0.2,7.5 l 4.5,-1.3 c -0.4,-2.1 -0.6,-5.2 0.2,-7.4 0.1,2.4 0.2,4.8 1.7,6.5 11.5,-5 19.5,-20 34,-14.7 8.9,3.4 16.7,10 27.8,7.8 1.9,0 4.6,-1.9 5.8,0 2.1,6.3 -7.4,6.5 -8.6,15.5 h 5.3 c 0.7,-2.3 2.1,-4.3 4,-6 -1,1.8 -1.9,3.9 -2.2,6 h 4.7 c 0.1,-1.5 1,-4.2 2.7,-6 -0.5,1.3 -1.7,4.1 -1.5,6 h 6.1 z"
         id="path32"
         style="fill:#ffffff;fill-opacity:1" />
      <path
         class="st2"
         d="m 80.2,219.3 c 8.7,-0.9 17.8,9 27.3,3.3 4.7,-3.4 7.9,-4.8 7.9,-4.8 -6.8,-4.2 -10.7,-11.8 -9.3,-19.9 1,-5.2 4.5,-9.8 9.3,-12.8 -6.2,0.8 -14,0.5 -18,-4.9 -4.3,-6.3 -8.2,-16.3 -17.3,-16.6 v 5.1 c 2.1,0.9 4.3,1.5 6,3.4 -1.4,-0.7 -3.9,-1.5 -6,-1.6 v 0.5 5 0.3 c 2.1,0 4.2,1 5.8,2.1 -1.8,-0.4 -3.3,-1 -5.8,-0.6 v 6 c 1.8,-0.2 4.8,0.5 6.5,1.4 5.9,4.5 6.5,13.6 14.7,15.8 l 3.9,0.5 c -1.8,3.7 -5.2,8 -10,7.6 -4.6,-0.7 -6.6,-6 -11,-7.9 -2.8,-1.1 -4.1,-0.8 -4.1,-0.8 v 5.5 c 2,0.1 4.2,1.2 5.8,2.5 -1.7,-0.6 -3.8,-1.3 -5.8,-1.2 v 4.9 c 1,-0.2 3.9,0.7 5.4,1.6 -1.2,-0.2 -3.7,-0.6 -5.4,-0.1 v 5.7 z"
         id="path34"
         style="fill:#ffffff;fill-opacity:1" />
      <path
         id="path36"
         style="fill:#ffffff;fill-opacity:1"
         d="m 249.80859,634.27344 c -0.82851,-0.006 -1.66445,0.0406 -2.50195,0.14062 0.1,1 0.30078,2.50039 -0.19922,3.40039 l -15.40039,2.69922 1.19922,6.40039 c 3.9,0.4 8.5,-0.99883 11.5,1.70117 1.2,1 1.3,2.69961 1,4.09961 -1.8,4 -6.79961,3.49922 -10.59961,3.69922 l 0.5,3.40039 c -2,0.5 -3.89922,1.40078 -5.69922,2.30078 -5.8,4 -8.70078,10.29883 -7.30078,17.29883 0.8,4.8 4.5,9.50078 9,11.30078 -0.2,-20 23.30078,-16.5 31.80078,-30 3.9,-4.9 4.2,-13.10039 1,-18.40039 -3.0625,-5.3375 -8.49922,-7.9959 -14.29883,-8.04101 z m -0.43164,9.06836 c 0.72422,-0.0182 1.45586,0.0859 2.13086,0.27343 0.2,0.2 0.49922,0.39961 0.69922,0.59961 0,0.9 -1.00078,1.8 -1.80078,2 -1.7,0.4 -2.79883,0.59883 -4.29883,-0.20117 -0.6,-0.4 -0.4,-0.99844 0,-1.39844 0.875,-0.875 2.0625,-1.24316 3.26953,-1.27343 z"
         transform="translate(-114.00714,-474.61429)" />
      <path
         class="st4"
         d="m 128,178 c 0.2,0.7 0.3,1.4 0.5,2.1 -6.6,-6.3 -16.6,5.6 -20.3,-4.9 l -0.2,-1.5 c 6.4,5.7 15.7,-5 20,4.3 z"
         id="path38"
         style="fill:#dd2413;fill-opacity:1" />
      <path
         class="st2"
         d="m 186.4,211.1 c -3.8,3.9 -7.7,8.1 -9,13.2 h -6.1 c 0.3,-2 1.3,-4.2 2.7,-6 -1.4,0.4 -2.8,2.4 -3.8,3.7 0,0 -1,1.3 -1.3,2.3 h -5 c 0.5,-2.2 1.7,-4.1 3.2,-5.8 -2.1,1 -4.2,3.5 -5.2,5.8 h -5.4 c 0.8,-5.2 6.6,-8.7 11,-10.6 4,-3.5 -2.2,-6.4 -0.2,-10.4 6.5,2.4 12.2,6.6 19.1,7.8 z"
         id="path40"
         style="fill:#ffffff;fill-opacity:1" />
    </g>
    <path
       class="st3"
       d="m 113.81378,119.19749 c -0.32437,0.14745 -0.64875,0.38336 -0.82569,0.70774 -0.11796,0.23592 -0.17693,0.64876 0.11796,0.7962 0.29488,0.14745 0.61926,-0.14744 0.79619,-0.32438 l 0.2949,-0.29489 c 0.58978,-0.58978 1.23854,-0.97314 2.09372,-0.5308 0.50132,0.2654 0.97314,0.67825 1.0911,1.26803 0.11795,0.58978 -0.0295,1.20905 -0.2949,1.71036 -0.35387,0.64876 -0.91415,1.17956 -1.56291,1.50395 l -0.76671,-1.15008 c 0.47182,-0.17693 0.91415,-0.44233 1.17956,-0.91416 0.17693,-0.32438 0.17693,-0.73723 -0.17694,-0.91416 -0.38336,-0.20642 -0.79621,0.2654 -1.03211,0.50132 -0.67825,0.70774 -1.20905,1.15007 -2.21169,0.61927 -1.03211,-0.5603 -1.327,-1.68088 -0.76671,-2.68351 0.2654,-0.5308 0.76671,-1.06161 1.29751,-1.38598 z"
       id="path46"
       style="fill:#223763;stroke-width:0.29489" />
    <path
       class="st3"
       d="m 119.56414,110.88158 c 0.67826,0.059 1.20907,0.26539 1.73987,0.73723 1.44495,1.26803 1.47444,3.18481 0.26539,4.54131 -0.47182,0.5308 -1.12058,0.91416 -1.79883,1.09109 l 0.0295,1.00263 -0.88468,0.0295 -0.0295,-1.00262 c -0.67825,-0.0885 -1.23854,-0.2949 -1.85781,-0.8257 -1.26803,-1.12058 -1.32701,-3.03737 -0.14744,-4.39387 0.44233,-0.50131 1.12058,-1.03212 1.79882,-1.12058 l -0.059,-1.03212 0.88468,-0.0295 z m -0.82569,1.68087 c -0.26539,0.059 -0.5308,0.2654 -0.70773,0.47183 -0.58979,0.67825 -0.5603,1.71036 0.059,2.27066 0.23591,0.20642 0.50131,0.35386 0.76672,0.41285 z m 1.00263,3.12585 c 0.2949,-0.11797 0.5308,-0.23592 0.73723,-0.50132 0.58978,-0.67825 0.5308,-1.71037 -0.20643,-2.38862 -0.20641,-0.17693 -0.41284,-0.29488 -0.64875,-0.32437 z"
       id="path48"
       style="fill:#223763;stroke-width:0.29489" />
    <path
       class="st3"
       d="m 122.33612,107.07748 1.26804,-0.82569 4.2759,1.41548 v 0 l -1.97576,-2.9784 1.26802,-0.82569 3.21431,4.86569 -1.26803,0.82569 -4.3054,-1.44495 v 0 l 1.97577,2.97839 -1.26803,0.82569 z"
       id="path50"
       style="fill:#223763;stroke-width:0.29489" />
    <path
       class="st3"
       d="m 131.09437,101.97588 2.03475,-0.70774 c 1.53343,-0.5308 3.21431,0.20642 3.77459,1.76934 0.5603,1.53344 -0.29488,3.18482 -1.82831,3.74512 l -2.03475,0.70773 z m 2.94891,3.7746 0.32438,-0.11795 c 0.85518,-0.2949 1.41548,-1.03213 1.03212,-2.09373 -0.35387,-0.97314 -1.17956,-1.29752 -2.12322,-0.97314 l -0.32437,0.11795 z"
       id="path52"
       style="fill:#223763;stroke-width:0.29489" />
    <path
       class="st3"
       d="m 141.41554,100.5604 0.11796,0.97315 1.71037,-0.20643 0.17693,1.26803 -1.71037,0.20643 0.11797,1.00262 1.79882,-0.23591 0.17693,1.26803 -3.30277,0.41285 -0.73723,-5.779864 3.30279,-0.41284 0.14744,1.268034 z"
       id="path54"
       style="fill:#223763;stroke-width:0.29489" />
    <path
       class="st3"
       d="m 151.58927,105.07223 -1.8873,-0.14744 -1.26803,-2.32964 h -0.0295 l -0.17693,2.24117 -1.50394,-0.11796 0.44233,-5.809337 2.27066,0.176934 c 1.15008,0.0885 1.97577,0.707738 1.8873,1.946273 -0.059,0.7962 -0.56029,1.47445 -1.38598,1.56292 z m -3.09635,-3.45022 h 0.14744 c 0.50131,0.0295 1.06161,-0.0295 1.0911,-0.64876 0.059,-0.61927 -0.50131,-0.76672 -1.00262,-0.79621 h -0.14746 z"
       id="path56"
       style="fill:#223763;stroke-width:0.29489" />
    <path
       class="st3"
       d="m 158.22431,100.73734 -1.06161,3.80409 c -0.32437,1.17956 -1.17956,1.79884 -2.4181,1.47445 -0.61927,-0.17694 -1.03212,-0.61927 -1.20906,-1.23854 l 1.0911,-0.64876 c 0.0885,0.26541 0.26541,0.58978 0.47183,0.64876 0.44233,0.11796 0.56029,-0.41284 0.64876,-0.70774 l 1.03211,-3.7451 z"
       id="path58"
       style="fill:#223763;stroke-width:0.29489" />
    <path
       class="st3"
       d="m 161.55657,101.88741 1.6219,0.8257 0.2654,1.91678 1.68088,-0.91416 1.6219,0.8257 -3.30278,1.73985 -1.26802,2.50658 -1.35651,-0.67825 1.26803,-2.50657 z"
       id="path60"
       style="fill:#223763;stroke-width:0.29489" />
    <path
       class="st3"
       d="m 171.22898,109.76099 c -0.059,-0.35387 -0.23591,-0.70774 -0.5308,-0.94364 -0.20642,-0.17694 -0.61927,-0.2949 -0.82569,-0.0295 -0.20643,0.2654 0.0295,0.61927 0.17693,0.85518 l 0.23592,0.32438 c 0.47182,0.70774 0.70773,1.41547 0.11795,2.1527 -0.35387,0.44233 -0.85518,0.82569 -1.47446,0.82569 -0.58977,0 -1.17956,-0.2359 -1.62189,-0.61926 -0.56029,-0.47183 -0.97314,-1.12059 -1.17957,-1.79884 l 1.26804,-0.5308 c 0.0885,0.50131 0.2654,1.00262 0.64875,1.327 0.26541,0.23592 0.67826,0.32439 0.94366,0 0.2654,-0.32438 -0.0885,-0.82569 -0.29489,-1.09108 -0.5603,-0.8257 -0.88467,-1.386 -0.17694,-2.27067 0.73723,-0.91415 1.8873,-0.97313 2.80146,-0.23591 0.44233,0.38336 0.88467,0.97314 1.12059,1.53343 z"
       id="path62"
       style="fill:#223763;stroke-width:0.29489" />
    <path
       class="st3"
       d="m 177.71658,114.56771 1.17956,1.47445 -3.62715,-0.0885 -0.85519,3.89256 -1.20905,-1.53344 0.76672,-3.09635 v 0 l -1.97577,1.56292 -0.94365,-1.17956 4.57081,-3.62716 0.94364,1.17957 -1.88729,1.50394 v 0 z"
       id="path64"
       style="fill:#223763;stroke-width:0.29489" />
    <path
       class="st3"
       d="m 180.34111,121.29121 -0.88468,0.44235 0.76672,1.53342 -1.15008,0.5603 -0.76672,-1.53344 -0.88467,0.44234 0.79621,1.6219 -1.15008,0.56029 -1.47444,-2.9784 5.21956,-2.56554 1.47445,2.97839 -1.15006,0.56029 z"
       id="path66"
       style="fill:#223763;stroke-width:0.29489" />
    <path
       class="st3"
       d="m 112.6637,149.30583 c 0.0885,-0.23592 0.11797,-0.47184 0.059,-0.70774 -0.059,-0.17694 -0.2359,-0.38336 -0.44233,-0.32438 -0.20642,0.059 -0.20642,0.35387 -0.23591,0.5308 v 0.2654 c 0,0.56029 -0.14745,1.03211 -0.73723,1.20905 -0.35387,0.11796 -0.76671,0.14744 -1.12058,-0.0885 -0.32438,-0.20642 -0.56029,-0.56029 -0.67824,-0.94364 -0.14746,-0.47183 -0.11797,-0.97314 0.0295,-1.41547 l 0.91415,0.17693 c -0.14744,0.29489 -0.2359,0.64876 -0.11795,0.97313 0.059,0.23592 0.26541,0.44235 0.50131,0.35387 0.26541,-0.0885 0.23592,-0.50131 0.23592,-0.70773 0,-0.64876 0.0295,-1.0911 0.73723,-1.32701 0.73723,-0.23591 1.41547,0.14745 1.6219,0.88468 0.11795,0.38334 0.14744,0.85518 0.059,1.23854 z"
       id="path70"
       style="fill:#223763;stroke-width:0.29489" />
    <path
       class="st3"
       d="m 115.3767,154.84976 c -0.23591,0.41285 -0.47182,0.67826 -0.88467,0.88467 -1.15007,0.5603 -2.32964,0.059 -2.83095,-1.00262 -0.20643,-0.41285 -0.29489,-0.91416 -0.20643,-1.38598 l -0.61926,-0.23592 0.20643,-0.5308 0.61926,0.23591 c 0.23592,-0.38336 0.50131,-0.67824 1.00262,-0.91416 1.00264,-0.47182 2.21169,-0.0295 2.713,1.06161 0.20643,0.41285 0.35387,0.94365 0.20643,1.38598 l 0.64875,0.23592 -0.20642,0.5308 z m -2.97839,-1.15007 c 0,0.20643 0,0.38336 0.11795,0.58979 0.26541,0.5308 0.91416,0.76671 1.50395,0.47182 0.14744,-0.0885 0.29489,-0.17693 0.35387,-0.32438 z m 2.18219,0.20643 c 0.0295,-0.17694 -0.0295,-0.38336 -0.0885,-0.5308 -0.26541,-0.53081 -0.91417,-0.79621 -1.386,-0.5603 -0.20641,0.0885 -0.35387,0.20643 -0.44233,0.35387 z"
       id="path72"
       style="fill:#223763;stroke-width:0.29489" />
    <path
       class="st3"
       d="m 117.05758,156.41269 0.58978,0.82569 -0.88467,2.86044 v 0 l 1.94627,-1.3565 0.58979,0.8257 -3.15533,2.24116 -0.58978,-0.82569 0.88467,-2.86044 v 0 l -1.94628,1.3565 -0.58979,-0.82569 z"
       id="path74"
       style="fill:#223763;stroke-width:0.29489" />
    <path
       class="st3"
       d="m 120.56678,161.04246 1.00262,1.03213 c 0.73723,0.76671 0.76672,2.00525 0,2.74248 -0.76671,0.76672 -2.00526,0.70774 -2.74247,-0.059 l -1.00264,-1.03212 z m -1.47446,2.83095 0.14745,0.14746 c 0.41285,0.44233 1.00263,0.56028 1.56292,0.0295 0.50132,-0.47183 0.44234,-1.09109 0,-1.53343 L 120.62575,162.34 Z"
       id="path76"
       style="fill:#223763;stroke-width:0.29489" />
    <path
       class="st3"
       d="m 124.5478,165.93766 -0.41284,0.50131 0.88467,0.70774 -0.5308,0.67824 -0.88467,-0.70774 -0.41286,0.53081 0.94366,0.73723 -0.5308,0.67824 -1.73987,-1.35649 2.38862,-3.03738 1.73985,1.3565 -0.5308,0.67824 z"
       id="path78"
       style="fill:#223763;stroke-width:0.29489" />
    <path
       class="st3"
       d="m 128.44035,172.10087 -1.09109,-0.64876 -0.059,-1.76934 v 0 l -0.76671,1.26802 -0.85518,-0.50131 1.97576,-3.33227 1.29752,0.76672 c 0.64875,0.38336 0.97314,1.00263 0.56029,1.71037 -0.2654,0.47182 -0.76672,0.70773 -1.29752,0.50131 z m -0.82569,-2.9784 0.0885,0.059 c 0.29489,0.17694 0.61926,0.29489 0.85518,-0.059 0.20643,-0.35386 -0.059,-0.58978 -0.35387,-0.76671 l -0.0885,-0.059 z"
       id="path80"
       style="fill:#223763;stroke-width:0.29489" />
    <path
       class="st3"
       d="m 133.60094,170.18408 -1.03211,2.38861 c -0.32438,0.73723 -0.94366,1.0911 -1.71037,0.73723 -0.38336,-0.17694 -0.61927,-0.50131 -0.67825,-0.91416 l 0.76672,-0.32438 c 0.0295,0.17693 0.11795,0.41285 0.23591,0.47182 0.2654,0.11796 0.41284,-0.20642 0.50131,-0.41284 l 1.00263,-2.32964 z"
       id="path82"
       style="fill:#223763;stroke-width:0.29489" />
    <path
       class="st3"
       d="m 135.01642,170.77385 1.15008,0.32439 0.41283,1.20905 0.97315,-0.8257 1.15007,0.32439 -1.91679,1.53343 -0.50131,1.79883 -0.97315,-0.2654 0.50133,-1.79884 z"
       id="path84"
       style="fill:#223763;stroke-width:0.29489" />
    <path
       class="st3"
       d="m 142.24123,173.39839 c -0.14744,-0.17693 -0.38336,-0.32439 -0.61926,-0.35387 -0.17693,-0.0295 -0.44234,0.059 -0.47183,0.2654 -0.0295,0.23591 0.23591,0.35387 0.38336,0.44234 l 0.23591,0.11795 c 0.50132,0.23592 0.88468,0.5603 0.7962,1.17956 -0.059,0.38336 -0.20641,0.76672 -0.5308,0.97315 -0.32438,0.20642 -0.76671,0.26539 -1.15007,0.20642 -0.47182,-0.059 -0.94365,-0.2949 -1.29752,-0.61928 l 0.5308,-0.73722 c 0.20643,0.2654 0.50131,0.47183 0.8257,0.5308 0.23591,0.0295 0.50132,-0.059 0.53081,-0.32438 0.0295,-0.26539 -0.32439,-0.44233 -0.53081,-0.5308 -0.58978,-0.2654 -1.00263,-0.50131 -0.88467,-1.23854 0.11795,-0.76672 0.73722,-1.20905 1.50394,-1.0911 0.38336,0.059 0.85518,0.23592 1.15008,0.47183 z"
       id="path86"
       style="fill:#223763;stroke-width:0.29489" />
    <path
       class="st3"
       d="m 146.98897,172.63167 h 1.23854 l -1.53343,1.82833 1.68089,2.03474 h -1.29753 l -1.29752,-1.68087 v 0 1.68087 h -1.00262 v -3.86307 h 1.00262 v 1.59241 0 z"
       id="path88"
       style="fill:#223763;stroke-width:0.29489" />
    <path
       class="st4"
       d="m 151.05846,173.16247 0.0885,0.64876 1.12059,-0.14744 0.11795,0.85518 -1.12058,0.14744 0.0885,0.64877 1.17955,-0.14745 0.11796,0.85519 -2.18219,0.29488 -0.50131,-3.83357 2.18218,-0.2949 0.11797,0.85519 z"
       id="path90"
       style="fill:#dd2413;stroke-width:0.29489" />
    <path
       class="st3"
       d="m 155.80621,174.46 1.17956,-0.2949 0.20642,0.8257 -2.1527,0.56028 -0.97314,-3.7451 0.97314,-0.23591 z"
       id="path92"
       style="fill:#223763;stroke-width:0.29489" />
    <path
       class="st3"
       d="m 160.11161,173.98816 -0.94365,0.35387 -1.32701,-3.62715 0.94365,-0.35386 z"
       id="path94"
       style="fill:#223763;stroke-width:0.29489" />
    <path
       class="st3"
       d="m 163.73877,172.36626 -0.91417,0.44235 -1.32701,-2.713 -0.73722,0.35387 -0.38336,-0.76671 2.38861,-1.17957 0.38336,0.76672 -0.73723,0.35387 z"
       id="path96"
       style="fill:#223763;stroke-width:0.29489" />
    <path
       class="st3"
       d="m 165.59657,167.82495 0.35387,0.53081 0.94365,-0.61927 0.47182,0.70774 -0.94364,0.61926 0.35387,0.5603 1.00263,-0.64876 0.47182,0.70774 -1.85781,1.20905 -2.09372,-3.2438 1.85781,-1.20905 0.47182,0.70774 z"
       id="path98"
       style="fill:#223763;stroke-width:0.29489" />
    <path
       class="st3"
       d="m 169.99044,164.69912 c -0.23591,0 -0.50131,0.0885 -0.67825,0.2359 -0.14744,0.11796 -0.26539,0.35387 -0.11795,0.5308 0.14744,0.17694 0.41285,0.059 0.58979,0 l 0.2359,-0.11795 c 0.50131,-0.23591 1.00264,-0.29489 1.41548,0.20643 0.23591,0.29488 0.44234,0.64875 0.35386,1.0616 -0.059,0.38336 -0.29488,0.73723 -0.58977,0.97314 -0.38336,0.32439 -0.85519,0.50132 -1.32701,0.5308 l -0.20643,-0.88467 c 0.32438,0 0.67825,-0.059 0.94366,-0.2654 0.17693,-0.14744 0.29488,-0.41285 0.11795,-0.61927 -0.17694,-0.20642 -0.5603,-0.0295 -0.73723,0.059 -0.58977,0.2654 -1.03212,0.41285 -1.50394,-0.14745 -0.50131,-0.58977 -0.41285,-1.35649 0.17694,-1.8578 0.29488,-0.26541 0.73723,-0.47184 1.12059,-0.53081 z"
       id="path100"
       style="fill:#223763;stroke-width:0.29489" />
    <path
       class="st3"
       d="m 171.05205,162.3105 1.03212,-1.15007 c 0.56028,-0.61928 1.23854,-0.79621 1.8873,-0.17694 0.67824,0.61927 0.64875,1.23854 0.059,1.8873 l -0.38336,0.41285 0.94365,0.85518 -0.67824,0.73723 z m 2.00526,0.44234 0.11795,-0.11797 c 0.23591,-0.26539 0.47183,-0.5308 0.14745,-0.85518 -0.35387,-0.32437 -0.58978,-0.0885 -0.85519,0.20643 l -0.11795,0.11795 z"
       id="path102"
       style="fill:#223763;stroke-width:0.29489" />
    <path
       class="st3"
       d="m 177.95249,156.3832 c 1.03212,0.67825 1.29752,1.91679 0.58978,2.9489 -0.67825,1.03212 -1.91679,1.29753 -2.9489,0.61928 -0.97315,-0.64877 -1.0911,-1.94628 -0.47183,-2.88993 0.58978,-0.91417 1.85781,-1.32702 2.83095,-0.67825 z m -1.79883,2.68351 c 0.56029,0.35387 1.23854,0.2359 1.56292,-0.26541 0.32438,-0.50131 0.20643,-1.17956 -0.35387,-1.53343 -0.44234,-0.2949 -1.12059,-0.14744 -1.44496,0.35387 -0.32438,0.47182 -0.20643,1.15007 0.23591,1.44497 z"
       id="path104"
       style="fill:#223763;stroke-width:0.29489" />
    <path
       class="st3"
       d="m 182.05147,152.46115 -0.53081,1.15007 -1.73985,0.23592 v 0 l 1.35651,0.61927 -0.41285,0.91415 -3.5092,-1.62188 0.61926,-1.35651 c 0.32438,-0.70774 0.88468,-1.0616 1.65139,-0.73723 0.47183,0.23592 0.76671,0.67826 0.64876,1.23854 z m -2.86044,1.12059 0.0295,-0.0885 c 0.14746,-0.2949 0.23592,-0.64877 -0.14744,-0.8257 -0.38336,-0.17694 -0.58978,0.14744 -0.73723,0.44234 l -0.0295,0.0885 z"
       id="path106"
       style="fill:#223763;stroke-width:0.29489" />
    <path
       class="st3"
       d="m 183.23104,149.01093 -0.2949,0.97314 -2.88992,-0.88467 -0.23592,0.7962 -0.82569,-0.2654 0.7962,-2.53606 0.8257,0.26541 -0.23591,0.7962 z"
       id="path108"
       style="fill:#223763;stroke-width:0.29489" />
  </g>
</svg>
