<svg xmlns="http://www.w3.org/2000/svg" viewBox="0.0 0.0 203.7 249.4" width="285.75985054763726" height="349.9441919792355">
  <defs>
    <style>
      .cls-1 {
        fill: #fff;
      }
    </style>
  </defs>
  <g>
    <g>
      <path d="M43.5,33.2c0,2.8-.6,4.9-1.8,6.4s-2.8,2.4-4.9,2.9c-2.1.5-4.7.7-7.8.7s-5.9-.2-8.1-.7c-2.2-.5-4-1.4-5.6-2.8-1.5-1.4-2.3-3.8-2.3-7.3h8c0,1.2.7,2.1,2,2.8,1.3.7,3.2,1,5.7,1,2.7,0,4.4-.3,5.3-.9s1.3-1.2,1.3-2c0-.6-.4-1-1.3-1.3-.9-.2-2-.5-3.4-.7-1.4-.2-2.7-.4-4-.6-1.3-.1-2.6-.3-3.8-.4s-2.4-.4-3.6-.7c-1.2-.4-2.3-.8-3.2-1.4-.9-.6-1.6-1.5-2.1-2.7s-.8-2.5-.8-3.9c0-2.4.5-4.3,1.6-5.7,1-1.4,2.7-2.4,5-2.9,2.3-.6,5.1-.8,8.5-.8s6.1.3,8.1.8c2,.6,3.7,1.6,5,3,1.4,1.5,2.1,3.6,2.1,6.5h-7.8c0-.9-.6-1.6-1.9-2.2s-3-.9-5.3-.9c-2.7,0-4.5.2-5.3.6-.8.4-1.2.9-1.2,1.6,0,.9.5,1.4,1.6,1.5,1.1.1,2.1.3,3.3.4,1.1.1,2.3.3,3.7.4,1.4.2,2.6.3,3.8.5,1.2.2,2.4.4,3.6.7,1.2.3,2.3.7,3.1,1.4.9.7,1.5,1.6,1.9,2.7.4,1.2.6,2.5.6,4Z"/>
      <path d="M76.4,23.1c0,3.3-.8,5.8-2.5,7.6-1.7,1.8-4.9,2.7-9.8,2.7h-8v9h-8.9V12.8h16.7c2.6,0,4.9.4,6.9,1.2s3.4,2,4.3,3.5c.9,1.5,1.3,3.4,1.3,5.6Z"/>
      <polygon points="88.7 19.8 88.7 24 105.3 24 105.3 30.8 88.7 30.8 88.7 35.5 106.1 35.5 106.1 42.5 79.7 42.5 79.7 12.8 106.1 12.8 106.1 19.8 88.7 19.8"/>
      <polygon points="137.5 20 120.8 35.3 137.5 35.3 137.5 42.5 109.6 42.5 109.6 35.3 126.2 20 109.5 20 109.5 12.8 137.5 12.8 137.5 20"/>
      <rect x="141" y="12.8" width="8.9" height="29.7"/>
      <polygon points="191.6 42.6 181.9 42.6 180 37.5 165.1 37.5 163 42.6 153.3 42.6 165.6 12.9 179.3 12.9 191 41.15 191.6 42.6"/>
      <path d="M89.4,210.5v10h-2.9v-5.7h-2.1v-2c1.4-.1,2.5-.9,2.8-2.3h2.2Z"/>
      <path d="M97.7,211.5c-.7-.6-1.7-1-2.9-1-2.5,0-4.3,1.4-4.3,3.6s1.7,3.5,3.7,3.5c.9,0,1.6-.4,2.1-.9-.1,1.4-.7,2.1-1.7,2.1-.8,0-1.2-.4-1.3-.8h-2.7c.3,1.7,1.8,2.8,4.1,2.8,1.5,0,2.5-.4,3.3-1.3.8-.9,1.2-2.3,1.2-3.8,0-1.9-.4-3.3-1.5-4.2ZM94.7,215.6c-.9,0-1.5-.6-1.5-1.5,0-.8.6-1.5,1.5-1.5s1.5.6,1.5,1.5c0,.8-.6,1.5-1.5,1.5Z"/>
      <path d="M104.2,210.4c-2.7,0-4.6,2.1-4.6,5.2s2,5.2,4.6,5.2,4.6-2,4.6-5.2-1.8-5.2-4.6-5.2ZM104.2,218.6c-1.2,0-1.7-1.2-1.7-3s.5-3.1,1.7-3.1,1.7,1.3,1.7,3.1-.5,3.1-1.7,3Z"/>
      <path d="M114.4,213.7c-1,0-1.6.4-2.2.9.2-1.4.8-2.2,1.8-2.2.7,0,1,.4,1.1.8h2.8c-.4-1.8-1.8-2.8-3.9-2.8-1.4,0-2.6.5-3.4,1.4-.8,1-1.2,2.3-1.2,3.8,0,3.3,1.6,5.2,4.5,5.2,2.5,0,4.2-1.4,4.2-3.6s-1.7-3.5-3.7-3.5ZM113.9,218.8c-.9,0-1.5-.6-1.5-1.5s.6-1.5,1.5-1.5,1.5.6,1.5,1.5c0,.8-.6,1.4-1.5,1.5Z"/>
      <path d="M191,41.15v1.45h.6l-.6-1.45Z"/>
      <path d="M0,0v67.2c0,29.2,5.2,56.9,15.4,82.3,8.1,20.3,19.6,39.2,34,56,24.3,28.8,48.6,41.8,49.6,42.3l2.9,1.6,2.9-1.5c1-.5,25.2-13.5,49.6-42.3,14.3-16.9,25.7-35.8,33.9-56.1,10.2-25.4,15.4-53,15.4-82.3V0H0ZM141,12.8h8.9v29.7h-8.9V12.8ZM109.5,12.8h28v7.2l-16.7,15.3h16.7v7.2h-27.9v-7.2l16.6-15.3h-16.7v-7.2ZM79.7,12.8h26.4v7h-17.4v4.2h16.6v6.8h-16.6v4.7h17.4v7h-26.4V12.8ZM47.2,12.8h16.7c2.6,0,4.9.4,6.9,1.2s3.4,2,4.3,3.5c.9,1.5,1.3,3.4,1.3,5.6,0,3.3-.8,5.8-2.5,7.6-1.7,1.8-4.9,2.7-9.8,2.7h-8v9h-8.9V12.8ZM34,32c-.9-.2-2-.5-3.4-.7-1.4-.2-2.7-.4-4-.6-1.3-.1-2.6-.3-3.8-.4-1.2-.1-2.4-.4-3.6-.7-1.2-.4-2.3-.8-3.2-1.4s-1.6-1.5-2.1-2.7-.8-2.5-.8-3.9c0-2.4.5-4.3,1.6-5.7,1-1.4,2.7-2.4,5-2.9,2.3-.6,5.1-.8,8.5-.8s6.1.3,8.1.8c2,.6,3.7,1.6,5,3,1.4,1.5,2.1,3.6,2.1,6.5h-7.8c0-.9-.6-1.6-1.9-2.2-1.3-.6-3-.9-5.3-.9-2.7,0-4.5.2-5.3.6-.8.4-1.2.9-1.2,1.6,0,.9.5,1.4,1.6,1.5,1.1.1,2.1.3,3.3.4,1.1.1,2.3.3,3.7.4,1.4.2,2.6.3,3.8.5s2.4.4,3.6.7c1.2.3,2.3.7,3.1,1.4.9.7,1.5,1.6,1.9,2.7.4,1.2.6,2.5.6,4,0,2.8-.6,4.9-1.8,6.4s-2.8,2.4-4.9,2.9c-2.1.5-4.7.7-7.8.7s-5.9-.2-8.1-.7c-2.2-.5-4-1.4-5.6-2.8-1.5-1.4-2.3-3.8-2.3-7.3h8c0,1.2.7,2.1,2,2.8s3.2,1,5.7,1c2.7,0,4.4-.3,5.3-.9.9-.6,1.3-1.2,1.3-2,0-.6-.4-1-1.3-1.3ZM12.6,67.2v-11.4h70.28c-32.9,8.3-57.38,38.2-57.38,73.7,0,5.34.55,10.55,1.61,15.58-9.64-23.84-14.51-49.85-14.51-77.88ZM145.1,197c-18,21.4-36.3,33.7-43.3,38-7-4.3-25.2-16.6-43.3-38-3.71-4.42-7.21-8.96-10.47-13.6,13.7,13.6,32.57,22,53.37,22,22.26,0,42.29-9.6,56.19-24.88-3.83,5.65-8,11.15-12.49,16.48ZM101.4,195c-36.1,0-65.5-29.4-65.5-65.5s29.4-65.5,65.5-65.5,65.5,29.4,65.5,65.5-29.4,65.5-65.5,65.5ZM191,67.2c0,29.77-5.46,57.27-16.31,82.3,1.75-6.37,2.69-13.08,2.71-20,0-35.5-24.48-65.4-57.44-73.7h71.04v11.4ZM181.9,42.6l-1.9-5.1h-14.9l-2.1,5.1h-9.7l12.3-29.7h13.7l11.7,28.25.6,1.45h-9.7Z"/>
      <path class="cls-1" d="M191,55.8v11.4c0,29.77-5.46,57.27-16.31,82.3,1.75-6.37,2.69-13.08,2.71-20,0-35.5-24.48-65.4-57.44-73.7h71.04Z"/>
      <path class="cls-1" d="M101.4,205.4c-20.8,0-39.67-8.4-53.37-22,3.26,4.64,6.76,9.18,10.47,13.6,18.1,21.4,36.3,33.7,43.3,38,7-4.3,25.3-16.6,43.3-38,4.49-5.33,8.66-10.83,12.49-16.48-13.9,15.28-33.93,24.88-56.19,24.88ZM89.4,220.5h-2.9v-5.7h-2.1v-2c1.4-.1,2.5-.9,2.8-2.3h2.2v10ZM98,219.5c-.8.9-1.8,1.3-3.3,1.3-2.3,0-3.8-1.1-4.1-2.8h2.7c.1.4.5.8,1.3.8,1,0,1.6-.7,1.7-2.1-.5.5-1.2.9-2.1.9-2,0-3.7-1.4-3.7-3.5s1.8-3.6,4.3-3.6c1.2,0,2.2.4,2.9,1,1.1.9,1.5,2.3,1.5,4.2,0,1.5-.4,2.9-1.2,3.8ZM104.2,220.8c-2.6,0-4.6-2-4.6-5.2s1.9-5.2,4.6-5.2,4.6,2,4.6,5.2-2,5.2-4.6,5.2ZM113.9,220.8c-2.9,0-4.5-1.9-4.5-5.2,0-1.5.4-2.8,1.2-3.8.8-.9,2-1.4,3.4-1.4,2.1,0,3.5,1,3.9,2.8h-2.8c-.1-.4-.4-.8-1.1-.8-1,0-1.6.8-1.8,2.2.6-.5,1.2-.9,2.2-.9,2,0,3.7,1.3,3.7,3.5s-1.7,3.6-4.2,3.6Z"/>
      <path class="cls-1" d="M115.4,217.3c0,.8-.6,1.4-1.5,1.5-.9,0-1.5-.6-1.5-1.5s.6-1.5,1.5-1.5,1.5.6,1.5,1.5Z"/>
      <path class="cls-1" d="M96.2,214.1c0,.8-.6,1.5-1.5,1.5s-1.5-.6-1.5-1.5c0-.8.6-1.5,1.5-1.5s1.5.6,1.5,1.5Z"/>
      <path class="cls-1" d="M105.9,215.6c0,1.8-.5,3.1-1.7,3-1.2,0-1.7-1.2-1.7-3s.5-3.1,1.7-3.1,1.7,1.3,1.7,3.1Z"/>
      <path class="cls-1" d="M101.4,64c-36.1,0-65.5,29.4-65.5,65.5s29.4,65.5,65.5,65.5,65.5-29.4,65.5-65.5-29.4-65.5-65.5-65.5ZM122.6,177c-11.22,0-21.2-6.15-27.35-15.6h-44.95v-12.8h39.55c-.69-2.97-1.05-6.09-1.05-9.3,0-4.43.68-8.74,1.99-12.79l-26.09-17.01h.1c-.8-.5-7.2-4.8-7.2-13.4s8.1-16,17.7-16h34.7v12.9h-34.6c-2.7,0-4.9,2-4.9,3.2,0,1.6,1.1,2.5,1.3,2.6.13.07,15.03,9.78,24.94,16.25.52-.7,1.08-1.39,1.66-2.05,6.4-7.3,15-11.3,24.2-11.4,5.5,0,10.9,1.5,15.7,4.3l-6.5,11.1c-2.9-1.6-6-2.5-9.2-2.5-5.5,0-10.7,2.5-14.6,7-.15.17-.3.35-.43.53,4.56,2.99,13.03,9.77,13.03,18.77,0,7.88-4.34,14.36-11.26,17.83,3.62,3.48,8.23,5.57,13.26,5.57,6.4,0,12.5-3.5,16.5-9.6l10.7,7.1c-6.3,9.6-16.5,15.3-27.2,15.3Z"/>
      <path class="cls-1" d="M25.5,129.5c0,5.34.55,10.55,1.61,15.58-9.64-23.84-14.51-49.85-14.51-77.88v-11.4h70.28c-32.9,8.3-57.38,38.2-57.38,73.7Z"/>
      <path d="M139.1,154.6c-4,6.1-10.1,9.6-16.5,9.6-5.03,0-9.64-2.09-13.26-5.57,6.92-3.47,11.26-9.95,11.26-17.83,0-9-8.47-15.78-13.03-18.77.13-.18.28-.36.43-.53,3.9-4.5,9.1-7,14.6-7,3.2,0,6.3.9,9.2,2.5l6.5-11.1c-4.8-2.8-10.2-4.3-15.7-4.3-9.2.1-17.8,4.1-24.2,11.4-.58.66-1.14,1.35-1.66,2.05-9.91-6.47-24.81-16.18-24.94-16.25-.2-.1-1.3-1-1.3-2.6,0-1.2,2.2-3.2,4.9-3.2h34.6v-12.9h-34.7c-9.6,0-17.7,7.3-17.7,16s6.4,12.9,7.2,13.4h-.1l26.09,17.01c-1.31,4.05-1.99,8.36-1.99,12.79,0,3.21.36,6.33,1.05,9.3h-39.55v12.8h44.95c6.15,9.45,16.13,15.6,27.35,15.6s20.9-5.7,27.2-15.3l-10.7-7.1ZM102.76,147.55c-.75-2.55-1.16-5.29-1.16-8.15,0-1.87.17-3.71.52-5.48,3,2.32,5.58,5.19,5.58,6.88,0,3.8-2.4,5.75-4.94,6.75Z"/>
      <path class="cls-1" d="M107.7,140.8c0,3.8-2.4,5.75-4.94,6.75-.75-2.55-1.16-5.29-1.16-8.15,0-1.87.17-3.71.52-5.48,3,2.32,5.58,5.19,5.58,6.88Z"/>
      <g>
        <path class="cls-1" d="M43.5,33.2c0,2.8-.6,4.9-1.8,6.4s-2.8,2.4-4.9,2.9c-2.1.5-4.7.7-7.8.7s-5.9-.2-8.1-.7c-2.2-.5-4-1.4-5.6-2.8-1.5-1.4-2.3-3.8-2.3-7.3h8c0,1.2.7,2.1,2,2.8,1.3.7,3.2,1,5.7,1,2.7,0,4.4-.3,5.3-.9s1.3-1.2,1.3-2c0-.6-.4-1-1.3-1.3-.9-.2-2-.5-3.4-.7-1.4-.2-2.7-.4-4-.6-1.3-.1-2.6-.3-3.8-.4s-2.4-.4-3.6-.7c-1.2-.4-2.3-.8-3.2-1.4-.9-.6-1.6-1.5-2.1-2.7s-.8-2.5-.8-3.9c0-2.4.5-4.3,1.6-5.7,1-1.4,2.7-2.4,5-2.9,2.3-.6,5.1-.8,8.5-.8s6.1.3,8.1.8c2,.6,3.7,1.6,5,3,1.4,1.5,2.1,3.6,2.1,6.5h-7.8c0-.9-.6-1.6-1.9-2.2s-3-.9-5.3-.9c-2.7,0-4.5.2-5.3.6-.8.4-1.2.9-1.2,1.6,0,.9.5,1.4,1.6,1.5,1.1.1,2.1.3,3.3.4,1.1.1,2.3.3,3.7.4,1.4.2,2.6.3,3.8.5,1.2.2,2.4.4,3.6.7,1.2.3,2.3.7,3.1,1.4.9.7,1.5,1.6,1.9,2.7.4,1.2.6,2.5.6,4Z"/>
        <path class="cls-1" d="M75.1,17.5c-.9-1.5-2.3-2.7-4.3-3.5s-4.3-1.2-6.9-1.2h-16.7v29.6h8.9v-9h8c4.9,0,8.1-.9,9.8-2.7,1.7-1.8,2.5-4.3,2.5-7.6,0-2.2-.4-4.1-1.3-5.6ZM66.5,25.7c-.4.6-1.5.9-3.1.9v.1h-7.5v-6.7h7.8c1.4,0,2.4.3,2.8.9.4.6.6,1.4.6,2.4s-.2,1.8-.6,2.4Z"/>
        <polygon class="cls-1" points="88.7 19.8 88.7 24 105.3 24 105.3 30.8 88.7 30.8 88.7 35.5 106.1 35.5 106.1 42.5 79.7 42.5 79.7 12.8 106.1 12.8 106.1 19.8 88.7 19.8"/>
        <polygon class="cls-1" points="137.5 20 120.8 35.3 137.5 35.3 137.5 42.5 109.6 42.5 109.6 35.3 126.2 20 109.5 20 109.5 12.8 137.5 12.8 137.5 20"/>
        <rect class="cls-1" x="141" y="12.8" width="8.9" height="29.7"/>
        <path class="cls-1" d="M191,41.15l-11.7-28.25h-13.7l-12.3,29.7h9.7l2.1-5.1h14.9l1.9,5.1h9.7l-.6-1.45ZM168.1,30.3l4.1-10.1h.7l4.1,10.1h-8.9Z"/>
      </g>
    </g>
  </g>
</svg>