<svg xmlns="http://www.w3.org/2000/svg" xmlns:xlink="http://www.w3.org/1999/xlink" version="1.1" baseProfile="tiny" id="Livello_1" x="0px" y="0px" viewBox="-288.0 165.3 283.0 283.0" xml:space="preserve" width="316.22776601683796" height="316.22776601683796">
<g>
</g>
<g>
	<circle fill-rule="evenodd" fill="#231F20" cx="-146.5" cy="306.6" r="141.5"/>
	<circle fill-rule="evenodd" fill="#FFFFFF" cx="-146.5" cy="306.6" r="137.7"/>
	<circle fill-rule="evenodd" fill="#231F20" cx="-147.3" cy="307.4" r="44.3"/>
	<g>
		<path fill-rule="evenodd" fill="#BB2026" d="M-126.8,221.9c0.1,0,0.2-0.1,0.2-0.1c-4.3-0.8-9-1.5-13.8-2.3    c-2.9-0.1-5.8-0.2-8.7-0.2c0,0.1,0.1,0.2,0.1,0.2c-4.1,3.6-8.2,7.1-12.3,10.7c-0.1,0.2-0.2,0.4-0.4,0.6c8-1.7,16-3.4,24-5    C-133.3,224.7-129.1,224.8-126.8,221.9z M-178.9,226.7c5.7-1.4,14.1-1.3,16.6-5.9c0.1,0,0.2-0.1,0.2-0.1c-0.2,0-0.4-0.1-0.6-0.1    c-2,0.4-4,0.9-6,1.3c-4.9,1.4-12.2,3.2-15.9,5.9h-0.2C-183.3,228.2-180.3,227-178.9,226.7z M-110.2,227.5    c-2.6-1.1-5.2-2.2-7.8-3.2c-0.3,1-5.6,5.5-6.6,6c-0.1,0.1-0.2,0.2-0.2,0.4c4.8-1,9.7-1.9,14.5-2.9    C-110.3,227.7-110.3,227.6-110.2,227.5z M-159.4,264.7c0,0.1-0.1,0.2-0.1,0.2c2-0.4,4.1-0.8,6.1-1.2c2.6-0.5,6.1,0.5,8.7-0.1    c-0.7-0.4,6.4-1.6,7.7-1.9c2.6-0.5,5.3-1,7.9-1.6c9.7-8.4,19.5-16.8,29.2-25.2c0.3-0.3,0.6-0.6,0.8-1c-0.2-0.1-0.3-0.2-0.5-0.4    c-0.7,0.9-24,5-31.9,6.6C-140.7,248.3-150.1,256.5-159.4,264.7z M-172,233.7h-0.7c-8.3,1.7-16.6,3.4-24.9,5.2    c-1.4,0.3-5.1,0.5-5.6,0.8c-1.1,1-2.2,2-3.2,3c-5.6,4.5-14.2,14.7-17.1,21.8c7.1-1.4,14.1-2.9,21.2-4.3    C-192.3,251.3-182.2,242.5-172,233.7z M-135.4,233.7h-0.7c-10.7,2.2-21.5,4.4-32.2,6.6c-10,8.8-20,17.6-30.1,26.3    c0.5,0.4,27.6-5.5,32.6-6.5c10.1-8.7,20.2-17.5,30.3-26.2C-135.4,233.8-135.4,233.7-135.4,233.7z M-124.9,266.7    c10.8-2.2,21.6-4.4,32.5-6.6c2.9-2.5,5.8-5,8.7-7.5c0.9-0.8,1.8-2.1,3-2.5c-2.2-3.4-7.4-8.5-10.8-10.7c-1.1,0.3-2.2,0.6-3.4,0.8    c-5.2,4.5-24.9,21.8-29.6,26C-124.7,266.4-124.8,266.6-124.9,266.7z M-88.2,266.8c5.6-1.2,11.2-2.3,16.8-3.5    c-1.2-2.3-2.9-5.7-4.8-7.3c-3.9,3.4-7.8,6.8-11.7,10.2C-88,266.4-88.1,266.6-88.2,266.8z M-209.4,270.9c-4.8,1-9.5,2-14.3,3    c-1.3,0.3-3.9,1.1-4.8,0.6c-1.2,5.7-4.4,11-4.8,17.7c8.2-7.1,16.4-14.2,24.6-21.3H-209.4z M-111.7,282.1c1.1-0.3,11.7-9.7,13-11.2    h-0.6c-6.1,1.3-12.3,2.6-18.4,3.8h-0.2C-116.3,277.5-113.1,279.1-111.7,282.1z M-234.4,304c10.6-2.2,21.2-4.3,31.7-6.5    c2.9-2.6,14.9-12.9,18-15.5c0.6-0.5,2.5-2.7,3-2.3c1.7-1.6,2.9-3.7,4.7-5.2c1.4-1.2,2.9-2.3,4.3-3.5h-0.6    c-10.6,2.2-21.2,4.3-31.7,6.5c-7.2,6.3-28,25.6-29.6,25.7c0,0.2,0.1,0.3,0.1,0.5V304z M-107.5,288.7c-0.2,0.2-0.1,0.2,0,0.6    c0.7,1.8,1.4,3.5,2,5.3c0.4,1.6,0.8,3.3,1.2,4.9c0.1,0.1,10.9-1.6,11.8-2.2c6.4-5.5,12.8-11.1,19.2-16.6c1.9-1.5,5-5.5,7.2-6.1    c-0.3-0.9-0.6-2.2-1.3-2.8c-9.1,1.8-18.3,3.7-27.4,5.5C-99,281.2-103.2,284.9-107.5,288.7z M-88.2,304c9.3-1.9,18.6-3.8,27.9-5.6    c0-4.1-1.6-13.5-3.1-16.2c-8.1,7.1-16.3,14.3-24.4,21.4C-88,303.7-88.1,303.8-88.2,304z M-190.6,297.2c-2.6,2.3-5.1,4.6-7.7,6.9    c2.3-0.5,4.6-1,7-1.4C-191.1,300.9-190.9,299-190.6,297.2z M-208.9,306.9c-6.1,1.2-12.3,2.5-18.4,3.7c-1.9,0.5-5.3,1.7-7.1,1.3    c0.2,2.2,0.4,4.5,0.6,6.7c0.6,2.8,1.1,5.6,1.7,8.4c0.1,0,0.2,0.1,0.2,0.1c7.7-6.8,15.5-13.5,23.2-20.3H-208.9z M-103.6,307.8    c0,1.2-0.1,2.3-0.1,3.5c1.7-1.4,3.4-2.9,5-4.3v-0.1C-100.3,307.2-102,307.5-103.6,307.8z M-62,306.9h-0.2l-32.5,6.6l-9,7.8    c-0.7,0.5-2.3,2.8-3.1,2.5c-0.3,0.8-0.6,1.5-0.8,2.3c-1.2,2-2.3,4.1-3.5,6.1c-1.6,1.9-3.1,3.8-4.7,5.8l-0.2,0.2    c7.9-1.6,15.8-3.2,23.7-4.8C-86.6,328.3-62.7,308-62,306.9z M-202.4,333.4c4.4-3.8,8.8-7.7,13.2-11.5c-0.1-0.6-2.5-11-2.5-11.1    c-4.4,0.9-8.7,1.8-13.1,2.6c-6.2,5.4-12.3,10.8-18.5,16.2c-1.9,1.5-4,4.8-6.4,5.5c0.4,1.2,0.9,2.5,1.3,3.7c1.4-1,4-0.9,5.9-1.3    C-215.8,336.2-209.1,334.8-202.4,333.4z M-88.2,340c5.5-1.1,11-2.2,16.5-3.2c1.8-0.4,5.5-1.8,7-1.3c0.6-2,1.3-4,1.9-6    c1-3.2,1.2-6.4,1.9-9.9c0.2-1.4,0.3-2.7,0.5-4.1c-9.1,8-18.2,15.9-27.3,23.9C-87.9,339.6-88.1,339.8-88.2,340z M-197.9,339.6    c-0.1,0.2-0.2,0.4-0.4,0.6c5.9-1.2,11.8-2.4,17.7-3.6c-2-2.3-3.5-5.1-5.4-7.6C-186.3,329.7-196.8,339.1-197.9,339.6z     M-208.9,344.1c-5.2,1-10.3,2.1-15.5,3.1c1.3,2.2,2.6,4.5,3.8,6.7c0.1,0.1,0.2,0.2,0.4,0.2c3.8-3.4,7.7-6.7,11.5-10.1H-208.9z     M-161.3,376.9c-0.1,0.1-0.2,0.2-0.2,0.4l32.5-6.6c6.1-5.3,30.1-25.6,30.3-26.6c-10.9,2.2-21.9,4.5-32.8,6.7    C-141.5,359.5-151.4,368.2-161.3,376.9z M-172.4,344.7c0.1-0.1,0.2-0.2,0.2-0.4c-0.2,0-0.4-0.1-0.6-0.1c-10.7,2.2-21.3,4.3-32,6.5    c-3.7,3.2-7.5,6.4-11.2,9.6c1.5,2.4,7.6,9.6,10,10.7c1.7,1.8,7.6-4,8.8-4.9C-188.9,359-180.6,351.9-172.4,344.7z M-95,350.9    c-9.9,8.7-19.7,17.3-29.6,26c-0.1,0.2-0.2,0.3-0.4,0.5c10.8-2.2,21.6-4.4,32.5-6.6c4-3.6,8.1-7.1,12.1-10.7    c4.3-3.4,6-5.5,8.9-10.3c0.7-1.1,1.9-2.4,2-4h-0.4C-78.1,347.4-86.6,349.1-95,350.9z M-165.8,370.7l22.2-19.2    c0-0.1,0.1-0.2,0.1-0.2c-7.3,0-12.3-0.6-17.9-2c0,0.1,0.1,0.2,0.1,0.2c-2.3,0.4-4.6,0.9-7,1.3c-6.5,5.7-27.8,25.7-30.3,26.4    c0.5,0.4,2.6-0.2,3.8-0.5c3.9-0.8,7.8-1.7,11.7-2.5C-177.2,373-171.5,371.9-165.8,370.7z M-188.4,383.4v0.1    c2.7,1.2,5.3,2.8,8.3,3.8c2.7-2.4,5.4-4.8,8.1-7.2h-0.2C-177.6,381.3-183,382.3-188.4,383.4z M-135.6,380.2    c-2.2,0.4-23.9,4.8-32.6,6.6c-1.2,1.2-2.5,2.3-3.7,3.5c6.1,1.9,13.4,3.6,21.3,3.5c0.4-1.2,3.2-2.9,4.3-3.8    c3.6-3.2,7.3-6.4,10.9-9.6C-135.4,380.3-135.5,380.2-135.6,380.2z M-138.2,392.7c-0.2,0.2-0.4,0.5-0.6,0.7    c10.2,0,22.5-4.7,29.6-8.3c1.6-0.8,7.1-3.2,7.5-4.3c-9.9,2-19.8,4-29.7,6C-133.8,388.8-136,390.7-138.2,392.7z"/>
	</g>
	<path fill-rule="evenodd" fill="#BB2026" d="M-240.7,308.5c0-0.6,0-1.2,0-1.9c0-52,42.2-94.2,94.2-94.2s94.2,42.2,94.2,94.2   c0,0.6,0,1.2,0,1.8l39.2,0.8c0-0.9,0-1.7,0-2.6c0-73.7-59.7-133.4-133.4-133.4s-133.4,59.7-133.4,133.4c0,0.9,0,1.8,0,2.6   L-240.7,308.5z"/>
	<g>
		<path fill-rule="evenodd" fill="#FFFFFF" d="M-153.2,178.1c-1.4,0.1-2.8,0.2-4.2,0.2c-1.9,0.3-3.9,0.6-5.8,0.8v30.4    c11.3,2.1,22.8-1.4,26.4-8.4c1.3-2.5,2.3-6.5,1.7-10.2C-136.7,181.3-142,178-153.2,178.1z M-151.1,203.1c-0.8,0.2-2.7,0.6-3.6,0.2    c-0.7-0.6,0-3.1-0.2-4.5c0-4.7-0.1-9.4-0.1-14c0.3-0.1,0.6-0.2,1-0.2c5-0.1,8.1,0.9,9.5,4.3C-141.7,195.6-145.7,201.9-151.1,203.1    z M-104.7,184.9c0-0.1-0.1-0.2-0.1-0.2c-7.8-1.9-15.6-3.8-23.4-5.7c-0.5,2.3-1,4.5-1.4,6.8c2.4,0.6,4.8,1.3,7.3,1.9    c0.1,0,0.2,0.1,0.4,0.1c-1.6,7.6-3.2,15.3-4.8,22.9c0.2,1,6.5,2.1,7.8,2.5c1.3-5.8,2.5-11.6,3.8-17.4c0.4-1.8,0.4-4.8,1.4-6.2    c2.5,0.6,5.1,1.2,7.6,1.8C-105.7,189.3-105.2,187.1-104.7,184.9z M-175.3,187.3c-0.6-1.9-1.3-3.9-1.9-5.8    c-0.2-0.4-0.1-0.3-0.6-0.4c-2.4,0.9-4.8,1.8-7.1,2.7c0,0-0.1,0.1-0.1,0.1c0.6,2,1.3,4,1.9,5.9    C-181.9,190.3-177.1,187.7-175.3,187.3z M-192.2,193.6l-2-6.1h-0.5c-2.4,0.9-4.8,1.8-7.3,2.7c0,0-0.1,0.1-0.1,0.1    c0.7,2,1.3,4,2,6.1C-198.6,196.6-193.8,194.3-192.2,193.6z M-98.4,187.6c-3.8,9.5-7.5,18.9-11.3,28.4c0.3,0.9,6.2,3.2,7.5,3.7    c3.8-9.6,7.6-19.2,11.4-28.8C-91.8,190-96.9,187.9-98.4,187.6z M-174.2,191.3c-2.5,1-5,2.1-7.5,3.1c1.6,3.6,5.4,12.7,0.2,14.9    c-5.6,2.4-8.6-7.3-9.3-11.3c-1.2-0.4-6.1,2.2-7.8,2.6c0.5,1.5,1,3.1,1.5,4.6c1.4,4.2,2.8,7.9,6.2,10.1c5.2,3.5,12.9,0.1,16.4-2.7    c4.8-3.8,4-10.4,2.1-16.4C-172.7,194.8-173,192-174.2,191.3z M-65.7,209c-1.4-3.7-11.6-12.5-15.7-13.1c-5.6,8.3-11.2,16.6-16.8,25    c-0.2,0.5,5,4.5,6.1,4.9c0.1,0.1,0.2,0.2,0.2,0.2c2.1-3.1,4.3-6.3,6.4-9.4c0.1,0,0.2-0.1,0.2-0.1c4.3,2.7,2.8,5,1.3,9.3    c-0.5,1.6-1,3.2-1.4,4.9c1.5,1.9,4.8,4,6.9,5.1c1.3-5.2,4.4-9.6,3-15.8C-69.4,220.6-63.1,215.9-65.7,209z M-81.5,211.6    c-0.2-0.2-0.1,0-0.2-0.4c1.3-1.9,2.5-3.8,3.8-5.7c2.4,0.3,5.9,3.7,4.2,6.7C-75.6,215.2-79.8,213.6-81.5,211.6z M-209.7,209.7    c-1.9,0.4-5.3,2.3-7.4,1.3c-0.6-0.3-0.8-0.6-1.1-1.2c0-3.6,5.1-5.9,8.3-6.3c-0.2-1.8-1.3-5.4-2.4-6.5h-0.2    c-1.5,0.6-2.9,1.1-4.4,1.7c-4.6,2.7-12.4,9.3-7.7,16.9c0.7,1.1,1.5,2.2,2.6,2.9c5.1,3.1,11.9-2,15.1-0.4c1.6,0.7,1.3,2.8,0.2,3.9    c-1.9,2-5.4,4.2-8.9,4.4c0,0.1-0.1,0.2-0.1,0.2c0.8,2.1,1.6,4.1,2.4,6.2c1.8,0.7,5-1.4,6.3-2.1c4.4-2.7,12.4-9.3,8-16.8    C-200.8,210.9-204.4,208.6-209.7,209.7z M-239.8,244.5c-5.4-3.6-6.1-9.2-1.9-14.5c0.8-1,1.6-2.1,2.9-2.6c0.1-0.1,0.2-0.2,0.2-0.4    c-1-1.4-2.9-4.4-4.5-5.1c-1.3,1.3-2.9,2.2-4,3.7c-4.5,5.8-7.1,14.8-1.9,22c3.2,4.4,10.7,9.4,18.3,6.3c5.5-2.3,9.3-7.9,11.2-13.9    c-2-1-4-2-5.9-3C-226.9,242.8-232.9,249-239.8,244.5z M-41.5,233.5c-1.5-4.9-5.4-9.2-10.3-10.7c-1.3-0.2-2.7-0.4-4-0.6    c-1.3,0.2-2.6,0.4-3.9,0.6c-4.8,1.5-8.7,4.8-11.1,8.8c-5.8,9.8,2.1,21.2,10.7,22.8C-49.7,256.4-38.1,244.4-41.5,233.5z     M-62.8,245.8c-6.4-4,0.3-11.7,3.8-13.9c1.4-0.9,3-1,4.8-1.7c4,0,7,3.5,5.5,7.8C-50,241.5-57.4,249.1-62.8,245.8z M-244.7,257.9    c-2-0.9-4-1.8-6.1-2.7c-1.3,3.3-2.5,6.6-3.8,9.9c-1.2,0.4-4.1-1.3-5.4-1.9c1.3-3.5,2.6-7,3.9-10.5c-0.2-0.8-5.1-2.7-6.2-3    c-2.3,6.2-4.7,12.4-7,18.7c9.5,4,19.1,7.9,28.7,11.9c1-2.5,1.9-5.1,2.9-7.6c-3.5-1.5-7.1-3-10.6-4.5    C-248.6,267.1-245.3,259.6-244.7,257.9z M-27.3,259.7c-0.2-1.6-2.2-7-3.1-7.8c-9.5,3.8-18.9,7.6-28.4,11.4c-0.3,1.6,1.3,4,1.9,5.5    c1.7,4.5,3.3,9,5,13.4c0.1,0,0.2,0.1,0.2,0.1c2-0.8,4-1.6,6.1-2.4c0.4-1.1-3.2-9.4-3.9-11.2C-42.1,265.7-34.7,262.7-27.3,259.7z"/>
	</g>
	<g>
		<path fill-rule="evenodd" fill="#FFFFFF" d="M-150.9,275.1c4.8,3.1,9.7,6.2,14.5,9.3c5,0,10.1-0.1,15.1-0.1v-10.7    c-4.8-3.4-9.4-5.8-16-7.6c-1.7-0.5-4.7-1.6-6.9-1.1c-1.8,0.7-3.6,1.4-5.3,2.1C-149.7,267.5-151.1,274.7-150.9,275.1z     M-174.2,284.5c2.2,0,4.4,0.1,6.5,0.1c3.3-2.1,6.6-4.1,9.9-6.2c2-1.2,4-2.3,5.9-3.5c0.4-2.7,0.9-5.4,1.3-8.1    c-1.6-0.5-2.8-1.5-4.8-1.5c-2.7,0.8-5.5,1.6-8.2,2.4c-4.1,1.7-15.4,8.7-16.7,12.3c0.2,1.4,0.3,2.8,0.5,4.2    C-177.9,284.5-176.1,284.5-174.2,284.5z M-126.9,316.1c2.8,0,5.6-0.1,8.4-0.1c2.4-5.2,4.8-10.5,7.1-15.7c-3.3-5-6.6-9.9-9.9-14.9    c-5,0-10-0.1-15-0.1c-2.3,5.6-4.6,11.1-6.9,16.7c3.1,4.6,6.3,9.2,9.4,13.8C-132.3,316.8-129,316.1-126.9,316.1z M-171.2,316.4    c3.1-3.1,4.9-8.1,7.3-11.9c0.5-0.8,2.3-2.5,2.1-3.8c-2.1-5-4.2-10-6.3-15c-2-0.9-9.1-0.4-11.7-0.4c-2.8,5.1-5.6,10.2-8.5,15.4    c1.7,4.9,3.5,9.8,5.2,14.6C-179.2,315.7-175.2,316.1-171.2,316.4z M-105.1,300.6c-1.8,0-3.6-0.1-5.3-0.1c-2.5,5.3-5,10.7-7.5,16    c0.6,4.4,1.1,8.7,1.7,13.1c1.4,0.6,2.8,1.2,4.2,1.8c0.9-0.9,1.4-2.2,2.1-3.4C-105.8,320.9-104.2,311.7-105.1,300.6z M-182.5,324.1    c-0.4-2.6-0.8-5.2-1.2-7.7c-1.1-2.9-2.2-5.7-3.3-8.6c-0.6-1.5-1.2-5.7-2.7-6.3c-2.2,8.1,1.1,18.8,3.5,24.2c0.9,1.7,1.9,3.3,2.8,5    c0.1,0.1,0.2,0.2,0.4,0.2c0.4-0.2,0.9-0.5,1.3-0.7C-181.1,328.9-182.1,325.7-182.5,324.1z M-160.9,301.5    c-3.1,5.2-6.2,10.3-9.3,15.5c2.1,3.5,4.1,6.9,6.2,10.4c0.8,1.4,1.5,3.7,2.8,4.6c6,0,11.9-0.1,17.9-0.1c3.1-5,6.2-10,9.3-15    c-3.2-4.7-6.5-9.4-9.7-14.2C-145.6,301.5-157.7,301.8-160.9,301.5z M-180.9,330.7c-0.5,0.3-1,0.6-1.5,0.8c0,0.1-0.1,0.2-0.1,0.4    c4.4,6.5,13.9,15.1,23.1,16.6v-0.1c-1.7-1.5-3.3-2.9-5-4.4C-169.8,339.6-175,334.7-180.9,330.7z M-121,333.6    c-5,3.4-10.8,6.6-14.5,11.3c-0.8,0.8-1.5,1.6-2.3,2.4c-0.7,0.8-1.5,1.5-2.2,2.3c9.5-1,24.4-10.2,27.4-17.3c-0.8-0.7-2.8-1.5-4-1.6    C-118.1,331.6-119.5,332.6-121,333.6z M-133.4,341.2c-3.4-2.8-6.8-5.6-10.2-8.5h-5.1c-4.3,0.1-8.6,0.2-12.8,0.2    c-1.9,2.3-3.9,4.5-5.8,6.8v0.2c0.8,1,8.8,8.2,9.7,8.5c5.6,0.2,11.2,0.4,16.8,0.6c1.8-1.9,3.6-3.8,5.3-5.7    C-134.8,342.6-134.1,341.9-133.4,341.2z"/>
	</g>
	<g>
		<path fill-rule="evenodd" fill="#231F20" d="M-46.3,315.4c-0.4,1.6-0.7,3.2-1.1,4.8c0,0.2,0,0.4,0,0.6c5.6,1.4,11.8,3.2,18.2,3.2    c0,0,0,0.1,0,0.1c-2.2,0.5-4.4,1.1-6.6,1.6c-4.5,1.4-9,2.9-13.4,4.3c-0.5,2.3-1.1,4.6-1.6,6.8c2.3,1.1,5.4,1.1,8.1,1.7    c6,1.2,12,2.4,18,3.7c0.4-1.7,0.7-3.4,1.1-5.1c-1-0.8-3-0.7-4.4-1c-4.5-1.1-9.7-2.7-14.7-2.8c0,0,0-0.1,0-0.1    c2.3-0.6,4.6-1.1,6.8-1.7c4.8-1.5,9.5-3,14.3-4.5c0.4-2,0.8-4,1.2-6c0,0,0-0.1,0-0.1C-29,319-37.6,317.2-46.3,315.4z     M-254.7,336.4c1.1,0.8,1.7,2,3.1,2.6c1.2,0.5,3,0.4,4.2,0c6.3-2.3,4.1-14.5,1.1-19.1c-0.3-0.4-0.1-0.3-0.7-0.4    c-8.2,2-16.4,4-24.6,6c-0.5,1.7,0.4,3.9,0.7,5.3c1.3,5.1,2.4,10.1,6.8,12C-259.1,344.8-254.7,340.8-254.7,336.4z M-255,327.6    c1.8-0.4,3.6-0.9,5.4-1.3c0.2,0,0.4,0,0.6,0c1,2.4,1.8,6.6-1.2,7.3c-3.3,0.8-4.6-3.5-4.8-5.9C-255,327.7-255,327.6-255,327.6z     M-266.5,331c0-0.2,0-0.4,0-0.6c2.3-0.6,4.6-1.1,6.8-1.7c0.2,0,0.3,0.1,0.5,0.1c0.4,2.3,1.5,5.8-0.5,7.3    C-263.7,339.3-265.6,334.1-266.5,331z M-35.9,356.9c-1.9-0.7-3.7-1.5-5.6-2.2c-0.4-2.4,3.1-6.5,3.4-9.3c-1.4-0.6-2.9-1.1-4.3-1.7    c-1.2,1.2-3.3,6.9-3.8,8.8c-1.4,0.1-3.7-1.4-5.1-2c1.3-3.2,2.6-6.4,3.9-9.5c-1.5-0.7-3-1.3-4.5-2c-2.1,5-4.2,10-6.4,15    c5.1,2.2,10.3,4.3,15.4,6.5c3.1,1.3,6.1,2.5,9.2,3.8c2.2-5.1,4.3-10.3,6.5-15.4c-0.8-0.9-3.3-1.8-4.6-2    C-33.2,350.3-34.5,353.6-35.9,356.9z M-243,367.6c12.9-5.6,10.7-24.8-5.7-24.6c-1.5,0.4-2.9,0.7-4.4,1.1c-3.3,1.3-6.1,3.8-7.8,6.7    c-4.9,8.5,3,17.2,10,18.5C-247.8,369.8-244.9,368.4-243,367.6z M-254.1,362.5c-1.4-0.8-2.2-2.1-2.7-3.8c-1.3-4.4,3.3-7.6,6.1-8.8    c1.4-0.4,2.9-0.7,4.3-1.1c4.6,0.1,8.6,4.2,5.7,8.9c-1.6,2.7-4.7,4.3-8.2,5.1C-250.5,363.3-252.7,363.3-254.1,362.5z M-47.8,377.6    c-0.1,0-0.2,0.1-0.4,0.1c-0.4-1-0.8-2-1.2-3.1c-1.8-4.3-5.6-17.9-9.9-18.9c-3.5,5.3-7.1,10.6-10.6,15.9c1.4,0.9,2.8,1.8,4.2,2.7    c2-3.1,4.1-6.1,6.1-9.2c0.1,0,0.2-0.1,0.2-0.1c1,1.1,1.3,3.1,1.8,4.5c1.6,4.1,5.3,16.1,8.8,17.6c0.1,0.1,0.2,0.2,0.2,0.2    c3.8-5.7,7.7-11.4,11.5-17.1c-1.3-0.9-2.7-1.8-4-2.7C-42.3,368.6-47.3,376-47.8,377.6z M-236.6,388.5c-2.1-2.6-4.2-5.2-6.4-7.8    c0-0.1,0-0.2,0-0.2c5.5-4.4,11.1-8.9,16.6-13.3c0-0.1,0-0.2,0-0.2c-0.8-1.2-2.5-4-3.9-4.5c-6.8,5.5-13.7,11-20.5,16.5    c3.5,4.3,6.9,8.6,10.4,13c1.2-0.9,2.4-1.9,3.7-2.8C-236.7,388.8-236.7,388.6-236.6,388.5z M-228,396.8c7-1.9,14-3.7,21-5.6    c0.7-0.8,1.5-1.6,2.2-2.4c0-0.1,0-0.2,0-0.2c-4.9-4.2-9.8-8.3-14.7-12.5c-1,1.2-2,2.4-3.1,3.5c0,0.1,0,0.2,0,0.2    c2.6,2.2,5.2,4.4,7.8,6.6c0.2,0.3,0.5,0.6,0.7,0.9c-7.2,1.9-14.3,3.8-21.5,5.7c-0.7,0.7-1.3,1.5-2,2.2c0,0.1,0,0.2,0,0.2    c5.1,4.4,10.3,8.9,15.4,13.3c0.1,0,0.2,0,0.2,0c1.1-1.2,2.1-2.4,3.2-3.7c-3.1-2.7-6.3-5.5-9.4-8.2C-228,396.8-228,396.8-228,396.8    z M-72.9,376.6c-4.9,2.1-8.8,3.8-10.4,9.2c-2.7,9.4,7.2,20.2,16.3,18C-51,399.8-55.2,376.3-72.9,376.6z M-66,398    c-5.8,2.3-14-6.9-11.7-12.5c0.9-2.2,2.6-2.5,4.9-3.4C-65.8,382.4-57.2,394.4-66,398z M-86.8,401.9c0,0-0.1,0-0.1,0    c0,0,0-0.1,0-0.1c3.1-5.2,1.3-10.1-6-9.9c-4.4,2.2-9.2,3.2-12.2,6.7c-0.2,0.2-0.1,0-0.2,0.4c4.2,7.4,8.5,14.8,12.7,22.2    c1.6,0.3,3.7-1.4,4.9-2.1c3.7-2.2,8.1-4.2,9.4-8.8C-76.9,405-81.7,400.3-86.8,401.9z M-98.3,399.3c1.1-1.2,2.6-1.6,4.2-2.3    c3.3-0.1,4.5,2.9,2.7,5.1c-1.2,0.8-2.4,1.6-3.7,2.4C-96.2,402.8-97.3,401.1-98.3,399.3z M-85,411.9c-0.9,1.3-2.8,2.3-4.3,2.9    c-1.3-2.1-2.5-4.2-3.8-6.4c1.1-1.3,3.1-1.6,4.9-2.3C-85,406.1-83.1,409.4-85,411.9z M-198.5,392.4c-6.5,6.4-13,12.8-19.6,19.2    c0,0.1,0,0.2,0,0.4c6.6,3.4,5.3,3.1,10.3-2.2c2.2,1.2,4.4,2.4,6.6,3.5c-0.4,2.4-0.9,4.7-1.3,7.1c1.8,1,3.7,2,5.5,2.9    c1.9-9,3.7-18,5.6-27C-192.1,395.4-197.3,392.6-198.5,392.4z M-199.6,408.6c-0.1,0.1-0.2,0.2-0.4,0.2c-1.5-0.8-3-1.6-4.5-2.4    c-0.1-0.1-0.2-0.2-0.2-0.4c2.4-2.6,4.8-5.2,7.2-7.8C-197.1,398.9-199.5,406.7-199.6,408.6z M-168.1,404.5    c-1.4,5.9-3.5,11.6-4.3,18.1c-0.4-2.2-0.8-4.5-1.2-6.7c-1.2-4.6-2.4-9.3-3.7-13.9c-2.2-0.6-4.5-1.1-6.7-1.7    c-2.3,8.5-4.6,16.9-6.8,25.4c0,0.1,0.1,0.2,0.1,0.2c1.7,0.4,3.3,0.9,5,1.3c0.1,0,0.2-0.1,0.2-0.1c1.5-6.1,3.8-12.1,4.6-18.6    c0.1,0,0.2-0.1,0.2-0.1c0.4,2.5,0.9,5,1.3,7.5c1.1,4.6,2.3,9.2,3.4,13.8c2,0.6,4.1,1.2,6.1,1.8c2.3-8.6,4.6-17.1,6.8-25.7    c-1.6-0.4-3.2-0.9-4.8-1.3C-167.8,404.5-167.9,404.5-168.1,404.5z M-151.1,406.2c-1.1,0.2-2.2,0.5-3.3,0.7c-3.5,1.2-6,4.1-7.3,7.5    c-3.9,9.9,2.9,21.2,13.8,19.2C-132.9,430.7-133,405.9-151.1,406.2z M-149.1,428.9c-6.2,1.2-8.2-6.8-6.8-12.2    c0.9-3.4,2.5-4.5,5.5-5.7C-141.1,410.8-141.5,427.4-149.1,428.9z M-119.3,413.3c-2.3,0.9-3.9,1.4-4.6,3.9    c-1.1,3.8,2.3,7.4,6.4,6.5C-111.9,422.4-112.6,413.2-119.3,413.3z"/>
	</g>
	<path fill="#231F20" d="M-146.5,397.2c-12.2,0-24.1-2.4-35.3-7.1c-10.8-4.6-20.5-11.1-28.8-19.4c-8.3-8.3-14.9-18-19.4-28.8   c-4.7-11.2-7.1-23-7.1-35.3s2.4-24.1,7.1-35.3c4.6-10.8,11.1-20.5,19.4-28.8c8.3-8.3,18-14.9,28.8-19.4c11.2-4.7,23-7.1,35.3-7.1   s24.1,2.4,35.3,7.1c10.8,4.6,20.5,11.1,28.8,19.4c8.3,8.3,14.9,18,19.4,28.8c4.7,11.2,7.1,23,7.1,35.3s-2.4,24.1-7.1,35.3   c-4.6,10.8-11.1,20.5-19.4,28.8c-8.3,8.3-18,14.9-28.8,19.4C-122.4,394.8-134.2,397.2-146.5,397.2z M-146.5,219.9   c-47.8,0-86.7,38.9-86.7,86.7s38.9,86.7,86.7,86.7s86.7-38.9,86.7-86.7S-98.7,219.9-146.5,219.9z"/>
</g>
</svg>